<?xml version="1.0" encoding="iso-8859-1"?>
<!-- Generator: Adobe Illustrator 19.0.0, SVG Export Plug-In . SVG Version: 6.00 Build 0)  -->
<svg version="1.1" id="Capa_1" xmlns="http://www.w3.org/2000/svg" xmlns:xlink="http://www.w3.org/1999/xlink" x="0px" y="0px"
	 viewBox="0 0 512.004 512.004" style="enable-background:new 0 0 512.004 512.004;" xml:space="preserve">
<polygon style="fill:#CCD1D9;" points="331.531,468.505 316.079,413.503 195.781,413.503 180.328,468.505 "/>
<path style="fill:#E6E9ED;" d="M458.512,28.499H53.514c-12.406,0-22.5,10.093-22.5,22.5v25.005c0,0,0,0,0,0.001v0.001v314.998
	c0,12.407,10.094,22.5,22.5,22.5h404.998c12.406,0,22.5-10.093,22.5-22.5V76.006V50.999
	C481.012,38.592,470.918,28.499,458.512,28.499z"/>
<path style="fill:#CCD1D9;" d="M458.512,28.499h-41.015c12.406,0,22.5,10.093,22.5,22.5v25.007v314.998
	c0,12.407-10.094,22.5-22.5,22.5h41.015c12.406,0,22.5-10.093,22.5-22.5V76.006V50.999
	C481.012,38.592,470.918,28.499,458.512,28.499z"/>
<rect x="51.01" y="81.002" style="fill:#5D9CEC;" width="410" height="270"/>
<rect x="440" y="81.002" style="fill:#4A89DC;" width="21.02" height="270"/>
<path style="fill:#E6E9ED;" d="M346.014,483.505h-180c-4.143,0-7.5-3.358-7.5-7.5s3.357-7.5,7.5-7.5h180c4.143,0,7.5,3.358,7.5,7.5
	C353.514,480.148,350.156,483.505,346.014,483.505z"/>
<path style="fill:#656D78;" d="M256.014,366c-8.271,0-15,6.729-15,15s6.729,15,15,15s15-6.729,15-15S264.285,366,256.014,366z"/>
<path style="fill:#DA4453;" d="M512,106.024c0-0.005,0-0.011,0-0.017c0-0.045-0.006-0.088-0.007-0.132
	c-0.003-0.201-0.012-0.402-0.031-0.603c-0.01-0.087-0.025-0.171-0.038-0.257c-0.021-0.157-0.041-0.314-0.073-0.471
	c-0.023-0.112-0.055-0.22-0.083-0.33c-0.032-0.127-0.062-0.254-0.101-0.379c-0.042-0.133-0.093-0.262-0.142-0.392
	c-0.037-0.099-0.071-0.198-0.112-0.296c-0.067-0.158-0.145-0.311-0.224-0.462c-0.034-0.067-0.064-0.136-0.101-0.203
	c-0.107-0.193-0.223-0.379-0.346-0.561c-0.016-0.025-0.029-0.051-0.046-0.076l-0.011-0.015c-0.007-0.011-0.014-0.021-0.022-0.032
	l-23.19-29.944c-0.291-0.423-0.623-0.816-0.995-1.173c-0.055-0.052-0.113-0.098-0.169-0.148c-0.128-0.116-0.256-0.232-0.393-0.34
	c-0.068-0.055-0.143-0.103-0.214-0.155c-0.131-0.097-0.261-0.193-0.398-0.282c-0.057-0.036-0.115-0.066-0.172-0.101
	c-0.159-0.097-0.319-0.192-0.486-0.278c-0.026-0.014-0.055-0.024-0.081-0.038c-1.065-0.532-2.271-0.838-3.554-0.838H30.988
	c-0.005,0-0.01,0-0.015,0c-0.229,0.001-0.459,0.014-0.688,0.034c-0.216,0.019-0.43,0.05-0.641,0.086
	c-0.061,0.01-0.122,0.015-0.182,0.027c-0.193,0.037-0.38,0.086-0.566,0.137c-0.055,0.015-0.109,0.025-0.163,0.04
	c-0.169,0.049-0.332,0.11-0.495,0.169c-0.072,0.027-0.148,0.049-0.22,0.078c-0.137,0.055-0.267,0.118-0.4,0.181
	c-0.096,0.045-0.193,0.086-0.289,0.135c-0.102,0.053-0.201,0.114-0.301,0.172c-0.119,0.068-0.238,0.133-0.353,0.208
	c-0.074,0.048-0.144,0.102-0.215,0.152c-0.134,0.092-0.267,0.184-0.395,0.285c-0.059,0.047-0.113,0.1-0.17,0.148
	c-0.132,0.11-0.264,0.219-0.387,0.339c-0.129,0.125-0.25,0.259-0.369,0.393c-0.045,0.049-0.092,0.093-0.135,0.143
	c-0.166,0.195-0.322,0.399-0.469,0.61c-0.001,0.001-0.002,0.002-0.003,0.004L1.339,101.796c-0.011,0.014-0.02,0.028-0.029,0.041
	l-0.007,0.01c-0.011,0.016-0.02,0.033-0.03,0.05c-0.129,0.19-0.251,0.386-0.362,0.588c-0.035,0.063-0.063,0.127-0.095,0.19
	c-0.08,0.156-0.16,0.312-0.229,0.474c-0.04,0.096-0.072,0.193-0.109,0.29c-0.051,0.132-0.102,0.262-0.144,0.397
	c-0.039,0.124-0.067,0.248-0.1,0.373c-0.028,0.112-0.06,0.222-0.084,0.336c-0.031,0.155-0.053,0.311-0.073,0.467
	c-0.013,0.087-0.028,0.172-0.038,0.26c-0.02,0.2-0.028,0.401-0.031,0.602C0.006,105.919,0,105.962,0,106.007
	c0,0.005,0,0.011,0,0.017c0,0.026,0.002,0.051,0.002,0.078c0.054,15.12,12.792,27.406,28.444,27.406
	c8.145,0,15.496-3.332,20.688-8.654c5.19,5.322,12.542,8.654,20.686,8.654c8.146,0,15.496-3.332,20.687-8.653
	c5.191,5.321,12.541,8.653,20.687,8.653c8.145,0,15.495-3.332,20.687-8.654c5.191,5.322,12.542,8.654,20.688,8.654
	c8.145,0,15.496-3.332,20.687-8.653c5.189,5.321,12.541,8.653,20.686,8.653s15.496-3.332,20.688-8.654
	c5.191,5.322,12.542,8.654,20.687,8.654s15.496-3.332,20.686-8.653c5.19,5.321,12.541,8.653,20.686,8.653s15.495-3.332,20.686-8.654
	c5.192,5.322,12.543,8.654,20.688,8.654s15.496-3.332,20.686-8.653c5.19,5.321,12.542,8.653,20.686,8.653
	c8.146,0,15.496-3.332,20.688-8.654c5.191,5.322,12.542,8.654,20.687,8.654c8.145,0,15.496-3.332,20.687-8.653
	c5.19,5.321,12.541,8.653,20.686,8.653s15.496-3.332,20.687-8.654c5.191,5.322,12.543,8.654,20.688,8.654
	c15.652,0,28.392-12.286,28.444-27.407C511.998,106.075,512,106.05,512,106.024z"/>
<path style="fill:#CE3A50;" d="M511.993,105.875c-0.003-0.201-0.012-0.402-0.031-0.603c-0.01-0.087-0.025-0.171-0.038-0.257
	c-0.021-0.157-0.041-0.314-0.073-0.471c-0.023-0.112-0.055-0.22-0.083-0.33c-0.032-0.127-0.062-0.254-0.101-0.379
	c-0.042-0.133-0.093-0.262-0.142-0.392c-0.037-0.099-0.071-0.198-0.112-0.296c-0.067-0.158-0.145-0.311-0.224-0.462
	c-0.034-0.067-0.064-0.136-0.101-0.203c-0.107-0.193-0.223-0.379-0.346-0.561c-0.016-0.025-0.029-0.051-0.046-0.076l-0.011-0.015
	c-0.007-0.011-0.014-0.021-0.022-0.032l-23.19-29.944c-0.291-0.423-0.623-0.816-0.995-1.173c-0.055-0.052-0.113-0.098-0.169-0.148
	c-0.128-0.116-0.256-0.232-0.393-0.34c-0.068-0.055-0.143-0.103-0.214-0.155c-0.131-0.097-0.261-0.193-0.398-0.282
	c-0.057-0.036-0.115-0.066-0.172-0.101c-0.159-0.097-0.319-0.192-0.486-0.278c-0.026-0.014-0.055-0.024-0.081-0.038
	c-1.065-0.532-2.271-0.838-3.554-0.838h-38.838c1.281,0,2.487,0.306,3.554,0.838c0.026,0.013,0.054,0.024,0.08,0.038
	c0.167,0.086,0.327,0.181,0.487,0.278c0.057,0.034,0.115,0.064,0.172,0.101c0.137,0.089,0.268,0.186,0.397,0.282
	c0.072,0.052,0.146,0.1,0.215,0.155c0.136,0.108,0.265,0.224,0.393,0.34c0.056,0.05,0.114,0.096,0.169,0.148
	c0.371,0.356,0.704,0.75,0.995,1.173l20.648,29.944c0.008,0.01,0.015,0.021,0.022,0.032l0.01,0.015
	c0.018,0.025,0.03,0.051,0.047,0.076c0.123,0.182,0.239,0.368,0.345,0.561c0.038,0.066,0.067,0.135,0.102,0.203
	c0.079,0.152,0.155,0.304,0.224,0.462c0.041,0.098,0.074,0.197,0.111,0.296c0.049,0.13,0.101,0.258,0.142,0.392
	c0.04,0.125,0.069,0.252,0.101,0.379c0.029,0.11,0.061,0.218,0.083,0.33c0.032,0.156,0.053,0.313,0.074,0.471
	c0.012,0.086,0.028,0.17,0.037,0.257c0.021,0.201,0.028,0.401,0.031,0.603c0.001,0.045,0.007,0.088,0.007,0.132
	c0,0.005,0,0.011,0,0.017c0,0.026-0.002,0.051-0.002,0.077c-0.025,7.351-3.055,14.026-7.953,18.951
	c0.066-0.067,0.137-0.131,0.202-0.198c5.191,5.322,12.543,8.654,20.688,8.654c15.652,0,28.392-12.286,28.444-27.407
	c0-0.025,0.002-0.051,0.002-0.077c0-0.005,0-0.011,0-0.017C512,105.963,511.994,105.92,511.993,105.875z"/>
<path style="fill:#ED5565;" d="M0,106.007c0,0.005,0,0.011,0,0.017c0,0.026,0.002,0.051,0.002,0.078
	c0.054,15.12,12.792,27.406,28.444,27.406c8.145,0,15.496-3.332,20.688-8.654c5.19,5.322,12.542,8.654,20.686,8.654
	c8.146,0,15.496-3.332,20.687-8.653c5.191,5.321,12.541,8.653,20.687,8.653c8.145,0,15.495-3.332,20.687-8.654
	c5.191,5.322,12.542,8.654,20.688,8.654c8.145,0,15.496-3.332,20.687-8.653c5.189,5.321,12.541,8.653,20.686,8.653
	s15.496-3.332,20.688-8.654c5.191,5.322,12.542,8.654,20.687,8.654s15.496-3.332,20.686-8.653c5.19,5.321,12.541,8.653,20.686,8.653
	s15.495-3.332,20.686-8.654c5.192,5.322,12.543,8.654,20.688,8.654s15.496-3.332,20.686-8.653c5.19,5.321,12.542,8.653,20.686,8.653
	c8.146,0,15.496-3.332,20.688-8.654c5.191,5.322,12.542,8.654,20.687,8.654c8.145,0,15.496-3.332,20.687-8.653
	c5.19,5.321,12.541,8.653,20.686,8.653s15.496-3.332,20.687-8.654c5.191,5.322,12.543,8.654,20.688,8.654
	c15.652,0,28.392-12.286,28.444-27.407c0-0.025,0.002-0.051,0.002-0.077c0-0.005,0-0.011,0-0.017H0z"/>
<path style="fill:#DA4453;" d="M470.619,106.007c0,0.005,0,0.011,0,0.017c0,0.026-0.002,0.051-0.002,0.077
	c-0.025,7.35-3.054,14.024-7.951,18.95c0.065-0.067,0.135-0.129,0.2-0.197c5.191,5.322,12.543,8.654,20.688,8.654
	c15.652,0,28.392-12.286,28.444-27.407c0-0.025,0.002-0.051,0.002-0.077c0-0.005,0-0.011,0-0.017H470.619z"/>
<path style="fill:#FFCE54;" d="M266.012,323.505H126.01c-4.143,0-7.5-3.358-7.5-7.5V166.003c0-4.142,3.357-7.5,7.5-7.5h140.002
	c4.143,0,7.5,3.358,7.5,7.5v150.003C273.512,320.148,270.154,323.505,266.012,323.505z"/>
<path style="fill:#F6BB42;" d="M306.01,158.503h-39.998c4.143,0,7.5,3.358,7.5,7.5v150.003c0,4.142-3.357,7.5-7.5,7.5h39.998
	c4.143,0,7.5-3.358,7.5-7.5V166.003C313.51,161.86,310.152,158.503,306.01,158.503z"/>
<path style="fill:#656D78;" d="M195.996,233.503c-20.677,0-37.498-16.822-37.498-37.5c0-4.142,3.357-7.5,7.5-7.5s7.5,3.358,7.5,7.5
	c0,12.407,10.093,22.5,22.498,22.5c12.406,0,22.5-10.093,22.5-22.5c0-4.142,3.357-7.5,7.5-7.5s7.5,3.358,7.5,7.5
	C233.496,216.681,216.674,233.503,195.996,233.503z"/>
<path style="fill:#ED5565;" d="M356.012,188.503H313.51v127.502c0,4.142-3.357,7.5-7.5,7.5h50.002c4.143,0,7.5-3.358,7.5-7.5
	V196.003C363.512,191.861,360.154,188.503,356.012,188.503z"/>
<path style="fill:#DA4453;" d="M386.012,188.503h-30c4.143,0,7.5,3.358,7.5,7.5v120.002c0,4.142-3.357,7.5-7.5,7.5h30
	c4.143,0,7.5-3.358,7.5-7.5V196.003C393.512,191.861,390.154,188.503,386.012,188.503z"/>
<g>
</g>
<g>
</g>
<g>
</g>
<g>
</g>
<g>
</g>
<g>
</g>
<g>
</g>
<g>
</g>
<g>
</g>
<g>
</g>
<g>
</g>
<g>
</g>
<g>
</g>
<g>
</g>
<g>
</g>
</svg>
