<?xml version="1.0" encoding="iso-8859-1"?>
<!-- Generator: Adobe Illustrator 19.0.0, SVG Export Plug-In . SVG Version: 6.00 Build 0)  -->
<svg version="1.1" id="Capa_1" xmlns="http://www.w3.org/2000/svg" xmlns:xlink="http://www.w3.org/1999/xlink" x="0px" y="0px"
	 viewBox="0 0 512 512" style="enable-background:new 0 0 512 512;" xml:space="preserve">
<path style="fill:#656D78;" d="M403.498,37.461C403.477,16.801,386.664,0,365.999,0h-220c-20.678,0-37.5,16.822-37.5,37.5v15.738
	v3.751V474.5c0,20.678,16.822,37.5,37.5,37.5h220c20.678,0,37.5-16.822,37.5-37.5V57.009c0-0.007,0.001-0.013,0.001-0.02V37.5
	C403.5,37.487,403.498,37.474,403.498,37.461z"/>
<path style="fill:#515760;" d="M403.498,37.461C403.477,16.801,386.664,0,365.999,0h-30.003c20.665,0,37.478,16.801,37.499,37.461
	c0,0.013,0.002,0.026,0.002,0.039v19.489c0,0.007-0.001,0.013-0.001,0.02V474.5c0,20.678-16.822,37.5-37.5,37.5h30.003
	c20.678,0,37.5-16.822,37.5-37.5V57.009c0-0.007,0.001-0.013,0.001-0.02V37.5C403.5,37.487,403.498,37.474,403.498,37.461z"/>
<rect x="123.5" y="49.49" style="fill:#A0D468;" width="265" height="367.51"/>
<path style="fill:#8CC152;" d="M388.499,417.001V49.487h-15.002v7.502c0,0.007-0.001,0.013-0.001,0.02v359.992H388.499z"/>
<path style="fill:#DA4453;" d="M423.49,96.112c-0.004-0.156-0.01-0.313-0.023-0.469c-0.01-0.105-0.024-0.21-0.038-0.313
	c-0.019-0.136-0.036-0.271-0.063-0.407c-0.023-0.125-0.053-0.249-0.083-0.372c-0.026-0.11-0.053-0.22-0.084-0.329
	c-0.043-0.146-0.092-0.288-0.143-0.431c-0.03-0.086-0.06-0.172-0.094-0.258c-0.064-0.16-0.136-0.315-0.21-0.469
	c-0.024-0.051-0.043-0.103-0.068-0.153l-20-39.322c-1.435-2.821-4.408-4.338-7.38-4.063v-0.039H115.971v0.007
	c-2.72,0.013-5.338,1.503-6.657,4.095L89.315,92.911c-0.029,0.056-0.049,0.114-0.076,0.17c-0.07,0.146-0.138,0.294-0.199,0.444
	c-0.037,0.093-0.069,0.188-0.103,0.282c-0.048,0.134-0.095,0.269-0.135,0.406c-0.034,0.117-0.062,0.235-0.09,0.353
	c-0.028,0.116-0.056,0.231-0.078,0.349c-0.027,0.143-0.047,0.286-0.065,0.429c-0.013,0.097-0.026,0.194-0.035,0.292
	c-0.015,0.164-0.021,0.327-0.025,0.49c-0.001,0.062-0.009,0.122-0.009,0.184c0,0.038,0.003,0.075,0.003,0.113
	c0.001,0.055,0.002,0.108,0.004,0.163c0.149,15.036,12.422,27.224,27.493,27.224c7.875,0,14.982-3.332,20-8.655
	c5.018,5.322,12.125,8.655,20,8.655s14.982-3.332,20-8.655c5.018,5.322,12.125,8.655,20,8.655s14.982-3.332,20-8.655
	c5.018,5.322,12.125,8.655,20,8.655s14.982-3.332,20-8.655c5.019,5.322,12.125,8.655,20,8.655s14.982-3.332,20-8.655
	c5.018,5.322,12.125,8.655,20,8.655s14.982-3.332,20-8.655c5.018,5.322,12.125,8.655,20,8.655s14.982-3.332,20-8.655
	c5.018,5.322,12.125,8.655,20,8.655c15.073,0,27.349-12.192,27.493-27.233c0.002-0.048,0.003-0.097,0.004-0.146
	c0-0.041,0.003-0.081,0.003-0.122C423.5,96.244,423.492,96.179,423.49,96.112z"/>
<path style="fill:#CE3A50;" d="M423.49,96.112c-0.004-0.156-0.01-0.313-0.023-0.469c-0.01-0.105-0.024-0.21-0.038-0.313
	c-0.019-0.136-0.036-0.271-0.063-0.407c-0.023-0.125-0.053-0.249-0.083-0.372c-0.026-0.11-0.053-0.22-0.084-0.329
	c-0.043-0.146-0.092-0.288-0.143-0.431c-0.03-0.086-0.06-0.172-0.094-0.258c-0.064-0.16-0.136-0.315-0.21-0.469
	c-0.024-0.051-0.043-0.103-0.068-0.153l-20-39.322c-1.435-2.821-4.408-4.338-7.38-4.063v-0.039H355.3v0.039
	c2.972-0.276,5.945,1.242,7.38,4.063l20,39.322c0.025,0.05,0.044,0.103,0.068,0.153c0.074,0.154,0.146,0.309,0.21,0.469
	c0.034,0.086,0.063,0.172,0.094,0.258c0.051,0.143,0.1,0.285,0.143,0.431c0.031,0.109,0.058,0.219,0.084,0.329
	c0.03,0.124,0.06,0.247,0.083,0.372c0.026,0.136,0.044,0.271,0.063,0.407c0.014,0.104,0.028,0.208,0.038,0.313
	c0.014,0.156,0.02,0.313,0.023,0.469c0.002,0.066,0.01,0.132,0.01,0.199c0,0.041-0.003,0.081-0.003,0.122
	c-0.001,0.049-0.002,0.097-0.004,0.146c-0.07,7.293-2.998,13.911-7.708,18.799c0.071-0.075,0.147-0.146,0.219-0.221
	c5.018,5.322,12.125,8.655,20,8.655c15.073,0,27.349-12.192,27.493-27.233c0.002-0.048,0.003-0.097,0.004-0.146
	c0-0.041,0.003-0.081,0.003-0.122C423.5,96.244,423.492,96.179,423.49,96.112z"/>
<path style="fill:#AAB2BC;" d="M256,484.513c-11.028,0-20-8.972-20-20s8.972-20,20-20c11.028,0,20,8.972,20,20
	S267.028,484.513,256,484.513z"/>
<path style="fill:#ED5565;" d="M88.509,96.127c-0.001,0.062-0.009,0.122-0.009,0.184c0,0.038,0.003,0.075,0.003,0.113
	c0.001,0.055,0.002,0.108,0.004,0.163c0.149,15.036,12.422,27.224,27.493,27.224c7.875,0,14.982-3.332,20-8.655
	c5.018,5.322,12.125,8.655,20,8.655s14.982-3.332,20-8.655c5.018,5.322,12.125,8.655,20,8.655s14.982-3.332,20-8.655
	c5.018,5.322,12.125,8.655,20,8.655s14.982-3.332,20-8.655c5.019,5.322,12.125,8.655,20,8.655s14.982-3.332,20-8.655
	c5.018,5.322,12.125,8.655,20,8.655s14.982-3.332,20-8.655c5.018,5.322,12.125,8.655,20,8.655s14.982-3.332,20-8.655
	c5.018,5.322,12.125,8.655,20,8.655c15.073,0,27.349-12.192,27.493-27.233c0.002-0.048,0.003-0.097,0.004-0.146
	c0-0.041,0.003-0.081,0.003-0.122c0-0.067-0.008-0.132-0.01-0.199c-0.004-0.156-0.01-0.313-0.023-0.469
	c-0.01-0.101-0.023-0.2-0.036-0.299H88.569c-0.013,0.097-0.026,0.194-0.035,0.292C88.519,95.801,88.513,95.964,88.509,96.127z"/>
<path style="fill:#DA4453;" d="M423.49,96.112c-0.004-0.156-0.01-0.313-0.023-0.469c-0.01-0.101-0.023-0.2-0.036-0.299h-40.004
	c0.013,0.099,0.026,0.198,0.036,0.299c0.014,0.156,0.02,0.313,0.023,0.469c0.002,0.066,0.01,0.132,0.01,0.199
	c0,0.041-0.003,0.081-0.003,0.122c-0.001,0.049-0.002,0.097-0.004,0.146c-0.07,7.291-2.996,13.907-7.704,18.795
	c0.07-0.073,0.146-0.143,0.215-0.217c5.018,5.322,12.125,8.655,20,8.655c15.073,0,27.349-12.192,27.493-27.233
	c0.002-0.048,0.003-0.097,0.004-0.146c0-0.041,0.003-0.081,0.003-0.122C423.5,96.244,423.492,96.179,423.49,96.112z"/>
<path style="fill:#ED5565;" d="M305.997,192.481H165.999c-4.142,0-7.5,3.358-7.5,7.5V349.98c0,4.142,3.358,7.5,7.5,7.5h139.998
	c4.142,0,7.5-3.358,7.5-7.5V199.981C313.497,195.839,310.14,192.481,305.997,192.481z"/>
<path style="fill:#DA4453;" d="M345.999,192.481h-40.002c4.142,0,7.5,3.358,7.5,7.5V349.98c0,4.142-3.358,7.5-7.5,7.5h40.002
	c4.143,0,7.5-3.358,7.5-7.5V199.981C353.499,195.839,350.142,192.481,345.999,192.481z"/>
<path style="fill:#E6E9ED;" d="M235.997,267.481c-20.677,0-37.499-16.822-37.499-37.5c0-4.142,3.358-7.5,7.5-7.5s7.5,3.358,7.5,7.5
	c0,12.407,10.093,22.5,22.499,22.5c12.407,0,22.5-10.093,22.5-22.5c0-4.142,3.357-7.5,7.5-7.5s7.5,3.358,7.5,7.5
	C273.497,250.659,256.675,267.481,235.997,267.481z"/>
<g>
</g>
<g>
</g>
<g>
</g>
<g>
</g>
<g>
</g>
<g>
</g>
<g>
</g>
<g>
</g>
<g>
</g>
<g>
</g>
<g>
</g>
<g>
</g>
<g>
</g>
<g>
</g>
<g>
</g>
</svg>
