<?xml version="1.0" encoding="iso-8859-1"?>
<!-- Generator: Adobe Illustrator 19.0.0, SVG Export Plug-In . SVG Version: 6.00 Build 0)  -->
<svg version="1.1" id="Capa_1" xmlns="http://www.w3.org/2000/svg" xmlns:xlink="http://www.w3.org/1999/xlink" x="0px" y="0px"
	 viewBox="0 0 512 512" style="enable-background:new 0 0 512 512;" xml:space="preserve">
<path style="fill:#656D78;" d="M474.5,48.5h-437C16.822,48.5,0,65.322,0,86v99.996c0,20.678,16.822,37.5,37.5,37.5h393.501H443.5h31
	c20.678,0,37.5-16.822,37.5-37.5V86C512,65.322,495.178,48.5,474.5,48.5z"/>
<g>
	<path style="fill:#515760;" d="M474.5,48.5h-30.003c20.678,0,37.5,16.822,37.5,37.5v99.996c0,20.678-30.322,37.5-50.999,37.5
		h13.503H443.5h31c20.678,0,37.5-16.822,37.5-37.5V86C512,65.322,495.178,48.5,474.5,48.5z"/>
	<path style="fill:#515760;" d="M431.001,98.498H80.999c-4.142,0-7.5,3.357-7.5,7.5v60.001c0,4.142,3.358,7.5,7.5,7.5h350l0,0h0.002
		c4.142,0,7.5-3.358,7.5-7.5v-60.001C438.501,101.855,435.143,98.498,431.001,98.498z"/>
</g>
<path style="fill:#8CC152;" d="M400.999,128.498L400.999,128.498h-290c-4.142,0-7.5,3.358-7.5,7.5v290.005
	c0,4.142,3.358,7.5,7.5,7.5h290c4.142,0,7.5-3.358,7.5-7.5V135.998C408.499,131.856,405.141,128.499,400.999,128.498z"/>
<path style="fill:#81B242;" d="M400.999,128.498h-30.003c4.142,0.001,7.5,3.358,7.5,7.5v290.005c0,4.142-3.358,7.5-7.5,7.5h30.003
	c4.142,0,7.5-3.358,7.5-7.5V135.998C408.499,131.856,405.141,128.499,400.999,128.498z"/>
<path style="fill:#A0D468;" d="M370.999,128.498L370.999,128.498h-230c-4.142,0-7.5,3.357-7.5,7.5v240.003
	c0,4.142,3.358,7.5,7.5,7.5c6.893,0,12.5,5.607,12.5,12.5c0,4.142,3.358,7.5,7.5,7.5h189.999c4.142,0,7.5-3.358,7.5-7.5
	c0-6.893,5.608-12.5,12.5-12.5l0,0h0.001c4.142,0,7.5-3.358,7.5-7.5V135.998C378.499,131.856,375.141,128.498,370.999,128.498z"/>
<path style="fill:#81B242;" d="M113.5,433.503V456c0,4.142,3.358,7.5,7.5,7.5h269.998c4.142,0,7.5-3.358,7.5-7.5v-22.497H113.5z"/>
<path style="fill:#75A037;" d="M368.495,433.503V456c0,4.142-3.358,7.5-7.5,7.5h30.003c4.142,0,7.5-3.358,7.5-7.5v-22.497H368.495z"
	/>
<rect x="103.5" y="128.5" style="fill:#81B242;" width="305" height="30"/>
<g>
	<path style="fill:#8CC152;" d="M133.499,135.998v22.5h245v-22.5c0-4.142-3.358-7.5-7.5-7.5h-230
		C136.857,128.498,133.499,131.855,133.499,135.998z"/>
	<path style="fill:#8CC152;" d="M320.999,128.498L320.999,128.498h-130c-4.142,0-7.5,3.358-7.5,7.5c0,39.977,32.523,72.5,72.5,72.5
		s72.5-32.523,72.5-72.5C328.499,131.856,325.141,128.499,320.999,128.498z"/>
</g>
<path style="fill:#81B242;" d="M320.999,128.498h-130c-4.142,0-7.5,3.358-7.5,7.5c0,7.854,1.271,15.412,3.592,22.5h137.816
	c2.32-7.088,3.592-14.646,3.592-22.5C328.499,131.856,325.141,128.499,320.999,128.498z"/>
<g>
</g>
<g>
</g>
<g>
</g>
<g>
</g>
<g>
</g>
<g>
</g>
<g>
</g>
<g>
</g>
<g>
</g>
<g>
</g>
<g>
</g>
<g>
</g>
<g>
</g>
<g>
</g>
<g>
</g>
</svg>
