<?xml version="1.0" encoding="iso-8859-1"?>
<!-- Generator: Adobe Illustrator 19.0.0, SVG Export Plug-In . SVG Version: 6.00 Build 0)  -->
<svg version="1.1" id="Capa_1" xmlns="http://www.w3.org/2000/svg" xmlns:xlink="http://www.w3.org/1999/xlink" x="0px" y="0px"
	 viewBox="0 0 512 512" style="enable-background:new 0 0 512 512;" xml:space="preserve">
<path style="fill:#7E64CC;" d="M177.503,100.454c5.5,0,14.5,0,20,0h167.503c5.5,0,10-4.5,10-10V36.542c0-5.5-4.5-10-10-10H10
	c-5.5,0-10,4.5-10,10v53.912c0,5.5,4.5,10,10,10C10,100.454,177.503,100.454,177.503,100.454z"/>
<g>
	<path style="fill:#967ADC;" d="M343.355,58.195c-2.929,2.929-2.929,7.678,0,10.606l28.714,28.715
		c1.813-1.813,2.938-4.313,2.938-7.063V36.542c0-2.75-1.125-5.25-2.938-7.063L343.355,58.195z"/>
	<path style="fill:#967ADC;" d="M31.652,58.195c2.929,2.929,2.929,7.678,0,10.606L2.938,97.517C1.125,95.704,0,93.204,0,90.454
		V36.542c0-2.75,1.125-5.25,2.938-7.063L31.652,58.195z"/>
</g>
<path style="fill:#AC92EC;" d="M365.007,100.454H197.503c-5.5,0-14.5,0-20,0H10c-5.5,0-10-4.5-10-10v347.5
	c0,26.194,21.31,47.504,47.504,47.504h140h139.999c26.194,0,47.504-21.31,47.504-47.504v-347.5
	C375.007,95.954,370.507,100.454,365.007,100.454z"/>
<path style="fill:#967ADC;" d="M365.007,100.454h-20.003v337.5c0,26.194-21.31,47.504-47.504,47.504h30.003
	c26.194,0,47.504-21.31,47.504-47.504v-347.5C375.007,95.954,370.507,100.454,365.007,100.454z"/>
<g>
	<path style="fill:#E6E9ED;" d="M275.004,147.949c0-4.142-3.358-7.5-7.5-7.5s-7.5,3.358-7.5,7.5v29.755
		c-0.003,0.084-0.013,0.166-0.013,0.251c0,39.974-32.521,72.494-72.494,72.494c-39.974,0-72.494-32.52-72.494-72.494
		c0-0.001,0-0.002,0-0.003s0-0.002,0-0.003v-30.001c0-4.142-3.358-7.5-7.5-7.5s-7.5,3.358-7.5,7.5v30.001c0,0.001,0,0.002,0,0.003
		s0,0.002,0,0.003c0,48.245,39.249,87.494,87.494,87.494c48.135,0,87.313-39.072,87.49-87.166c0.005-0.112,0.017-0.221,0.017-0.334
		V147.949z"/>
	<path style="fill:#E6E9ED;" d="M484.5,485.453H284.499c-15.164,0-27.5-12.336-27.5-27.5v-120c0-15.163,12.336-27.5,27.5-27.5H484.5
		c15.164,0,27.5,12.337,27.5,27.5v120C512,473.117,499.664,485.453,484.5,485.453z"/>
</g>
<path style="fill:#CCD1D9;" d="M484.5,310.453h-30.003c15.163,0,27.5,12.337,27.5,27.5v120c0,15.164-12.337,27.5-27.5,27.5H484.5
	c15.164,0,27.5-12.336,27.5-27.5v-120C512,322.79,499.664,310.453,484.5,310.453z"/>
<g>
	<rect x="257" y="340.45" style="fill:#656D78;" width="255" height="44.999"/>
	<path style="fill:#656D78;" d="M364.503,440.453H304.5c-4.142,0-7.5-3.358-7.5-7.5s3.358-7.5,7.5-7.5h60.003
		c4.142,0,7.5,3.358,7.5,7.5S368.645,440.453,364.503,440.453z"/>
	<path style="fill:#656D78;" d="M464.332,440.453h-30c-4.142,0-7.5-3.358-7.5-7.5s3.358-7.5,7.5-7.5h30c4.142,0,7.5,3.358,7.5,7.5
		S468.474,440.453,464.332,440.453z"/>
</g>
<rect x="482" y="340.45" style="fill:#515760;" width="30" height="44.999"/>
<g>
</g>
<g>
</g>
<g>
</g>
<g>
</g>
<g>
</g>
<g>
</g>
<g>
</g>
<g>
</g>
<g>
</g>
<g>
</g>
<g>
</g>
<g>
</g>
<g>
</g>
<g>
</g>
<g>
</g>
</svg>
