<?xml version="1.0" encoding="iso-8859-1"?>
<!-- Generator: Adobe Illustrator 19.0.0, SVG Export Plug-In . SVG Version: 6.00 Build 0)  -->
<svg version="1.1" id="Capa_1" xmlns="http://www.w3.org/2000/svg" xmlns:xlink="http://www.w3.org/1999/xlink" x="0px" y="0px"
	 viewBox="0 0 512 512" style="enable-background:new 0 0 512 512;" xml:space="preserve">
<path style="fill:#A0D468;" d="M511.208,440.154l-75.002-150.006c-1.271-2.541-3.867-4.146-6.708-4.146h-78.89h-14.185H82.502
	c-2.841,0-5.438,1.605-6.708,4.146L0.792,440.154c-1.163,2.325-1.038,5.086,0.328,7.297s3.78,3.557,6.38,3.557h497
	c2.6,0,5.014-1.346,6.38-3.557S512.371,442.479,511.208,440.154z"/>
<path style="fill:#E6E9ED;" d="M375.62,396.134l-15.002-45.002c-1.022-3.063-3.887-5.128-7.115-5.128h-20.002h-8.666H173.497
	c-3.229,0-6.095,2.066-7.115,5.128l-15,45.002c-0.763,2.287-0.379,4.801,1.031,6.757c1.409,1.956,3.673,3.115,6.084,3.115h210.008
	c2.411,0,4.675-1.159,6.084-3.115C375.999,400.936,376.383,398.421,375.62,396.134z"/>
<path style="fill:#8CC152;" d="M395.622,416.135l-15.002-45.002c-0.936-2.806-14.941-21.549-24.587-24.676
	c2.121,0.763,3.843,2.449,4.585,4.674l15.002,45.002c0.763,2.287,0.379,4.802-1.031,6.757c-1.409,1.956-3.673,3.115-6.084,3.115
	H158.497c-2.411,0-4.675-1.159-6.084-3.115c-0.175-0.243-0.333-0.494-0.477-0.751c4.01,8.808,19.345,19.181,20.479,20.754
	c1.409,1.956,3.673,3.115,6.084,3.115h210.008c2.411,0,4.675-1.159,6.084-3.115C396.001,420.937,396.385,418.423,395.622,416.135z"
	/>
<path style="fill:#ED5565;" d="M263.501,376.004c-30.001,0-66.325-56.721-76.744-74.106c-20.914-34.897-43.262-84.983-43.262-120.9
	c0-66.171,53.834-120.006,120.006-120.006c66.171,0,120.004,53.835,120.004,120.006c0,35.922-22.342,86.006-43.25,120.9
	C329.838,319.282,293.517,376.004,263.501,376.004z"/>
<path style="fill:#DA4453;" d="M263.501,60.992c-5.08,0-10.086,0.32-15.001,0.936c59.116,7.405,105.002,57.978,105.002,119.07
	c0,35.922-22.342,86.006-43.25,120.9c-8.723,14.558-35.61,56.692-61.75,70.013c5.074,2.587,10.121,4.094,14.999,4.094
	c30.016,0,66.337-56.722,76.754-74.106c20.908-34.893,43.25-84.978,43.25-120.9C383.505,114.827,329.672,60.992,263.501,60.992z"/>
<path style="fill:#5D9CEC;" d="M505.553,450.928c0.272-0.039,0.54-0.09,0.804-0.157c0.027-0.007,0.055-0.014,0.083-0.021
	c1.823-0.488,3.423-1.653,4.44-3.3c1.366-2.211,1.491-4.972,0.328-7.297l-75.002-150.006c-1.271-2.541-3.867-4.146-6.708-4.146
	h-57.162L455.1,451.008h49.4c0.311,0,0.618-0.022,0.922-0.06C505.466,450.943,505.509,450.935,505.553,450.928z"/>
<path style="fill:#4A89DC;" d="M511.208,440.154l-75.002-150.006c-1.271-2.541-3.867-4.146-6.708-4.146h-30.003
	c2.841,0,5.438,1.605,6.708,4.146l75.002,150.006c1.163,2.325,1.038,5.086-0.328,7.297c-1.018,1.647-2.617,2.811-4.44,3.3
	c-0.028,0.007-0.056,0.014-0.083,0.021c-0.264,0.067-0.532,0.118-0.804,0.157c-0.044,0.006-0.087,0.015-0.131,0.02
	c-0.304,0.038-0.611,0.06-0.922,0.06H504.5c0.311,0,0.618-0.022,0.922-0.06c0.044-0.005,0.087-0.014,0.131-0.02
	c0.272-0.039,0.54-0.09,0.804-0.157c0.027-0.007,0.055-0.014,0.083-0.021c1.823-0.488,3.423-1.653,4.44-3.3
	C512.246,445.24,512.371,442.479,511.208,440.154z"/>
<path style="fill:#FFCE54;" d="M324.504,257.98c0.081-0.109,0.164-0.217,0.24-0.331c0.054-0.082,0.102-0.167,0.152-0.251
	c0.074-0.123,0.15-0.244,0.218-0.371c0.046-0.087,0.085-0.177,0.128-0.266c0.061-0.128,0.125-0.256,0.18-0.388
	c0.043-0.102,0.076-0.207,0.114-0.31c0.044-0.123,0.092-0.245,0.13-0.371c0.039-0.126,0.067-0.255,0.1-0.384
	c0.026-0.108,0.057-0.215,0.079-0.325c0.03-0.152,0.05-0.308,0.07-0.463c0.013-0.091,0.03-0.18,0.039-0.272
	c0.017-0.165,0.021-0.333,0.025-0.501c0.002-0.079,0.012-0.157,0.012-0.237c0-0.008-0.001-0.017-0.001-0.025
	c-0.001-0.126-0.013-0.254-0.02-0.381c-0.007-0.133-0.01-0.268-0.023-0.398c-0.002-0.008-0.001-0.016-0.002-0.023l-9.992-89.934
	c-0.001-0.005-0.002-0.011-0.002-0.016l-0.006-0.052c-0.008-0.075-0.025-0.147-0.036-0.222c-0.024-0.171-0.047-0.342-0.083-0.509
	c-0.019-0.092-0.047-0.18-0.068-0.271c-0.038-0.149-0.073-0.299-0.119-0.445c-0.039-0.12-0.086-0.235-0.13-0.353
	c-0.041-0.109-0.078-0.221-0.124-0.328c-0.062-0.144-0.133-0.282-0.203-0.421c-0.037-0.075-0.071-0.152-0.111-0.226
	c-0.087-0.158-0.183-0.31-0.279-0.46c-0.033-0.05-0.061-0.102-0.095-0.151c-0.107-0.158-0.224-0.309-0.343-0.458
	c-0.03-0.039-0.059-0.079-0.089-0.116c-0.124-0.149-0.256-0.29-0.391-0.43c-0.032-0.033-0.062-0.069-0.095-0.101
	c-0.136-0.135-0.279-0.261-0.424-0.385c-0.038-0.032-0.073-0.067-0.111-0.098c-0.145-0.118-0.295-0.227-0.446-0.334
	c-0.046-0.032-0.089-0.066-0.135-0.098c-0.151-0.102-0.31-0.194-0.469-0.284c-0.051-0.029-0.1-0.061-0.151-0.089
	c-0.162-0.088-0.329-0.165-0.497-0.24c-0.054-0.023-0.104-0.051-0.158-0.073c-0.177-0.074-0.358-0.138-0.542-0.199
	c-0.049-0.016-0.095-0.035-0.143-0.05c-0.194-0.06-0.393-0.109-0.594-0.153c-0.041-0.009-0.08-0.021-0.121-0.029
	c-0.206-0.042-0.416-0.071-0.627-0.096c-0.039-0.005-0.076-0.013-0.116-0.017c-0.198-0.02-0.399-0.026-0.601-0.03
	c-0.052-0.001-0.102-0.008-0.153-0.008h-0.039c-0.012,0-0.023,0-0.035,0h-89.859c-0.005,0-0.009,0-0.013,0h-0.055
	c-0.078,0-0.153,0.009-0.23,0.012c-0.17,0.005-0.341,0.009-0.509,0.025c-0.09,0.009-0.178,0.026-0.267,0.038
	c-0.157,0.021-0.314,0.041-0.468,0.071c-0.11,0.023-0.218,0.053-0.326,0.08c-0.128,0.032-0.257,0.06-0.382,0.098
	c-0.129,0.039-0.252,0.087-0.378,0.133c-0.101,0.037-0.204,0.069-0.303,0.11c-0.136,0.056-0.266,0.121-0.397,0.185
	c-0.085,0.041-0.172,0.079-0.256,0.123c-0.131,0.07-0.257,0.148-0.384,0.226c-0.079,0.048-0.16,0.093-0.237,0.143
	c-0.117,0.078-0.23,0.164-0.343,0.249c-0.081,0.06-0.163,0.118-0.242,0.181c-0.1,0.081-0.193,0.169-0.289,0.255
	c-0.085,0.076-0.171,0.149-0.252,0.229c-0.083,0.082-0.159,0.169-0.238,0.255c-0.085,0.092-0.173,0.183-0.253,0.279
	c-0.068,0.081-0.131,0.168-0.195,0.253c-0.083,0.107-0.167,0.213-0.243,0.325c-0.059,0.086-0.11,0.176-0.165,0.264
	c-0.073,0.117-0.148,0.232-0.215,0.353c-0.054,0.098-0.1,0.2-0.149,0.301c-0.058,0.116-0.117,0.231-0.169,0.351
	s-0.094,0.244-0.139,0.367c-0.039,0.106-0.082,0.209-0.117,0.317c-0.047,0.149-0.083,0.302-0.121,0.455
	c-0.023,0.088-0.049,0.174-0.068,0.263c-0.035,0.167-0.059,0.338-0.082,0.508c-0.011,0.075-0.027,0.147-0.036,0.222l-0.006,0.052
	c-0.001,0.005-0.001,0.011-0.002,0.016l-9.992,89.934c-0.001,0.008-0.001,0.016-0.001,0.023c-0.015,0.131-0.018,0.265-0.025,0.398
	c-0.007,0.127-0.018,0.255-0.02,0.381c0,0.008-0.001,0.017-0.001,0.025c0,0.08,0.01,0.158,0.012,0.237
	c0.006,0.168,0.01,0.336,0.025,0.501c0.01,0.092,0.026,0.182,0.039,0.272c0.021,0.155,0.04,0.311,0.07,0.463
	c0.022,0.111,0.054,0.218,0.08,0.327c0.031,0.128,0.061,0.256,0.098,0.381c0.039,0.126,0.086,0.248,0.131,0.371
	c0.038,0.104,0.072,0.21,0.114,0.312c0.054,0.131,0.117,0.258,0.179,0.385c0.043,0.089,0.083,0.18,0.129,0.268
	c0.067,0.127,0.143,0.248,0.218,0.371c0.051,0.083,0.099,0.169,0.153,0.251c0.075,0.114,0.158,0.222,0.239,0.331
	c0.064,0.085,0.123,0.171,0.189,0.253c0.08,0.098,0.166,0.189,0.25,0.283c0.078,0.086,0.152,0.175,0.234,0.257
	c0.08,0.082,0.166,0.157,0.251,0.235c0.093,0.086,0.184,0.175,0.282,0.256c0.082,0.069,0.17,0.131,0.255,0.197
	c0.106,0.081,0.21,0.165,0.321,0.24c0.09,0.062,0.184,0.115,0.275,0.173c0.113,0.07,0.224,0.142,0.34,0.206
	c0.104,0.058,0.212,0.106,0.318,0.159c0.111,0.054,0.22,0.111,0.334,0.161c0.126,0.054,0.257,0.099,0.387,0.146
	c0.1,0.036,0.196,0.077,0.298,0.109c0.153,0.049,0.313,0.087,0.471,0.126c0.083,0.021,0.163,0.046,0.247,0.064
	c0.169,0.036,0.342,0.06,0.514,0.084c0.074,0.01,0.145,0.027,0.219,0.035c0.008,0.001,0.015,0.001,0.021,0.001
	c0.266,0.028,0.534,0.045,0.807,0.045c0.003,0,0.006,0.001,0.009,0.001c0.004,0,0.007-0.001,0.011-0.001h109.962
	c0.004,0,0.007,0.001,0.011,0.001c0.003,0,0.006-0.001,0.009-0.001c0.272,0,0.541-0.017,0.806-0.045c0.008,0,0.016,0,0.022-0.001
	c0.074-0.008,0.146-0.025,0.218-0.035c0.173-0.024,0.346-0.048,0.514-0.084c0.084-0.018,0.165-0.043,0.248-0.064
	c0.158-0.039,0.316-0.077,0.471-0.126c0.102-0.032,0.197-0.072,0.297-0.108c0.13-0.048,0.262-0.093,0.389-0.147
	c0.113-0.049,0.223-0.106,0.333-0.161c0.106-0.052,0.214-0.101,0.317-0.158c0.117-0.065,0.229-0.137,0.342-0.208
	c0.092-0.057,0.185-0.111,0.274-0.172c0.11-0.076,0.216-0.159,0.321-0.24c0.086-0.065,0.173-0.128,0.256-0.197
	c0.098-0.082,0.189-0.17,0.281-0.256c0.084-0.078,0.171-0.153,0.251-0.235c0.081-0.083,0.156-0.171,0.233-0.257
	c0.085-0.094,0.171-0.186,0.25-0.283C324.381,258.15,324.441,258.064,324.504,257.98z"/>
<g>
	<path style="fill:#E6E9ED;" d="M263.491,116.006c-15.163,0-27.5,12.336-27.5,27.5v30.003c0,4.142,3.357,7.5,7.5,7.5
		s7.5-3.358,7.5-7.5v-30.003c0-6.893,5.607-12.5,12.5-12.5s12.5,5.607,12.5,12.5v30.003c0,4.142,3.357,7.5,7.5,7.5
		s7.5-3.358,7.5-7.5v-30.003C290.991,128.342,278.654,116.006,263.491,116.006z"/>
	<path style="fill:#E6E9ED;" d="M112.504,331.002c2.841,0,5.438-1.605,6.708-4.146l15-30c1.163-2.325,1.038-5.086-0.328-7.297
		s-3.78-3.557-6.38-3.557H82.502c-2.841,0-5.438,1.605-6.708,4.146l-20.427,40.854H112.504z"/>
</g>
<path style="fill:#8CC152;" d="M153.886,309.561c-1.366-2.211-20.252-24.999-26.126-23.554l-0.014,0.011
	c2.506,0.081,4.814,1.399,6.138,3.542c1.366,2.211,1.491,4.972,0.328,7.297l-15,30c-1.271,2.541-3.867,4.146-6.708,4.146H55.513
	l-9.816,20.002h86.81c2.841,0,5.438-1.605,6.708-4.146l15-30C155.377,314.533,155.252,311.772,153.886,309.561z"/>
<path style="fill:#E6E9ED;" d="M89.21,446.862l30.002-60.002c1.163-2.325,1.038-5.086-0.328-7.297
	c-1.366-2.211-3.78-3.557-6.38-3.557H32.865L0.792,440.154c-1.163,2.325-1.038,5.086,0.328,7.297s3.78,3.557,6.38,3.557h75.002
	C85.343,451.008,87.94,449.403,89.21,446.862z"/>
<path style="fill:#8CC152;" d="M138.886,399.565c-1.292-2.091-15.007-21.284-24.743-23.366c1.947,0.437,3.669,1.628,4.741,3.364
	c1.366,2.211,1.491,4.972,0.328,7.297L89.21,446.862c-1.271,2.541-3.867,4.146-6.708,4.146h34.638l22.074-44.146
	C140.377,404.536,140.252,401.776,138.886,399.565z"/>
<g>
</g>
<g>
</g>
<g>
</g>
<g>
</g>
<g>
</g>
<g>
</g>
<g>
</g>
<g>
</g>
<g>
</g>
<g>
</g>
<g>
</g>
<g>
</g>
<g>
</g>
<g>
</g>
<g>
</g>
</svg>
