<?xml version="1.0" encoding="iso-8859-1"?>
<!-- Generator: Adobe Illustrator 19.0.0, SVG Export Plug-In . SVG Version: 6.00 Build 0)  -->
<svg version="1.1" id="Capa_1" xmlns="http://www.w3.org/2000/svg" xmlns:xlink="http://www.w3.org/1999/xlink" x="0px" y="0px"
	 viewBox="0 0 512.001 512.001" style="enable-background:new 0 0 512.001 512.001;" xml:space="preserve">
<path style="fill:#E6E9ED;" d="M0.004,120.245v2.607L0,143.741c0,0.027,0.004,0.054,0.004,0.081v261.001v21.564v51.508
	c0,2.057,0.835,4.072,2.286,5.534c1.462,1.462,3.477,2.297,5.545,2.297h496.334c2.066,0,4.083-0.835,5.545-2.297
	c1.452-1.461,2.287-3.477,2.287-5.534v-357.65H0.004z"/>
<path style="fill:#CCD1D9;" d="M480.672,120.248v357.651c0,2.057-0.835,4.072-2.288,5.534c-1.461,1.462-3.477,2.297-5.544,2.297
	h31.329c2.066,0,4.083-0.835,5.545-2.297c1.452-1.461,2.287-3.477,2.287-5.534V120.248H480.672z"/>
<path style="fill:#AC92EC;" d="M483.522,83.713c-0.078-0.003-0.155-0.013-0.235-0.013H28.719c-15.83,0-28.711,12.878-28.715,28.707
	v0.003v7.838h15.663h480.671h15.663v-7.837c0,0,0,0,0-0.011c0-7.664-2.986-14.88-8.406-20.289
	C498.231,86.738,491.109,83.772,483.522,83.713z"/>
<path style="fill:#967ADC;" d="M503.595,92.112c-5.364-5.373-12.486-8.339-20.073-8.399c-0.078-0.003-0.155-0.013-0.235-0.013
	h-31.329c0.079,0,0.156,0.009,0.235,0.013c7.587,0.061,14.71,3.025,20.073,8.399c5.418,5.409,8.406,12.624,8.406,20.289
	c0,0.011,0,0.011,0,0.011v7.837h15.666h15.663v-7.837c0,0,0,0,0-0.011C512,104.735,509.014,97.52,503.595,92.112z"/>
<path style="fill:#656D78;" d="M413.498,302.986c-0.02,0-0.041,0.003-0.061,0.003H121.178c-0.02,0-0.041-0.003-0.061-0.003
	c-4.325,0-7.831,3.505-7.831,7.831v26.105c0,4.325,3.506,7.831,7.831,7.831h292.381c4.325,0,7.831-3.506,7.831-7.831v-26.105
	C421.329,306.491,417.824,302.986,413.498,302.986z"/>
<path style="fill:#8CC152;" d="M382.172,26.271H152.441c-4.325,0-7.831,3.505-7.831,7.831v281.937c0,4.326,3.506,7.831,7.831,7.831
	s225.407,0.004,229.732,0.004c4.325,0,7.831-3.505,7.831-7.831V34.102C390.003,29.776,386.498,26.271,382.172,26.271z"/>
<path style="fill:#A0D468;" d="M350.845,68.038c-1.44,0-2.61-1.171-2.61-2.61c0-4.326-3.506-7.831-7.831-7.831H194.211
	c-0.075,0-0.148,0.009-0.222,0.011c-0.074-0.002-0.147-0.011-0.222-0.011c-4.325,0-7.831,3.505-7.831,7.831
	c0,1.44-1.172,2.61-2.61,2.61c-4.325,0-7.831,3.505-7.831,7.831v240.17c0,4.326,3.506,7.831,7.831,7.831
	s163.196,0.004,167.521,0.004c4.325,0,7.831-3.505,7.831-7.831V75.87C358.677,71.544,355.17,68.038,350.845,68.038z"/>
<path style="fill:#8CC152;" d="M327.349,316.043c0-33.107-26.934-60.041-60.041-60.041s-60.041,26.934-60.041,60.041
	c0,4.326,3.506,7.831,7.831,7.831H319.52l0,0C323.844,323.873,327.349,320.367,327.349,316.043z"/>
<g>
</g>
<g>
</g>
<g>
</g>
<g>
</g>
<g>
</g>
<g>
</g>
<g>
</g>
<g>
</g>
<g>
</g>
<g>
</g>
<g>
</g>
<g>
</g>
<g>
</g>
<g>
</g>
<g>
</g>
</svg>
