<?xml version="1.0" encoding="iso-8859-1"?>
<!-- Generator: Adobe Illustrator 19.0.0, SVG Export Plug-In . SVG Version: 6.00 Build 0)  -->
<svg version="1.1" id="Capa_1" xmlns="http://www.w3.org/2000/svg" xmlns:xlink="http://www.w3.org/1999/xlink" x="0px" y="0px"
	 viewBox="0 0 512.001 512.001" style="enable-background:new 0 0 512.001 512.001;" xml:space="preserve">
<polygon style="fill:#CCD1D9;" points="331.531,473.505 316.079,418.503 195.781,418.503 180.328,473.505 "/>
<path style="fill:#E6E9ED;" d="M458.512,23.497H53.514c-12.406,0-22.5,10.094-22.5,22.5v25.006l0,0v0.002v324.998
	c0,12.406,10.094,22.5,22.5,22.5h404.998c12.406,0,22.5-10.094,22.5-22.5V71.005V45.997
	C481.012,33.591,470.918,23.497,458.512,23.497z"/>
<path style="fill:#CCD1D9;" d="M458.512,23.497h-41.015c12.406,0,22.5,10.094,22.5,22.5v25.008v324.998
	c0,12.406-10.094,22.5-22.5,22.5h41.015c12.406,0,22.5-10.094,22.5-22.5V71.005V45.997
	C481.012,33.591,470.918,23.497,458.512,23.497z"/>
<rect x="51.01" y="76.001" style="fill:#5D9CEC;" width="410" height="280"/>
<rect x="440" y="76.001" style="fill:#4A89DC;" width="21.02" height="280"/>
<path style="fill:#E6E9ED;" d="M346.014,488.505h-180c-4.143,0-7.5-3.357-7.5-7.5s3.357-7.5,7.5-7.5h180c4.143,0,7.5,3.357,7.5,7.5
	S350.156,488.505,346.014,488.505z"/>
<path style="fill:#656D78;" d="M256.014,370.999c-8.271,0-15,6.729-15,15c0,8.272,6.729,15,15,15s15-6.728,15-15
	C271.014,377.728,264.285,370.999,256.014,370.999z"/>
<path style="fill:#DA4453;" d="M512,101.022v-0.016c0-0.045-0.006-0.088-0.007-0.133c-0.004-0.201-0.011-0.402-0.032-0.604
	c-0.009-0.086-0.025-0.17-0.037-0.256c-0.021-0.158-0.042-0.314-0.074-0.471c-0.023-0.113-0.055-0.221-0.083-0.33
	c-0.032-0.127-0.062-0.254-0.101-0.379c-0.042-0.133-0.093-0.262-0.141-0.393c-0.038-0.098-0.071-0.197-0.112-0.295
	c-0.068-0.158-0.145-0.311-0.223-0.463c-0.035-0.066-0.064-0.137-0.101-0.203c-0.106-0.191-0.222-0.379-0.346-0.561
	c-0.016-0.023-0.029-0.051-0.046-0.074l-0.01-0.016c-0.007-0.01-0.014-0.021-0.022-0.031l-24.171-29.945
	c-0.291-0.422-0.623-0.816-0.995-1.172c-0.054-0.053-0.113-0.098-0.168-0.148c-0.128-0.117-0.256-0.232-0.393-0.34
	c-0.068-0.055-0.142-0.104-0.214-0.156c-0.13-0.096-0.261-0.193-0.398-0.281c-0.057-0.037-0.115-0.066-0.172-0.102
	c-0.16-0.096-0.32-0.191-0.487-0.277c-0.026-0.014-0.055-0.025-0.081-0.037c-1.065-0.533-2.272-0.838-3.554-0.838H31.969
	c-0.005,0-0.01,0-0.014,0c-0.23,0-0.459,0.014-0.689,0.033c-0.216,0.02-0.429,0.051-0.641,0.086c-0.06,0.01-0.122,0.016-0.182,0.027
	c-0.193,0.037-0.38,0.086-0.567,0.137c-0.054,0.014-0.109,0.025-0.163,0.041c-0.168,0.049-0.332,0.109-0.495,0.168
	c-0.073,0.027-0.148,0.049-0.22,0.078c-0.137,0.055-0.267,0.119-0.4,0.182c-0.096,0.045-0.194,0.086-0.288,0.135
	c-0.103,0.053-0.201,0.113-0.301,0.172c-0.119,0.068-0.238,0.133-0.354,0.207c-0.075,0.049-0.144,0.102-0.215,0.152
	c-0.133,0.092-0.267,0.184-0.393,0.285c-0.06,0.047-0.113,0.1-0.171,0.148c-0.131,0.109-0.263,0.219-0.386,0.338
	c-0.129,0.125-0.25,0.26-0.37,0.393c-0.045,0.049-0.092,0.094-0.135,0.143c-0.167,0.195-0.322,0.4-0.469,0.611
	c-0.001,0-0.002,0.002-0.003,0.004L1.338,96.796c-0.01,0.014-0.019,0.027-0.029,0.041l-0.006,0.01
	c-0.011,0.016-0.021,0.033-0.03,0.049c-0.129,0.191-0.251,0.387-0.363,0.588c-0.035,0.063-0.063,0.127-0.095,0.191
	c-0.08,0.154-0.16,0.311-0.229,0.473c-0.04,0.096-0.073,0.193-0.109,0.291c-0.05,0.131-0.102,0.262-0.143,0.396
	c-0.04,0.125-0.068,0.248-0.1,0.373c-0.028,0.113-0.06,0.223-0.084,0.336c-0.031,0.156-0.052,0.311-0.074,0.467
	c-0.012,0.088-0.028,0.172-0.037,0.26c-0.021,0.201-0.028,0.402-0.032,0.602C0.006,100.917,0,100.96,0,101.007v0.016
	c0,0.025,0.002,0.051,0.002,0.078c0.054,15.119,12.792,27.406,28.444,27.406c8.145,0,15.496-3.332,20.687-8.654
	c5.191,5.322,12.542,8.654,20.687,8.654s15.496-3.332,20.687-8.654c5.19,5.322,12.541,8.654,20.686,8.654s15.496-3.332,20.687-8.654
	c5.191,5.322,12.542,8.654,20.688,8.654s15.496-3.332,20.686-8.654c5.19,5.322,12.541,8.654,20.686,8.654s15.496-3.332,20.687-8.654
	c5.191,5.322,12.542,8.654,20.688,8.654c8.145,0,15.496-3.332,20.686-8.654c5.19,5.322,12.541,8.654,20.686,8.654
	c8.145,0,15.496-3.332,20.688-8.654c5.191,5.322,12.542,8.654,20.687,8.654c8.145,0,15.496-3.332,20.686-8.654
	c5.19,5.322,12.541,8.654,20.686,8.654s15.496-3.332,20.687-8.654c5.191,5.322,12.542,8.654,20.687,8.654s15.496-3.332,20.686-8.654
	c5.19,5.322,12.542,8.654,20.686,8.654c8.145,0,15.496-3.332,20.688-8.654c5.191,5.322,12.542,8.654,20.687,8.654
	c15.652,0,28.392-12.287,28.444-27.408C511.998,101.073,512,101.048,512,101.022z"/>
<path style="fill:#CE3A50;" d="M511.993,100.874c-0.004-0.201-0.011-0.402-0.032-0.604c-0.009-0.086-0.025-0.17-0.037-0.256
	c-0.021-0.158-0.042-0.314-0.074-0.471c-0.023-0.113-0.055-0.221-0.083-0.33c-0.032-0.127-0.062-0.254-0.101-0.379
	c-0.042-0.133-0.093-0.262-0.141-0.393c-0.038-0.098-0.071-0.197-0.112-0.295c-0.068-0.158-0.145-0.311-0.223-0.463
	c-0.035-0.066-0.064-0.137-0.101-0.203c-0.106-0.191-0.222-0.379-0.346-0.561c-0.016-0.023-0.029-0.051-0.046-0.074l-0.01-0.016
	c-0.007-0.01-0.014-0.021-0.022-0.031l-24.171-29.945c-0.291-0.422-0.623-0.816-0.995-1.172c-0.054-0.053-0.113-0.098-0.168-0.148
	c-0.128-0.117-0.256-0.232-0.393-0.34c-0.068-0.055-0.142-0.104-0.214-0.156c-0.13-0.096-0.261-0.193-0.398-0.281
	c-0.057-0.037-0.115-0.066-0.172-0.102c-0.16-0.096-0.32-0.191-0.487-0.277c-0.026-0.014-0.055-0.025-0.081-0.037
	c-1.065-0.533-2.272-0.838-3.554-0.838h-37.858c1.282,0,2.488,0.305,3.554,0.838c0.026,0.012,0.055,0.023,0.081,0.037
	c0.167,0.086,0.327,0.182,0.487,0.277c0.057,0.035,0.115,0.065,0.172,0.102c0.137,0.088,0.268,0.186,0.398,0.281
	c0.072,0.053,0.146,0.102,0.214,0.156c0.137,0.107,0.265,0.223,0.393,0.34c0.056,0.051,0.114,0.096,0.168,0.148
	c0.372,0.355,0.704,0.75,0.995,1.172l20.649,29.945c0.008,0.01,0.015,0.021,0.022,0.031l0.01,0.016
	c0.017,0.023,0.03,0.051,0.046,0.074c0.124,0.182,0.24,0.369,0.346,0.561c0.037,0.066,0.066,0.137,0.101,0.203
	c0.079,0.152,0.155,0.305,0.223,0.463c0.042,0.098,0.075,0.197,0.112,0.295c0.048,0.131,0.1,0.26,0.141,0.393
	c0.04,0.125,0.069,0.252,0.101,0.379c0.028,0.109,0.06,0.217,0.083,0.33c0.032,0.156,0.052,0.313,0.074,0.471
	c0.012,0.086,0.028,0.17,0.037,0.256c0.021,0.201,0.028,0.402,0.031,0.604c0.001,0.045,0.007,0.088,0.007,0.133v0.016
	c0,0.025-0.002,0.051-0.002,0.076c-0.025,7.352-3.055,14.027-7.954,18.951c0.066-0.066,0.137-0.131,0.203-0.197
	c5.191,5.322,12.542,8.654,20.687,8.654c15.652,0,28.392-12.287,28.444-27.408c0-0.025,0.002-0.051,0.002-0.076v-0.016
	C512,100.962,511.994,100.919,511.993,100.874z"/>
<path style="fill:#ED5565;" d="M0,101.007v0.016c0,0.025,0.002,0.051,0.002,0.078c0.054,15.119,12.792,27.406,28.444,27.406
	c8.145,0,15.496-3.332,20.687-8.654c5.191,5.322,12.542,8.654,20.687,8.654s15.496-3.332,20.687-8.654
	c5.19,5.322,12.541,8.654,20.686,8.654s15.496-3.332,20.687-8.654c5.191,5.322,12.542,8.654,20.688,8.654s15.496-3.332,20.686-8.654
	c5.19,5.322,12.541,8.654,20.686,8.654s15.496-3.332,20.687-8.654c5.191,5.322,12.542,8.654,20.688,8.654
	c8.145,0,15.496-3.332,20.686-8.654c5.19,5.322,12.541,8.654,20.686,8.654c8.145,0,15.496-3.332,20.688-8.654
	c5.191,5.322,12.542,8.654,20.687,8.654c8.145,0,15.496-3.332,20.686-8.654c5.19,5.322,12.541,8.654,20.686,8.654
	s15.496-3.332,20.687-8.654c5.191,5.322,12.542,8.654,20.687,8.654s15.496-3.332,20.686-8.654c5.19,5.322,12.542,8.654,20.686,8.654
	c8.145,0,15.496-3.332,20.688-8.654c5.191,5.322,12.542,8.654,20.687,8.654c15.652,0,28.392-12.287,28.444-27.408
	c0-0.025,0.002-0.051,0.002-0.076v-0.016H0z"/>
<path style="fill:#DA4453;" d="M470.62,101.007v0.016c0,0.025-0.002,0.051-0.002,0.076c-0.025,7.35-3.054,14.025-7.952,18.951
	c0.066-0.068,0.135-0.131,0.201-0.197c5.191,5.322,12.542,8.654,20.687,8.654c15.652,0,28.392-12.287,28.444-27.408
	c0-0.025,0.002-0.051,0.002-0.076v-0.016H470.62z"/>
<path style="fill:#FFCE54;" d="M256.125,328.501c-48.248,0-87.5-39.252-87.5-87.5s39.252-87.5,87.5-87.5s87.5,39.252,87.5,87.5
	S304.373,328.501,256.125,328.501z"/>
<g>
	<path style="fill:#F6BB42;" d="M176.129,313.501c-4.142,0-7.5,3.357-7.5,7.5s3.358,7.5,7.5,7.5h79.996
		c-18.116,0-34.962-5.533-48.94-15H176.129z"/>
	<path style="fill:#F6BB42;" d="M177.079,203.503h-40.95c-4.142,0-7.5,3.357-7.5,7.5s3.358,7.5,7.5,7.5h35.434
		C172.949,213.298,174.802,208.28,177.079,203.503z"/>
	<path style="fill:#F6BB42;" d="M256.125,153.501H96.127c-4.142,0-7.5,3.357-7.5,7.5s3.358,7.5,7.5,7.5h111.058
		C221.163,159.036,238.009,153.501,256.125,153.501z"/>
	<path style="fill:#F6BB42;" d="M171.564,263.505H76.132c-4.142,0-7.5,3.357-7.5,7.5s3.358,7.5,7.5,7.5H177.08
		C174.804,273.726,172.95,268.71,171.564,263.505z"/>
</g>
<path style="fill:#DCA746;" d="M280.439,237.53c2.021-3.373,3.187-7.316,3.187-11.527c0-12.406-10.093-22.5-22.5-22.5h-2.501v-2.5
	c0-4.143-3.358-7.5-7.5-7.5s-7.5,3.357-7.5,7.5v2.5h-7.499c-4.142,0-7.5,3.357-7.5,7.5v70c0,4.142,3.358,7.5,7.5,7.5h7.499v2.5
	c0,4.142,3.358,7.5,7.5,7.5s7.5-3.358,7.5-7.5v-2.5h7.501c15.164,0,27.5-12.338,27.5-27.5
	C293.626,251.079,288.341,242.366,280.439,237.53z M261.126,218.503c4.136,0,7.5,3.363,7.5,7.5c0,4.135-3.364,7.5-7.5,7.5h-17.5v-15
	H261.126z M266.126,273.503h-22.5v-25h22.5c6.893,0,12.5,5.607,12.5,12.5C278.626,267.896,273.019,273.503,266.126,273.503z"/>
<g>
</g>
<g>
</g>
<g>
</g>
<g>
</g>
<g>
</g>
<g>
</g>
<g>
</g>
<g>
</g>
<g>
</g>
<g>
</g>
<g>
</g>
<g>
</g>
<g>
</g>
<g>
</g>
<g>
</g>
</svg>
