<?xml version="1.0" encoding="iso-8859-1"?>
<!-- Generator: Adobe Illustrator 19.0.0, SVG Export Plug-In . SVG Version: 6.00 Build 0)  -->
<svg version="1.1" id="Capa_1" xmlns="http://www.w3.org/2000/svg" xmlns:xlink="http://www.w3.org/1999/xlink" x="0px" y="0px"
	 viewBox="0 0 512 512" style="enable-background:new 0 0 512 512;" xml:space="preserve">
<circle style="fill:#5D9CEC;" cx="252.5" cy="256" r="252.5"/>
<path style="fill:#4A89DC;" d="M252.5,3.5c-10.154,0-20.162,0.617-30.003,1.782C347.805,20.12,444.994,126.701,444.994,256
	s-97.189,235.88-222.497,250.718c9.841,1.165,19.849,1.782,30.003,1.782C391.952,508.5,505,395.452,505,256S391.952,3.5,252.5,3.5z"
	/>
<g>
	<path style="fill:#A0D468;" d="M146.498,383.497h-40.351c4.718-6.272,7.518-14.065,7.518-22.5c0-20.678-16.822-37.5-37.5-37.5
		H9.139c15.138,54.7,48.211,101.947,92.506,135h44.854c20.678,0,37.5-16.822,37.5-37.5
		C183.998,400.319,167.176,383.497,146.498,383.497z"/>
	<path style="fill:#A0D468;" d="M329.923,15.611c-6.23,6.779-9.92,15.775-9.92,25.383c0,8.435,2.8,16.229,7.518,22.5h-70.353
		c-20.678,0-37.5,16.822-37.5,37.5s16.822,37.5,37.5,37.5h30.353c-4.718,6.271-7.518,14.066-7.518,22.5
		c0,8.435,2.8,16.229,7.518,22.5h-90.356c-20.678,0-37.5,16.822-37.5,37.5s16.822,37.5,37.5,37.5h307.804
		c0.008-0.832,0.031-1.66,0.031-2.494C505,143.559,431.496,48.301,329.923,15.611z"/>
</g>
<path style="fill:#8CC152;" d="M504.969,258.494c0.008-0.832,0.031-1.66,0.031-2.494c0-1.997-0.029-3.988-0.076-5.974
	c-0.014-0.625-0.037-1.247-0.057-1.87c-0.042-1.381-0.093-2.758-0.157-4.133c-0.032-0.701-0.069-1.402-0.107-2.103
	c-0.074-1.348-0.16-2.692-0.256-4.035c-0.046-0.645-0.088-1.293-0.139-1.938c-0.134-1.712-0.286-3.419-0.454-5.121
	c-0.024-0.246-0.043-0.493-0.068-0.739c-0.197-1.936-0.421-3.865-0.662-5.788c-0.074-0.593-0.158-1.184-0.236-1.776
	c-0.179-1.347-0.365-2.691-0.564-4.032c-0.104-0.696-0.212-1.393-0.321-2.087c-0.2-1.271-0.411-2.539-0.63-3.804
	c-0.116-0.67-0.231-1.341-0.352-2.009c-0.268-1.473-0.551-2.941-0.844-4.405c-0.086-0.426-0.163-0.854-0.251-1.28
	c-0.381-1.852-0.784-3.697-1.205-5.534c-0.134-0.584-0.277-1.164-0.415-1.746c-0.304-1.281-0.613-2.56-0.936-3.833
	c-0.18-0.711-0.366-1.42-0.553-2.129c-0.306-1.166-0.621-2.328-0.943-3.488c-0.197-0.706-0.393-1.413-0.595-2.117
	c-0.362-1.259-0.738-2.512-1.12-3.764c-0.174-0.569-0.34-1.143-0.518-1.711c-0.546-1.746-1.11-3.484-1.693-5.215
	c-0.204-0.607-0.42-1.209-0.629-1.814c-0.405-1.172-0.815-2.344-1.236-3.508c-0.268-0.743-0.544-1.482-0.82-2.222
	c-0.385-1.033-0.775-2.063-1.174-3.09c-0.294-0.757-0.588-1.513-0.889-2.267c-0.42-1.051-0.85-2.096-1.283-3.139
	c-0.287-0.693-0.568-1.39-0.862-2.08c-0.689-1.619-1.393-3.23-2.114-4.832c-0.307-0.68-0.626-1.354-0.938-2.03
	c-0.463-1.005-0.928-2.009-1.403-3.007c-0.38-0.796-0.768-1.586-1.156-2.377c-0.428-0.873-0.859-1.743-1.297-2.61
	c-0.411-0.814-0.824-1.627-1.244-2.437c-0.439-0.845-0.885-1.686-1.332-2.524c-0.428-0.802-0.852-1.605-1.287-2.402
	c-0.522-0.956-1.059-1.903-1.594-2.853c-0.749-1.326-1.509-2.646-2.281-3.958c-0.454-0.772-0.906-1.548-1.368-2.315
	c-0.517-0.857-1.044-1.709-1.571-2.56c-0.432-0.697-0.864-1.394-1.303-2.087c-0.549-0.868-1.103-1.733-1.662-2.596
	c-0.424-0.652-0.854-1.301-1.283-1.949c-0.586-0.884-1.17-1.769-1.767-2.644c-0.355-0.521-0.718-1.034-1.075-1.552
	c-1.279-1.848-2.58-3.678-3.906-5.489c-0.313-0.427-0.621-0.857-0.936-1.283c-0.691-0.931-1.393-1.853-2.097-2.773
	c-0.388-0.508-0.775-1.017-1.167-1.521c-0.71-0.916-1.427-1.828-2.149-2.733c-0.375-0.471-0.754-0.938-1.133-1.406
	c-0.763-0.943-1.527-1.885-2.304-2.816c-0.222-0.266-0.447-0.527-0.67-0.792c-2.768-3.296-5.621-6.52-8.552-9.669
	c-0.294-0.315-0.586-0.632-0.881-0.946c-0.892-0.947-1.79-1.887-2.695-2.82c-0.301-0.311-0.603-0.619-0.905-0.928
	c-0.948-0.968-1.9-1.932-2.865-2.885c-0.107-0.106-0.216-0.211-0.323-0.316c-3.292-3.242-6.671-6.395-10.136-9.453
	c-0.15-0.133-0.299-0.267-0.45-0.398c-1.082-0.951-2.174-1.892-3.272-2.824c-0.21-0.179-0.421-0.356-0.632-0.535
	c-1.132-0.954-2.27-1.902-3.419-2.837c-0.014-0.011-0.027-0.021-0.04-0.032c-4.989-4.059-10.138-7.931-15.433-11.605
	c-0.118-0.082-0.236-0.164-0.354-0.246c-6.641-4.592-13.511-8.875-20.592-12.827c-0.036-0.021-0.073-0.04-0.108-0.06
	c-14.314-7.978-29.482-14.605-45.335-19.706c-5.6,6.094-9.138,13.981-9.798,22.491C394.834,81.949,444.994,163.111,444.994,256
	c0,0.834-0.021,1.662-0.029,2.494H504.969z"/>
<path style="fill:#FFCE54;" d="M504.5,508.5H294.501c-4.143,0-7.5-3.357-7.5-7.5V340.998c0-4.142,3.357-7.5,7.5-7.5H504.5
	c4.143,0,7.5,3.358,7.5,7.5V501C512,505.143,508.643,508.5,504.5,508.5z"/>
<g>
	<path style="fill:#F6BB42;" d="M504.5,333.498h-30.003c4.142,0,7.5,3.358,7.5,7.5V501c0,4.143-3.358,7.5-7.5,7.5H504.5
		c4.143,0,7.5-3.357,7.5-7.5V340.998C512,336.855,508.643,333.498,504.5,333.498z"/>
	<path style="fill:#F6BB42;" d="M294.501,333.498H504.5c2.997,0,5.576,1.762,6.777,4.303c-0.025-0.052-0.043-0.105-0.069-0.157
		l-20-40.001c-0.015-0.028-0.032-0.055-0.046-0.082c-0.072-0.139-0.149-0.271-0.229-0.404c-0.053-0.088-0.103-0.177-0.159-0.262
		c-0.069-0.105-0.144-0.207-0.218-0.309c-0.074-0.103-0.148-0.207-0.229-0.305c-0.06-0.076-0.127-0.148-0.191-0.221
		c-0.099-0.113-0.196-0.225-0.301-0.33c-0.059-0.061-0.121-0.115-0.183-0.173c-0.114-0.108-0.227-0.216-0.348-0.316
		c-0.072-0.06-0.148-0.115-0.224-0.173c-0.112-0.087-0.224-0.175-0.341-0.255c-0.104-0.071-0.212-0.135-0.319-0.2
		c-0.094-0.058-0.185-0.117-0.279-0.17c-0.139-0.077-0.281-0.145-0.425-0.213c-0.07-0.033-0.139-0.07-0.21-0.102
		c-0.158-0.069-0.32-0.129-0.483-0.188c-0.064-0.022-0.125-0.048-0.189-0.068c-0.158-0.052-0.318-0.094-0.48-0.135
		c-0.076-0.02-0.152-0.042-0.229-0.06c-0.143-0.031-0.287-0.055-0.433-0.078c-0.104-0.017-0.206-0.034-0.311-0.047
		c-0.122-0.015-0.246-0.022-0.37-0.03c-0.131-0.01-0.262-0.018-0.394-0.021c-0.04-0.001-0.078-0.006-0.119-0.006h-160
		c-0.052,0-0.102,0.007-0.153,0.008c-0.14,0.003-0.279,0.011-0.419,0.02c-0.114,0.01-0.229,0.02-0.342,0.033
		c-0.123,0.015-0.244,0.034-0.366,0.056c-0.124,0.021-0.249,0.044-0.371,0.071c-0.11,0.025-0.22,0.055-0.329,0.084
		c-0.125,0.035-0.251,0.069-0.375,0.11c-0.107,0.036-0.215,0.077-0.321,0.118c-0.117,0.045-0.234,0.089-0.349,0.14
		c-0.113,0.05-0.225,0.106-0.336,0.161c-0.102,0.052-0.204,0.102-0.303,0.157c-0.118,0.066-0.232,0.139-0.348,0.211
		c-0.088,0.056-0.176,0.111-0.262,0.171c-0.113,0.078-0.224,0.163-0.333,0.249c-0.083,0.065-0.167,0.13-0.247,0.198
		c-0.1,0.084-0.196,0.174-0.292,0.265c-0.087,0.082-0.172,0.164-0.255,0.25c-0.08,0.084-0.158,0.171-0.236,0.26
		c-0.091,0.104-0.18,0.21-0.266,0.319c-0.031,0.041-0.066,0.076-0.098,0.118l-29.999,40.001c-0.032,0.044-0.06,0.09-0.091,0.135
		C289.772,334.737,291.989,333.498,294.501,333.498z"/>
</g>
<path style="fill:#DCA746;" d="M511.208,337.644l-20-40.001c-0.015-0.028-0.032-0.055-0.046-0.082
	c-0.072-0.139-0.149-0.271-0.229-0.404c-0.053-0.088-0.103-0.177-0.159-0.262c-0.069-0.105-0.144-0.207-0.218-0.309
	c-0.074-0.103-0.148-0.207-0.229-0.305c-0.06-0.076-0.127-0.148-0.191-0.221c-0.099-0.113-0.196-0.225-0.301-0.33
	c-0.059-0.061-0.121-0.115-0.183-0.173c-0.114-0.108-0.227-0.216-0.348-0.316c-0.072-0.06-0.148-0.115-0.224-0.173
	c-0.112-0.087-0.224-0.175-0.341-0.255c-0.104-0.071-0.212-0.135-0.319-0.2c-0.094-0.058-0.185-0.117-0.279-0.17
	c-0.139-0.077-0.281-0.145-0.425-0.213c-0.07-0.033-0.139-0.07-0.21-0.102c-0.158-0.069-0.32-0.129-0.483-0.188
	c-0.064-0.022-0.125-0.048-0.189-0.068c-0.158-0.052-0.318-0.094-0.48-0.135c-0.076-0.02-0.152-0.042-0.229-0.06
	c-0.143-0.031-0.287-0.055-0.433-0.078c-0.104-0.017-0.206-0.034-0.311-0.047c-0.122-0.015-0.246-0.022-0.37-0.03
	c-0.131-0.01-0.262-0.018-0.394-0.021c-0.04-0.001-0.078-0.006-0.119-0.006h-30.003c0.041,0,0.079,0.005,0.119,0.006
	c0.132,0.003,0.263,0.011,0.394,0.021c0.124,0.008,0.248,0.016,0.37,0.03c0.104,0.013,0.207,0.03,0.31,0.047
	c0.146,0.023,0.29,0.047,0.433,0.078c0.077,0.018,0.153,0.04,0.23,0.06c0.162,0.041,0.322,0.083,0.48,0.135
	c0.064,0.021,0.125,0.046,0.189,0.068c0.163,0.059,0.325,0.118,0.483,0.188c0.071,0.031,0.14,0.068,0.21,0.102
	c0.144,0.068,0.286,0.136,0.425,0.213c0.095,0.053,0.186,0.112,0.279,0.17c0.107,0.065,0.216,0.129,0.319,0.2
	c0.117,0.08,0.228,0.168,0.341,0.255c0.075,0.058,0.151,0.113,0.224,0.173c0.12,0.101,0.233,0.208,0.348,0.316
	c0.062,0.058,0.124,0.112,0.183,0.173c0.104,0.105,0.202,0.217,0.301,0.33c0.064,0.073,0.131,0.145,0.191,0.221
	c0.08,0.098,0.154,0.202,0.229,0.305c0.074,0.102,0.148,0.203,0.218,0.309c0.056,0.085,0.106,0.174,0.159,0.262
	c0.079,0.133,0.156,0.266,0.229,0.404c0.014,0.027,0.031,0.054,0.046,0.082l17.928,35.855H504.5c2.997,0,5.576,1.762,6.777,4.303
	C511.252,337.749,511.234,337.695,511.208,337.644z"/>
<polygon style="fill:#DA4453;" points="411.999,293.497 387.001,293.497 377,333.498 399.844,335.498 422,333.498 "/>
<path style="fill:#ED5565;" d="M377,333.498v37.501c0,4.143,3.357,7.5,7.5,7.5h30c4.143,0,7.5-3.357,7.5-7.5v-37.501H377z"/>
<g>
</g>
<g>
</g>
<g>
</g>
<g>
</g>
<g>
</g>
<g>
</g>
<g>
</g>
<g>
</g>
<g>
</g>
<g>
</g>
<g>
</g>
<g>
</g>
<g>
</g>
<g>
</g>
<g>
</g>
</svg>
