<?xml version="1.0" encoding="iso-8859-1"?>
<!-- Generator: Adobe Illustrator 19.0.0, SVG Export Plug-In . SVG Version: 6.00 Build 0)  -->
<svg version="1.1" id="Capa_1" xmlns="http://www.w3.org/2000/svg" xmlns:xlink="http://www.w3.org/1999/xlink" x="0px" y="0px"
	 viewBox="0 0 512 512" style="enable-background:new 0 0 512 512;" xml:space="preserve">
<path style="fill:#E6E9ED;" d="M130.186,274.821h-22.5v164.563h22.5c4.125,0,7.5-3.276,7.5-7.28s0-10.655,0-14.78V297.321
	c0-4.125,0-10.875,0-15S134.311,274.821,130.186,274.821z"/>
<path style="fill:#656D78;" d="M107.687,431.884c0,4.125,0,10.875,0,15v0.439c0,4.125-3.375,7.5-7.5,7.5H7.5
	c-4.125,0-7.5-3.375-7.5-7.5V267.32c0-4.125,3.375-7.5,7.5-7.5h92.687c4.125,0,7.5,3.375,7.5,7.5v0.001c0,4.125,0,10.875,0,15
	V431.884z"/>
<path style="fill:#FFDECF;" d="M361.194,342.542l16.496-7.5c37.5-15.002,90-40.943,90-40.943c14.4-8.248,32.697-3.443,40.959,10.941
	c8.246,14.414,0,30.002-10.957,40.959c0,0-135.002,109.043-180.004,109.043c-45,0-180.002-30-180.002-30V290.04
	c75-12.451,100.65,7.5,210.002,42.451c6.006,2.551,10.049,6.154,12.598,10.52L361.194,342.542z"/>
<g>
	<path style="fill:#FFCDBE;" d="M508.649,305.04c-3.018-5.258-7.398-9.199-12.408-11.732c-1.83,8.363-7.178,16.318-13.551,22.69
		c0,0-120,106.291-165.002,106.291c-35.859,0-143.703-16.26-180.002-23.994v26.748c0,0,135.002,30,180.002,30
		C362.69,455.043,497.692,346,497.692,346C508.649,335.042,516.896,319.454,508.649,305.04z"/>
	<path style="fill:#FFCDBE;" d="M337.186,388.112c12.158,0,24.506-6.752,32.682-18.252c7.865-11.059,9.447-23.672,4.379-33.236
		l-13.053,5.918l-0.586,0.293c0.104,0.16,0.322,0.453,0.397,0.57c2.506,4.381,1.188,11.353-3.369,17.77
		c-5.01,7.061-14.254,13.389-23.6,11.66c-14.707-2.695-101.646-14.561-105.338-15.059c-4.059-0.586-7.881,2.314-8.438,6.416
		s2.314,7.881,6.416,8.438c0.893,0.117,90.295,12.318,104.635,14.941C333.261,387.937,335.224,388.112,337.186,388.112z"/>
</g>
<path style="fill:#FFCE54;" d="M78.462,447.542H78.3c-4.131,0-7.412,3.369-7.412,7.5h15.074
	C85.962,450.911,82.593,447.542,78.462,447.542z"/>
<path style="fill:#5D9CEC;" d="M427.734,241.962H197.736c-15.163,0-27.5-12.337-27.5-27.5V84.458c0-15.163,12.337-27.5,27.5-27.5
	h229.998c15.163,0,27.5,12.337,27.5,27.5v130.004C455.234,229.625,442.897,241.962,427.734,241.962z"/>
<path style="fill:#4A89DC;" d="M427.734,56.958h-30.003c15.163,0,27.5,12.337,27.5,27.5v130.004c0,15.163-12.337,27.5-27.5,27.5
	h30.003c15.163,0,27.5-12.337,27.5-27.5V84.458C455.234,69.295,442.897,56.958,427.734,56.958z"/>
<g>
	<path style="fill:#515760;" d="M277.737,196.961h-70.003c-4.143,0-7.5-3.357-7.5-7.5s3.357-7.5,7.5-7.5h70.003
		c4.143,0,7.5,3.357,7.5,7.5S281.88,196.961,277.737,196.961z"/>
	<path style="fill:#515760;" d="M417.734,196.961h-20c-4.143,0-7.5-3.357-7.5-7.5s3.357-7.5,7.5-7.5h20c4.143,0,7.5,3.357,7.5,7.5
		S421.877,196.961,417.734,196.961z"/>
</g>
<rect x="170.24" y="94.46" style="fill:#656D78;" width="285" height="40.01"/>
<rect x="425.23" y="94.46" style="fill:#515760;" width="30" height="40.01"/>
<g>
</g>
<g>
</g>
<g>
</g>
<g>
</g>
<g>
</g>
<g>
</g>
<g>
</g>
<g>
</g>
<g>
</g>
<g>
</g>
<g>
</g>
<g>
</g>
<g>
</g>
<g>
</g>
<g>
</g>
</svg>
