<?xml version="1.0" encoding="iso-8859-1"?>
<!-- Generator: Adobe Illustrator 19.0.0, SVG Export Plug-In . SVG Version: 6.00 Build 0)  -->
<svg version="1.1" id="Capa_1" xmlns="http://www.w3.org/2000/svg" xmlns:xlink="http://www.w3.org/1999/xlink" x="0px" y="0px"
	 viewBox="0 0 512.005 512.005" style="enable-background:new 0 0 512.005 512.005;" xml:space="preserve">
<path style="fill:#E6E9ED;" d="M0.004,103.495v2.497L0,125.998c0,0.026,0.004,0.052,0.004,0.078v239.955v20.651v49.328
	c0,1.97,0.8,3.9,2.19,5.3c1.4,1.4,3.33,2.2,5.31,2.2h496.994c1.98,0,3.91-0.8,5.31-2.2c1.391-1.399,2.19-3.33,2.19-5.3V103.495
	H0.004z"/>
<path style="fill:#CCD1D9;" d="M481.995,103.495V436.01c0,1.97-0.8,3.9-2.19,5.3c-1.399,1.4-3.33,2.2-5.31,2.2h30.003
	c1.98,0,3.91-0.8,5.31-2.2c1.391-1.399,2.19-3.33,2.19-5.3V103.495H481.995z"/>
<path style="fill:#5D9CEC;" d="M484.725,68.507c-0.075-0.003-0.148-0.012-0.225-0.012H27.504c-15.16,0-27.496,12.333-27.5,27.492
	c0,0.001,0,0.003,0,0.003v7.506h15h481.994h15V95.99c0,0,0,0,0-0.011c0-7.34-2.86-14.25-8.05-19.43
	C498.811,71.404,491.99,68.564,484.725,68.507z"/>
<path style="fill:#4A89DC;" d="M503.948,76.551c-5.137-5.146-11.958-7.986-19.224-8.044c-0.075-0.003-0.148-0.012-0.225-0.012
	h-30.003c0.076,0,0.149,0.009,0.225,0.012c7.266,0.058,14.087,2.897,19.224,8.044c5.189,5.18,8.05,12.09,8.05,19.43
	c0,0.011,0,0.011,0,0.011v7.505h15.003h15v-7.505c0,0,0,0,0-0.011C511.998,88.641,509.138,81.73,503.948,76.551z"/>
<rect x="0.005" y="103.493" style="fill:#656D78;" width="512" height="30"/>
<g>
	<path style="fill:#F5F7FA;" d="M168.998,388.492c0,8.25-6.75,15-15,15h-105c-8.25,0-15-6.75-15-15v-195c0-8.25,6.75-15,15-15h105
		c8.25,0,15,6.75,15,15V388.492z"/>
	<path style="fill:#F5F7FA;" d="M323.999,388.492c0,8.25-6.75,15-15,15h-105c-8.25,0-15-6.75-15-15v-195c0-8.25,6.75-15,15-15h105
		c8.25,0,15,6.75,15,15V388.492z"/>
	<path style="fill:#F5F7FA;" d="M478,388.492c0,8.25-6.75,15-15,15H358c-8.25,0-15-6.75-15-15v-195c0-8.25,6.75-15,15-15h105
		c8.25,0,15,6.75,15,15V388.492z"/>
</g>
<path style="fill:#48CFAD;" d="M446.01,313.495c-0.008,0-0.014,0-0.021,0h-70.997c-2.119,0-4.14-0.896-5.562-2.468
	c-1.422-1.571-2.112-3.67-1.901-5.778l6.001-60c0.384-3.834,3.609-6.754,7.463-6.754h59.998c3.9,0,7.15,2.99,7.475,6.877
	l4.951,59.442c0.061,0.385,0.094,0.779,0.094,1.181C453.51,310.138,450.15,313.495,446.01,313.495z"/>
<g>
	<path style="fill:#656D78;" d="M410.991,208.495c-12.407,0-22.5,10.094-22.5,22.5v15c0,4.143,3.358,7.5,7.5,7.5s7.5-3.357,7.5-7.5
		v-15c0-4.136,3.364-7.5,7.5-7.5s7.499,3.364,7.499,7.5v15c0,4.143,3.359,7.5,7.5,7.5c4.143,0,7.5-3.357,7.5-7.5v-15
		C433.49,218.589,423.398,208.495,410.991,208.495z"/>
	<path style="fill:#656D78;" d="M405.49,343.492h-30c-4.143,0-7.5-3.357-7.5-7.5s3.357-7.5,7.5-7.5h30c4.143,0,7.5,3.357,7.5,7.5
		S409.633,343.492,405.49,343.492z"/>
	<path style="fill:#656D78;" d="M445.988,343.492H435.49c-4.143,0-7.5-3.357-7.5-7.5s3.357-7.5,7.5-7.5h10.498
		c4.143,0,7.5,3.357,7.5,7.5C453.488,340.135,450.131,343.492,445.988,343.492z"/>
</g>
<path style="fill:#5D9CEC;" d="M445.988,373.492H375.49c-4.143,0-7.5-3.357-7.5-7.5s3.357-7.5,7.5-7.5h70.498
	c4.143,0,7.5,3.357,7.5,7.5C453.488,370.135,450.131,373.492,445.988,373.492z"/>
<path style="fill:#48CFAD;" d="M292.009,313.495c-0.008,0-0.014,0-0.022,0H220.99c-2.119,0-4.14-0.896-5.561-2.468
	c-1.422-1.571-2.112-3.67-1.901-5.778l6.001-60c0.384-3.834,3.609-6.754,7.463-6.754h59.998c3.9,0,7.15,2.99,7.475,6.877
	l4.951,59.442c0.061,0.385,0.094,0.779,0.094,1.181C299.509,310.138,296.149,313.495,292.009,313.495z"/>
<g>
	<path style="fill:#656D78;" d="M256.99,208.495c-12.407,0-22.5,10.094-22.5,22.5v15c0,4.143,3.358,7.5,7.5,7.5s7.5-3.357,7.5-7.5
		v-15c0-4.136,3.364-7.5,7.5-7.5c4.136,0,7.499,3.364,7.499,7.5v15c0,4.143,3.359,7.5,7.5,7.5c4.142,0,7.5-3.357,7.5-7.5v-15
		C279.489,218.589,269.397,208.495,256.99,208.495z"/>
	<path style="fill:#656D78;" d="M251.489,343.492h-30c-4.143,0-7.5-3.357-7.5-7.5s3.357-7.5,7.5-7.5h30c4.143,0,7.5,3.357,7.5,7.5
		S255.632,343.492,251.489,343.492z"/>
	<path style="fill:#656D78;" d="M291.987,343.492h-10.498c-4.143,0-7.5-3.357-7.5-7.5s3.357-7.5,7.5-7.5h10.498
		c4.143,0,7.5,3.357,7.5,7.5S296.13,343.492,291.987,343.492z"/>
</g>
<path style="fill:#5D9CEC;" d="M291.987,373.492h-70.498c-4.143,0-7.5-3.357-7.5-7.5s3.357-7.5,7.5-7.5h70.498
	c4.143,0,7.5,3.357,7.5,7.5S296.13,373.492,291.987,373.492z"/>
<path style="fill:#48CFAD;" d="M138.008,313.495c-0.008,0-0.014,0-0.021,0H66.989c-2.119,0-4.14-0.896-5.562-2.468
	c-1.422-1.571-2.112-3.67-1.901-5.778l6.001-60c0.384-3.834,3.609-6.754,7.463-6.754h59.998c3.9,0,7.15,2.99,7.475,6.877
	l4.951,59.442c0.061,0.385,0.094,0.779,0.094,1.181C145.508,310.138,142.148,313.495,138.008,313.495z"/>
<g>
	<path style="fill:#656D78;" d="M102.989,208.495c-12.407,0-22.5,10.094-22.5,22.5v15c0,4.143,3.358,7.5,7.5,7.5s7.5-3.357,7.5-7.5
		v-15c0-4.136,3.364-7.5,7.5-7.5s7.499,3.364,7.499,7.5v15c0,4.143,3.359,7.5,7.5,7.5c4.143,0,7.5-3.357,7.5-7.5v-15
		C125.488,218.589,115.396,208.495,102.989,208.495z"/>
	<path style="fill:#656D78;" d="M97.488,343.492h-30c-4.143,0-7.5-3.357-7.5-7.5s3.357-7.5,7.5-7.5h30c4.143,0,7.5,3.357,7.5,7.5
		S101.631,343.492,97.488,343.492z"/>
	<path style="fill:#656D78;" d="M137.986,343.492h-10.498c-4.143,0-7.5-3.357-7.5-7.5s3.357-7.5,7.5-7.5h10.498
		c4.143,0,7.5,3.357,7.5,7.5S142.129,343.492,137.986,343.492z"/>
</g>
<path style="fill:#5D9CEC;" d="M137.986,373.492H67.488c-4.143,0-7.5-3.357-7.5-7.5s3.357-7.5,7.5-7.5h70.498
	c4.143,0,7.5,3.357,7.5,7.5S142.129,373.492,137.986,373.492z"/>
<g>
</g>
<g>
</g>
<g>
</g>
<g>
</g>
<g>
</g>
<g>
</g>
<g>
</g>
<g>
</g>
<g>
</g>
<g>
</g>
<g>
</g>
<g>
</g>
<g>
</g>
<g>
</g>
<g>
</g>
</svg>
