<?xml version="1.0" encoding="iso-8859-1"?>
<!-- Generator: Adobe Illustrator 19.0.0, SVG Export Plug-In . SVG Version: 6.00 Build 0)  -->
<svg version="1.1" id="Capa_1" xmlns="http://www.w3.org/2000/svg" xmlns:xlink="http://www.w3.org/1999/xlink" x="0px" y="0px"
	 viewBox="0 0 512 512" style="enable-background:new 0 0 512 512;" xml:space="preserve">
<path style="fill:#F5F7FA;" d="M356.003,0H60.997c-26.191,0-47.5,21.309-47.5,47.5c0,4.143,3.358,7.5,7.5,7.5H301
	c4.142,0,7.5-3.357,7.5-7.5c0-0.183,0.013-0.362,0.017-0.545C308.81,20.975,329.953,0,356.003,0z"/>
<path style="fill:#E6E9ED;" d="M403.503,464.491V47.5c0-26.233-21.267-47.5-47.5-47.5c-26.051,0-47.193,20.975-47.486,46.955
	c-0.004,0.183-0.017,0.362-0.017,0.545c0,4.143-3.358,7.5-7.5,7.5H93.492v409.5c0,26.233,21.266,47.5,47.5,47.5h262.512v-0.009h47.5
	C424.77,511.991,403.503,490.725,403.503,464.491z"/>
<path style="fill:#DADDE1;" d="M403.503,464.491V47.5c0-26.233-21.267-47.5-47.5-47.5c-5.244,0-10.283,0.863-15,2.433
	C359.882,8.715,373.5,26.512,373.5,47.5v416.991c0,26.233,21.267,47.5,47.5,47.5h30.003
	C424.77,511.991,403.503,490.725,403.503,464.491z"/>
<path style="fill:#CCD1D9;" d="M491.003,456.991h-87.5v7.5c0,26.233,21.267,47.5,47.5,47.5c26.191,0,47.5-21.309,47.5-47.5
	C498.503,460.349,495.146,456.991,491.003,456.991z"/>
<g>
	<path style="fill:#656D78;" d="M330.995,303.498H220.999c-4.142,0-7.5-3.357-7.5-7.5c0-4.142,3.358-7.5,7.5-7.5h109.996
		c4.142,0,7.5,3.358,7.5,7.5C338.495,300.141,335.136,303.498,330.995,303.498z"/>
	<path style="fill:#656D78;" d="M280.989,363.496h-59.99c-4.142,0-7.5-3.357-7.5-7.5s3.358-7.5,7.5-7.5h59.99
		c4.142,0,7.5,3.357,7.5,7.5S285.13,363.496,280.989,363.496z"/>
</g>
<g>
	<path style="fill:#A0D468;" d="M160.693,311.301c1.281,1.281,2.912,2.002,4.585,2.162c0.239,0.023,0.48,0.034,0.719,0.034
		c0.445,0,0.89-0.044,1.329-0.122c0.111-0.021,0.221-0.046,0.33-0.07c1.336-0.303,2.605-0.965,3.645-2.004l19.998-19.998
		c2.929-2.93,2.929-7.678,0-10.607c-2.93-2.928-7.678-2.928-10.607,0l-14.694,14.695l-4.696-4.696
		c-2.93-2.928-7.679-2.929-10.607,0.001c-2.929,2.929-2.928,7.678,0,10.606L160.693,311.301z"/>
	<path style="fill:#A0D468;" d="M180.691,340.693l-14.694,14.695l-4.696-4.696c-2.93-2.928-7.679-2.929-10.607,0.001
		c-2.929,2.929-2.928,7.678,0,10.606l10,9.999c1.281,1.281,2.912,2.002,4.585,2.162c0.239,0.022,0.48,0.034,0.719,0.034
		c0.445,0,0.89-0.044,1.329-0.122c0.111-0.02,0.221-0.046,0.33-0.07c1.336-0.303,2.605-0.965,3.645-2.004L191.3,351.3
		c2.929-2.93,2.929-7.678,0-10.607C188.369,337.766,183.621,337.766,180.691,340.693z"/>
	<path style="fill:#A0D468;" d="M180.691,400.691l-14.694,14.695l-4.696-4.696c-2.93-2.928-7.679-2.929-10.607,0.001
		c-2.929,2.929-2.928,7.678,0,10.607l10,9.999c1.281,1.281,2.912,2.002,4.585,2.162c0.239,0.022,0.48,0.034,0.719,0.034
		c0.445,0,0.89-0.044,1.329-0.122c0.111-0.021,0.221-0.046,0.33-0.07c1.336-0.303,2.605-0.965,3.645-2.004l19.998-19.998
		c2.929-2.93,2.929-7.678,0-10.607C188.369,397.764,183.621,397.764,180.691,400.691z"/>
</g>
<path style="fill:#656D78;" d="M340.995,423.494H220.999c-4.142,0-7.5-3.357-7.5-7.5s3.358-7.5,7.5-7.5h119.996
	c4.142,0,7.5,3.357,7.5,7.5S345.136,423.494,340.995,423.494z"/>
<path style="fill:#A0D468;" d="M317.021,230.459c0.078-0.105,0.158-0.209,0.23-0.318c0.057-0.086,0.107-0.177,0.161-0.266
	c0.071-0.117,0.145-0.233,0.21-0.355c0.049-0.093,0.091-0.189,0.137-0.283c0.059-0.123,0.119-0.244,0.172-0.37
	c0.044-0.108,0.08-0.22,0.12-0.33c0.042-0.116,0.087-0.231,0.124-0.352c0.04-0.132,0.07-0.268,0.104-0.402
	c0.024-0.102,0.055-0.202,0.074-0.307c0.032-0.157,0.053-0.318,0.074-0.48c0.011-0.086,0.027-0.17,0.036-0.256
	c0.017-0.169,0.02-0.34,0.025-0.512c0.003-0.076,0.012-0.151,0.012-0.229c0-0.008-0.001-0.016-0.001-0.016
	c-0.001-0.137-0.013-0.266-0.02-0.394c-0.008-0.132-0.01-0.266-0.023-0.396c-0.002-0.008-0.001-0.016-0.002-0.023l-9.992-89.934
	c-0.001-0.006-0.002-0.012-0.002-0.017l-0.006-0.052c-0.008-0.074-0.025-0.146-0.035-0.221c-0.024-0.171-0.049-0.343-0.084-0.511
	c-0.017-0.087-0.045-0.171-0.065-0.257c-0.039-0.154-0.075-0.309-0.124-0.461c-0.033-0.107-0.076-0.21-0.115-0.315
	c-0.045-0.123-0.088-0.247-0.139-0.368c-0.054-0.123-0.116-0.242-0.176-0.363c-0.047-0.096-0.091-0.192-0.143-0.286
	c-0.071-0.13-0.151-0.254-0.23-0.379c-0.049-0.078-0.095-0.159-0.146-0.235c-0.086-0.126-0.18-0.245-0.273-0.365
	c-0.055-0.07-0.105-0.143-0.162-0.211c-0.094-0.112-0.195-0.219-0.297-0.325c-0.064-0.069-0.126-0.141-0.193-0.207
	c-0.097-0.096-0.199-0.184-0.301-0.274c-0.08-0.07-0.156-0.143-0.239-0.21c-0.097-0.079-0.198-0.149-0.298-0.223
	c-0.096-0.07-0.188-0.143-0.286-0.208c-0.095-0.063-0.195-0.119-0.294-0.178c-0.109-0.066-0.217-0.134-0.329-0.193
	c-0.098-0.053-0.2-0.098-0.3-0.145c-0.118-0.057-0.234-0.115-0.355-0.166c-0.108-0.045-0.221-0.081-0.332-0.121
	c-0.117-0.042-0.232-0.088-0.352-0.124c-0.127-0.038-0.259-0.067-0.389-0.1c-0.107-0.026-0.213-0.058-0.322-0.079
	c-0.148-0.029-0.3-0.048-0.451-0.068c-0.096-0.014-0.189-0.031-0.285-0.041c-0.158-0.016-0.318-0.019-0.479-0.025
	c-0.087-0.003-0.171-0.013-0.258-0.013h-0.06c-0.001,0-0.002,0-0.002,0h-99.939c-0.106,0-0.21,0.012-0.316,0.016
	c-0.136,0.006-0.274,0.008-0.409,0.021c-0.142,0.014-0.28,0.038-0.42,0.059c-0.102,0.016-0.206,0.026-0.307,0.047
	c-0.178,0.034-0.35,0.081-0.521,0.128c-0.061,0.016-0.121,0.028-0.182,0.046c-0.2,0.061-0.396,0.132-0.59,0.208
	c-0.028,0.012-0.058,0.02-0.086,0.031c-0.209,0.086-0.411,0.181-0.609,0.283c-0.014,0.008-0.028,0.014-0.042,0.02
	c-0.2,0.105-0.394,0.22-0.582,0.343c-0.013,0.008-0.026,0.016-0.04,0.023c-0.181,0.119-0.355,0.246-0.523,0.379
	c-0.021,0.017-0.043,0.031-0.064,0.048c-0.155,0.125-0.304,0.258-0.448,0.396c-0.032,0.029-0.066,0.057-0.098,0.088
	c-0.129,0.126-0.251,0.26-0.371,0.396c-0.041,0.047-0.086,0.091-0.125,0.138c-0.107,0.127-0.205,0.26-0.304,0.393
	c-0.046,0.063-0.096,0.123-0.14,0.188c-0.089,0.129-0.168,0.262-0.248,0.396c-0.045,0.075-0.094,0.147-0.137,0.225
	c-0.074,0.136-0.141,0.275-0.207,0.415c-0.038,0.08-0.08,0.158-0.115,0.241c-0.064,0.148-0.119,0.302-0.174,0.454
	c-0.027,0.079-0.061,0.155-0.086,0.235c-0.053,0.165-0.094,0.334-0.135,0.503c-0.018,0.074-0.041,0.145-0.057,0.219
	c-0.036,0.172-0.06,0.347-0.084,0.521c-0.011,0.072-0.027,0.141-0.035,0.213l-0.006,0.052c0,0.005-0.001,0.011-0.002,0.017
	l-9.992,89.934c-0.001,0.008,0,0.016-0.002,0.023c-0.014,0.13-0.016,0.264-0.023,0.396c-0.007,0.128-0.019,0.257-0.02,0.385
	c0,0-0.001,0.017-0.001,0.024c0,0.077,0.009,0.152,0.012,0.229c0.005,0.172,0.009,0.343,0.025,0.512
	c0.009,0.086,0.025,0.17,0.036,0.256c0.021,0.161,0.042,0.322,0.074,0.48c0.02,0.104,0.05,0.204,0.074,0.307
	c0.033,0.135,0.063,0.271,0.104,0.402c0.037,0.12,0.082,0.235,0.124,0.352c0.04,0.11,0.076,0.222,0.12,0.33
	c0.053,0.126,0.113,0.247,0.172,0.37c0.046,0.094,0.088,0.191,0.137,0.283c0.065,0.122,0.139,0.238,0.21,0.355
	c0.054,0.089,0.104,0.18,0.161,0.266c0.072,0.109,0.152,0.213,0.231,0.318c0.066,0.089,0.129,0.18,0.199,0.266
	c0.075,0.094,0.156,0.18,0.236,0.269c0.082,0.092,0.161,0.185,0.247,0.272c0.076,0.077,0.157,0.148,0.237,0.222
	c0.098,0.091,0.193,0.184,0.296,0.269c0.078,0.066,0.161,0.125,0.241,0.188c0.111,0.084,0.22,0.171,0.335,0.25
	c0.085,0.058,0.175,0.109,0.263,0.164c0.117,0.072,0.231,0.147,0.353,0.214c0.101,0.056,0.204,0.102,0.308,0.153
	c0.114,0.057,0.227,0.115,0.344,0.166c0.123,0.053,0.252,0.096,0.378,0.143c0.103,0.037,0.202,0.079,0.307,0.112
	c0.152,0.049,0.31,0.086,0.466,0.125c0.084,0.021,0.166,0.047,0.252,0.065c0.168,0.036,0.34,0.059,0.512,0.083
	c0.074,0.011,0.145,0.027,0.22,0.036c0.007,0.001,0.015,0.001,0.022,0.001c0.237,0.025,0.478,0.038,0.723,0.041
	c0.031,0,0.063,0.005,0.092,0.005c0.008,0,0.014-0.001,0.021-0.001H310.97c0.008,0,0.014,0.001,0.022,0.001
	c0.029,0,0.06-0.005,0.092-0.005c0.244-0.003,0.485-0.016,0.723-0.041c0.008,0,0.016,0,0.022-0.001
	c0.074-0.009,0.145-0.025,0.22-0.036c0.172-0.023,0.344-0.047,0.512-0.083c0.086-0.018,0.168-0.044,0.252-0.065
	c0.156-0.039,0.313-0.076,0.466-0.125c0.104-0.033,0.204-0.075,0.307-0.112c0.126-0.047,0.255-0.09,0.378-0.143
	c0.117-0.051,0.229-0.109,0.344-0.166c0.103-0.051,0.207-0.098,0.308-0.153c0.121-0.066,0.235-0.142,0.353-0.214
	c0.088-0.055,0.178-0.106,0.263-0.164c0.115-0.079,0.224-0.166,0.335-0.25c0.08-0.063,0.163-0.121,0.241-0.188
	c0.102-0.085,0.198-0.178,0.296-0.269c0.08-0.073,0.161-0.145,0.237-0.222c0.086-0.088,0.165-0.181,0.247-0.272
	c0.08-0.089,0.161-0.175,0.236-0.269C316.892,230.639,316.955,230.548,317.021,230.459z"/>
<path style="fill:#656D78;" d="M251.001,88.496c-15.163,0-27.5,12.337-27.5,27.5v30.003c0,4.143,3.358,7.5,7.5,7.5
	s7.5-3.357,7.5-7.5v-30.003c0-6.893,5.607-12.5,12.5-12.5s12.5,5.607,12.5,12.5v30.003c0,4.143,3.358,7.5,7.5,7.5s7.5-3.357,7.5-7.5
	v-30.003C278.5,100.833,266.164,88.496,251.001,88.496z"/>
<g>
</g>
<g>
</g>
<g>
</g>
<g>
</g>
<g>
</g>
<g>
</g>
<g>
</g>
<g>
</g>
<g>
</g>
<g>
</g>
<g>
</g>
<g>
</g>
<g>
</g>
<g>
</g>
<g>
</g>
</svg>
