<?xml version="1.0" encoding="iso-8859-1"?>
<!-- Generator: Adobe Illustrator 19.0.0, SVG Export Plug-In . SVG Version: 6.00 Build 0)  -->
<svg version="1.1" id="Capa_1" xmlns="http://www.w3.org/2000/svg" xmlns:xlink="http://www.w3.org/1999/xlink" x="0px" y="0px"
	 viewBox="0 0 512 512" style="enable-background:new 0 0 512 512;" xml:space="preserve">
<path style="fill:#48CFAD;" d="M484.594,49.201c-0.006,0-0.013,0.001-0.02,0.001H293.248c0.492,2.416,0.751,4.913,0.751,7.471
	v226.728h190.555c0.014,0,0.025,0.002,0.039,0.002c15.112,0,27.406-12.295,27.406-27.406V76.607
	C512,61.496,499.705,49.201,484.594,49.201z"/>
<path style="fill:#37BC9B;" d="M484.594,49.201c-0.006,0-0.013,0.001-0.02,0.001h-29.843c15.094,0.022,27.368,12.307,27.368,27.405
	v179.39c0,15.085-12.253,27.362-27.33,27.404h29.785c0.014,0,0.025,0.002,0.039,0.002c15.112,0,27.406-12.295,27.406-27.406V76.607
	C512,61.496,499.705,49.201,484.594,49.201z"/>
<path style="fill:#7A8087;" d="M256.627,452.819H37.372C16.765,452.819,0,436.055,0,415.447V56.673
	c0-20.608,16.765-37.372,37.372-37.372h219.255c20.608,0,37.372,16.765,37.372,37.372v358.774
	C293.999,436.055,277.234,452.819,256.627,452.819z"/>
<path style="fill:#656D78;" d="M256.627,19.301h-29.901c20.608,0,37.372,16.765,37.372,37.372v358.774
	c0,20.608-16.765,37.372-37.372,37.372h29.901c20.608,0,37.372-16.765,37.372-37.372V56.673
	C293.999,36.066,277.234,19.301,256.627,19.301z"/>
<path style="fill:#434A54;" d="M256.627,452.819H37.372C16.765,452.819,0,436.055,0,415.447v39.88
	c0,20.608,16.765,37.372,37.372,37.372h219.255c20.608,0,37.372-16.765,37.372-37.372v-39.88
	C293.999,436.055,277.234,452.819,256.627,452.819z"/>
<path style="fill:#5D9CEC;" d="M236.692,173.775H57.305c-4.128,0-7.474-3.346-7.474-7.474V76.607c0-4.129,3.347-7.474,7.474-7.474
	h179.387c4.128,0,7.474,3.346,7.474,7.474v89.693C244.166,170.428,240.82,173.775,236.692,173.775z"/>
<path style="fill:#4A89DC;" d="M236.692,69.133h-29.901c4.129,0,7.474,3.346,7.474,7.474v89.693c0,4.129-3.346,7.474-7.474,7.474
	h29.901c4.128,0,7.474-3.346,7.474-7.474V76.607C244.166,72.478,240.82,69.133,236.692,69.133z"/>
<path style="fill:#434A54;" d="M474.628,223.604h-39.864c-4.129,0-7.474-3.346-7.474-7.474s3.346-7.474,7.474-7.474h39.864
	c4.128,0,7.474,3.346,7.474,7.474C482.102,220.257,478.756,223.604,474.628,223.604z"/>
<g>
	<path style="fill:#CCD1D9;" d="M216.761,260.979c-13.738,0-24.915-11.178-24.915-24.915c0-13.737,11.177-24.915,24.915-24.915
		c13.738,0,24.915,11.178,24.915,24.915C241.676,249.801,230.499,260.979,216.761,260.979z"/>
	<path style="fill:#CCD1D9;" d="M146.999,260.979c-13.738,0-24.915-11.178-24.915-24.915c0-13.737,11.177-24.915,24.915-24.915
		s24.915,11.178,24.915,24.915C171.913,249.801,160.737,260.979,146.999,260.979z"/>
	<path style="fill:#CCD1D9;" d="M77.236,260.979c-13.738,0-24.915-11.178-24.915-24.915c0-13.737,11.177-24.915,24.915-24.915
		s24.915,11.178,24.915,24.915C102.151,249.801,90.974,260.979,77.236,260.979z"/>
	<path style="fill:#CCD1D9;" d="M216.761,330.741c-13.738,0-24.915-11.178-24.915-24.915c0-13.737,11.177-24.915,24.915-24.915
		c13.738,0,24.915,11.178,24.915,24.915C241.676,319.563,230.499,330.741,216.761,330.741z"/>
	<path style="fill:#CCD1D9;" d="M146.999,330.741c-13.738,0-24.915-11.178-24.915-24.915c0-13.737,11.177-24.915,24.915-24.915
		s24.915,11.178,24.915,24.915C171.913,319.563,160.737,330.741,146.999,330.741z"/>
	<path style="fill:#CCD1D9;" d="M77.236,330.741c-13.738,0-24.915-11.178-24.915-24.915c0-13.737,11.177-24.915,24.915-24.915
		s24.915,11.178,24.915,24.915C102.151,319.563,90.974,330.741,77.236,330.741z"/>
</g>
<g>
	<path style="fill:#AAB2BC;" d="M216.761,270.946c-13.738,0-24.915-11.178-24.915-24.915s11.177-24.915,24.915-24.915
		c13.738,0,24.915,11.178,24.915,24.915S230.499,270.946,216.761,270.946z"/>
	<path style="fill:#AAB2BC;" d="M146.999,270.946c-13.738,0-24.915-11.178-24.915-24.915s11.177-24.915,24.915-24.915
		s24.915,11.178,24.915,24.915S160.737,270.946,146.999,270.946z"/>
	<path style="fill:#AAB2BC;" d="M77.236,270.946c-13.738,0-24.915-11.178-24.915-24.915s11.177-24.915,24.915-24.915
		s24.915,11.178,24.915,24.915S90.974,270.946,77.236,270.946z"/>
	<path style="fill:#AAB2BC;" d="M216.761,340.707c-13.738,0-24.915-11.178-24.915-24.915c0-13.737,11.177-24.915,24.915-24.915
		c13.738,0,24.915,11.178,24.915,24.915C241.676,329.53,230.499,340.707,216.761,340.707z"/>
	<path style="fill:#AAB2BC;" d="M146.999,340.707c-13.738,0-24.915-11.178-24.915-24.915c0-13.737,11.177-24.915,24.915-24.915
		s24.915,11.178,24.915,24.915C171.913,329.53,160.737,340.707,146.999,340.707z"/>
	<path style="fill:#AAB2BC;" d="M77.236,340.707c-13.738,0-24.915-11.178-24.915-24.915c0-13.737,11.177-24.915,24.915-24.915
		s24.915,11.178,24.915,24.915C102.151,329.53,90.974,340.707,77.236,340.707z"/>
	<path style="fill:#AAB2BC;" d="M216.761,410.22c-13.602,0-24.666-11.065-24.666-24.666c0-13.601,11.064-24.666,24.666-24.666
		c13.601,0,24.666,11.065,24.666,24.666C241.427,399.155,230.362,410.22,216.761,410.22z"/>
	<path style="fill:#AAB2BC;" d="M146.999,410.469c-13.738,0-24.915-11.178-24.915-24.915c0-13.737,11.177-24.915,24.915-24.915
		s24.915,11.178,24.915,24.915C171.913,399.291,160.737,410.469,146.999,410.469z"/>
	<path style="fill:#AAB2BC;" d="M77.236,410.469c-13.738,0-24.915-11.178-24.915-24.915c0-13.737,11.177-24.915,24.915-24.915
		s24.915,11.178,24.915,24.915C102.151,399.291,90.974,410.469,77.236,410.469z"/>
</g>
<g>
	<path style="fill:#CCD1D9;" d="M216.761,400.253c-13.602,0-24.666-11.065-24.666-24.666s11.064-24.666,24.666-24.666
		c13.601,0,24.666,11.065,24.666,24.666S230.362,400.253,216.761,400.253z"/>
	<path style="fill:#CCD1D9;" d="M146.999,400.502c-13.738,0-24.915-11.178-24.915-24.915s11.177-24.915,24.915-24.915
		s24.915,11.178,24.915,24.915S160.737,400.502,146.999,400.502z"/>
	<path style="fill:#CCD1D9;" d="M77.236,400.502c-13.738,0-24.915-11.178-24.915-24.915s11.177-24.915,24.915-24.915
		s24.915,11.178,24.915,24.915S90.974,400.502,77.236,400.502z"/>
</g>
<g>
	<path style="fill:#DADDE1;" d="M216.761,260.979c-13.738,0-24.915-11.178-24.915-24.915c0-13.737,11.177-24.915,24.915-24.915
		c13.738,0,24.915,11.178,24.915,24.915C241.676,249.801,230.499,260.979,216.761,260.979z"/>
	<path style="fill:#DADDE1;" d="M146.999,260.979c-13.738,0-24.915-11.178-24.915-24.915c0-13.737,11.177-24.915,24.915-24.915
		s24.915,11.178,24.915,24.915C171.913,249.801,160.737,260.979,146.999,260.979z"/>
	<path style="fill:#DADDE1;" d="M77.236,260.979c-13.738,0-24.915-11.178-24.915-24.915c0-13.737,11.177-24.915,24.915-24.915
		s24.915,11.178,24.915,24.915C102.151,249.801,90.974,260.979,77.236,260.979z"/>
	<path style="fill:#DADDE1;" d="M216.761,330.741c-13.738,0-24.915-11.178-24.915-24.915c0-13.737,11.177-24.915,24.915-24.915
		c13.738,0,24.915,11.178,24.915,24.915C241.676,319.563,230.499,330.741,216.761,330.741z"/>
	<path style="fill:#DADDE1;" d="M146.999,330.741c-13.738,0-24.915-11.178-24.915-24.915c0-13.737,11.177-24.915,24.915-24.915
		s24.915,11.178,24.915,24.915C171.913,319.563,160.737,330.741,146.999,330.741z"/>
	<path style="fill:#DADDE1;" d="M77.236,330.741c-13.738,0-24.915-11.178-24.915-24.915c0-13.737,11.177-24.915,24.915-24.915
		s24.915,11.178,24.915,24.915C102.151,319.563,90.974,330.741,77.236,330.741z"/>
	<path style="fill:#DADDE1;" d="M216.761,400.253c-13.602,0-24.666-11.065-24.666-24.666s11.064-24.666,24.666-24.666
		c13.601,0,24.666,11.065,24.666,24.666S230.362,400.253,216.761,400.253z"/>
	<path style="fill:#DADDE1;" d="M146.999,400.502c-13.738,0-24.915-11.178-24.915-24.915s11.177-24.915,24.915-24.915
		s24.915,11.178,24.915,24.915S160.737,400.502,146.999,400.502z"/>
	<path style="fill:#DADDE1;" d="M77.236,400.502c-13.738,0-24.915-11.178-24.915-24.915s11.177-24.915,24.915-24.915
		s24.915,11.178,24.915,24.915S90.974,400.502,77.236,400.502z"/>
</g>
<rect x="293.248" y="86.574" style="fill:#7A8087;" width="218.752" height="49.83"/>
<rect x="482.102" y="86.574" style="fill:#656D78;" width="29.898" height="49.83"/>
<g>
</g>
<g>
</g>
<g>
</g>
<g>
</g>
<g>
</g>
<g>
</g>
<g>
</g>
<g>
</g>
<g>
</g>
<g>
</g>
<g>
</g>
<g>
</g>
<g>
</g>
<g>
</g>
<g>
</g>
</svg>
