<?xml version="1.0" encoding="iso-8859-1"?>
<!-- Generator: Adobe Illustrator 19.0.0, SVG Export Plug-In . SVG Version: 6.00 Build 0)  -->
<svg version="1.1" id="Capa_1" xmlns="http://www.w3.org/2000/svg" xmlns:xlink="http://www.w3.org/1999/xlink" x="0px" y="0px"
	 viewBox="0 0 512 512" style="enable-background:new 0 0 512 512;" xml:space="preserve">
<path style="fill:#656D78;" d="M248.496,254.359c-0.057-64.741-52.743-117.395-117.497-117.395c-64.79,0-117.5,52.709-117.5,117.498
	V434.5c0,4.142,3.356,7.499,7.498,7.5l0,0h220.001l0,0h0.003c4.143,0,7.5-3.357,7.5-7.5V254.463
	C248.501,254.428,248.496,254.395,248.496,254.359z"/>
<path style="fill:#515760;" d="M248.496,254.359c-0.057-64.741-52.743-117.395-117.497-117.395c-5.082,0-10.089,0.325-15.002,0.954
	c57.697,7.385,102.443,56.779,102.496,116.441c0,0.035,0.005,0.068,0.005,0.104V434.5c0,4.143-3.357,7.5-7.5,7.5h30h0.003
	c4.143,0,7.5-3.357,7.5-7.5V254.463C248.501,254.428,248.496,254.395,248.496,254.359z"/>
<path style="fill:#48CFAD;" d="M210.999,397h-160c-20.678,0-37.5,16.822-37.5,37.5v70c0,4.143,3.357,7.5,7.5,7.5h219.998
	c4.143,0,7.5-3.357,7.5-7.5v-69.961c0-0.014,0.002-0.026,0.002-0.039C248.499,413.822,231.677,397,210.999,397z"/>
<path style="fill:#37BC9B;" d="M210.999,397h-30.003c20.678,0,37.5,16.822,37.5,37.5c0,0.013-0.002,0.025-0.002,0.039V504.5
	c0,4.143-3.357,7.5-7.5,7.5h30.003c4.143,0,7.5-3.357,7.5-7.5v-69.961c0-0.014,0.002-0.026,0.002-0.039
	C248.499,413.822,231.677,397,210.999,397z"/>
<path style="fill:#FFCE54;" d="M496.301,2.199C494.911,0.8,492.98,0,491.001,0h-220c-1.98,0-3.91,0.8-5.311,2.199
	c-1.39,1.391-2.189,3.33-2.189,5.301v20.51v17.8v181.71c0,1.97,0.8,3.91,2.189,5.3c1.4,1.4,3.33,2.2,5.311,2.2h32.5v22.49
	c0,2.689,1.46,5.189,3.8,6.52c1.13,0.641,2.41,0.971,3.7,0.971c1.359,0,2.689-0.36,3.859-1.06l48.221-28.92h127.92
	c1.97,0,3.91-0.8,5.3-2.2c1.4-1.39,2.2-3.33,2.2-5.3V7.5C498.501,5.529,497.701,3.59,496.301,2.199z"/>
<path style="fill:#F6BB42;" d="M496.301,2.199C494.911,0.8,492.98,0,491.001,0h-30.003c1.98,0,3.91,0.8,5.3,2.199
	c1.4,1.391,2.2,3.33,2.2,5.301v220.02c0,1.97-0.8,3.91-2.2,5.3c-1.39,1.4-3.33,2.2-5.3,2.2h30.003c1.97,0,3.91-0.8,5.3-2.2
	c1.4-1.39,2.2-3.33,2.2-5.3V7.5C498.501,5.529,497.701,3.59,496.301,2.199z"/>
<path style="fill:#ED5565;" d="M343.919,182.072c-1.549,0-3.097-0.479-4.408-1.433c-2.542-1.847-3.663-5.082-2.81-8.105
	l10.76-38.104l-31.102-24.502c-2.468-1.944-3.462-5.221-2.491-8.209s3.701-5.055,6.841-5.177l39.563-1.541l13.691-37.148
	c1.086-2.948,3.896-4.906,7.037-4.906s5.951,1.958,7.037,4.906l13.691,37.148l39.564,1.541c3.14,0.122,5.87,2.188,6.841,5.177
	c0.971,2.987-0.023,6.265-2.491,8.209l-31.101,24.502l10.759,38.104c0.853,3.023-0.268,6.259-2.81,8.105
	c-2.541,1.847-5.966,1.913-8.577,0.167L381,158.8l-32.913,22.006C346.824,181.651,345.371,182.072,343.919,182.072z"/>
<path style="fill:#FFDECF;" d="M210.999,257h-160c-4.143,0-7.5,3.357-7.5,7.5v40.027c0,48.231,39.252,87.471,87.5,87.471
	s87.5-39.239,87.5-87.471V264.5C218.499,260.357,215.142,257,210.999,257z"/>
<g>
	<path style="fill:#515760;" d="M78.499,257v-12.502c0-4.143-3.357-7.5-7.5-7.5s-7.5,3.357-7.5,7.5V257H78.499z"/>
	<path style="fill:#515760;" d="M108.499,257v-12.502c0-4.143-3.357-7.5-7.5-7.5s-7.5,3.357-7.5,7.5V257H108.499z"/>
	<path style="fill:#515760;" d="M138.499,257v-12.502c0-4.143-3.357-7.5-7.5-7.5c-4.143,0-7.5,3.357-7.5,7.5V257H138.499z"/>
	<path style="fill:#515760;" d="M168.499,257v-12.502c0-4.143-3.357-7.5-7.5-7.5s-7.5,3.357-7.5,7.5V257H168.499z"/>
	<path style="fill:#515760;" d="M198.499,257v-12.502c0-4.143-3.357-7.5-7.5-7.5s-7.5,3.357-7.5,7.5V257H198.499z"/>
</g>
<path style="fill:#FFCDBE;" d="M210.999,257h-30.003c4.143,0,7.5,3.357,7.5,7.5v40.027c0,43.119-31.373,79.047-72.499,86.18
	c4.877,0.846,9.888,1.291,15.002,1.291c48.248,0,87.5-39.239,87.5-87.471V264.5C218.499,260.357,215.142,257,210.999,257z"/>
<path style="fill:#FFDECF;" d="M180.999,396.986c-0.092,0-0.18,0.011-0.271,0.014h-12.226l0.006-13.457
	c-11.374,5.418-24.092,8.455-37.508,8.455c-13.412,0-26.127-3.036-37.498-8.45V397h-12.23c-0.092-0.003-0.18-0.014-0.271-0.014
	c-4.143,0-7.5,3.358-7.5,7.5c0,0.003,0,0.006,0,0.009c0,0.002,0,0.003,0,0.005c0,0.005,0.001,0.009,0.001,0.014
	c0.015,31.693,25.802,57.473,57.499,57.473s57.484-25.779,57.499-57.473c0-0.005,0.001-0.009,0.001-0.014c0-0.002,0-0.003,0-0.005
	c0-0.003,0-0.006,0-0.009C188.499,400.344,185.142,396.986,180.999,396.986z"/>
<g>
	<path style="fill:#37BC9B;" d="M78.495,512v-27.501c0-4.143-3.357-7.5-7.5-7.5s-7.5,3.357-7.5,7.5V512H78.495z"/>
	<path style="fill:#37BC9B;" d="M198.505,512v-27.501c0-4.143-3.357-7.5-7.5-7.5s-7.5,3.357-7.5,7.5V512H198.505z"/>
</g>
<g>
</g>
<g>
</g>
<g>
</g>
<g>
</g>
<g>
</g>
<g>
</g>
<g>
</g>
<g>
</g>
<g>
</g>
<g>
</g>
<g>
</g>
<g>
</g>
<g>
</g>
<g>
</g>
<g>
</g>
</svg>
