<?xml version="1.0" encoding="iso-8859-1"?>
<!-- Generator: Adobe Illustrator 19.0.0, SVG Export Plug-In . SVG Version: 6.00 Build 0)  -->
<svg version="1.1" id="Capa_1" xmlns="http://www.w3.org/2000/svg" xmlns:xlink="http://www.w3.org/1999/xlink" x="0px" y="0px"
	 viewBox="0 0 512 512" style="enable-background:new 0 0 512 512;" xml:space="preserve">
<path style="fill:#E6E9ED;" d="M466,150.002h-0.002l0,0H309.75h-19.484H46c-4.143,0-7.5,3.358-7.5,7.5V175v21.004v307.992
	c0,4.142,3.357,7.5,7.5,7.5h0.002l0,0H202.25h19.484H466c4.143,0,7.5-3.358,7.5-7.5V196.004V175v-17.498
	C473.5,153.36,470.143,150.002,466,150.002z"/>
<path style="fill:#CCD1D9;" d="M466,150.002h-0.002h-30.001c4.142,0,7.5,3.358,7.5,7.5V175v21.004v307.992
	c0,4.142-3.358,7.5-7.5,7.5H466c4.143,0,7.5-3.358,7.5-7.5V196.004V175v-17.498C473.5,153.36,470.143,150.002,466,150.002z"/>
<path style="fill:#ED5565;" d="M7.439,245.995H69.58c0,16.57-13.91,30-31.07,30C21.349,275.995,7.439,262.565,7.439,245.995z"/>
<path style="fill:#DA4453;" d="M69.58,245.995h62.14c0,16.57-13.909,30-31.069,30C83.488,275.995,69.58,262.565,69.58,245.995z"/>
<path style="fill:#ED5565;" d="M131.72,245.995h62.141c0,16.57-13.909,30-31.07,30C145.63,275.995,131.72,262.565,131.72,245.995z"
	/>
<path style="fill:#DA4453;" d="M193.86,245.995H256c0,16.57-13.909,30-31.07,30S193.86,262.565,193.86,245.995z"/>
<g>
	<path style="fill:#ED5565;" d="M442.42,245.995c0,16.57-13.908,30-31.069,30c-17.162,0-31.069-13.43-31.069-30H442.42z"/>
	<path style="fill:#ED5565;" d="M318.14,245.995c0,16.57-13.908,30-31.069,30s-31.07-13.43-31.07-30H318.14z"/>
</g>
<g>
	<path style="fill:#DA4453;" d="M380.281,245.995c0,16.57-13.91,30-31.071,30c-17.161,0-31.07-13.43-31.07-30H380.281z"/>
	<path style="fill:#DA4453;" d="M442.42,245.995h62.141c0,16.57-13.908,30-31.07,30C456.33,275.995,442.42,262.565,442.42,245.995z"
		/>
</g>
<polygon style="fill:#CE3A50;" points="473.49,196.004 419.118,196.004 364.745,196.004 310.373,196.004 256,196.004 
	201.627,196.004 147.255,196.004 92.883,196.004 38.51,196.004 7.439,245.995 69.58,245.995 131.72,245.995 193.86,245.995 
	256,245.995 318.14,245.995 380.281,245.995 442.42,245.995 504.561,245.995 "/>
<polygon style="fill:#DA4453;" points="419.118,196.004 442.42,245.995 380.281,245.995 364.745,196.004 "/>
<polygon style="fill:#CE3A50;" points="364.745,196.004 380.281,245.995 318.14,245.995 310.373,196.004 "/>
<polygon style="fill:#DA4453;" points="310.373,196.004 318.14,245.995 256,245.995 256,196.004 "/>
<polygon style="fill:#CE3A50;" points="256,196.004 256,245.995 193.86,245.995 201.627,196.004 "/>
<polygon style="fill:#DA4453;" points="201.627,196.004 193.86,245.995 131.72,245.995 147.255,196.004 "/>
<polygon style="fill:#CE3A50;" points="147.255,196.004 131.72,245.995 69.58,245.995 92.883,196.004 "/>
<polygon style="fill:#DA4453;" points="92.883,196.004 69.58,245.995 7.439,245.995 38.51,196.004 "/>
<polygon style="fill:#CE3A50;" points="473.49,196.004 504.56,245.995 442.42,245.995 419.118,196.004 "/>
<path style="fill:#5D9CEC;" d="M426.004,512H326.003c-4.142,0-7.5-3.358-7.5-7.5V314.495c0-4.142,3.358-7.5,7.5-7.5h100.001
	c4.143,0,7.5,3.358,7.5,7.5V504.5C433.504,508.642,430.147,512,426.004,512z"/>
<path style="fill:#4A89DC;" d="M426.004,306.995h-30.003c4.143,0,7.5,3.358,7.5,7.5V504.5c0,4.142-3.357,7.5-7.5,7.5h30.003
	c4.143,0,7.5-3.358,7.5-7.5V314.495C433.504,310.353,430.147,306.995,426.004,306.995z"/>
<path style="fill:#5D9CEC;" d="M286.001,431.995H86c-4.143,0-7.5-3.358-7.5-7.5v-110c0-4.142,3.357-7.5,7.5-7.5h200.001
	c4.143,0,7.5,3.358,7.5,7.5v110C293.501,428.637,290.144,431.995,286.001,431.995z"/>
<path style="fill:#4A89DC;" d="M286.001,306.995h-30.003c4.143,0,7.5,3.358,7.5,7.5v110c0,4.142-3.357,7.5-7.5,7.5h30.003
	c4.143,0,7.5-3.358,7.5-7.5v-110C293.501,310.353,290.144,306.995,286.001,306.995z"/>
<path style="fill:#E6E9ED;" d="M406.002,421.994h-59.997c-4.143,0-7.5-3.358-7.5-7.5s3.357-7.5,7.5-7.5h59.997
	c4.142,0,7.5,3.358,7.5,7.5S410.145,421.994,406.002,421.994z"/>
<g>
	<path style="fill:#A0D468;" d="M96,481.492c-4.143,0-7.5-3.358-7.5-7.5v-9.999c0-4.142,3.357-7.5,7.5-7.5s7.5,3.358,7.5,7.5v9.999
		C103.5,478.134,100.143,481.492,96,481.492z"/>
	<path style="fill:#A0D468;" d="M126,481.492c-4.143,0-7.5-3.358-7.5-7.5v-9.999c0-4.142,3.357-7.5,7.5-7.5
		c4.143,0,7.5,3.358,7.5,7.5v9.999C133.5,478.134,130.143,481.492,126,481.492z"/>
	<path style="fill:#A0D468;" d="M156,481.492c-4.143,0-7.5-3.358-7.5-7.5v-9.999c0-4.142,3.357-7.5,7.5-7.5s7.5,3.358,7.5,7.5v9.999
		C163.5,478.134,160.143,481.492,156,481.492z"/>
	<path style="fill:#A0D468;" d="M186,481.492c-4.143,0-7.5-3.358-7.5-7.5v-9.999c0-4.142,3.357-7.5,7.5-7.5s7.5,3.358,7.5,7.5v9.999
		C193.5,478.134,190.143,481.492,186,481.492z"/>
	<path style="fill:#A0D468;" d="M216,481.492c-4.143,0-7.5-3.358-7.5-7.5v-9.999c0-4.142,3.357-7.5,7.5-7.5s7.5,3.358,7.5,7.5v9.999
		C223.5,478.134,220.143,481.492,216,481.492z"/>
	<path style="fill:#A0D468;" d="M246,481.492c-4.143,0-7.5-3.358-7.5-7.5v-9.999c0-4.142,3.357-7.5,7.5-7.5s7.5,3.358,7.5,7.5v9.999
		C253.5,478.134,250.143,481.492,246,481.492z"/>
	<path style="fill:#A0D468;" d="M276,481.492c-4.143,0-7.5-3.358-7.5-7.5v-9.999c0-4.142,3.357-7.5,7.5-7.5s7.5,3.358,7.5,7.5v9.999
		C283.5,478.134,280.143,481.492,276,481.492z"/>
</g>
<path style="fill:#FFCE54;" d="M255.999,175c-48.248,0-87.5-39.252-87.5-87.5S207.751,0,255.999,0s87.5,39.252,87.5,87.5
	S304.247,175,255.999,175z"/>
<path style="fill:#F6BB42;" d="M255.999,0c-5.114,0-10.126,0.446-15.001,1.291c41.125,7.135,72.498,43.075,72.498,86.209
	s-31.373,79.073-72.498,86.208c4.875,0.846,9.887,1.292,15.001,1.292c48.248,0,87.5-39.252,87.5-87.5S304.247,0,255.999,0z"/>
<path style="fill:#656D78;" d="M256.001,29.999c-12.406,0-22.5,10.093-22.5,22.5V67.5c0,4.142,3.357,7.5,7.5,7.5s7.5-3.358,7.5-7.5
	V52.499c0-4.135,3.364-7.5,7.5-7.5c4.136,0,7.5,3.365,7.5,7.5V67.5c0,4.142,3.357,7.5,7.5,7.5s7.5-3.358,7.5-7.5V52.499
	C278.501,40.092,268.407,29.999,256.001,29.999z"/>
<path style="fill:#ED5565;" d="M286.001,511.497H85.999c-4.143,0-7.5-3.358-7.5-7.5v-30.005c0-4.142,3.357-7.5,7.5-7.5h200.002
	c4.143,0,7.5,3.358,7.5,7.5v30.005C293.501,508.139,290.144,511.497,286.001,511.497z"/>
<path style="fill:#DA4453;" d="M286.001,466.492h-30.003c4.143,0,7.5,3.358,7.5,7.5v30.005c0,4.142-3.357,7.5-7.5,7.5h30.003
	c4.143,0,7.5-3.358,7.5-7.5v-30.005C293.501,469.85,290.144,466.492,286.001,466.492z"/>
<path style="fill:#ED5565;" d="M291.019,135c-0.005,0-0.013,0.001-0.02,0h-70.998c-2.119,0-4.139-0.896-5.561-2.467
	c-1.422-1.571-2.113-3.67-1.902-5.779l6.001-60c0.384-3.834,3.609-6.753,7.463-6.753H286c3.9,0,7.15,2.99,7.474,6.877l4.953,59.442
	c0.061,0.384,0.092,0.779,0.092,1.18C298.519,131.642,295.161,135,291.019,135z"/>
<g>
</g>
<g>
</g>
<g>
</g>
<g>
</g>
<g>
</g>
<g>
</g>
<g>
</g>
<g>
</g>
<g>
</g>
<g>
</g>
<g>
</g>
<g>
</g>
<g>
</g>
<g>
</g>
<g>
</g>
</svg>
