<?xml version="1.0" encoding="iso-8859-1"?>
<!-- Generator: Adobe Illustrator 19.0.0, SVG Export Plug-In . SVG Version: 6.00 Build 0)  -->
<svg version="1.1" id="Capa_1" xmlns="http://www.w3.org/2000/svg" xmlns:xlink="http://www.w3.org/1999/xlink" x="0px" y="0px"
	 viewBox="0 0 512 512" style="enable-background:new 0 0 512 512;" xml:space="preserve">
<path style="fill:#ED5565;" d="M386.003,350.005h-25.002H326H125.997c-31.706,0-57.5,25.794-57.5,57.5
	c0,0.02,0.003,0.038,0.003,0.059v75.934v5.509v15.433c0,0.02-0.003,0.039-0.003,0.058c0,4.143,3.357,7.5,7.5,7.5h359.967
	c0.014,0,0.026,0.002,0.039,0.002c4.143,0,7.5-3.357,7.5-7.5v-96.995C443.503,375.799,417.709,350.005,386.003,350.005z"/>
<path style="fill:#DA4453;" d="M386.003,350.005h-25.002H356c31.706,0,57.5,25.794,57.5,57.5V504.5c0,4.129-3.337,7.477-7.461,7.498
	h29.925c0.014,0,0.026,0.002,0.039,0.002c4.143,0,7.5-3.357,7.5-7.5v-96.995C443.503,375.799,417.709,350.005,386.003,350.005z"/>
<path d="M256,365.004c-4.143,0-7.5-3.357-7.5-7.5V327.33c0-4.143,3.357-7.5,7.5-7.5c4.143,0,7.5,3.357,7.5,7.5v30.174
	C263.5,361.647,260.143,365.004,256,365.004z"/>
<path style="fill:#DADDE1;" d="M366.219,146.76C346.558,139.114,311.477,130,256,130s-90.558,9.114-110.219,16.76
	c-23.344,9.079-37.281,20.57-37.281,30.74c0,4.143,3.357,7.5,7.5,7.5h280c4.143,0,7.5-3.357,7.5-7.5
	C403.5,167.33,389.563,155.839,366.219,146.76z"/>
<path style="fill:#CCD1D9;" d="M366.219,146.76C346.558,139.114,311.477,130,256,130c-5.177,0-10.176,0.08-15.002,0.23
	c46.888,1.459,77.392,9.599,95.218,16.53c23.344,9.079,37.281,20.57,37.281,30.74c0,4.143-3.358,7.5-7.5,7.5H396
	c4.143,0,7.5-3.357,7.5-7.5C403.5,167.33,389.563,155.839,366.219,146.76z"/>
<path style="fill:#ED5565;" d="M145.781,146.76C165.442,139.114,200.523,130,256,130s90.558,9.114,110.219,16.76
	c6.53,2.54,12.322,5.269,17.281,8.104V127.5C383.5,57.196,326.304,0,256,0S128.5,57.196,128.5,127.5v27.363
	C133.459,152.028,139.251,149.3,145.781,146.76z"/>
<path style="fill:#DA4453;" d="M256,0c-5.075,0-10.079,0.308-15.002,0.887c63.26,7.449,112.499,61.385,112.499,126.613v14.873
	c4.805,1.467,9.034,2.953,12.722,4.387c6.53,2.54,12.322,5.269,17.281,8.104V127.5C383.5,57.196,326.304,0,256,0z"/>
<path style="fill:#FFDECF;" d="M128.5,185v22.504c0,70.304,57.196,127.5,127.5,127.5s127.5-57.196,127.5-127.5V185H128.5z"/>
<path style="fill:#CCD1D9;" d="M256,335.004c-29.131,0-56.006-9.827-77.499-26.331v38.831c0,0.004,0.001,0.008,0.001,0.012
	c0,0.242,0.013,0.483,0.036,0.723c0.018,0.183,0.048,0.36,0.079,0.538c0.012,0.067,0.018,0.135,0.03,0.202
	c0.038,0.191,0.089,0.378,0.142,0.565c0.013,0.046,0.021,0.093,0.035,0.139c0.052,0.17,0.114,0.333,0.177,0.497
	c0.024,0.063,0.044,0.13,0.07,0.193c0.058,0.139,0.125,0.272,0.19,0.407c0.042,0.086,0.08,0.174,0.125,0.259
	c0.058,0.108,0.123,0.21,0.186,0.315c0.064,0.106,0.124,0.214,0.193,0.317c0.055,0.081,0.115,0.157,0.173,0.235
	c0.086,0.119,0.17,0.239,0.264,0.353c0.057,0.068,0.119,0.132,0.178,0.198c0.102,0.115,0.201,0.232,0.311,0.342
	c0.138,0.138,0.283,0.266,0.431,0.393c0.036,0.031,0.068,0.065,0.105,0.096c0.194,0.161,0.398,0.312,0.609,0.452
	c0.002,0.001,0.003,0.003,0.005,0.004l29.999,20c0.108,0.072,0.225,0.123,0.335,0.188c0.147,0.089,0.295,0.176,0.448,0.253
	c0.212,0.108,0.427,0.197,0.645,0.283c0.143,0.056,0.281,0.115,0.428,0.163c0.248,0.08,0.498,0.138,0.75,0.191
	c0.129,0.027,0.255,0.064,0.386,0.085c0.362,0.057,0.725,0.088,1.089,0.092c0.025,0,0.049,0.006,0.074,0.006
	c0.405,0,0.814-0.046,1.226-0.114c0.195-0.032,0.391-0.061,0.583-0.108c0.006-0.001,0.011-0.002,0.017-0.003L256,365.235
	l38.182,9.545c0.006,0.001,0.012,0.002,0.017,0.003c0.197,0.049,0.397,0.078,0.599,0.111c0.405,0.066,0.81,0.111,1.21,0.111
	c0.025,0,0.05-0.006,0.074-0.006c0.363-0.004,0.727-0.035,1.089-0.092c0.131-0.021,0.257-0.058,0.386-0.085
	c0.252-0.054,0.503-0.111,0.75-0.191c0.146-0.048,0.285-0.107,0.428-0.163c0.218-0.086,0.433-0.176,0.645-0.283
	c0.153-0.077,0.301-0.164,0.448-0.253c0.111-0.065,0.227-0.116,0.335-0.188l29.999-20c0.002-0.001,0.004-0.003,0.006-0.004
	c0.21-0.141,0.414-0.291,0.608-0.452c0.037-0.03,0.069-0.064,0.105-0.096c0.147-0.127,0.294-0.255,0.431-0.393
	c0.109-0.11,0.209-0.227,0.311-0.342c0.059-0.066,0.121-0.13,0.178-0.198c0.094-0.114,0.178-0.234,0.264-0.353
	c0.058-0.078,0.118-0.154,0.173-0.235c0.069-0.103,0.13-0.212,0.193-0.317c0.063-0.105,0.128-0.207,0.186-0.315
	c0.045-0.084,0.083-0.171,0.124-0.257c0.066-0.135,0.134-0.27,0.191-0.41c0.025-0.063,0.045-0.126,0.069-0.189
	c0.064-0.164,0.126-0.329,0.177-0.5c0.015-0.046,0.023-0.093,0.036-0.139c0.053-0.187,0.103-0.373,0.142-0.565
	c0.014-0.067,0.02-0.135,0.03-0.202c0.031-0.178,0.062-0.355,0.079-0.538c0.023-0.239,0.036-0.48,0.036-0.723
	c0-0.004,0.001-0.008,0.001-0.012v-38.832C312.006,325.176,285.131,335.004,256,335.004z"/>
<path style="fill:#FFCDBE;" d="M353.497,185v22.504c0,65.228-49.239,119.164-112.499,126.613c4.923,0.579,9.927,0.887,15.002,0.887
	c70.304,0,127.5-57.196,127.5-127.5V185H353.497z"/>
<g>
	<path style="fill:#FFCE54;" d="M256,102.498c-13.784,0-25-11.215-25-25c0-13.784,11.216-25,25-25c13.785,0,25,11.216,25,25
		C281,91.283,269.785,102.498,256,102.498z"/>
	<path style="fill:#FFCE54;" d="M383.5,511.998v-68.484c0-0.007,0.001-0.013,0.001-0.02c0-4.143-3.357-7.5-7.5-7.5H136
		c-4.143,0-7.5,3.357-7.5,7.5v68.504H383.5z"/>
</g>
<g>
	<path style="fill:#F6BB42;" d="M376.001,435.994h-30.003c4.143,0,7.5,3.357,7.5,7.5c0,0.007-0.001,0.013-0.001,0.02v68.484H383.5
		v-68.484c0-0.007,0.001-0.013,0.001-0.02C383.501,439.352,380.144,435.994,376.001,435.994z"/>
	<path style="fill:#F6BB42;" d="M136,435.994h240.001c2.114,0,4.02,0.877,5.383,2.284c-0.027-0.028-0.051-0.059-0.079-0.088l-30-30
		c-0.026-0.026-0.056-0.049-0.083-0.075c-0.15-0.146-0.304-0.288-0.466-0.421c-0.088-0.071-0.18-0.134-0.27-0.201
		c-0.106-0.08-0.211-0.162-0.321-0.236c-0.104-0.069-0.211-0.129-0.316-0.192c-0.104-0.063-0.207-0.128-0.314-0.186
		c-0.105-0.056-0.213-0.104-0.319-0.154c-0.115-0.055-0.229-0.111-0.348-0.161c-0.102-0.042-0.205-0.075-0.308-0.112
		c-0.128-0.046-0.255-0.095-0.386-0.135c-0.1-0.03-0.201-0.052-0.303-0.078c-0.136-0.034-0.271-0.072-0.409-0.1
		c-0.111-0.022-0.223-0.034-0.334-0.051c-0.131-0.02-0.26-0.044-0.392-0.057c-0.185-0.018-0.37-0.023-0.557-0.028
		c-0.06-0.001-0.118-0.009-0.178-0.009H165.999c-0.031,0-0.061,0.004-0.093,0.005c-0.215,0.003-0.43,0.011-0.645,0.032
		c-0.124,0.012-0.245,0.035-0.368,0.053c-0.118,0.018-0.238,0.031-0.357,0.055c-0.136,0.027-0.268,0.064-0.401,0.098
		c-0.104,0.027-0.208,0.049-0.309,0.08c-0.131,0.04-0.258,0.088-0.386,0.135c-0.102,0.037-0.206,0.07-0.307,0.112
		c-0.122,0.051-0.238,0.109-0.357,0.166c-0.104,0.049-0.208,0.095-0.309,0.148c-0.116,0.062-0.228,0.133-0.34,0.2
		c-0.097,0.059-0.195,0.113-0.29,0.177c-0.128,0.085-0.249,0.18-0.372,0.273c-0.072,0.055-0.147,0.105-0.218,0.163
		c-0.194,0.159-0.381,0.327-0.559,0.505L130.7,438.185C132.059,436.832,133.932,435.994,136,435.994z"/>
</g>
<path style="fill:#DCA746;" d="M381.305,438.19l-30-30c-0.026-0.026-0.056-0.049-0.083-0.075c-0.15-0.146-0.304-0.288-0.466-0.421
	c-0.088-0.071-0.18-0.134-0.27-0.201c-0.106-0.08-0.211-0.162-0.321-0.236c-0.104-0.069-0.211-0.129-0.316-0.192
	c-0.104-0.063-0.207-0.128-0.314-0.186c-0.105-0.056-0.213-0.104-0.319-0.154c-0.115-0.055-0.229-0.111-0.348-0.161
	c-0.102-0.042-0.205-0.075-0.308-0.112c-0.128-0.046-0.255-0.095-0.386-0.135c-0.1-0.03-0.201-0.052-0.303-0.078
	c-0.136-0.034-0.271-0.072-0.409-0.1c-0.111-0.022-0.223-0.034-0.334-0.051c-0.131-0.02-0.26-0.044-0.392-0.057
	c-0.185-0.018-0.37-0.023-0.557-0.028c-0.06-0.001-0.118-0.009-0.178-0.009h-30.003c0.06,0,0.118,0.008,0.178,0.009
	c0.186,0.005,0.372,0.011,0.557,0.028c0.133,0.013,0.262,0.037,0.393,0.057c0.111,0.017,0.223,0.029,0.334,0.051
	c0.139,0.027,0.273,0.065,0.409,0.1c0.102,0.026,0.203,0.048,0.303,0.078c0.131,0.04,0.258,0.089,0.386,0.135
	c0.103,0.037,0.206,0.07,0.308,0.112c0.118,0.05,0.232,0.106,0.348,0.161c0.106,0.051,0.215,0.099,0.319,0.154
	c0.107,0.058,0.21,0.123,0.314,0.186c0.105,0.063,0.213,0.123,0.316,0.192c0.11,0.074,0.215,0.156,0.321,0.236
	c0.09,0.067,0.182,0.13,0.27,0.201c0.162,0.133,0.315,0.275,0.466,0.421c0.027,0.026,0.057,0.049,0.083,0.075l27.804,27.804h26.896
	c2.114,0,4.02,0.877,5.383,2.284C381.356,438.25,381.333,438.219,381.305,438.19z"/>
<g>
</g>
<g>
</g>
<g>
</g>
<g>
</g>
<g>
</g>
<g>
</g>
<g>
</g>
<g>
</g>
<g>
</g>
<g>
</g>
<g>
</g>
<g>
</g>
<g>
</g>
<g>
</g>
<g>
</g>
</svg>
