<?xml version="1.0" encoding="iso-8859-1"?>
<!-- Generator: Adobe Illustrator 19.0.0, SVG Export Plug-In . SVG Version: 6.00 Build 0)  -->
<svg version="1.1" id="Capa_1" xmlns="http://www.w3.org/2000/svg" xmlns:xlink="http://www.w3.org/1999/xlink" x="0px" y="0px"
	 viewBox="0 0 512 512" style="enable-background:new 0 0 512 512;" xml:space="preserve">
<path style="fill:#F6BB42;" d="M121.184,327.271h269.61c2.065,0,3.935,0.837,5.29,2.188l-39.931-39.935
	c-0.178-0.178-0.363-0.345-0.557-0.504c-0.072-0.059-0.147-0.109-0.221-0.164c-0.121-0.093-0.242-0.188-0.369-0.272
	c-0.095-0.063-0.193-0.118-0.29-0.177c-0.112-0.067-0.223-0.138-0.339-0.2c-0.101-0.054-0.204-0.1-0.307-0.148
	c-0.119-0.057-0.236-0.115-0.357-0.166c-0.1-0.041-0.202-0.074-0.304-0.111c-0.129-0.047-0.257-0.096-0.388-0.136
	c-0.101-0.03-0.204-0.053-0.306-0.078c-0.135-0.035-0.269-0.072-0.404-0.1c-0.116-0.022-0.233-0.036-0.351-0.053
	c-0.124-0.02-0.248-0.042-0.374-0.055c-0.216-0.021-0.433-0.03-0.649-0.033c-0.029,0-0.057-0.004-0.086-0.004H161.126
	c-0.026,0-0.052,0.004-0.078,0.004c-0.221,0.002-0.439,0.012-0.659,0.033c-0.119,0.012-0.234,0.033-0.35,0.051
	c-0.125,0.019-0.25,0.033-0.374,0.058c-0.129,0.025-0.254,0.061-0.38,0.093c-0.11,0.027-0.222,0.052-0.332,0.085
	c-0.123,0.037-0.242,0.084-0.362,0.127c-0.11,0.04-0.221,0.076-0.329,0.121c-0.114,0.047-0.223,0.103-0.333,0.154
	c-0.111,0.053-0.223,0.102-0.331,0.159c-0.107,0.059-0.21,0.123-0.314,0.185c-0.105,0.064-0.212,0.123-0.316,0.192
	c-0.118,0.079-0.229,0.166-0.341,0.251c-0.082,0.063-0.167,0.119-0.247,0.185c-0.193,0.158-0.378,0.325-0.553,0.501l-39.936,39.939
	C117.247,328.108,119.118,327.271,121.184,327.271z"/>
<path style="fill:#DCA746;" d="M356.154,289.524c-0.178-0.178-0.363-0.345-0.557-0.504c-0.072-0.059-0.147-0.109-0.221-0.164
	c-0.121-0.093-0.242-0.188-0.369-0.272c-0.095-0.063-0.193-0.118-0.29-0.177c-0.112-0.067-0.223-0.138-0.339-0.2
	c-0.101-0.054-0.204-0.1-0.307-0.148c-0.119-0.057-0.236-0.115-0.357-0.166c-0.1-0.041-0.202-0.074-0.304-0.111
	c-0.129-0.047-0.257-0.096-0.388-0.136c-0.101-0.03-0.204-0.053-0.306-0.078c-0.135-0.035-0.269-0.072-0.404-0.1
	c-0.116-0.022-0.233-0.036-0.351-0.053c-0.124-0.02-0.248-0.042-0.374-0.055c-0.216-0.021-0.433-0.03-0.649-0.033
	c-0.029,0-0.057-0.004-0.086-0.004h-29.959c0.029,0,0.057,0.004,0.086,0.004c0.217,0.003,0.434,0.012,0.649,0.033
	c0.127,0.013,0.251,0.035,0.374,0.055c0.117,0.017,0.234,0.03,0.35,0.053c0.137,0.027,0.27,0.065,0.404,0.1
	c0.102,0.025,0.205,0.048,0.306,0.078c0.132,0.04,0.26,0.089,0.388,0.136c0.102,0.037,0.203,0.07,0.304,0.111
	c0.122,0.051,0.239,0.109,0.357,0.166c0.103,0.049,0.206,0.095,0.307,0.148c0.117,0.063,0.228,0.133,0.34,0.2
	c0.097,0.059,0.195,0.113,0.29,0.177c0.128,0.085,0.249,0.18,0.369,0.272c0.073,0.055,0.148,0.105,0.221,0.164
	c0.193,0.159,0.379,0.327,0.557,0.504l37.743,37.747h26.857c2.065,0,3.935,0.837,5.29,2.188L356.154,289.524z"/>
<path style="fill:#FFCE54;" d="M390.794,512h-269.61c-4.136,0-7.489-3.352-7.489-7.489V334.76c0-4.137,3.353-7.489,7.489-7.489
	h269.61c4.137,0,7.489,3.352,7.489,7.489v169.751C398.283,508.648,394.931,512,390.794,512z"/>
<path style="fill:#F6BB42;" d="M390.794,327.271h-29.959c4.137,0,7.489,3.352,7.489,7.489v169.751c0,4.137-3.352,7.489-7.489,7.489
	h29.959c4.137,0,7.489-3.352,7.489-7.489V334.76C398.283,330.623,394.931,327.271,390.794,327.271z"/>
<path style="fill:#ED5565;" d="M223.536,327.271l0.001,57.263c0,0.008,0,0.016,0,0.023v0.128c0,0.061,0.008,0.121,0.009,0.183
	c0.004,0.171,0.01,0.342,0.026,0.513c0.01,0.105,0.026,0.209,0.04,0.313c0.019,0.136,0.036,0.271,0.062,0.405
	c0.027,0.142,0.063,0.279,0.098,0.417c0.024,0.096,0.045,0.192,0.074,0.288c0.051,0.172,0.111,0.34,0.174,0.506
	c0.019,0.053,0.033,0.104,0.053,0.156c0.004,0.01,0.01,0.019,0.014,0.029c0.131,0.324,0.286,0.634,0.459,0.934
	c0.036,0.061,0.073,0.122,0.111,0.183c0.165,0.267,0.341,0.524,0.537,0.768c0.021,0.026,0.041,0.055,0.063,0.081
	c0.201,0.243,0.421,0.467,0.652,0.683c0.065,0.061,0.13,0.121,0.198,0.181c0.241,0.21,0.491,0.409,0.758,0.588
	c0.018,0.012,0.039,0.022,0.057,0.035c0.262,0.172,0.535,0.323,0.818,0.46c0.057,0.028,0.113,0.057,0.171,0.083
	c0.303,0.139,0.614,0.263,0.937,0.36c0.011,0.003,0.022,0.005,0.033,0.009c0.297,0.089,0.602,0.154,0.913,0.206
	c0.085,0.015,0.17,0.027,0.256,0.039c0.297,0.039,0.597,0.064,0.904,0.067c0.026,0,0.051,0.006,0.077,0.006
	c0.249,0,0.496-0.015,0.746-0.04c0.057-0.006,0.113-0.017,0.17-0.024c0.179-0.022,0.357-0.046,0.536-0.081
	c0.122-0.024,0.241-0.058,0.359-0.087c0.11-0.027,0.221-0.053,0.331-0.085c0.148-0.044,0.292-0.098,0.435-0.15
	c0.067-0.025,0.136-0.044,0.203-0.07l0.126-0.05c0.004-0.002,0.008-0.004,0.012-0.005l22.045-8.818l22.042,8.817
	c0.007,0.002,0.015,0.005,0.021,0.008l0.119,0.048c0.065,0.026,0.131,0.044,0.196,0.067c0.146,0.055,0.292,0.108,0.441,0.153
	c0.109,0.032,0.22,0.057,0.329,0.085c0.12,0.029,0.238,0.063,0.359,0.087c0.179,0.035,0.356,0.06,0.536,0.081
	c0.057,0.008,0.112,0.02,0.17,0.024c0.249,0.025,0.498,0.04,0.746,0.04c0.026,0,0.051-0.006,0.077-0.006
	c0.307-0.003,0.607-0.028,0.904-0.067c0.085-0.011,0.17-0.024,0.255-0.039c0.313-0.052,0.618-0.118,0.916-0.207
	c0.01-0.003,0.021-0.005,0.03-0.008c0.324-0.099,0.636-0.223,0.939-0.361c0.057-0.025,0.111-0.053,0.167-0.08
	c0.285-0.14,0.56-0.292,0.823-0.464c0.018-0.012,0.036-0.021,0.054-0.033c0.268-0.179,0.518-0.378,0.759-0.589
	c0.067-0.059,0.133-0.118,0.197-0.18c0.229-0.215,0.449-0.438,0.649-0.68c0.023-0.028,0.045-0.059,0.067-0.087
	c0.194-0.242,0.369-0.497,0.533-0.762c0.038-0.063,0.077-0.124,0.114-0.188c0.172-0.298,0.326-0.606,0.456-0.929
	c0.005-0.011,0.011-0.02,0.016-0.031c0.022-0.057,0.037-0.114,0.059-0.172c0.06-0.16,0.118-0.322,0.167-0.487
	c0.03-0.101,0.053-0.202,0.078-0.303c0.033-0.134,0.068-0.267,0.094-0.402c0.027-0.14,0.046-0.28,0.064-0.42
	c0.014-0.1,0.029-0.198,0.039-0.299c0.017-0.176,0.022-0.349,0.026-0.524c0.001-0.058,0.009-0.115,0.009-0.174v-0.123
	c0-0.01,0-0.021,0-0.03v-57.261h-64.903V327.271z"/>
<path style="fill:#656D78;" d="M169.781,492.027h-28.624c-4.136,0-7.489-3.352-7.489-7.489s3.353-7.489,7.489-7.489h28.624
	c4.136,0,7.489,3.352,7.489,7.489S173.917,492.027,169.781,492.027z"/>
<path style="fill:#ED5565;" d="M488.001,238.322v-4.656c0.102-0.485,0.163-0.986,0.163-1.502c0-62.013-24.15-120.314-68-164.164
	C376.314,24.15,318.013,0,256,0S135.685,24.15,91.835,68S23.836,170.151,23.836,232.164v6.382c0,0.433,0.045,0.854,0.115,1.268
	c0.003,0.02,0.006,0.04,0.009,0.061c0.033,0.182,0.074,0.358,0.119,0.535c0.012,0.046,0.023,0.093,0.036,0.139
	c0.044,0.161,0.095,0.32,0.15,0.477c0.022,0.063,0.046,0.127,0.07,0.19c0.054,0.14,0.11,0.278,0.171,0.414
	c0.038,0.084,0.08,0.168,0.121,0.251c0.057,0.114,0.113,0.228,0.175,0.338c0.062,0.109,0.129,0.216,0.196,0.323
	c0.052,0.082,0.102,0.166,0.157,0.246c0.094,0.137,0.195,0.269,0.299,0.398c0.038,0.049,0.073,0.099,0.112,0.146
	c0.131,0.158,0.272,0.31,0.416,0.457c0.019,0.02,0.035,0.04,0.054,0.059c0.16,0.159,0.328,0.313,0.503,0.458
	c0.008,0.006,0.015,0.014,0.023,0.021c0.179,0.146,0.366,0.287,0.562,0.419l0,0c0.211,0.144,0.429,0.275,0.654,0.397
	c0.008,0.004,0.017,0.008,0.025,0.012c0.208,0.111,0.421,0.214,0.64,0.305c0.074,0.031,0.149,0.054,0.224,0.082
	c0.154,0.059,0.308,0.118,0.466,0.167c0.113,0.035,0.228,0.059,0.342,0.088c0.123,0.031,0.244,0.066,0.368,0.092
	c0.169,0.034,0.339,0.056,0.508,0.078c0.073,0.01,0.145,0.025,0.219,0.032c0.25,0.024,0.499,0.038,0.748,0.038
	c0.002,0,0.004,0,0.007,0c0.058,0,0.114-0.008,0.172-0.009c0.185-0.005,0.369-0.01,0.552-0.028c0.15-0.014,0.296-0.04,0.443-0.063
	c0.091-0.015,0.182-0.024,0.273-0.042c0.164-0.032,0.324-0.075,0.484-0.117c0.073-0.02,0.147-0.035,0.22-0.057
	c0.154-0.046,0.304-0.102,0.452-0.157c0.08-0.029,0.161-0.055,0.239-0.088c0.132-0.054,0.26-0.116,0.388-0.178
	c0.094-0.045,0.188-0.086,0.28-0.135c0.108-0.057,0.21-0.121,0.315-0.184c0.108-0.063,0.217-0.125,0.321-0.194
	c0.086-0.058,0.167-0.12,0.25-0.181c0.115-0.083,0.23-0.164,0.341-0.255c0.076-0.062,0.146-0.129,0.22-0.194
	c0.108-0.095,0.218-0.189,0.321-0.291c0.086-0.086,0.166-0.179,0.248-0.269c0.081-0.089,0.164-0.173,0.242-0.267
	c0.161-0.193,0.313-0.392,0.453-0.601c10.215-15.059,27.536-24.049,46.341-24.049c21.961,0,41.807,12.397,50.56,31.582
	c1.217,2.668,3.88,4.381,6.813,4.381c2.933,0,5.596-1.712,6.813-4.381c8.754-19.185,28.6-31.582,50.561-31.582
	c21.962,0,41.808,12.397,50.561,31.582c1.217,2.668,3.88,4.381,6.813,4.381c2.934,0,5.595-1.712,6.813-4.381
	c8.754-19.185,28.6-31.582,50.561-31.582c21.961,0,41.807,12.397,50.561,31.582c1.217,2.668,3.88,4.381,6.813,4.381
	c2.933,0,5.596-1.712,6.813-4.381c8.753-19.185,28.599-31.582,50.56-31.582c18.682,0,35.931,8.895,46.163,23.796
	c1.343,2.01,3.632,3.334,6.23,3.334c2.971,0,5.529-1.733,6.74-4.241c0.002-0.003,0.004-0.007,0.005-0.01
	C487.728,240.579,488.001,239.483,488.001,238.322z"/>
<path style="fill:#CCD1D9;" d="M262.81,250.262c-1.218,2.668-3.88,4.381-6.813,4.381c-2.934,0-5.596-1.712-6.813-4.381
	c-2.13-4.668-4.921-8.929-8.234-12.712v49.776h29.956v-49.614C267.654,241.455,264.91,245.661,262.81,250.262z"/>
<g>
	<path style="fill:#DA4453;" d="M420.164,68C376.314,24.15,318.013,0,256,0c-10.101,0-20.102,0.652-29.959,1.914
		C276.702,8.402,323.539,31.292,360.246,68c40.658,40.658,64.363,93.742,67.601,150.686c0.091,0,0.181-0.005,0.272-0.005
		c18.682,0,35.931,8.895,46.163,23.796c1.343,2.01,3.632,3.334,6.23,3.334c2.971,0,5.529-1.733,6.74-4.241
		c0.002-0.003,0.004-0.007,0.005-0.01c0.472-0.982,0.744-2.077,0.744-3.238v-4.656c0.102-0.485,0.163-0.986,0.163-1.502
		C488.164,170.15,464.014,111.85,420.164,68z"/>
	<polygon style="fill:#DA4453;" points="270.906,287.325 240.95,287.325 223.536,327.271 288.443,327.271 	"/>
</g>
<g>
</g>
<g>
</g>
<g>
</g>
<g>
</g>
<g>
</g>
<g>
</g>
<g>
</g>
<g>
</g>
<g>
</g>
<g>
</g>
<g>
</g>
<g>
</g>
<g>
</g>
<g>
</g>
<g>
</g>
</svg>
