<?xml version="1.0" encoding="iso-8859-1"?>
<!-- Generator: Adobe Illustrator 19.0.0, SVG Export Plug-In . SVG Version: 6.00 Build 0)  -->
<svg version="1.1" id="Capa_1" xmlns="http://www.w3.org/2000/svg" xmlns:xlink="http://www.w3.org/1999/xlink" x="0px" y="0px"
	 viewBox="0 0 512 512" style="enable-background:new 0 0 512 512;" xml:space="preserve">
<path style="fill:#FFCE54;" d="M407.157,173.378l-169.144,61.563c-3.893,1.417-5.899,5.721-4.482,9.613l47.883,131.557
	c1.417,3.893,5.721,5.899,9.613,4.482L460.17,319.03c3.892-1.416,5.899-5.72,4.482-9.612L416.77,177.861
	C415.353,173.969,411.049,171.962,407.157,173.378z"/>
<path style="fill:#F6BB42;" d="M407.157,173.378l-28.193,10.262c3.893-1.417,8.196,0.591,9.612,4.483l47.883,131.557
	c1.417,3.893-0.59,8.195-4.481,9.612l28.193-10.262c3.892-1.416,5.899-5.72,4.482-9.612L416.77,177.861
	C415.353,173.969,411.049,171.962,407.157,173.378z"/>
<path style="fill:#656D78;" d="M277.812,475.86L277.812,475.86c-32.385,11.786-68.321-4.973-80.108-37.356
	c-11.786-32.382,4.972-68.318,37.355-80.107c15.688-5.71,32.66-4.969,47.79,2.087c15.131,7.055,26.608,19.58,32.317,35.269
	C326.952,428.136,310.195,464.072,277.812,475.86z"/>
<g>
	<path style="fill:#CCD1D9;" d="M215.353,370.046c5.641-4.934,12.252-8.936,19.705-11.649c7.349-2.675,14.979-3.915,22.57-3.773
		L149.319,57.044c-7.072-19.43-28.635-29.485-48.065-22.413l0,0L4.937,69.657c-3.893,1.417-5.899,5.72-4.482,9.612l10.262,28.192
		c1.416,3.893,5.72,5.899,9.612,4.482l89.268-32.463L215.353,370.046z"/>
	<path style="fill:#CCD1D9;" d="M501.284,312.08c-0.442-1.217-1.168-2.249-2.073-3.05c-1.993-1.763-4.863-2.407-7.539-1.433h-0.001
		l-188.124,68.438c4.989,5.724,8.942,12.367,11.618,19.717c2.713,7.453,3.896,15.09,3.742,22.581l188.156-68.449
		c0.001,0,0.001,0,0.001,0c0.098-0.036,0.189-0.081,0.285-0.12c0.142-0.059,0.285-0.113,0.422-0.179
		c0.811-0.392,1.517-0.921,2.115-1.541c0.243-0.253,0.475-0.516,0.68-0.798c0.025-0.034,0.045-0.072,0.07-0.107
		c1.078-1.542,1.569-3.468,1.283-5.396c-0.013-0.085-0.035-0.168-0.051-0.252c-0.075-0.409-0.176-0.816-0.322-1.221L501.284,312.08z
		"/>
</g>
<path style="fill:#AAB2BC;" d="M501.284,312.08c-0.442-1.217-1.168-2.249-2.073-3.05c-1.993-1.763-4.863-2.407-7.539-1.433h-0.001
	l-28.19,10.261c2.675-0.973,5.545-0.329,7.537,1.434c0.905,0.801,1.631,1.833,2.073,3.05l10.262,28.191
	c0.147,0.404,0.248,0.811,0.323,1.22c0.016,0.084,0.038,0.168,0.051,0.253c0.285,1.928-0.205,3.854-1.284,5.396
	c-0.024,0.034-0.045,0.072-0.069,0.106c-0.205,0.281-0.437,0.545-0.681,0.798c-0.598,0.62-1.304,1.149-2.114,1.54
	c-0.137,0.066-0.28,0.121-0.422,0.18c-0.096,0.039-0.188,0.084-0.285,0.12l28.192-10.262c0.001,0,0.001,0,0.001,0
	c0.098-0.036,0.189-0.081,0.285-0.12c0.142-0.059,0.285-0.113,0.422-0.179c0.811-0.392,1.517-0.921,2.115-1.541
	c0.243-0.253,0.475-0.516,0.68-0.798c0.025-0.034,0.045-0.072,0.07-0.107c1.078-1.542,1.569-3.468,1.283-5.396
	c-0.013-0.085-0.035-0.168-0.051-0.252c-0.075-0.409-0.176-0.816-0.322-1.221L501.284,312.08z"/>
<path style="fill:#CCD1D9;" d="M264.13,438.272L264.13,438.272c-11.658,4.243-24.595-1.789-28.838-13.447s1.788-24.596,13.445-28.84
	c11.66-4.242,24.598,1.791,28.84,13.448C281.82,421.09,275.788,434.027,264.13,438.272z"/>
<path style="fill:#F6BB42;" d="M357.564,37.123L188.421,98.687c-3.893,1.417-5.9,5.721-4.483,9.613L228.4,230.459
	c1.418,3.893,5.721,5.899,9.613,4.482l169.144-61.563c3.893-1.416,5.899-5.72,4.483-9.612l-44.463-122.16
	C365.76,37.713,361.456,35.707,357.564,37.123z"/>
<path style="fill:#DCA746;" d="M357.564,37.123l-28.193,10.262c3.893-1.416,8.196,0.59,9.613,4.482l44.462,122.16
	c1.417,3.893-0.59,8.195-4.482,9.612l28.193-10.262c3.893-1.416,5.899-5.72,4.483-9.612l-44.463-122.16
	C365.76,37.713,361.456,35.707,357.564,37.123z"/>
<path style="fill:#DA4453;" d="M259.974,112.546c1.417,3.893,5.721,5.899,9.613,4.483l37.588-13.682
	c3.893-1.416,5.899-5.72,4.482-9.612L298.833,58.5L247.15,77.311L259.974,112.546z"/>
<path style="fill:#ED5565;" d="M309.024,247.309c1.417,3.893,5.722,5.899,9.613,4.483l37.589-13.682
	c3.892-1.416,5.898-5.72,4.481-9.612l-12.825-35.234L296.2,212.075L309.024,247.309z"/>
<g>
</g>
<g>
</g>
<g>
</g>
<g>
</g>
<g>
</g>
<g>
</g>
<g>
</g>
<g>
</g>
<g>
</g>
<g>
</g>
<g>
</g>
<g>
</g>
<g>
</g>
<g>
</g>
<g>
</g>
</svg>
