<?xml version="1.0" encoding="iso-8859-1"?>
<!-- Generator: Adobe Illustrator 19.0.0, SVG Export Plug-In . SVG Version: 6.00 Build 0)  -->
<svg version="1.1" id="Capa_1" xmlns="http://www.w3.org/2000/svg" xmlns:xlink="http://www.w3.org/1999/xlink" x="0px" y="0px"
	 viewBox="0 0 512 512" style="enable-background:new 0 0 512 512;" xml:space="preserve">
<path style="fill:#F6BB42;" d="M214.502,215.995h240.006c2.583,0,4.861,1.307,6.21,3.294l-19.972-29.949
	c-0.001-0.003-0.003-0.005-0.005-0.007c-0.14-0.209-0.288-0.41-0.448-0.603c-0.1-0.121-0.208-0.232-0.315-0.347
	c-0.058-0.061-0.112-0.128-0.172-0.188c-0.135-0.135-0.277-0.259-0.42-0.382c-0.04-0.034-0.077-0.072-0.118-0.105
	c-0.135-0.111-0.276-0.212-0.417-0.313c-0.058-0.04-0.112-0.085-0.17-0.124c-0.122-0.082-0.249-0.154-0.375-0.228
	c-0.086-0.051-0.17-0.106-0.259-0.152c-0.102-0.055-0.207-0.101-0.311-0.15c-0.118-0.057-0.234-0.115-0.355-0.166
	c-0.082-0.033-0.167-0.061-0.25-0.092c-0.146-0.054-0.29-0.109-0.44-0.155c-0.071-0.021-0.144-0.036-0.216-0.056
	c-0.162-0.044-0.323-0.089-0.49-0.122c-0.125-0.025-0.25-0.039-0.376-0.058c-0.114-0.017-0.226-0.04-0.341-0.052
	c-0.249-0.025-0.5-0.037-0.751-0.038c-0.003,0-0.006,0-0.01,0H234.499c-0.003,0-0.005,0-0.008,0
	c-0.251,0.001-0.503,0.013-0.752,0.038c-0.116,0.012-0.228,0.035-0.342,0.052c-0.125,0.019-0.251,0.032-0.374,0.058
	c-0.172,0.034-0.339,0.081-0.507,0.126c-0.066,0.019-0.133,0.031-0.198,0.051c-0.157,0.048-0.309,0.106-0.46,0.164
	c-0.076,0.028-0.154,0.053-0.229,0.084c-0.129,0.053-0.252,0.115-0.377,0.176c-0.097,0.047-0.194,0.089-0.289,0.14
	c-0.097,0.052-0.188,0.11-0.283,0.167c-0.117,0.069-0.236,0.137-0.351,0.213c-0.068,0.046-0.132,0.098-0.2,0.146
	c-0.131,0.094-0.262,0.187-0.388,0.29c-0.055,0.045-0.105,0.096-0.158,0.142c-0.129,0.112-0.258,0.224-0.38,0.346
	c-0.102,0.102-0.195,0.211-0.291,0.318c-0.065,0.073-0.135,0.141-0.198,0.218c-0.16,0.193-0.31,0.396-0.45,0.607
	c-0.001,0.002-0.003,0.004-0.004,0.006l-19.965,29.947C209.643,217.301,211.919,215.995,214.502,215.995z"/>
<path style="fill:#DCA746;" d="M440.746,189.34c-0.001-0.003-0.003-0.005-0.005-0.007c-0.14-0.209-0.288-0.41-0.448-0.603
	c-0.1-0.121-0.208-0.232-0.315-0.347c-0.058-0.061-0.112-0.128-0.172-0.188c-0.135-0.135-0.277-0.259-0.42-0.382
	c-0.04-0.034-0.077-0.072-0.118-0.105c-0.135-0.111-0.276-0.212-0.417-0.313c-0.058-0.04-0.112-0.085-0.17-0.124
	c-0.122-0.082-0.249-0.154-0.375-0.228c-0.086-0.051-0.17-0.106-0.259-0.152c-0.102-0.055-0.207-0.101-0.311-0.15
	c-0.118-0.057-0.234-0.115-0.355-0.166c-0.082-0.033-0.167-0.061-0.25-0.092c-0.146-0.054-0.29-0.109-0.44-0.155
	c-0.071-0.021-0.144-0.036-0.216-0.056c-0.162-0.044-0.323-0.089-0.49-0.122c-0.125-0.025-0.25-0.039-0.376-0.058
	c-0.114-0.017-0.226-0.04-0.341-0.052c-0.249-0.025-0.5-0.037-0.751-0.038c-0.003,0-0.006,0-0.01,0h-29.993
	c0.251,0.001,0.501,0.013,0.751,0.038c0.115,0.012,0.227,0.035,0.341,0.052c0.126,0.019,0.252,0.032,0.376,0.058
	c0.167,0.033,0.328,0.078,0.49,0.122c0.072,0.02,0.144,0.034,0.216,0.056c0.15,0.046,0.294,0.102,0.44,0.155
	c0.083,0.031,0.168,0.059,0.25,0.092c0.121,0.051,0.237,0.109,0.355,0.166c0.104,0.05,0.21,0.096,0.312,0.15
	c0.089,0.047,0.172,0.102,0.259,0.152c0.126,0.074,0.253,0.146,0.375,0.228c0.059,0.039,0.113,0.084,0.171,0.124
	c0.141,0.101,0.282,0.201,0.417,0.313c0.041,0.033,0.078,0.071,0.118,0.105c0.143,0.123,0.285,0.247,0.42,0.382
	c0.06,0.061,0.114,0.127,0.172,0.188c0.106,0.114,0.215,0.226,0.315,0.347c0.16,0.193,0.308,0.394,0.448,0.603
	c0.002,0.002,0.004,0.004,0.005,0.007l17.775,26.655h25.99c2.583,0,4.861,1.307,6.21,3.294L440.746,189.34z"/>
<path style="fill:#FFCE54;" d="M347.001,396.003v-12.5c0-4.142,3.358-7.5,7.5-7.5L462.008,376V223.495c0-4.143-3.358-7.5-7.5-7.5
	H214.502c-4.142,0-7.5,3.357-7.5,7.5v172.507L347.001,396.003z"/>
<path style="fill:#F6BB42;" d="M454.508,215.995h-30.003c4.142,0,7.5,3.357,7.5,7.5v104.006V376v0.001L462.008,376V223.495
	C462.008,219.352,458.65,215.995,454.508,215.995z"/>
<path d="M164.502,411.001c-4.142,0-7.5-3.357-7.5-7.5V283.503c0-4.142,3.358-7.5,7.5-7.5s7.5,3.358,7.5,7.5v119.998
	C172.002,407.644,168.644,411.001,164.502,411.001z"/>
<g>
	<path style="fill:#CCD1D9;" d="M34.498,411.001c-4.142,0-7.5-3.357-7.5-7.5v-19.998c0-4.142,3.358-7.5,7.5-7.5s7.5,3.358,7.5,7.5
		v19.998C41.998,407.644,38.64,411.001,34.498,411.001z"/>
	<path style="fill:#CCD1D9;" d="M164.502,276.003h-59.499c-4.142,0-7.5,3.358-7.5,7.5v32.5h74.499v-32.5
		C172.002,279.36,168.644,276.003,164.502,276.003z"/>
</g>
<g>
	<path style="fill:#AAB2BC;" d="M142.001,276.003v-52.5c0-4.143-3.358-7.5-7.5-7.5s-7.5,3.357-7.5,7.5v52.5H142.001z"/>
	<rect x="97.5" y="316" style="fill:#AAB2BC;" width="74.5" height="40"/>
</g>
<rect x="97.5" y="356" style="fill:#CCD1D9;" width="74.5" height="40"/>
<path style="fill:#ED5565;" d="M362.002,263.499v-47.504h-55v47.504c0,4.143,3.358,7.5,7.5,7.5h40
	C358.644,270.999,362.002,267.642,362.002,263.499z"/>
<path style="fill:#656D78;" d="M254.502,376.001h-19.999c-4.142,0-7.5-3.357-7.5-7.5s3.358-7.5,7.5-7.5h19.999
	c4.142,0,7.5,3.357,7.5,7.5C262.002,372.644,258.644,376.001,254.502,376.001z"/>
<g>
	<path style="fill:#FFCE54;" d="M82.502,131.001c-17.921,0-32.5-14.579-32.5-32.5s14.579-32.5,32.5-32.5
		c17.92,0,32.5,14.579,32.5,32.5S100.422,131.001,82.502,131.001z"/>
	<path style="fill:#FFCE54;" d="M82.502,50.999c-4.142,0-7.5-3.357-7.5-7.5v-20c0-4.143,3.358-7.5,7.5-7.5s7.5,3.357,7.5,7.5v20
		C90.002,47.642,86.644,50.999,82.502,50.999z"/>
	<path style="fill:#FFCE54;" d="M82.502,181.003c-4.142,0-7.5-3.357-7.5-7.5v-20c0-4.143,3.358-7.5,7.5-7.5s7.5,3.357,7.5,7.5v20
		C90.002,177.645,86.644,181.003,82.502,181.003z"/>
	<path style="fill:#FFCE54;" d="M43.609,67.108c-1.92,0-3.839-0.732-5.303-2.196L24.164,50.77c-2.929-2.93-2.929-7.678,0-10.607
		c2.929-2.928,7.678-2.928,10.606,0l14.143,14.143c2.929,2.93,2.929,7.678,0,10.607C47.448,66.376,45.529,67.108,43.609,67.108z"/>
	<path style="fill:#FFCE54;" d="M135.536,159.036c-1.919,0-3.839-0.732-5.304-2.197l-14.142-14.143
		c-2.929-2.929-2.928-7.678,0.001-10.607s7.678-2.928,10.607,0.001l14.142,14.143c2.929,2.929,2.928,7.678,0,10.606
		C139.375,158.304,137.455,159.036,135.536,159.036z"/>
	<path style="fill:#FFCE54;" d="M27.499,106.001H7.5c-4.142,0-7.5-3.357-7.5-7.5c0-4.143,3.358-7.5,7.5-7.5h19.999
		c4.142,0,7.5,3.357,7.5,7.5C34.999,102.644,31.641,106.001,27.499,106.001z"/>
	<path style="fill:#FFCE54;" d="M157.504,106.001h-20c-4.142,0-7.5-3.357-7.5-7.5c0-4.143,3.358-7.5,7.5-7.5h20
		c4.142,0,7.5,3.357,7.5,7.5C165.004,102.644,161.646,106.001,157.504,106.001z"/>
	<path style="fill:#FFCE54;" d="M29.468,159.036c-1.92,0-3.838-0.732-5.303-2.196c-2.929-2.929-2.93-7.678-0.001-10.606
		l14.141-14.143c2.929-2.93,7.678-2.929,10.606-0.001c2.929,2.929,2.93,7.678,0.001,10.607L34.771,156.84
		C33.307,158.304,31.387,159.036,29.468,159.036z"/>
	<path style="fill:#FFCE54;" d="M121.394,67.108c-1.92,0-3.838-0.732-5.303-2.196c-2.929-2.929-2.929-7.678-0.001-10.606
		l14.142-14.143c2.93-2.93,7.677-2.929,10.607-0.001c2.929,2.929,2.929,7.678,0.001,10.606l-14.142,14.143
		C125.232,66.376,123.313,67.108,121.394,67.108z"/>
</g>
<path style="fill:#656D78;" d="M501.998,383.435c-0.001-0.17-0.013-0.338-0.025-0.506c-0.006-0.084-0.009-0.169-0.019-0.253
	c-0.016-0.147-0.042-0.293-0.067-0.438c-0.017-0.104-0.032-0.208-0.053-0.31c-0.024-0.112-0.057-0.223-0.086-0.334
	c-0.034-0.129-0.065-0.26-0.106-0.387c-0.025-0.079-0.058-0.156-0.085-0.234c-0.055-0.152-0.108-0.305-0.172-0.452
	c-0.026-0.06-0.057-0.116-0.085-0.175c-0.074-0.16-0.148-0.318-0.233-0.472c-0.035-0.065-0.077-0.124-0.114-0.188
	c-0.084-0.142-0.167-0.283-0.259-0.419c-0.061-0.089-0.129-0.172-0.194-0.259c-0.077-0.103-0.151-0.208-0.233-0.307
	c-0.094-0.112-0.196-0.218-0.296-0.325c-0.062-0.066-0.12-0.136-0.184-0.199c-0.115-0.115-0.239-0.222-0.362-0.329
	c-0.058-0.051-0.112-0.105-0.172-0.153c-0.119-0.097-0.244-0.186-0.369-0.276c-0.073-0.053-0.144-0.108-0.219-0.159
	c-0.107-0.071-0.22-0.135-0.332-0.201c-0.102-0.062-0.203-0.125-0.309-0.181c-0.09-0.048-0.184-0.089-0.277-0.134
	c-0.135-0.064-0.269-0.13-0.408-0.186c-0.078-0.032-0.16-0.059-0.24-0.088c-0.156-0.058-0.313-0.114-0.474-0.162
	c-0.021-0.007-0.042-0.016-0.063-0.021c-0.068-0.02-0.136-0.03-0.204-0.047c-0.152-0.039-0.304-0.077-0.459-0.106
	c-0.114-0.021-0.228-0.036-0.343-0.053c-0.128-0.018-0.254-0.037-0.384-0.048c-0.145-0.014-0.288-0.018-0.432-0.022
	c-0.08-0.002-0.158-0.012-0.238-0.012l-140,0.004c-4.142,0-7.5,3.358-7.5,7.5v12.5l-312.503-0.002c-4.142,0-7.5,3.357-7.5,7.5
	c0,1.414,0.502,34.888,44.146,56.71c1.077,0.539,2.221,0.794,3.348,0.794c0.009,0,0.019-0.002,0.028-0.002h399.985
	c3.263,0,6.267-2.147,7.208-5.441l19.999-70.002c0.019-0.065,0.029-0.131,0.046-0.197c0.039-0.153,0.078-0.307,0.107-0.465
	c0.023-0.119,0.038-0.238,0.055-0.357c0.017-0.121,0.035-0.241,0.046-0.364c0.015-0.158,0.02-0.315,0.024-0.473
	c0.002-0.068,0.01-0.135,0.01-0.204C502.001,383.478,501.998,383.457,501.998,383.435z"/>
<path style="fill:#434A54;" d="M501.998,383.435c-0.001-0.17-0.013-0.338-0.025-0.506c-0.006-0.084-0.009-0.169-0.019-0.253
	c-0.016-0.147-0.042-0.293-0.067-0.438c-0.017-0.104-0.032-0.208-0.053-0.31c-0.024-0.112-0.057-0.223-0.086-0.334
	c-0.034-0.129-0.065-0.26-0.106-0.387c-0.025-0.079-0.058-0.156-0.085-0.234c-0.055-0.152-0.108-0.305-0.172-0.452
	c-0.026-0.06-0.057-0.116-0.085-0.175c-0.074-0.16-0.148-0.318-0.233-0.472c-0.035-0.065-0.077-0.124-0.114-0.188
	c-0.084-0.142-0.167-0.283-0.259-0.419c-0.061-0.089-0.129-0.172-0.194-0.259c-0.077-0.103-0.151-0.208-0.233-0.307
	c-0.094-0.112-0.196-0.218-0.296-0.325c-0.062-0.066-0.12-0.136-0.184-0.199c-0.115-0.115-0.239-0.222-0.362-0.329
	c-0.058-0.051-0.112-0.105-0.172-0.153c-0.119-0.097-0.244-0.186-0.369-0.276c-0.073-0.053-0.144-0.108-0.219-0.159
	c-0.107-0.071-0.22-0.135-0.332-0.201c-0.102-0.062-0.203-0.125-0.309-0.181c-0.09-0.048-0.184-0.089-0.277-0.134
	c-0.135-0.064-0.269-0.13-0.408-0.186c-0.078-0.032-0.16-0.059-0.24-0.088c-0.156-0.058-0.313-0.114-0.474-0.162
	c-0.021-0.007-0.042-0.016-0.063-0.021c-0.068-0.02-0.136-0.03-0.204-0.047c-0.152-0.039-0.304-0.077-0.459-0.106
	c-0.114-0.021-0.228-0.036-0.343-0.053c-0.128-0.018-0.254-0.037-0.384-0.048c-0.145-0.014-0.288-0.018-0.432-0.022
	c-0.08-0.002-0.158-0.012-0.238-0.012L464.515,376c0.074,0.001,0.147,0.009,0.221,0.011c0.144,0.005,0.288,0.009,0.432,0.022
	c0.129,0.011,0.256,0.03,0.384,0.048c0.115,0.017,0.229,0.031,0.343,0.053c0.155,0.029,0.307,0.067,0.459,0.106
	c0.068,0.017,0.136,0.027,0.204,0.047c0.021,0.006,0.042,0.015,0.063,0.021c0.161,0.048,0.318,0.104,0.474,0.162
	c0.08,0.029,0.162,0.056,0.24,0.088c0.139,0.057,0.273,0.122,0.408,0.186c0.093,0.045,0.187,0.086,0.277,0.134
	c0.105,0.056,0.207,0.119,0.309,0.181c0.111,0.066,0.225,0.13,0.332,0.201c0.075,0.051,0.146,0.106,0.219,0.159
	c0.125,0.091,0.25,0.18,0.369,0.276c0.06,0.049,0.114,0.103,0.172,0.153c0.123,0.107,0.247,0.214,0.362,0.329
	c0.065,0.063,0.122,0.133,0.184,0.199c0.1,0.108,0.202,0.213,0.296,0.325c0.082,0.099,0.156,0.204,0.233,0.307
	c0.065,0.087,0.133,0.17,0.194,0.259c0.092,0.136,0.175,0.277,0.259,0.419c0.037,0.064,0.079,0.123,0.114,0.188
	c0.085,0.153,0.159,0.311,0.233,0.472c0.027,0.059,0.059,0.115,0.085,0.175c0.064,0.147,0.118,0.3,0.172,0.452
	c0.028,0.078,0.06,0.155,0.086,0.234c0.04,0.127,0.072,0.258,0.106,0.387c0.029,0.111,0.062,0.222,0.086,0.334
	c0.022,0.102,0.036,0.206,0.053,0.31c0.025,0.145,0.051,0.291,0.067,0.438c0.009,0.084,0.012,0.169,0.019,0.253
	c0.013,0.168,0.024,0.336,0.025,0.506c0,0.022,0.003,0.042,0.003,0.064c0,0.069-0.008,0.136-0.01,0.204
	c-0.004,0.157-0.009,0.315-0.024,0.473c-0.011,0.123-0.029,0.243-0.046,0.364c-0.017,0.119-0.032,0.238-0.055,0.357
	c-0.03,0.158-0.068,0.312-0.107,0.465c-0.017,0.066-0.027,0.132-0.046,0.197l-19.999,70.002c-0.941,3.294-3.944,5.441-7.207,5.441
	h30.003c3.263,0,6.267-2.147,7.208-5.441l19.999-70.002c0.019-0.065,0.029-0.131,0.046-0.197c0.039-0.153,0.078-0.307,0.107-0.465
	c0.023-0.119,0.038-0.238,0.055-0.357c0.017-0.121,0.035-0.241,0.046-0.364c0.015-0.158,0.02-0.315,0.024-0.473
	c0.002-0.068,0.01-0.135,0.01-0.204C502.001,383.478,501.998,383.457,501.998,383.435z"/>
<path style="fill:#5D9CEC;" d="M509.803,458.197l-10-10c-2.929-2.928-7.678-2.928-10.606,0l-4.697,4.696l-4.697-4.696
	c-2.929-2.928-7.678-2.928-10.606,0l-4.697,4.696l-4.697-4.696c-2.929-2.928-7.678-2.928-10.606,0l-4.697,4.696l-4.697-4.696
	c-2.929-2.928-7.678-2.928-10.606,0l-4.697,4.696l-4.697-4.696c-2.929-2.928-7.678-2.928-10.606,0l-4.697,4.696l-4.697-4.696
	c-2.929-2.928-7.678-2.928-10.606,0l-4.697,4.696l-4.697-4.696c-2.929-2.928-7.678-2.928-10.606,0l-4.697,4.696l-4.697-4.696
	c-2.929-2.928-7.678-2.928-10.606,0l-4.697,4.696l-4.697-4.696c-2.929-2.928-7.678-2.928-10.606,0l-4.697,4.696l-4.697-4.696
	c-2.929-2.928-7.678-2.928-10.606,0l-4.697,4.696l-4.697-4.696c-2.929-2.928-7.678-2.928-10.606,0l-4.697,4.696l-4.697-4.696
	c-2.929-2.928-7.678-2.928-10.606,0l-4.697,4.696l-4.697-4.696c-2.929-2.928-7.678-2.928-10.606,0l-4.697,4.696l-4.697-4.696
	c-2.929-2.928-7.678-2.928-10.606,0l-4.697,4.696l-4.697-4.696c-2.929-2.928-7.678-2.928-10.606,0l-4.697,4.696l-4.697-4.696
	c-2.929-2.928-7.678-2.928-10.606,0l-4.697,4.696l-4.697-4.696c-2.929-2.928-7.678-2.928-10.606,0l-4.697,4.696l-4.697-4.696
	c-2.929-2.928-7.678-2.928-10.606,0l-4.697,4.696l-4.697-4.696c-2.929-2.928-7.678-2.928-10.606,0l-4.697,4.696l-4.697-4.696
	c-2.929-2.928-7.678-2.928-10.606,0l-4.697,4.696l-4.697-4.696c-2.929-2.928-7.678-2.928-10.606,0l-4.697,4.696l-4.697-4.696
	c-2.929-2.928-7.678-2.928-10.606,0l-4.697,4.696l-4.697-4.696c-2.929-2.928-7.678-2.928-10.606,0l-4.697,4.696l-4.697-4.696
	c-2.929-2.928-7.678-2.928-10.606,0l-10,10c-1.465,1.465-2.197,3.384-2.197,5.304l0,0v32.5h495v-32.498
	C512,461.583,511.269,459.663,509.803,458.197z"/>
<polygon style="fill:#DA4453;" points="352.001,186.001 317.003,186.001 307.002,215.995 362.002,215.995 "/>
<g>
</g>
<g>
</g>
<g>
</g>
<g>
</g>
<g>
</g>
<g>
</g>
<g>
</g>
<g>
</g>
<g>
</g>
<g>
</g>
<g>
</g>
<g>
</g>
<g>
</g>
<g>
</g>
<g>
</g>
</svg>
