<?xml version="1.0" encoding="iso-8859-1"?>
<!-- Generator: Adobe Illustrator 19.0.0, SVG Export Plug-In . SVG Version: 6.00 Build 0)  -->
<svg version="1.1" id="Capa_1" xmlns="http://www.w3.org/2000/svg" xmlns:xlink="http://www.w3.org/1999/xlink" x="0px" y="0px"
	 viewBox="0 0 512 512" style="enable-background:new 0 0 512 512;" xml:space="preserve">
<path style="fill:#FFCE54;" d="M416.003,115.002c-31.707,0-57.502-25.795-57.502-57.501S384.296,0,416.003,0
	c31.706,0,57.5,25.795,57.5,57.501S447.708,115.002,416.003,115.002z"/>
<path style="fill:#F6BB42;" d="M416.003,0c-5.19,0-10.216,0.703-15.002,1.998c24.453,6.616,42.499,28.986,42.499,55.503
	S425.453,106.388,401,113.004c4.786,1.295,9.813,1.998,15.002,1.998c31.706,0,57.5-25.795,57.5-57.501S447.708,0,416.003,0z"/>
<path style="fill:#DCA746;" d="M416.003,115.002c-31.707,0-57.502-25.795-57.502-57.501v30.003
	c0,31.706,25.795,57.501,57.502,57.501c31.706,0,57.5-25.795,57.5-57.501V57.501C473.503,89.207,447.708,115.002,416.003,115.002z"
	/>
<path style="fill:#FFCE54;" d="M111.003,122.995c-23.435,0-42.5-19.065-42.5-42.501s19.065-42.501,42.5-42.501
	c23.434,0,42.5,19.065,42.5,42.501S134.437,122.995,111.003,122.995z"/>
<g>
	<path style="fill:#DCA746;" d="M111.003,122.995c-23.435,0-42.5-19.065-42.5-42.501v30c0,23.436,19.065,42.501,42.5,42.501
		c23.434,0,42.5-19.065,42.5-42.501v-30C153.503,103.93,134.437,122.995,111.003,122.995z"/>
	<path style="fill:#DCA746;" d="M111.003,97.994c-4.143,0-7.5-3.357-7.5-7.5v-20c0-4.143,3.357-7.5,7.5-7.5s7.5,3.358,7.5,7.5v20
		C118.503,94.637,115.146,97.994,111.003,97.994z"/>
	<path style="fill:#DCA746;" d="M415.397,75.003c-4.143,0-7.5-3.357-7.5-7.5v-20c0-4.142,3.357-7.5,7.5-7.5s7.5,3.358,7.5,7.5v20
		C422.897,71.646,419.539,75.003,415.397,75.003z"/>
</g>
<path style="fill:#DADDE1;" d="M58.886,226.342c0.014,0.12,0.032,0.239,0.052,0.359c0.019,0.117,0.038,0.234,0.063,0.351
	c0.025,0.12,0.056,0.238,0.087,0.356c0.03,0.116,0.062,0.231,0.098,0.347c0.036,0.115,0.077,0.229,0.119,0.342
	c0.043,0.116,0.087,0.231,0.136,0.346c0.046,0.109,0.098,0.216,0.15,0.324c0.056,0.114,0.112,0.229,0.175,0.342
	c0.056,0.103,0.116,0.202,0.179,0.303c0.068,0.112,0.14,0.225,0.215,0.334c0.067,0.098,0.139,0.192,0.212,0.288
	c0.08,0.104,0.161,0.209,0.247,0.311c0.033,0.039,0.062,0.081,0.096,0.119c0.053,0.061,0.112,0.112,0.167,0.171
	c0.051,0.054,0.096,0.111,0.148,0.164l15.738,15.738c9.96-9.398,20.27-17.233,30.119-23.688
	c50.467-33.07,110.116-44.854,149.11-44.854c38.995,0,98.646,11.783,149.114,44.854c9.958,6.525,20.388,14.46,30.449,23.996
	l15.747-15.746c0.057-0.058,0.105-0.119,0.161-0.178c0.048-0.051,0.1-0.096,0.146-0.148c0.035-0.04,0.064-0.082,0.099-0.123
	c0.086-0.102,0.168-0.205,0.249-0.311c0.072-0.096,0.144-0.19,0.212-0.288c0.075-0.109,0.146-0.22,0.215-0.332
	c0.061-0.102,0.123-0.202,0.18-0.306c0.062-0.111,0.118-0.224,0.174-0.338c0.053-0.109,0.105-0.219,0.153-0.33
	c0.048-0.11,0.09-0.223,0.132-0.335c0.043-0.117,0.086-0.234,0.123-0.354c0.035-0.11,0.066-0.222,0.096-0.334
	c0.032-0.123,0.064-0.245,0.09-0.368c0.023-0.112,0.043-0.225,0.061-0.338c0.021-0.124,0.041-0.248,0.055-0.374
	c0.013-0.114,0.021-0.229,0.029-0.345c0.008-0.123,0.016-0.246,0.017-0.369c0.002-0.119-0.001-0.237-0.005-0.355
	c-0.003-0.12-0.008-0.24-0.017-0.36c-0.01-0.121-0.025-0.241-0.039-0.362c-0.016-0.116-0.03-0.232-0.051-0.348
	c-0.021-0.123-0.047-0.244-0.075-0.365c-0.025-0.113-0.052-0.227-0.082-0.338c-0.033-0.12-0.071-0.238-0.11-0.356
	c-0.037-0.112-0.074-0.225-0.117-0.335c-0.043-0.114-0.092-0.226-0.141-0.337c-0.05-0.113-0.101-0.226-0.156-0.336
	c-0.053-0.105-0.109-0.208-0.168-0.312c-0.063-0.113-0.128-0.226-0.197-0.336c-0.062-0.096-0.127-0.19-0.193-0.285
	c-0.077-0.111-0.156-0.221-0.24-0.328c-0.07-0.09-0.145-0.177-0.22-0.264c-0.09-0.105-0.182-0.207-0.278-0.308
	c-0.035-0.036-0.064-0.075-0.101-0.111c-0.052-0.052-0.108-0.097-0.162-0.146c-0.056-0.053-0.106-0.109-0.164-0.161
	c-8.995-7.98-18.896-15.526-29.43-22.429c-55.989-36.689-122.232-49.761-165.556-49.761c-43.322,0-109.564,13.072-165.554,49.761
	c-10.402,6.816-20.186,14.259-29.078,22.12c-0.06,0.053-0.112,0.111-0.17,0.166c-0.054,0.052-0.112,0.097-0.165,0.149
	c-0.034,0.034-0.063,0.072-0.097,0.106c-0.097,0.101-0.188,0.204-0.278,0.309c-0.075,0.087-0.149,0.174-0.22,0.264
	c-0.085,0.106-0.163,0.216-0.241,0.327c-0.066,0.095-0.133,0.189-0.194,0.287c-0.068,0.108-0.132,0.218-0.194,0.329
	c-0.06,0.105-0.119,0.212-0.173,0.319s-0.103,0.216-0.15,0.325c-0.052,0.115-0.101,0.231-0.147,0.348
	c-0.04,0.106-0.076,0.214-0.111,0.322c-0.041,0.123-0.081,0.246-0.115,0.37c-0.029,0.107-0.055,0.214-0.079,0.321
	c-0.028,0.127-0.057,0.255-0.079,0.383c-0.02,0.109-0.033,0.219-0.048,0.329c-0.017,0.127-0.032,0.254-0.042,0.382
	c-0.009,0.113-0.012,0.227-0.016,0.341c-0.004,0.125-0.008,0.249-0.006,0.374c0.002,0.117,0.01,0.234,0.018,0.352
	C58.864,226.101,58.872,226.222,58.886,226.342z"/>
<path style="fill:#CCD1D9;" d="M226.001,122.995c3.859,0,7.494-0.978,10.672-2.697l29.873,27.951
	c7.604,0.342,15.742,1.052,24.281,2.177l-44.074-41.239c1.125-2.675,1.748-5.611,1.748-8.691c0-12.406-10.094-22.5-22.5-22.5
	s-22.5,10.094-22.5,22.5C203.501,112.901,213.594,122.995,226.001,122.995z"/>
<path style="fill:#48CFAD;" d="M386.004,512H125.997c-59.275,0-107.5-48.225-107.5-107.5v-19.998
	c0-85.736,48.066-135.231,88.39-161.653c50.467-33.07,110.116-44.854,149.11-44.854c38.995,0,98.646,11.783,149.114,44.854
	c40.325,26.423,88.393,75.917,88.393,161.653V404.5C493.504,463.775,445.279,512,386.004,512z"/>
<path style="fill:#37BC9B;" d="M405.11,222.849c-50.469-33.07-110.119-44.854-149.114-44.854c-7.617,0-16.031,0.457-25.002,1.428
	c36.955,3.996,83.502,16.815,124.111,43.426c40.325,26.423,88.393,75.917,88.393,161.653V404.5c0,59.275-48.225,107.5-107.5,107.5
	h50.005c59.275,0,107.5-48.225,107.5-107.5v-19.998C493.504,298.766,445.435,249.271,405.11,222.849z"/>
<path style="fill:#DADDE1;" d="M221.156,150.427c8.542-1.125,16.683-1.836,24.288-2.178l29.885-27.951
	c3.178,1.72,6.813,2.697,10.672,2.697c12.406,0,22.5-10.094,22.5-22.5s-10.094-22.5-22.5-22.5s-22.5,10.094-22.5,22.5
	c0,3.08,0.623,6.017,1.748,8.692L221.156,150.427z"/>
<g>
</g>
<g>
</g>
<g>
</g>
<g>
</g>
<g>
</g>
<g>
</g>
<g>
</g>
<g>
</g>
<g>
</g>
<g>
</g>
<g>
</g>
<g>
</g>
<g>
</g>
<g>
</g>
<g>
</g>
</svg>
