<?xml version="1.0" encoding="iso-8859-1"?>
<!-- Generator: Adobe Illustrator 19.0.0, SVG Export Plug-In . SVG Version: 6.00 Build 0)  -->
<svg version="1.1" id="Capa_1" xmlns="http://www.w3.org/2000/svg" xmlns:xlink="http://www.w3.org/1999/xlink" x="0px" y="0px"
	 viewBox="0 0 512.002 512.002" style="enable-background:new 0 0 512.002 512.002;" xml:space="preserve">
<path style="fill:#CCD1D9;" d="M244.299,338.996c0.318-0.056,0.631-0.135,0.939-0.232c0.059-0.017,0.116-0.033,0.174-0.051
	c0.346-0.119,0.682-0.266,1.009-0.434c0.027-0.014,0.054-0.022,0.08-0.035c0.039-0.02,0.074-0.045,0.112-0.066
	c0.142-0.078,0.28-0.16,0.415-0.248c0.077-0.048,0.154-0.098,0.228-0.15c0.125-0.084,0.244-0.176,0.364-0.268
	c0.081-0.064,0.161-0.128,0.239-0.195c0.102-0.086,0.2-0.178,0.299-0.272c0.087-0.082,0.17-0.164,0.253-0.248
	c0.079-0.086,0.16-0.176,0.237-0.266c0.088-0.102,0.177-0.205,0.259-0.31c0.063-0.084,0.127-0.17,0.188-0.256
	c0.085-0.121,0.166-0.24,0.243-0.363c0.026-0.042,0.058-0.082,0.083-0.127l21.212-35.355c0.03-0.053,0.052-0.105,0.083-0.158
	c0.065-0.113,0.126-0.23,0.185-0.348c0.055-0.105,0.104-0.211,0.152-0.318c0.052-0.115,0.099-0.232,0.145-0.352
	c0.042-0.113,0.084-0.225,0.122-0.338c0.039-0.119,0.072-0.237,0.107-0.358c0.032-0.115,0.063-0.23,0.089-0.346
	c0.028-0.124,0.049-0.248,0.07-0.373c0.02-0.115,0.039-0.23,0.055-0.346c0.017-0.127,0.025-0.256,0.035-0.385
	c0.008-0.115,0.017-0.229,0.018-0.342c0.004-0.131,0.003-0.26-0.001-0.391c-0.005-0.115-0.009-0.232-0.016-0.35
	c-0.011-0.125-0.023-0.25-0.04-0.377c-0.017-0.121-0.032-0.242-0.054-0.363c-0.011-0.063-0.015-0.125-0.027-0.188l-6.286-31.42
	L455.738,72.903c22.428-22.427,26.596-61.46,26.895-64.558c0.003-0.006,0.003-0.01,0.002-0.016c0.006-0.053,0.012-0.121,0.014-0.152
	c0.009-0.084,0.007-0.168,0.012-0.252c0.006-0.143,0.016-0.283,0.016-0.426s-0.01-0.285-0.017-0.428
	c-0.004-0.084-0.003-0.166-0.011-0.252c0.001-0.022-0.005-0.043-0.009-0.064c-0.015-0.162-0.042-0.321-0.069-0.482
	c-0.014-0.089-0.025-0.177-0.043-0.263c-0.028-0.152-0.069-0.301-0.108-0.449c-0.025-0.093-0.048-0.189-0.077-0.281
	c-0.039-0.129-0.088-0.252-0.133-0.375c-0.038-0.109-0.075-0.219-0.12-0.324c-0.043-0.103-0.097-0.201-0.143-0.303
	c-0.059-0.121-0.113-0.242-0.175-0.359c-0.049-0.088-0.103-0.17-0.155-0.256c-0.071-0.121-0.142-0.244-0.222-0.361
	c-0.059-0.086-0.123-0.166-0.185-0.25c-0.08-0.109-0.16-0.219-0.243-0.324c-0.081-0.096-0.167-0.184-0.25-0.275
	c-0.077-0.084-0.149-0.17-0.229-0.25c-0.105-0.107-0.221-0.205-0.331-0.305c-0.065-0.059-0.128-0.119-0.194-0.176
	c-0.129-0.105-0.266-0.203-0.399-0.301c-0.06-0.043-0.115-0.088-0.175-0.129c-0.137-0.094-0.28-0.178-0.428-0.262
	c-0.064-0.039-0.124-0.08-0.191-0.115c-0.133-0.071-0.272-0.137-0.408-0.201c-0.086-0.039-0.168-0.084-0.253-0.119
	c-0.12-0.051-0.241-0.092-0.362-0.137c-0.113-0.041-0.225-0.086-0.337-0.121c-0.105-0.031-0.208-0.055-0.311-0.082
	c-0.141-0.037-0.28-0.076-0.423-0.104c-0.092-0.02-0.189-0.031-0.283-0.047c-0.153-0.025-0.309-0.051-0.465-0.066
	c-0.023-0.003-0.045-0.009-0.068-0.011c-0.087-0.008-0.174-0.004-0.262-0.01c-0.139-0.008-0.275-0.018-0.414-0.016
	c-0.145-0.002-0.287,0.008-0.432,0.016c-0.081,0.006-0.165,0.002-0.25,0.01c-0.028,0.004-0.098,0.01-0.15,0.016
	c-0.005,0-0.01,0-0.016,0.002c-3.098,0.297-42.13,4.467-64.556,26.892L219.308,217.409l-31.416-6.283
	c-0.066-0.014-0.133-0.02-0.198-0.029c-0.113-0.021-0.23-0.037-0.343-0.051c-0.131-0.018-0.264-0.031-0.395-0.041
	c-0.11-0.008-0.223-0.012-0.336-0.015c-0.134-0.005-0.267-0.007-0.4-0.003c-0.111,0.002-0.221,0.01-0.332,0.018
	c-0.133,0.01-0.263,0.02-0.395,0.037c-0.113,0.015-0.227,0.031-0.339,0.051c-0.126,0.021-0.25,0.045-0.374,0.072
	c-0.117,0.028-0.232,0.059-0.35,0.09c-0.119,0.033-0.236,0.066-0.354,0.105c-0.115,0.037-0.229,0.08-0.342,0.123
	c-0.118,0.045-0.234,0.092-0.348,0.143c-0.109,0.049-0.217,0.1-0.322,0.154c-0.117,0.06-0.23,0.119-0.344,0.184
	c-0.053,0.029-0.107,0.053-0.157,0.084l-35.356,21.211c-0.045,0.025-0.084,0.057-0.126,0.084c-0.124,0.076-0.242,0.158-0.362,0.244
	c-0.087,0.061-0.174,0.123-0.257,0.19c-0.106,0.081-0.21,0.167-0.312,0.255c-0.09,0.078-0.18,0.158-0.266,0.238
	c-0.086,0.082-0.166,0.166-0.248,0.252c-0.094,0.1-0.186,0.197-0.271,0.301c-0.068,0.078-0.131,0.156-0.193,0.239
	c-0.094,0.118-0.186,0.239-0.27,0.362c-0.053,0.074-0.101,0.15-0.149,0.227c-0.089,0.139-0.173,0.277-0.25,0.42
	c-0.021,0.037-0.046,0.072-0.065,0.109c-0.013,0.025-0.021,0.053-0.033,0.079c-0.17,0.327-0.316,0.665-0.436,1.013
	c-0.019,0.055-0.031,0.109-0.049,0.164c-0.098,0.313-0.177,0.631-0.234,0.953c-0.01,0.049-0.021,0.098-0.03,0.148
	c-0.054,0.339-0.077,0.683-0.083,1.025c0.001,0.074-0.002,0.148,0,0.223c0.004,0.348,0.027,0.696,0.082,1.041
	c0.004,0.031,0.012,0.061,0.016,0.092c0.055,0.33,0.135,0.658,0.236,0.984c0.014,0.046,0.025,0.092,0.042,0.137
	c0.106,0.326,0.239,0.648,0.395,0.963c0.032,0.068,0.071,0.133,0.107,0.199c0.06,0.115,0.115,0.232,0.183,0.346
	c0.07,0.117,0.152,0.221,0.229,0.332c0.068,0.102,0.135,0.205,0.21,0.305c0.208,0.279,0.428,0.545,0.669,0.787
	c0.006,0.006,0.012,0.014,0.018,0.021c0.003,0,0.002,0.002,0.004,0.002c0,0.002,0.002,0.002,0.002,0.004
	c0.019,0.016,0.037,0.027,0.053,0.043c0.261,0.254,0.539,0.492,0.841,0.711c0.137,0.1,0.286,0.18,0.43,0.27
	c0.155,0.098,0.302,0.207,0.471,0.295l58.064,30.742l30.742,58.067c0.088,0.163,0.195,0.31,0.295,0.466
	c0.09,0.145,0.17,0.293,0.271,0.432c0.217,0.301,0.456,0.58,0.709,0.84c0.016,0.016,0.028,0.035,0.043,0.053
	c0.003,0,0.002,0.002,0.004,0.004l0.002,0.002c0.008,0.006,0.016,0.012,0.021,0.018c0.245,0.24,0.51,0.463,0.79,0.672
	c0.097,0.072,0.2,0.139,0.302,0.207c0.112,0.076,0.215,0.158,0.333,0.229c0.112,0.068,0.23,0.123,0.345,0.186
	c0.068,0.035,0.134,0.072,0.199,0.105c0.314,0.154,0.635,0.285,0.961,0.395c0.048,0.016,0.097,0.027,0.143,0.041
	c0.323,0.102,0.648,0.18,0.977,0.234c0.033,0.004,0.065,0.014,0.099,0.02c0.345,0.051,0.69,0.076,1.037,0.08
	c0.075,0.002,0.151,0,0.229-0.002c0.341-0.006,0.683-0.027,1.018-0.08C244.194,339.018,244.248,339.006,244.299,338.996z"/>
<path style="fill:#ED5565;" d="M360.948,75.767L152.996,20.311c-0.067-0.019-0.137-0.029-0.206-0.045
	c-0.142-0.033-0.282-0.066-0.427-0.092c-0.117-0.02-0.233-0.035-0.352-0.051c-0.118-0.014-0.238-0.029-0.359-0.039
	c-0.134-0.01-0.269-0.016-0.404-0.02c-0.104-0.002-0.206-0.004-0.311-0.002c-0.143,0.002-0.283,0.01-0.426,0.022
	c-0.099,0.008-0.199,0.016-0.299,0.027c-0.137,0.016-0.273,0.035-0.41,0.057c-0.104,0.019-0.213,0.039-0.32,0.063
	c-0.121,0.025-0.241,0.057-0.363,0.088c-0.119,0.033-0.238,0.066-0.355,0.105c-0.107,0.033-0.21,0.07-0.313,0.109
	c-0.13,0.047-0.254,0.098-0.379,0.152c-0.095,0.039-0.188,0.084-0.279,0.129c-0.125,0.06-0.249,0.123-0.371,0.191
	c-0.095,0.053-0.187,0.107-0.276,0.164c-0.113,0.068-0.223,0.137-0.331,0.213c-0.104,0.07-0.206,0.146-0.306,0.223
	c-0.088,0.068-0.178,0.138-0.264,0.211c-0.119,0.099-0.232,0.203-0.343,0.308c-0.047,0.043-0.097,0.084-0.143,0.129l-21.21,21.211
	c-0.045,0.045-0.082,0.092-0.125,0.139c-0.091,0.096-0.181,0.193-0.268,0.295c-0.088,0.104-0.174,0.209-0.255,0.316
	c-0.037,0.047-0.079,0.093-0.116,0.141c-0.031,0.045-0.059,0.092-0.09,0.139c-0.069,0.1-0.139,0.203-0.203,0.309
	c-0.062,0.1-0.123,0.199-0.18,0.301c-0.057,0.104-0.113,0.205-0.166,0.311c-0.057,0.113-0.108,0.228-0.16,0.344
	c-0.04,0.096-0.084,0.191-0.121,0.287c-0.053,0.135-0.098,0.27-0.142,0.404c-0.026,0.084-0.056,0.166-0.078,0.248
	c-0.047,0.162-0.085,0.324-0.12,0.486c-0.014,0.063-0.028,0.123-0.04,0.184c-0.042,0.211-0.071,0.422-0.092,0.633
	c-0.003,0.02-0.007,0.035-0.009,0.053c-0.021,0.234-0.032,0.469-0.032,0.705c-0.001,0.041,0.004,0.08,0.003,0.124
	c0.005,0.185,0.01,0.368,0.027,0.554c0.008,0.092,0.023,0.184,0.035,0.275c0.016,0.133,0.033,0.266,0.059,0.396
	c0.018,0.107,0.044,0.213,0.067,0.316c0.026,0.117,0.052,0.235,0.085,0.35c0.029,0.107,0.064,0.215,0.1,0.322
	c0.035,0.113,0.075,0.225,0.117,0.337c0.04,0.103,0.08,0.206,0.125,0.307c0.049,0.116,0.103,0.229,0.158,0.341
	c0.045,0.095,0.092,0.186,0.142,0.277c0.067,0.127,0.142,0.249,0.218,0.372c0.048,0.073,0.092,0.149,0.141,0.222
	c0.101,0.15,0.209,0.295,0.322,0.44c0.033,0.042,0.064,0.087,0.1,0.13c0.155,0.188,0.317,0.369,0.49,0.543
	c0.005,0.004,0.01,0.008,0.014,0.012c0.254,0.252,0.521,0.475,0.799,0.684c0.031,0.023,0.055,0.051,0.086,0.072l148.463,107.98
	L360.948,75.767z"/>
<path style="fill:#DA4453;" d="M406.904,121.722l55.456,207.953c0.02,0.068,0.028,0.138,0.045,0.206
	c0.032,0.141,0.065,0.282,0.092,0.426c0.019,0.118,0.035,0.234,0.05,0.352c0.014,0.119,0.03,0.238,0.04,0.36
	c0.009,0.134,0.015,0.269,0.02,0.403c0.001,0.103,0.004,0.207,0.001,0.311c-0.002,0.143-0.009,0.282-0.021,0.426
	c-0.008,0.099-0.016,0.198-0.028,0.298c-0.015,0.137-0.034,0.273-0.058,0.41c-0.018,0.106-0.037,0.213-0.06,0.32
	c-0.026,0.121-0.057,0.242-0.089,0.363c-0.032,0.12-0.065,0.238-0.104,0.355c-0.033,0.107-0.07,0.21-0.109,0.314
	c-0.047,0.128-0.098,0.253-0.152,0.378c-0.04,0.094-0.085,0.188-0.13,0.279c-0.06,0.125-0.122,0.248-0.19,0.371
	c-0.054,0.095-0.108,0.187-0.165,0.276c-0.067,0.113-0.137,0.222-0.212,0.331c-0.071,0.103-0.147,0.206-0.223,0.305
	c-0.068,0.088-0.138,0.178-0.212,0.266c-0.098,0.117-0.202,0.23-0.309,0.342c-0.043,0.047-0.083,0.096-0.129,0.143l-21.21,21.209
	c-0.045,0.045-0.092,0.084-0.139,0.125c-0.096,0.092-0.193,0.182-0.295,0.268c-0.104,0.089-0.209,0.174-0.316,0.256
	c-0.047,0.037-0.093,0.078-0.142,0.116c-0.045,0.03-0.092,0.059-0.138,0.089c-0.1,0.07-0.204,0.14-0.31,0.203
	c-0.1,0.063-0.198,0.123-0.3,0.181c-0.104,0.057-0.205,0.112-0.311,0.166c-0.113,0.057-0.228,0.108-0.344,0.16
	c-0.095,0.04-0.191,0.083-0.286,0.12c-0.136,0.053-0.271,0.098-0.405,0.143c-0.083,0.025-0.165,0.056-0.247,0.078
	c-0.163,0.048-0.325,0.084-0.487,0.119c-0.062,0.014-0.123,0.029-0.183,0.041c-0.212,0.041-0.422,0.071-0.634,0.092
	c-0.019,0.002-0.035,0.006-0.052,0.009c-0.234,0.022-0.47,0.032-0.706,0.033c-0.04,0-0.08-0.005-0.123-0.005
	c-0.185-0.004-0.369-0.01-0.555-0.026c-0.091-0.009-0.184-0.023-0.275-0.035c-0.132-0.017-0.265-0.033-0.396-0.059
	c-0.107-0.019-0.213-0.044-0.317-0.067c-0.116-0.027-0.234-0.053-0.349-0.086c-0.108-0.029-0.215-0.064-0.322-0.1
	c-0.114-0.035-0.225-0.074-0.336-0.116c-0.104-0.037-0.207-0.08-0.309-0.125c-0.115-0.049-0.228-0.102-0.34-0.159
	c-0.094-0.045-0.186-0.092-0.277-0.142c-0.128-0.066-0.249-0.142-0.372-0.217c-0.073-0.047-0.149-0.092-0.223-0.142
	c-0.149-0.102-0.295-0.209-0.439-0.321c-0.044-0.034-0.089-0.066-0.131-0.101c-0.188-0.154-0.369-0.316-0.543-0.49
	c-0.004-0.004-0.008-0.01-0.012-0.014c-0.253-0.253-0.475-0.521-0.684-0.798c-0.024-0.032-0.051-0.055-0.074-0.087L319.859,208.767
	L406.904,121.722z"/>
<path style="fill:#CE3A50;" d="M460.545,336.768c0.106-0.111,0.211-0.225,0.309-0.342c0.074-0.088,0.143-0.178,0.212-0.266
	c0.076-0.099,0.151-0.201,0.223-0.305c0.075-0.109,0.145-0.218,0.212-0.331c0.057-0.09,0.111-0.182,0.165-0.276
	c0.068-0.123,0.131-0.246,0.19-0.371c0.045-0.092,0.09-0.185,0.13-0.279c0.055-0.125,0.105-0.25,0.152-0.378
	c0.039-0.104,0.076-0.207,0.109-0.314c0.039-0.117,0.072-0.235,0.104-0.355c0.032-0.121,0.063-0.242,0.089-0.363
	c0.023-0.107,0.043-0.214,0.06-0.32c0.023-0.137,0.043-0.273,0.058-0.41c0.013-0.1,0.021-0.199,0.028-0.298
	c0.012-0.144,0.018-0.283,0.021-0.426c0.003-0.104,0-0.208-0.001-0.311c-0.005-0.135-0.011-0.27-0.02-0.403
	c-0.01-0.122-0.026-0.241-0.04-0.36c-0.015-0.117-0.031-0.233-0.05-0.352c-0.026-0.144-0.06-0.285-0.092-0.426
	c-0.017-0.068-0.025-0.138-0.045-0.206l-55.456-207.953l-21.214,21.215l55.455,207.952c0.018,0.068,0.026,0.14,0.044,0.208
	c0.034,0.14,0.065,0.282,0.091,0.426c0.022,0.116,0.036,0.233,0.053,0.35c0.013,0.119,0.026,0.238,0.037,0.359
	c0.012,0.136,0.017,0.27,0.018,0.404c0.005,0.104,0.005,0.207,0.005,0.311c-0.002,0.145-0.012,0.285-0.022,0.426
	c-0.009,0.1-0.016,0.199-0.027,0.301c-0.017,0.137-0.036,0.272-0.059,0.408c-0.018,0.107-0.038,0.214-0.061,0.32
	c-0.027,0.122-0.057,0.244-0.089,0.363c-0.032,0.119-0.068,0.238-0.104,0.357c-0.035,0.107-0.07,0.207-0.11,0.311
	c-0.047,0.13-0.098,0.254-0.151,0.38c-0.042,0.095-0.085,0.186-0.129,0.278c-0.06,0.125-0.125,0.25-0.193,0.371
	c-0.052,0.094-0.107,0.186-0.162,0.277c-0.068,0.112-0.14,0.223-0.213,0.333c-0.072,0.101-0.148,0.202-0.223,0.302
	c-0.069,0.09-0.138,0.178-0.212,0.266c-0.098,0.117-0.203,0.232-0.308,0.342c-0.043,0.045-0.083,0.096-0.128,0.14
	c0.003-0.001,0.003-0.001,0.003-0.003l21.21-21.209C460.462,336.864,460.502,336.815,460.545,336.768z"/>
<path style="fill:#DADDE1;" d="M194.104,288.575c-2.931-2.93-2.931-7.678-0.001-10.605l40.043-40.045
	c2.931-2.93,7.678-2.93,10.607,0.001c2.931,2.927,2.931,7.675,0,10.605l-40.045,40.045
	C201.78,291.504,197.032,291.504,194.104,288.575z"/>
<path style="fill:#FFCE54;" d="M31.523,509.805c-1.358-1.355-2.198-3.232-2.198-5.303V394.504c0.001-1.99,0.789-3.897,2.197-5.305
	c1.406-1.406,3.313-2.195,5.304-2.197l160.004,0.002c4.143,0.002,7.5,3.359,7.5,7.5v109.999c0.001,1.99-0.789,3.896-2.197,5.303
	c-1.406,1.408-3.312,2.197-5.303,2.197H36.825C34.755,512.002,32.88,511.162,31.523,509.805z"/>
<g>
	<path style="fill:#F6BB42;" d="M196.83,387.004h-30.003c4.143,0.003,7.5,3.36,7.5,7.5v109.999c0,1.99-0.789,3.896-2.197,5.304
		c-1.406,1.407-3.313,2.196-5.303,2.196h30.003c1.991,0,3.896-0.789,5.303-2.197c1.408-1.406,2.198-3.313,2.197-5.303V394.504
		C204.33,390.364,200.972,387.006,196.83,387.004z"/>
	<path style="fill:#F6BB42;" d="M31.522,389.2c1.406-1.406,3.313-2.195,5.304-2.197l160.004,0.002c2.69,0,5.039,1.42,6.363,3.544
		c-0.043-0.067-0.078-0.137-0.123-0.204l-20.002-29.999c-0.004-0.005-0.005-0.009-0.009-0.013c-0.11-0.164-0.23-0.32-0.352-0.475
		c-0.327-0.416-0.69-0.789-1.085-1.117c-0.01-0.008-0.017-0.018-0.027-0.025c-0.154-0.127-0.316-0.244-0.477-0.358
		c-0.038-0.025-0.072-0.055-0.11-0.079c-0.139-0.095-0.283-0.177-0.427-0.261c-0.068-0.039-0.136-0.084-0.206-0.121
		c-0.117-0.063-0.236-0.115-0.357-0.172c-0.104-0.049-0.205-0.102-0.311-0.147c-0.094-0.039-0.191-0.068-0.286-0.103
		c-0.135-0.051-0.268-0.104-0.406-0.143c-0.08-0.026-0.162-0.042-0.243-0.064c-0.153-0.04-0.307-0.084-0.464-0.116
		c-0.121-0.024-0.242-0.038-0.363-0.056c-0.118-0.018-0.236-0.041-0.357-0.055c-0.248-0.023-0.496-0.037-0.743-0.037
		c-0.006,0-0.01,0-0.015,0H56.824c-0.005,0-0.009,0-0.013,0c-0.25,0-0.499,0.014-0.747,0.039c-0.132,0.012-0.257,0.036-0.385,0.057
		c-0.111,0.018-0.224,0.029-0.335,0.051c-0.174,0.035-0.344,0.082-0.516,0.129c-0.062,0.018-0.125,0.031-0.187,0.049
		c-0.158,0.049-0.313,0.108-0.465,0.166c-0.077,0.027-0.152,0.051-0.226,0.082c-0.13,0.053-0.253,0.115-0.379,0.176
		c-0.098,0.047-0.194,0.09-0.289,0.139c-0.098,0.054-0.189,0.113-0.284,0.17c-0.116,0.068-0.234,0.135-0.349,0.211
		c-0.07,0.048-0.137,0.1-0.205,0.15c-0.128,0.093-0.259,0.184-0.383,0.286c-0.058,0.046-0.108,0.101-0.166,0.149
		c-0.126,0.109-0.252,0.219-0.371,0.338c-0.12,0.119-0.229,0.246-0.342,0.373c-0.049,0.055-0.1,0.105-0.146,0.162
		c-0.16,0.193-0.31,0.398-0.451,0.607c-0.002,0.002-0.004,0.004-0.004,0.006l-19.997,30c-0.134,0.199-0.255,0.404-0.366,0.611
		C30.561,390.315,30.999,389.723,31.522,389.2z"/>
</g>
<path style="fill:#DCA746;" d="M203.07,390.344l-20.002-29.999c-0.004-0.005-0.005-0.009-0.009-0.013
	c-0.11-0.164-0.23-0.32-0.352-0.475c-0.327-0.416-0.69-0.789-1.085-1.117c-0.01-0.008-0.017-0.018-0.027-0.025
	c-0.154-0.127-0.316-0.244-0.477-0.358c-0.038-0.025-0.072-0.055-0.11-0.079c-0.139-0.095-0.283-0.177-0.427-0.261
	c-0.068-0.039-0.136-0.084-0.206-0.121c-0.117-0.063-0.236-0.115-0.357-0.172c-0.104-0.049-0.205-0.102-0.311-0.147
	c-0.094-0.039-0.191-0.068-0.286-0.103c-0.135-0.051-0.268-0.104-0.406-0.143c-0.08-0.026-0.162-0.042-0.243-0.064
	c-0.153-0.04-0.307-0.084-0.464-0.116c-0.121-0.024-0.242-0.038-0.363-0.056c-0.118-0.018-0.236-0.041-0.357-0.055
	c-0.248-0.023-0.496-0.037-0.743-0.037c-0.006,0-0.01,0-0.015,0h-30.206c0.248,0,0.495,0.014,0.743,0.037
	c0.122,0.014,0.239,0.037,0.357,0.055c0.121,0.018,0.243,0.031,0.363,0.056c0.156,0.031,0.312,0.076,0.464,0.116
	c0.081,0.021,0.163,0.037,0.244,0.064c0.139,0.04,0.271,0.093,0.405,0.143c0.097,0.035,0.192,0.064,0.285,0.103
	c0.107,0.045,0.21,0.098,0.314,0.147c0.12,0.057,0.239,0.109,0.356,0.172c0.07,0.037,0.138,0.082,0.206,0.121
	c0.143,0.085,0.289,0.166,0.427,0.26c0.037,0.025,0.072,0.055,0.109,0.08c0.162,0.113,0.324,0.23,0.479,0.358
	c0.01,0.008,0.018,0.017,0.027,0.026c0.395,0.327,0.758,0.7,1.085,1.116c0.122,0.154,0.241,0.311,0.352,0.475
	c0.004,0.004,0.005,0.008,0.01,0.012l17.774,26.66h26.207c2.69,0,5.039,1.42,6.363,3.544
	C203.15,390.481,203.115,390.412,203.07,390.344z"/>
<polygon style="fill:#DA4453;" points="134.328,387.002 124.327,357.003 109.324,357.003 99.324,387.002 "/>
<path style="fill:#515760;" d="M52.186,489.809c-1.356-1.357-2.197-3.232-2.197-5.305c0-4.141,3.358-7.498,7.5-7.5h19.332
	c4.142,0.002,7.5,3.359,7.502,7.502c-0.002,4.141-3.359,7.498-7.502,7.5H57.489C55.419,492.004,53.544,491.164,52.186,489.809z"/>
<path style="fill:#DA4453;" d="M99.324,412.004c0,8.25,6.75,15,15,15h5.004c8.251,0,15.001-6.75,15-14.999v-25.003H99.324V412.004z"
	/>
<g>
</g>
<g>
</g>
<g>
</g>
<g>
</g>
<g>
</g>
<g>
</g>
<g>
</g>
<g>
</g>
<g>
</g>
<g>
</g>
<g>
</g>
<g>
</g>
<g>
</g>
<g>
</g>
<g>
</g>
</svg>
