<?xml version="1.0" encoding="iso-8859-1"?>
<!-- Generator: Adobe Illustrator 19.0.0, SVG Export Plug-In . SVG Version: 6.00 Build 0)  -->
<svg version="1.1" id="Capa_1" xmlns="http://www.w3.org/2000/svg" xmlns:xlink="http://www.w3.org/1999/xlink" x="0px" y="0px"
	 viewBox="0 0 512 512" style="enable-background:new 0 0 512 512;" xml:space="preserve">
<path style="fill:#FFCE54;" d="M308.726,29.766c-5.912-5.913-12.704-10.559-20.222-13.902V7.5c0-3.975-3.094-7.219-7.004-7.475V0
	h-45.497c-4.142,0-7.5,3.357-7.5,7.5v15.85c0,0.085,0.01,0.168,0.013,0.252c0.005,0.148,0.009,0.297,0.022,0.445
	c0.011,0.116,0.029,0.23,0.045,0.346c0.019,0.127,0.034,0.254,0.059,0.38c0.023,0.122,0.054,0.241,0.083,0.36
	c0.029,0.118,0.057,0.235,0.091,0.352c0.035,0.119,0.077,0.234,0.118,0.351c0.04,0.115,0.079,0.23,0.125,0.343
	c0.046,0.112,0.098,0.221,0.148,0.33c0.052,0.112,0.103,0.225,0.162,0.336c0.056,0.106,0.118,0.209,0.18,0.313
	c0.063,0.107,0.124,0.213,0.192,0.316c0.071,0.108,0.148,0.21,0.225,0.313c0.068,0.093,0.135,0.188,0.208,0.278
	c0.094,0.115,0.194,0.224,0.294,0.333c0.058,0.063,0.108,0.129,0.168,0.191l35.662,36.531c3.306,3.306,5.127,7.7,5.127,12.374
	s-1.821,9.068-5.127,12.374c-3.305,3.306-7.7,5.126-12.374,5.126c-4.674,0-9.068-1.82-12.374-5.126l-33.201-33.199
	c-1.895-1.895-4.657-2.636-7.248-1.939c-2.589,0.695-4.61,2.72-5.302,5.31c-6.198,23.233,0.494,48.21,17.467,65.185
	c13.159,13.159,30.444,19.738,47.73,19.738c17.285,0,34.571-6.579,47.73-19.738c12.749-12.75,19.771-29.7,19.771-47.73
	C328.496,59.464,321.475,42.513,308.726,29.766z"/>
<path style="fill:#F6BB42;" d="M308.726,29.766c-5.912-5.913-12.704-10.559-20.222-13.902V7.5c0-3.975-3.094-7.219-7.004-7.475V0
	h-30.003v0.025c3.91,0.256,7.004,3.5,7.004,7.475c0,0,0-0.029,0,8.363S275.088,29.843,281,35.756
	c12.749,12.747,17.493,23.708,17.493,41.737c0,18.03-7.022,34.98-19.771,47.73c-9.326,9.325-20.727,15.329-32.729,18.046
	c4.934,1.117,9.966,1.692,15.001,1.692c17.285,0,34.571-6.579,47.73-19.738c12.749-12.75,19.771-29.7,19.771-47.73
	C328.496,59.464,321.475,42.513,308.726,29.766z"/>
<path style="fill:#DADDE1;" d="M426.002,180.004c1.457,0,2.813,0.422,3.964,1.142c-0.055-0.034-0.105-0.073-0.161-0.106
	L259.804,81.033c-3.569-2.098-8.167-0.907-10.268,2.662c-2.1,3.57-0.908,8.167,2.662,10.268l146.262,86.041H426.002z"/>
<path style="fill:#E6E9ED;" d="M85.998,180.004h27.542l97.367-57.277c-3.402-3.771-6.334-7.884-8.769-12.245L82.195,181.039
	c-0.057,0.033-0.106,0.072-0.161,0.106C83.185,180.426,84.54,180.004,85.998,180.004z"/>
<rect x="123.49" y="225.01" style="fill:#E2AE83;" width="265" height="241.99"/>
<g>
	<rect x="348.5" y="225.01" style="fill:#C48D69;" width="15" height="241.99"/>
	<rect x="308.5" y="225.01" style="fill:#C48D69;" width="15" height="241.99"/>
	<rect x="268.5" y="225.01" style="fill:#C48D69;" width="15" height="241.99"/>
	<rect x="228.5" y="225.01" style="fill:#C48D69;" width="15" height="241.99"/>
	<rect x="188.5" y="225.01" style="fill:#C48D69;" width="15" height="241.99"/>
	<rect x="148.5" y="225.01" style="fill:#C48D69;" width="15" height="241.99"/>
</g>
<path style="fill:#FFD2A6;" d="M426.002,180.004h-30c-4.143,0-7.5,3.357-7.5,7.5V504.5c0,4.143,3.357,7.5,7.5,7.5h30
	c4.142,0,7.5-3.357,7.5-7.5V187.504C433.502,183.361,430.145,180.004,426.002,180.004z"/>
<path style="fill:#F2C397;" d="M426.002,180.004h-30c0,0-0.001,0-0.002,0c4.143,0.001,7.499,3.357,7.499,7.5V504.5
	c0,4.143-3.356,7.499-7.499,7.5c0.001,0,0.002,0,0.002,0h30c4.142,0,7.5-3.357,7.5-7.5V187.504
	C433.502,183.361,430.145,180.004,426.002,180.004z"/>
<path style="fill:#FFD2A6;" d="M115.998,180.004h-30c-4.143,0-7.5,3.357-7.5,7.5V504.5c0,4.143,3.357,7.5,7.5,7.5h30
	c4.143,0,7.5-3.357,7.5-7.5V187.504C123.498,183.361,120.141,180.004,115.998,180.004z"/>
<g>
	<path style="fill:#F2C397;" d="M123.498,187.504v37.5h265.004v-37.5c0-4.143,3.357-7.5,7.5-7.5H115.998
		C120.141,180.004,123.498,183.361,123.498,187.504z"/>
	<path style="fill:#F2C397;" d="M388.502,504.5v-37.503H123.498V504.5c0,4.123-3.327,7.466-7.442,7.497h279.888
		C391.828,511.966,388.502,508.623,388.502,504.5z"/>
</g>
<g>
</g>
<g>
</g>
<g>
</g>
<g>
</g>
<g>
</g>
<g>
</g>
<g>
</g>
<g>
</g>
<g>
</g>
<g>
</g>
<g>
</g>
<g>
</g>
<g>
</g>
<g>
</g>
<g>
</g>
</svg>
