<?xml version="1.0" encoding="iso-8859-1"?>
<!-- Generator: Adobe Illustrator 19.0.0, SVG Export Plug-In . SVG Version: 6.00 Build 0)  -->
<svg version="1.1" id="Capa_1" xmlns="http://www.w3.org/2000/svg" xmlns:xlink="http://www.w3.org/1999/xlink" x="0px" y="0px"
	 viewBox="0 0 512 512" style="enable-background:new 0 0 512 512;" xml:space="preserve">
<path style="fill:#5D9CEC;" d="M414.5,242.268h-59.855v74.996h59.851c11.009,0,21.314,9.429,33.245,20.346
	c15.191,13.899,32.409,29.654,56.759,29.654h7.5v-7.5v-0.001v-0.001v-19.994C512,286.006,468.262,242.268,414.5,242.268z"/>
<path style="fill:#4A89DC;" d="M414.5,242.268h-36.999c53.762,0,104.496,43.738,104.496,97.5v19.994v0.001v0.001v2.75
	c6.814,2.936,14.248,4.75,22.503,4.75h7.5v-7.5v-0.001v-0.001v-19.994C512,286.006,468.262,242.268,414.5,242.268z"/>
<path style="fill:#CCD1D9;" d="M406.996,242.268v74.996h7.5c2.528,0,5.018,0.517,7.5,1.415v-76.126
	c-2.474-0.188-4.974-0.285-7.496-0.285L406.996,242.268L406.996,242.268z"/>
<path d="M347.507,187.613H27.502c-4.142,0-7.5-3.357-7.5-7.5s3.358-7.5,7.5-7.5h320.005c4.142,0,7.5,3.357,7.5,7.5
	C355.007,184.255,351.649,187.613,347.507,187.613z"/>
<path style="fill:#ED5565;" d="M367.501,187.238H7.5c-4.142,0-7.5-3.357-7.5-7.5v-80c0-4.143,3.358-7.5,7.5-7.5h360.001
	c4.142,0,7.5,3.357,7.5,7.5v80C375.001,183.88,371.643,187.238,367.501,187.238z"/>
<path style="fill:#DA4453;" d="M20.001,187.238v172.524c0,4.143,3.358,7.5,7.5,7.5h0.001h320.005c4.142,0,7.5-3.357,7.5-7.5V187.238
	H20.001z"/>
<path style="fill:#CE3A50;" d="M325.004,187.238v172.524c0,4.143-3.358,7.5-7.5,7.5h30.003c4.142,0,7.5-3.357,7.5-7.5V187.238
	H325.004z"/>
<path style="fill:#DA4453;" d="M367.501,92.237h-30.003c4.142,0,7.5,3.357,7.5,7.5v80c0,4.143-3.358,7.5-7.5,7.5h30.003
	c4.142,0,7.5-3.357,7.5-7.5v-80C375.001,95.595,371.643,92.237,367.501,92.237z"/>
<rect x="147.5" y="187.609" style="fill:#F6BB42;" width="80" height="179.65"/>
<path style="fill:#FFCE54;" d="M187.501,52.237c-22.092,0-40.001,17.909-40.001,40v95h80.001v-95
	C227.501,70.146,209.592,52.237,187.501,52.237z"/>
<path style="fill:#F6BB42;" d="M180.113,52.93c-12.213-11.685-41.12-30.695-72.618-30.695c-49.826,0-56.769,32.278-57.436,70.003
	h97.44C147.5,72.671,161.553,56.396,180.113,52.93z"/>
<path style="fill:#E8AA3D;" d="M194.949,52.93c12.213-11.685,41.12-30.695,72.618-30.695c49.826,0,56.768,32.278,57.435,70.003
	h-97.44C227.563,72.671,213.51,56.396,194.949,52.93z"/>
<path style="fill:#CCD1D9;" d="M504.5,367.264c-24.35,0-41.568-15.755-56.759-29.654c-11.931-10.917-22.235-20.346-33.245-20.346
	h-59.489v42.498c0,4.143-3.358,7.5-7.5,7.5H27.502h-0.001c-4.139,0-7.494-3.353-7.499-7.49v79.99v0.001c0,0.002,0,0.002,0,0.002
	c0,4.144,3.358,7.501,7.5,7.501h139.607h187.785h99.604H479.5h25c4.142,0,7.5-3.357,7.5-7.5v-72.502H504.5z"/>
<path style="fill:#656D78;" d="M404.498,489.764c-27.57,0-49.999-22.43-49.999-50c0-27.569,22.429-50,49.999-50
	c27.571,0,50.001,22.431,50.001,50C454.499,467.334,432.069,489.764,404.498,489.764z"/>
<path style="fill:#CCD1D9;" d="M404.498,459.764c-11.028,0-20-8.972-20-20s8.972-20,20-20s20,8.972,20,20
	C424.498,450.792,415.526,459.764,404.498,459.764z"/>
<path style="fill:#656D78;" d="M117.504,489.764c-27.57,0-49.999-22.43-49.999-50c0-27.569,22.429-50,49.999-50
	c27.571,0,50.001,22.431,50.001,50C167.505,467.334,145.075,489.764,117.504,489.764z"/>
<path style="fill:#CCD1D9;" d="M117.504,459.764c-11.028,0-20-8.972-20-20s8.972-20,20-20s20,8.972,20,20
	C137.504,450.792,128.532,459.764,117.504,459.764z"/>
<path style="fill:#AAB2BC;" d="M481.997,362.514v84.752H504.5c4.142,0,7.5-3.357,7.5-7.5v-72.502h-7.5
	C496.245,367.264,488.811,365.449,481.997,362.514z"/>
<g>
</g>
<g>
</g>
<g>
</g>
<g>
</g>
<g>
</g>
<g>
</g>
<g>
</g>
<g>
</g>
<g>
</g>
<g>
</g>
<g>
</g>
<g>
</g>
<g>
</g>
<g>
</g>
<g>
</g>
</svg>
