<?xml version="1.0" encoding="iso-8859-1"?>
<!-- Generator: Adobe Illustrator 19.0.0, SVG Export Plug-In . SVG Version: 6.00 Build 0)  -->
<svg version="1.1" id="Capa_1" xmlns="http://www.w3.org/2000/svg" xmlns:xlink="http://www.w3.org/1999/xlink" x="0px" y="0px"
	 viewBox="0 0 512.001 512.001" style="enable-background:new 0 0 512.001 512.001;" xml:space="preserve">
<path style="fill:#E6E9ED;" d="M0.004,103.967v2.497L0,126.47c0,0.026,0.004,0.052,0.004,0.078v239.965v20.652v49.33
	c0,1.97,0.8,3.9,2.189,5.3c1.4,1.4,3.33,2.2,5.311,2.2l496.996-0.958c1.98,0,3.91-0.8,5.31-2.2c1.391-1.399,2.19-3.33,2.19-5.3
	V103.009L0.004,103.967z"/>
<path style="fill:#CCD1D9;" d="M481.997,103.009v332.529c0,1.97-0.8,3.9-2.19,5.3c-1.399,1.4-3.33,2.2-5.31,2.2h30.004
	c1.98,0,3.91-0.8,5.31-2.2c1.391-1.399,2.19-3.33,2.19-5.3V103.009H481.997z"/>
<path style="fill:#FFCE54;" d="M484.726,68.018c-0.075-0.003-0.148-0.012-0.225-0.012L27.505,68.964
	c-15.161,0-27.497,12.334-27.501,27.493c0,0.001,0,0.003,0,0.003v7.506h15.001L497,103.009h15.001v-7.505c0,0,0,0,0-0.011
	c0-7.34-2.86-14.251-8.05-19.431C498.813,70.915,491.992,68.075,484.726,68.018z"/>
<path style="fill:#F6BB42;" d="M503.951,76.063c-5.137-5.146-11.958-7.986-19.225-8.044c-0.075-0.003-0.148-0.012-0.225-0.012
	h-30.004c0.076,0,0.149,0.009,0.225,0.012c7.266,0.058,14.088,2.897,19.225,8.044c5.189,5.18,8.05,12.09,8.05,19.431
	c0,0.011,0,0.011,0,0.011v7.505H497h15.001v-7.505c0,0,0,0,0-0.011C512,88.152,509.14,81.242,503.951,76.063z"/>
<path style="fill:#ED5564;" d="M381.018,313.975h-250.01c-9.649,0-17.501-7.851-17.501-17.501v-80.005
	c0-9.649,7.851-17.501,17.501-17.501h250.01c9.649,0,17.501,7.851,17.501,17.501v80.005
	C398.518,306.124,390.667,313.975,381.018,313.975z"/>
<path style="fill:#DA4453;" d="M381.018,313.975h-250.01c-9.649,0-17.501-7.851-17.501-17.501v30.003
	c0,9.649,7.851,17.501,17.501,17.501h250.01c9.649,0,17.501-7.851,17.501-17.501v-30.003
	C398.518,306.124,390.667,313.975,381.018,313.975z"/>
<g>
	<path style="fill:#BF2E4A;" d="M201.009,228.971h-15.001c-4.143,0-7.5,3.357-7.5,7.5v40.002c0,4.143,3.357,7.5,7.5,7.5
		s7.5-3.357,7.5-7.5v-2.5h7.5c12.407,0,22.501-10.094,22.501-22.501C223.51,239.065,213.416,228.971,201.009,228.971z
		 M201.009,258.972h-7.5v-15.001h7.5c4.136,0,7.5,3.364,7.5,7.5C208.51,255.608,205.145,258.972,201.009,258.972z"/>
	<path style="fill:#BF2E4A;" d="M262.72,233.116c-0.025-0.052-0.058-0.099-0.084-0.149c-0.065-0.123-0.133-0.243-0.205-0.362
		c-0.058-0.097-0.117-0.192-0.18-0.286c-0.071-0.108-0.146-0.213-0.225-0.317c-0.071-0.098-0.145-0.193-0.221-0.286
		c-0.076-0.093-0.156-0.183-0.236-0.272c-0.086-0.095-0.173-0.188-0.263-0.278c-0.08-0.08-0.163-0.157-0.247-0.233
		c-0.101-0.091-0.201-0.18-0.305-0.265c-0.084-0.068-0.17-0.134-0.257-0.198c-0.112-0.084-0.226-0.165-0.343-0.242
		c-0.088-0.059-0.178-0.114-0.268-0.169c-0.123-0.074-0.248-0.145-0.374-0.212c-0.051-0.025-0.096-0.057-0.147-0.082
		c-0.049-0.024-0.099-0.041-0.147-0.064c-0.118-0.057-0.239-0.108-0.36-0.158c-0.118-0.049-0.235-0.096-0.354-0.138
		c-0.1-0.035-0.2-0.066-0.301-0.097c-0.141-0.044-0.282-0.085-0.424-0.119c-0.083-0.02-0.166-0.037-0.25-0.054
		c-0.157-0.033-0.315-0.063-0.474-0.086c-0.077-0.011-0.154-0.018-0.232-0.026c-0.162-0.018-0.323-0.032-0.485-0.04
		c-0.084-0.004-0.169-0.003-0.254-0.004c-0.153-0.001-0.308-0.001-0.461,0.007c-0.097,0.005-0.193,0.016-0.29,0.024
		c-0.142,0.013-0.283,0.026-0.424,0.048c-0.104,0.016-0.206,0.036-0.31,0.056c-0.136,0.026-0.272,0.054-0.407,0.088
		c-0.1,0.025-0.2,0.055-0.3,0.084c-0.139,0.041-0.276,0.084-0.413,0.133c-0.092,0.033-0.182,0.069-0.273,0.106
		c-0.143,0.058-0.285,0.119-0.425,0.186c-0.041,0.019-0.083,0.034-0.124,0.055c-0.044,0.022-0.084,0.049-0.128,0.072
		c-0.138,0.072-0.273,0.148-0.406,0.23c-0.083,0.051-0.165,0.102-0.245,0.154c-0.123,0.081-0.242,0.166-0.36,0.255
		c-0.083,0.061-0.165,0.124-0.245,0.188c-0.105,0.087-0.209,0.178-0.311,0.271c-0.083,0.076-0.165,0.151-0.244,0.23
		c-0.09,0.09-0.177,0.184-0.263,0.278c-0.081,0.091-0.161,0.182-0.238,0.274c-0.075,0.092-0.148,0.186-0.219,0.282
		c-0.078,0.105-0.154,0.212-0.227,0.321c-0.061,0.093-0.12,0.188-0.179,0.284c-0.071,0.119-0.14,0.24-0.205,0.363
		c-0.026,0.051-0.059,0.098-0.084,0.149l-20.001,40.002c-1.853,3.705-0.351,8.21,3.354,10.063c1.077,0.539,2.222,0.794,3.349,0.794
		c2.751,0,5.4-1.52,6.714-4.147l2.928-5.855h20.73l2.928,5.855c1.313,2.628,3.963,4.147,6.714,4.147
		c1.127,0,2.271-0.256,3.349-0.794c3.704-1.853,5.206-6.357,3.354-10.063L262.72,233.116z M253.147,258.972l2.864-5.729l2.864,5.729
		H253.147z"/>
	<path style="fill:#BF2E4A;" d="M336.319,231.167c-2.93-2.928-7.678-2.928-10.607,0l-14.697,14.697l-14.697-14.697
		c-2.93-2.928-7.678-2.928-10.607,0c-2.929,2.93-2.929,7.678,0,10.607l17.805,17.805v16.894c0,4.143,3.357,7.5,7.5,7.5
		c4.143,0,7.5-3.357,7.5-7.5v-16.894l17.805-17.805C339.247,238.845,339.247,234.097,336.319,231.167z"/>
</g>
<g>
	<path style="fill:#ED5564;" d="M256.013,183.962c-4.143,0-7.5-3.357-7.5-7.5v-39.995c0-4.143,3.357-7.5,7.5-7.5
		c4.143,0,7.5,3.357,7.5,7.5v39.995C263.514,180.605,260.157,183.962,256.013,183.962z"/>
	<path style="fill:#ED5564;" d="M391.023,183.962c-1.919,0-3.839-0.732-5.304-2.196c-2.929-2.93-2.929-7.678,0-10.607l19.998-19.998
		c2.93-2.928,7.678-2.928,10.607,0c2.929,2.93,2.929,7.678,0,10.607l-19.998,19.998C394.862,183.23,392.942,183.962,391.023,183.962
		z"/>
	<path style="fill:#ED5564;" d="M121.003,183.962c-1.919,0-3.838-0.731-5.303-2.195l-20.001-19.995
		c-2.929-2.928-2.93-7.677-0.002-10.606c2.929-2.93,7.677-2.933,10.607-0.001l20.001,19.993c2.929,2.929,2.93,7.678,0.002,10.607
		C124.843,183.23,122.923,183.962,121.003,183.962z"/>
	<path style="fill:#ED5564;" d="M256.013,413.975c-4.143,0-7.5-3.357-7.5-7.5v-39.995c0-4.143,3.357-7.5,7.5-7.5
		c4.142,0,7.5,3.357,7.5,7.5v39.995C263.513,410.618,260.156,413.975,256.013,413.975z"/>
	<path style="fill:#ED5564;" d="M411.021,393.978c-1.919,0-3.839-0.732-5.303-2.196l-19.999-19.997
		c-2.93-2.929-2.93-7.678-0.001-10.606c2.93-2.93,7.679-2.929,10.607-0.001l19.999,19.997c2.93,2.929,2.93,7.678,0.001,10.606
		C414.86,393.246,412.94,393.978,411.021,393.978z"/>
	<path style="fill:#ED5564;" d="M101.004,393.978c-1.92,0-3.839-0.732-5.304-2.197c-2.929-2.929-2.929-7.678,0.001-10.606
		l19.998-19.997c2.929-2.928,7.678-2.929,10.606,0.001c2.929,2.929,2.929,7.678-0.001,10.606l-19.998,19.997
		C104.843,393.246,102.923,393.978,101.004,393.978z"/>
</g>
<g>
</g>
<g>
</g>
<g>
</g>
<g>
</g>
<g>
</g>
<g>
</g>
<g>
</g>
<g>
</g>
<g>
</g>
<g>
</g>
<g>
</g>
<g>
</g>
<g>
</g>
<g>
</g>
<g>
</g>
</svg>
