<?xml version="1.0" encoding="iso-8859-1"?>
<!-- Generator: Adobe Illustrator 19.0.0, SVG Export Plug-In . SVG Version: 6.00 Build 0)  -->
<svg version="1.1" id="Capa_1" xmlns="http://www.w3.org/2000/svg" xmlns:xlink="http://www.w3.org/1999/xlink" x="0px" y="0px"
	 viewBox="0 0 512 512" style="enable-background:new 0 0 512 512;" xml:space="preserve">
<path style="fill:#AC92EC;" d="M423.5,176.998V7.5c0-4.142-3.357-7.5-7.5-7.5H256c-4.143,0-7.5,3.358-7.5,7.5v169.498H423.5z"/>
<path style="fill:#967ADC;" d="M416,0h-30.003c4.143,0,7.5,3.358,7.5,7.5v169.498H423.5V7.5C423.5,3.358,420.143,0,416,0z"/>
<polygon style="fill:#E6E9ED;" points="416.005,184.499 396.005,184.499 306.005,184.499 286.005,184.499 211.005,184.499 
	155.665,184.499 116.005,184.499 115.995,184.499 139.815,284.499 166.005,394.499 231.005,392.179 306.005,389.499 
	381.005,386.819 446.005,384.499 461.005,284.499 476.005,184.499 "/>
<g>
	<path style="fill:#CCD1D9;" d="M175.999,401.998c0.884,0,1.729-0.161,2.517-0.442l267.75-9.564
		c3.609-0.129,6.613-2.811,7.149-6.382l30.002-199.999c0.324-2.159-0.31-4.352-1.734-6.007c-1.424-1.654-3.499-2.606-5.683-2.606
		H211.059c-0.008,0-0.017,0-0.024,0h-89.112L97.101,72.761c-0.015-0.063-0.037-0.121-0.053-0.183
		c-0.041-0.154-0.084-0.307-0.134-0.457c-0.031-0.095-0.067-0.187-0.103-0.279c-0.051-0.135-0.103-0.269-0.161-0.399
		c-0.048-0.106-0.099-0.21-0.15-0.313c-0.056-0.11-0.111-0.219-0.173-0.326c-0.064-0.115-0.133-0.226-0.203-0.336
		c-0.058-0.09-0.116-0.18-0.177-0.267c-0.081-0.115-0.165-0.226-0.251-0.335c-0.063-0.079-0.125-0.157-0.189-0.233
		c-0.092-0.106-0.186-0.209-0.282-0.31c-0.071-0.075-0.143-0.148-0.217-0.219c-0.096-0.092-0.194-0.181-0.295-0.268
		c-0.084-0.073-0.17-0.145-0.257-0.214c-0.097-0.076-0.195-0.149-0.295-0.22c-0.099-0.071-0.199-0.141-0.302-0.207
		c-0.096-0.062-0.193-0.12-0.292-0.177c-0.111-0.064-0.224-0.127-0.338-0.186c-0.1-0.051-0.2-0.099-0.302-0.146
		c-0.116-0.054-0.233-0.105-0.353-0.153c-0.109-0.044-0.221-0.083-0.333-0.122c-0.113-0.038-0.227-0.077-0.342-0.11
		c-0.129-0.038-0.259-0.069-0.39-0.1c-0.103-0.024-0.204-0.048-0.308-0.067c-0.15-0.028-0.302-0.05-0.455-0.069
		c-0.089-0.011-0.178-0.023-0.268-0.031c-0.166-0.015-0.333-0.022-0.5-0.025C89.919,67.008,89.862,67,89.803,67H36
		c-4.143,0-7.5,3.358-7.5,7.5c0,4.143,3.357,7.5,7.5,7.5h47.881l73.772,309.813c-11.42,6.435-19.153,18.671-19.153,32.687
		c0,20.678,16.822,37.5,37.5,37.5c0.006,0,0.013-0.001,0.019-0.001h269.979c4.143,0,7.5-3.358,7.5-7.5s-3.357-7.5-7.5-7.5H176
		c-0.005,0-0.009,0.001-0.013,0.001c-12.401-0.007-22.487-10.098-22.487-22.5C153.5,412.091,163.593,401.998,175.999,401.998z
		 M380.505,291.998l-6.492,87.566l-60.515,2.162v-89.727h67.007V291.998z M313.498,276.998v-85h74.422l-6.303,85H313.498z
		 M298.498,382.261l-60.709,2.168l-8.902-92.431h69.611V382.261z M439.505,377.224l-50.411,1.801l6.452-87.027h56.744
		L439.505,377.224z M454.54,276.998h-57.882l6.303-85h64.33L454.54,276.998z M298.498,191.998v85h-71.056l-8.187-85L298.498,191.998
		L298.498,191.998z M204.186,191.998l8.187,85h-66.64l-20.24-85L204.186,191.998L204.186,191.998z M149.305,291.998h64.513
		l8.954,92.968l-50.896,1.818L149.305,291.998z"/>
	<path style="fill:#CCD1D9;" d="M476.005,184.499h-32.519c0,0.37-0.017,0.741-0.073,1.112l-29.796,200.044l32.388-1.156l15-100
		L476.005,184.499z"/>
</g>
<path style="fill:#AAB2BC;" d="M481.683,179.604c-1.424-1.654-3.499-2.606-5.683-2.606h-40.004c2.184,0,4.259,0.952,5.683,2.606
	c1.425,1.654,2.059,3.848,1.734,6.007l-0.951,6.387h24.829l-12.751,85h-24.739l-2.233,15h24.723l-12.785,85.226l-24.764,0.884
	l-1.33,8.931c-0.536,3.569-3.798,6.259-7.405,6.391l40.26-1.438c3.609-0.129,6.613-2.811,7.149-6.382l30.002-199.999
	C483.741,183.452,483.107,181.258,481.683,179.604z"/>
<path style="fill:#656D78;" d="M201,512c-17.92,0-32.499-14.579-32.499-32.5c0-17.92,14.579-32.499,32.499-32.499
	c17.921,0,32.5,14.579,32.5,32.499C233.5,497.421,218.921,512,201,512z"/>
<path style="fill:#E6E9ED;" d="M201,489.5c-5.514,0-10-4.486-10-10s4.486-10,10-10c5.515,0,10,4.486,10,10
	C211,485.015,206.515,489.5,201,489.5z"/>
<path style="fill:#656D78;" d="M391,512c-17.921,0-32.5-14.579-32.5-32.5c0-17.92,14.579-32.499,32.5-32.499
	s32.5,14.579,32.5,32.499C423.5,497.421,408.921,512,391,512z"/>
<path style="fill:#E6E9ED;" d="M391,489.5c-5.514,0-10-4.486-10-10s4.486-10,10-10s10,4.486,10,10
	C401,485.015,396.514,489.5,391,489.5z"/>
<path style="fill:#48CFAD;" d="M211.034,176.998c0.008,0,0.017,0,0.024,0H293.5v-72.504c0-4.142-3.357-7.5-7.5-7.5H155.998
	c-0.001,0-0.001,0-0.002,0c-0.258,0-0.513,0.013-0.764,0.039c-0.058,0.006-0.113,0.019-0.17,0.026
	c-0.192,0.024-0.385,0.049-0.573,0.087c-0.081,0.017-0.159,0.042-0.239,0.061c-0.16,0.039-0.32,0.074-0.477,0.123
	c-0.102,0.031-0.2,0.073-0.301,0.109c-0.129,0.046-0.26,0.088-0.386,0.141c-0.115,0.049-0.225,0.107-0.338,0.162
	c-0.105,0.051-0.213,0.096-0.314,0.151c-0.114,0.062-0.223,0.134-0.333,0.201c-0.095,0.058-0.192,0.111-0.285,0.173
	c-0.105,0.071-0.204,0.151-0.307,0.228c-0.09,0.067-0.183,0.131-0.27,0.202c-0.098,0.08-0.188,0.168-0.28,0.252
	c-0.084,0.077-0.172,0.149-0.252,0.229c-0.088,0.087-0.167,0.182-0.251,0.273c-0.077,0.085-0.159,0.168-0.233,0.257
	c-0.078,0.095-0.148,0.196-0.223,0.294c-0.07,0.093-0.144,0.184-0.209,0.28c-0.069,0.102-0.13,0.21-0.194,0.315
	c-0.061,0.1-0.126,0.197-0.183,0.301c-0.06,0.108-0.109,0.222-0.163,0.334c-0.052,0.106-0.108,0.21-0.153,0.319
	c-0.05,0.115-0.089,0.234-0.132,0.351c-0.041,0.112-0.087,0.221-0.122,0.335c-0.039,0.122-0.066,0.248-0.099,0.373
	c-0.03,0.114-0.064,0.227-0.089,0.343c-0.027,0.13-0.043,0.265-0.063,0.398c-0.018,0.114-0.04,0.227-0.053,0.343
	c-0.014,0.134-0.017,0.272-0.023,0.409c-0.006,0.109-0.019,0.217-0.02,0.328l-0.271,72.566L211.034,176.998L211.034,176.998z"/>
<path style="fill:#37BC9B;" d="M286,96.994h-30.003c4.143,0,7.5,3.358,7.5,7.5v72.504H293.5v-72.504
	C293.5,100.352,290.143,96.994,286,96.994z"/>
<g>
</g>
<g>
</g>
<g>
</g>
<g>
</g>
<g>
</g>
<g>
</g>
<g>
</g>
<g>
</g>
<g>
</g>
<g>
</g>
<g>
</g>
<g>
</g>
<g>
</g>
<g>
</g>
<g>
</g>
</svg>
