<?xml version="1.0" encoding="iso-8859-1"?>
<!-- Generator: Adobe Illustrator 19.0.0, SVG Export Plug-In . SVG Version: 6.00 Build 0)  -->
<svg version="1.1" id="Capa_1" xmlns="http://www.w3.org/2000/svg" xmlns:xlink="http://www.w3.org/1999/xlink" x="0px" y="0px"
	 viewBox="0 0 512.001 512.001" style="enable-background:new 0 0 512.001 512.001;" xml:space="preserve">
<path style="fill:#656D78;" d="M255.847,0C163.725,0,88.742,74.761,88.368,166.796c-0.021,0.23-0.035,0.461-0.035,0.696v240.002
	c0,4.143,3.357,7.5,7.5,7.5h320.001l0,0c4.142-0.001,7.499-3.357,7.499-7.5V167.506c0-0.007,0.001-0.013,0.001-0.02
	C423.335,75.134,348.199,0,255.847,0z"/>
<path style="fill:#515760;" d="M255.847,0c-5.057,0-10.058,0.238-15.002,0.68c85.35,7.612,152.486,79.511,152.486,166.807
	c0,0.007-0.001,0.013-0.001,0.02v239.988c0,4.143-3.357,7.499-7.499,7.5h30.003c4.142-0.001,7.499-3.357,7.499-7.5V167.506
	c0-0.007,0.001-0.013,0.001-0.02C423.335,75.134,348.199,0,255.847,0z"/>
<path style="fill:#48CFAD;" d="M365.835,349.994H145.832c-31.706,0-57.5,25.794-57.5,57.5c0,0.007,0.001,0.013,0.001,0.02v76.99
	v10.004v9.973c0,0.007-0.001,0.013-0.001,0.02c0,4.143,3.357,7.5,7.5,7.5h320.002c4.143,0,7.5-3.357,7.5-7.5v-97.006
	C423.335,375.788,397.54,349.994,365.835,349.994z"/>
<path style="fill:#37BC9B;" d="M366.168,349.994h-30.003c31.706,0,57.5,25.794,57.5,57.5V504.5c0,4.143-3.357,7.5-7.5,7.5h30.003
	c4.142,0,7.5-3.357,7.5-7.5v-97.006C423.668,375.788,397.874,349.994,366.168,349.994z"/>
<path style="fill:#FFDECF;" d="M374.704,159.992h-240c-4.143,0-7.5,3.357-7.5,7.5v49.5c0,70.304,57.196,127.5,127.5,127.5
	s127.5-57.196,127.5-127.5v-49.5C382.204,163.35,378.847,159.992,374.704,159.992z"/>
<path style="fill:#FFCDBE;" d="M374.704,159.992h-30.003c4.143,0,7.5,3.357,7.5,7.5v49.5c0,65.229-49.239,119.164-112.499,126.613
	c4.923,0.579,9.927,0.887,15.002,0.887c70.304,0,127.5-57.196,127.5-127.5v-49.5C382.204,163.35,378.847,159.992,374.704,159.992z"
	/>
<g>
	<path style="fill:#37BC9B;" d="M172.205,512v-54.508c0-4.143-3.357-7.5-7.5-7.5s-7.5,3.357-7.5,7.5V512H172.205z"/>
	<path style="fill:#37BC9B;" d="M352.202,512v-54.508c0-4.143-3.357-7.5-7.5-7.5c-4.142,0-7.5,3.357-7.5,7.5V512H352.202z"/>
</g>
<g>
	<path style="fill:#515760;" d="M172.204,159.992v-12.5c0-4.143-3.357-7.5-7.5-7.5s-7.5,3.357-7.5,7.5v12.5H172.204z"/>
	<path style="fill:#515760;" d="M202.204,159.992v-12.5c0-4.143-3.357-7.5-7.5-7.5s-7.5,3.357-7.5,7.5v12.5H202.204z"/>
	<path style="fill:#515760;" d="M232.204,159.992v-12.5c0-4.143-3.357-7.5-7.5-7.5s-7.5,3.357-7.5,7.5v12.5H232.204z"/>
	<path style="fill:#515760;" d="M262.204,159.992v-12.5c0-4.143-3.357-7.5-7.5-7.5s-7.5,3.357-7.5,7.5v12.5H262.204z"/>
	<path style="fill:#515760;" d="M292.204,159.992v-12.5c0-4.143-3.357-7.5-7.5-7.5s-7.5,3.357-7.5,7.5v12.5H292.204z"/>
	<path style="fill:#515760;" d="M322.204,159.992v-12.5c0-4.143-3.357-7.5-7.5-7.5s-7.5,3.357-7.5,7.5v12.5H322.204z"/>
	<path style="fill:#515760;" d="M352.204,159.992v-12.5c0-4.143-3.357-7.5-7.5-7.5s-7.5,3.357-7.5,7.5v12.5H352.204z"/>
	<path style="fill:#515760;" d="M134.704,159.992h7.5v-12.5c0-4.143-3.357-7.5-7.5-7.5s-7.5,3.357-7.5,7.5v20
		C127.204,163.35,130.561,159.992,134.704,159.992z"/>
	<path style="fill:#515760;" d="M374.704,139.992c-4.143,0-7.5,3.357-7.5,7.5v12.5h7.5c4.143,0,7.5,3.357,7.5,7.5v-20
		C382.204,143.35,378.847,139.992,374.704,139.992z"/>
	<path style="fill:#515760;" d="M264.704,309.994c-15.421,0-27.5-9.883-27.5-22.5s12.079-22.5,27.5-22.5s27.5,9.883,27.5,22.5
		S280.125,309.994,264.704,309.994z"/>
</g>
<path style="fill:#CCD1D9;" d="M401.276,232.378c-2.063-3.866-7.153-9.917-19.136-11.802c-0.142,5.075-0.576,10.077-1.297,14.989
	c3.661,0.709,6.225,2.049,7.201,3.877c1.256,2.354,0.243,6.392-2.71,10.803c-11.593,17.314-45.852,33.712-94.445,30.245
	c0.852,2.196,1.315,4.547,1.315,7.004c0,2.832-0.613,5.524-1.731,8c4.604,0.314,9.104,0.479,13.475,0.479
	c47.354-0.001,80.715-17.764,93.852-37.383C403.977,249.364,405.244,239.81,401.276,232.378z"/>
<path style="fill:#FFDECF;" d="M324.718,349.994l-32.514-0.002v-11.131c-11.861,3.657-24.454,5.631-37.5,5.631
	s-25.639-1.974-37.5-5.631v11.133h-32.486c-4.143,0-7.5,3.357-7.5,7.5c0,42.733,34.767,77.5,77.5,77.5s77.5-34.767,77.5-77.5
	C332.218,353.352,328.86,349.994,324.718,349.994z"/>
<g>
</g>
<g>
</g>
<g>
</g>
<g>
</g>
<g>
</g>
<g>
</g>
<g>
</g>
<g>
</g>
<g>
</g>
<g>
</g>
<g>
</g>
<g>
</g>
<g>
</g>
<g>
</g>
<g>
</g>
</svg>
