<?xml version="1.0" encoding="iso-8859-1"?>
<!-- Generator: Adobe Illustrator 19.0.0, SVG Export Plug-In . SVG Version: 6.00 Build 0)  -->
<svg version="1.1" id="Capa_1" xmlns="http://www.w3.org/2000/svg" xmlns:xlink="http://www.w3.org/1999/xlink" x="0px" y="0px"
	 viewBox="0 0 512 512" style="enable-background:new 0 0 512 512;" xml:space="preserve">
<path style="fill:#FFCE54;" d="M370.501,388.502H120.499c-4.142,0-7.5-3.357-7.5-7.5V191.001c0-4.143,3.358-7.5,7.5-7.5h250.002
	c4.142,0,7.5,3.357,7.5,7.5v190.001C378.001,385.145,374.644,388.502,370.501,388.502z"/>
<g>
	<path style="fill:#F6BB42;" d="M370.501,183.501h-30.003c4.142,0,7.5,3.357,7.5,7.5v190.001c0,4.143-3.358,7.5-7.5,7.5h30.003
		c4.142,0,7.5-3.357,7.5-7.5V191.001C378.001,186.859,374.644,183.501,370.501,183.501z"/>
	<path style="fill:#F6BB42;" d="M120.499,183.501h250.002c2.069,0,3.943,0.838,5.3,2.193l-39.994-39.997
		c-0.176-0.177-0.362-0.344-0.555-0.502c-0.076-0.063-0.155-0.116-0.232-0.175c-0.118-0.089-0.234-0.18-0.357-0.262
		c-0.098-0.065-0.201-0.123-0.301-0.184c-0.109-0.065-0.216-0.134-0.329-0.194c-0.104-0.055-0.21-0.102-0.316-0.151
		c-0.116-0.056-0.23-0.113-0.349-0.162c-0.104-0.043-0.21-0.077-0.314-0.115c-0.126-0.046-0.25-0.094-0.378-0.132
		c-0.105-0.032-0.211-0.055-0.317-0.082c-0.131-0.033-0.261-0.07-0.395-0.097c-0.12-0.023-0.241-0.037-0.361-0.055
		c-0.121-0.019-0.241-0.041-0.364-0.053c-0.215-0.021-0.431-0.03-0.647-0.032c-0.031-0.001-0.06-0.005-0.091-0.005H160.499
		c-0.026,0-0.052,0.004-0.078,0.004c-0.22,0.002-0.441,0.012-0.66,0.033c-0.119,0.012-0.234,0.034-0.351,0.051
		c-0.125,0.018-0.251,0.032-0.375,0.058c-0.129,0.025-0.254,0.061-0.381,0.093c-0.11,0.028-0.222,0.052-0.331,0.085
		c-0.123,0.037-0.243,0.084-0.363,0.127c-0.11,0.04-0.221,0.076-0.33,0.121c-0.114,0.047-0.223,0.102-0.333,0.154
		c-0.111,0.053-0.223,0.102-0.331,0.16c-0.107,0.057-0.21,0.122-0.314,0.185c-0.105,0.063-0.212,0.123-0.316,0.192
		c-0.118,0.078-0.229,0.166-0.341,0.251c-0.082,0.062-0.167,0.119-0.247,0.185c-0.193,0.158-0.379,0.325-0.554,0.502L115.2,185.694
		C116.557,184.339,118.43,183.501,120.499,183.501z"/>
</g>
<g>
	<path style="fill:#DCA746;" d="M115.2,185.694c1.357-1.355,3.23-2.193,5.3-2.193h-3.106L115.2,185.694z"/>
	<path style="fill:#DCA746;" d="M335.808,145.697c-0.176-0.177-0.362-0.344-0.555-0.502c-0.076-0.063-0.155-0.116-0.232-0.175
		c-0.118-0.089-0.234-0.18-0.357-0.262c-0.098-0.065-0.201-0.123-0.301-0.184c-0.109-0.065-0.216-0.134-0.329-0.194
		c-0.104-0.055-0.21-0.102-0.316-0.151c-0.116-0.056-0.23-0.113-0.349-0.162c-0.104-0.043-0.21-0.077-0.314-0.115
		c-0.126-0.046-0.25-0.094-0.378-0.132c-0.105-0.032-0.211-0.055-0.317-0.082c-0.131-0.033-0.261-0.07-0.395-0.097
		c-0.12-0.023-0.241-0.037-0.361-0.055c-0.121-0.019-0.241-0.041-0.364-0.053c-0.215-0.021-0.431-0.03-0.647-0.032
		c-0.031-0.001-0.06-0.005-0.091-0.005h-30.003c0.031,0,0.06,0.004,0.091,0.005c0.216,0.002,0.432,0.012,0.646,0.032
		c0.123,0.012,0.243,0.034,0.364,0.053c0.121,0.018,0.242,0.031,0.361,0.055c0.134,0.026,0.264,0.064,0.395,0.097
		c0.106,0.027,0.212,0.05,0.317,0.082c0.128,0.038,0.252,0.086,0.378,0.132c0.105,0.038,0.211,0.072,0.314,0.115
		c0.119,0.049,0.233,0.106,0.349,0.162c0.106,0.05,0.212,0.097,0.316,0.151c0.112,0.061,0.219,0.129,0.329,0.194
		c0.101,0.061,0.203,0.118,0.301,0.184c0.123,0.082,0.239,0.173,0.357,0.262c0.077,0.059,0.157,0.112,0.232,0.175
		c0.193,0.158,0.379,0.325,0.555,0.502l37.8,37.804H370.5c2.069,0,3.943,0.838,5.3,2.193L335.808,145.697z"/>
</g>
<polygon style="fill:#DA4453;" points="268,143.495 223.001,143.495 213,183.501 278,183.501 "/>
<path style="fill:#ED5564;" d="M213,183.501l0.001,57.347c0,0.008,0,0.016,0,0.023v0.128c0,0.061,0.008,0.121,0.009,0.183
	c0.004,0.171,0.01,0.342,0.026,0.514c0.01,0.105,0.026,0.209,0.041,0.313c0.018,0.136,0.036,0.271,0.062,0.406
	c0.027,0.142,0.063,0.279,0.098,0.418c0.025,0.096,0.045,0.192,0.074,0.288c0.051,0.172,0.111,0.34,0.174,0.508
	c0.019,0.051,0.033,0.104,0.053,0.155c0.004,0.01,0.01,0.018,0.014,0.028c0.131,0.324,0.287,0.636,0.46,0.936
	c0.036,0.062,0.073,0.121,0.11,0.182c0.165,0.268,0.343,0.526,0.54,0.771c0.02,0.025,0.039,0.054,0.06,0.079
	c0.202,0.243,0.424,0.469,0.655,0.686c0.065,0.061,0.13,0.12,0.197,0.179c0.241,0.211,0.492,0.411,0.76,0.59
	c0.018,0.012,0.037,0.021,0.055,0.034c0.262,0.172,0.538,0.324,0.822,0.463c0.056,0.027,0.112,0.056,0.168,0.081
	c0.304,0.14,0.616,0.264,0.94,0.362c0.01,0.003,0.02,0.005,0.031,0.008c0.298,0.09,0.604,0.155,0.917,0.207
	c0.085,0.015,0.169,0.027,0.254,0.039c0.298,0.039,0.599,0.064,0.907,0.067c0.025,0,0.051,0.006,0.076,0.006
	c0.249,0,0.498-0.015,0.748-0.04c0.055-0.005,0.108-0.017,0.163-0.022c0.182-0.023,0.363-0.048,0.544-0.083
	c0.119-0.024,0.235-0.057,0.352-0.085c0.114-0.028,0.227-0.054,0.34-0.088c0.145-0.043,0.285-0.095,0.426-0.146
	c0.07-0.026,0.142-0.045,0.211-0.073l0.13-0.052c0.002-0.001,0.003-0.002,0.005-0.002l22.079-8.832l22.078,8.831
	c0.003,0.001,0.007,0.003,0.01,0.004l0.126,0.051c0.068,0.027,0.138,0.046,0.207,0.071c0.143,0.053,0.284,0.105,0.431,0.148
	c0.112,0.034,0.225,0.059,0.337,0.087c0.118,0.029,0.234,0.062,0.354,0.086c0.18,0.035,0.36,0.06,0.541,0.082
	c0.056,0.007,0.11,0.018,0.166,0.023c0.249,0.025,0.499,0.04,0.747,0.04c0.025,0,0.051-0.006,0.076-0.006
	c0.308-0.003,0.609-0.028,0.907-0.067c0.085-0.012,0.169-0.024,0.254-0.039c0.313-0.052,0.619-0.117,0.917-0.207
	c0.01-0.003,0.021-0.005,0.031-0.008c0.324-0.099,0.636-0.223,0.94-0.362c0.057-0.025,0.112-0.054,0.169-0.081
	c0.284-0.139,0.56-0.291,0.822-0.463c0.018-0.013,0.037-0.023,0.055-0.034c0.268-0.179,0.519-0.379,0.76-0.59
	c0.067-0.059,0.132-0.118,0.197-0.179c0.231-0.217,0.453-0.442,0.655-0.686c0.021-0.025,0.04-0.054,0.06-0.079
	c0.197-0.244,0.374-0.503,0.54-0.771c0.037-0.061,0.075-0.12,0.11-0.182c0.173-0.3,0.329-0.611,0.46-0.936
	c0.004-0.01,0.01-0.019,0.014-0.028c0.021-0.052,0.034-0.105,0.053-0.155c0.063-0.168,0.124-0.336,0.174-0.508
	c0.028-0.096,0.049-0.192,0.074-0.288c0.035-0.139,0.07-0.276,0.098-0.418c0.026-0.136,0.043-0.271,0.062-0.406
	c0.014-0.104,0.031-0.208,0.04-0.313c0.016-0.172,0.022-0.343,0.026-0.514c0.001-0.062,0.009-0.121,0.009-0.183v-0.128
	c0-0.008,0-0.016,0-0.023v-57.347L213,183.501L213,183.501z"/>
<path style="fill:#656D78;" d="M510.243,276.481l-21.256-25.305c-0.053-0.063-0.111-0.117-0.165-0.178
	c-0.082-0.091-0.16-0.184-0.246-0.27c-0.01-0.011-0.018-0.021-0.028-0.031c-0.011-0.012-0.024-0.02-0.035-0.032
	c-0.002-0.002-0.004-0.004-0.006-0.006c-0.086-0.085-0.177-0.162-0.267-0.242c-0.081-0.072-0.157-0.147-0.241-0.216
	c-0.019-0.016-0.038-0.03-0.057-0.045c-0.095-0.077-0.195-0.145-0.293-0.217c-0.081-0.059-0.158-0.12-0.24-0.176
	c-0.025-0.017-0.05-0.033-0.075-0.05c-0.093-0.061-0.19-0.113-0.286-0.169c-0.09-0.054-0.178-0.109-0.27-0.159
	c-0.029-0.016-0.058-0.03-0.086-0.046c-0.087-0.045-0.176-0.082-0.265-0.123c-0.105-0.049-0.208-0.102-0.315-0.145
	c-0.029-0.013-0.059-0.024-0.088-0.036c-0.081-0.032-0.165-0.058-0.247-0.087c-0.119-0.043-0.236-0.088-0.358-0.125
	c-0.027-0.008-0.054-0.016-0.082-0.023c-0.083-0.024-0.167-0.041-0.25-0.062c-0.126-0.032-0.252-0.067-0.381-0.093
	c-0.023-0.005-0.046-0.009-0.07-0.013c-0.097-0.018-0.195-0.028-0.292-0.042c-0.121-0.019-0.241-0.041-0.364-0.053
	c-0.017-0.002-0.035-0.002-0.052-0.004c-0.125-0.012-0.251-0.013-0.377-0.019c-0.043-0.001-0.085-0.005-0.128-0.006
	c-0.06-0.001-0.118-0.009-0.178-0.009c-0.012,0-0.023,0.002-0.035,0.002c-0.143,0-0.285,0.012-0.427,0.02
	c-0.091,0.006-0.182,0.006-0.273,0.015c-0.014,0.001-0.029,0.002-0.043,0.003c-0.141,0.015-0.281,0.042-0.422,0.064
	c-0.086,0.014-0.172,0.023-0.257,0.039c-0.017,0.004-0.034,0.005-0.05,0.008c-0.07,0.015-0.137,0.036-0.206,0.053
	c-0.063,0.015-0.125,0.031-0.186,0.048c-0.088,0.022-0.177,0.041-0.264,0.066c-0.019,0.006-0.038,0.01-0.058,0.017
	c-0.108,0.033-0.21,0.076-0.316,0.114c-0.008,0.003-0.015,0.006-0.023,0.009c-0.099,0.035-0.198,0.066-0.296,0.107
	c-0.018,0.008-0.037,0.014-0.055,0.021c-0.103,0.043-0.2,0.096-0.3,0.144c-0.107,0.051-0.214,0.097-0.318,0.152
	c-0.015,0.008-0.03,0.015-0.044,0.023c-0.094,0.051-0.182,0.111-0.273,0.166c-0.106,0.063-0.213,0.123-0.317,0.192
	c-0.013,0.009-0.026,0.017-0.039,0.025c-0.047,0.031-0.091,0.069-0.138,0.103c-0.05,0.036-0.099,0.074-0.148,0.111
	c-0.088,0.066-0.179,0.127-0.265,0.198c-0.015,0.012-0.029,0.024-0.044,0.037c-0.008,0.007-0.017,0.013-0.025,0.02
	c-0.064,0.054-0.119,0.113-0.181,0.168c-0.088,0.079-0.179,0.156-0.264,0.239c-0.011,0.012-0.024,0.02-0.035,0.032L452.639,276
	c-2.929,2.93-2.929,7.678,0,10.607c1.464,1.464,3.384,2.196,5.303,2.196s3.839-0.732,5.303-2.196l11.729-11.729
	c-4.385,54.416-27.672,104.988-66.702,144.019c-43.512,43.512-101.363,67.475-162.898,67.475s-119.386-23.963-162.897-67.475
	C38.963,375.386,15,317.534,15,256S38.963,136.614,82.475,93.103c43.511-43.512,101.363-67.475,162.897-67.475
	c52.809,0,102.485,17.382,143.657,50.267c39.972,31.925,68.515,76.738,80.373,126.183c0.966,4.028,5.014,6.515,9.042,5.544
	c4.028-0.966,6.51-5.014,5.544-9.042c-12.631-52.674-43.03-100.407-85.597-134.405c-43.858-35.03-96.771-53.546-153.018-53.546
	c-65.541,0-127.16,25.523-173.504,71.868C25.523,128.841,0,190.459,0,256s25.523,127.159,71.868,173.504
	s107.963,71.868,173.504,71.868c65.542,0,127.16-25.523,173.504-71.868c41.68-41.68,66.506-95.717,71.084-153.848l8.796,10.473
	c1.483,1.766,3.607,2.676,5.747,2.676c1.703,0,3.415-0.576,4.82-1.757C512.496,284.383,512.907,279.652,510.243,276.481z"/>
<g>
</g>
<g>
</g>
<g>
</g>
<g>
</g>
<g>
</g>
<g>
</g>
<g>
</g>
<g>
</g>
<g>
</g>
<g>
</g>
<g>
</g>
<g>
</g>
<g>
</g>
<g>
</g>
<g>
</g>
</svg>
