<?xml version="1.0" encoding="iso-8859-1"?>
<!-- Generator: Adobe Illustrator 19.0.0, SVG Export Plug-In . SVG Version: 6.00 Build 0)  -->
<svg version="1.1" id="Capa_1" xmlns="http://www.w3.org/2000/svg" xmlns:xlink="http://www.w3.org/1999/xlink" x="0px" y="0px"
	 viewBox="0 0 512 512" style="enable-background:new 0 0 512 512;" xml:space="preserve">
<path style="fill:#656D78;" d="M434.751,37.461C434.73,16.802,417.916,0,397.251,0H177.249c-20.678,0-37.5,16.822-37.5,37.5v15.738
	v3.751V474.5c0,20.678,16.822,37.5,37.5,37.5h220.003c20.678,0,37.5-16.822,37.5-37.5V57.01c0-0.007,0.001-0.013,0.001-0.02V37.5
	C434.753,37.487,434.751,37.475,434.751,37.461z"/>
<path style="fill:#515760;" d="M434.751,37.461C434.73,16.802,417.916,0,397.251,0h-30.003c20.665,0,37.478,16.802,37.499,37.461
	c0,0.014,0.002,0.026,0.002,0.039V56.99c0,0.007-0.001,0.013-0.001,0.02V474.5c0,20.678-16.822,37.5-37.5,37.5h30.003
	c20.678,0,37.5-16.822,37.5-37.5V57.01c0-0.007,0.001-0.013,0.001-0.02V37.5C434.753,37.487,434.751,37.475,434.751,37.461z"/>
<rect x="154.751" y="49.491" style="fill:#AC92EC;" width="265.003" height="367.514"/>
<path style="fill:#967ADC;" d="M419.751,417.001V49.488h-15.002v7.502c0,0.007-0.001,0.013-0.001,0.02v359.991H419.751z"/>
<path style="fill:#DA4453;" d="M454.743,96.113c-0.004-0.156-0.01-0.313-0.023-0.469c-0.01-0.105-0.024-0.209-0.038-0.313
	c-0.019-0.136-0.036-0.271-0.063-0.407c-0.023-0.125-0.053-0.248-0.083-0.372c-0.026-0.11-0.053-0.22-0.084-0.329
	c-0.043-0.146-0.092-0.288-0.143-0.431c-0.03-0.086-0.06-0.172-0.094-0.258c-0.064-0.159-0.136-0.314-0.21-0.469
	c-0.024-0.051-0.043-0.103-0.068-0.153l-20-39.322c-1.435-2.82-4.408-4.338-7.38-4.063v-0.039H147.22v0.007
	c-2.721,0.013-5.338,1.503-6.656,4.096l-20,39.321c-0.028,0.057-0.049,0.114-0.076,0.171c-0.069,0.146-0.137,0.293-0.198,0.444
	c-0.037,0.093-0.069,0.188-0.103,0.281c-0.048,0.135-0.095,0.269-0.135,0.406c-0.034,0.117-0.063,0.235-0.09,0.353
	c-0.028,0.116-0.057,0.231-0.078,0.35c-0.027,0.143-0.047,0.285-0.065,0.429c-0.013,0.098-0.026,0.194-0.035,0.293
	c-0.015,0.163-0.021,0.326-0.024,0.489c-0.002,0.063-0.01,0.122-0.01,0.185c0,0.037,0.003,0.074,0.003,0.112
	c0.001,0.055,0.002,0.108,0.004,0.163c0.149,15.036,12.422,27.225,27.493,27.225c7.875,0,14.982-3.333,20-8.655
	c5.018,5.322,12.125,8.655,20,8.655s14.982-3.333,20-8.655c5.018,5.322,12.125,8.655,20,8.655s14.982-3.333,20-8.655
	c5.018,5.322,12.125,8.655,20,8.655s14.982-3.333,20-8.655c5.018,5.322,12.125,8.655,20,8.655s14.982-3.333,20-8.655
	c5.018,5.322,12.125,8.655,20,8.655s14.982-3.333,20-8.655c5.018,5.322,12.125,8.655,20,8.655s14.982-3.333,20-8.655
	c5.018,5.322,12.125,8.655,20,8.655c15.073,0,27.349-12.192,27.493-27.233c0.002-0.048,0.003-0.097,0.004-0.146
	c0-0.04,0.003-0.081,0.003-0.121C454.753,96.245,454.745,96.18,454.743,96.113z"/>
<path style="fill:#CE3A50;" d="M454.743,96.113c-0.004-0.156-0.01-0.313-0.023-0.469c-0.01-0.105-0.024-0.209-0.038-0.313
	c-0.019-0.136-0.036-0.271-0.063-0.407c-0.023-0.125-0.053-0.248-0.083-0.372c-0.026-0.11-0.053-0.22-0.084-0.329
	c-0.043-0.146-0.092-0.288-0.143-0.431c-0.03-0.086-0.06-0.172-0.094-0.258c-0.064-0.159-0.136-0.314-0.21-0.469
	c-0.024-0.051-0.043-0.103-0.068-0.153l-20-39.322c-1.435-2.82-4.408-4.338-7.38-4.063v-0.039h-40.004v0.039
	c2.972-0.275,5.945,1.242,7.38,4.063l20,39.322c0.025,0.051,0.044,0.103,0.068,0.153c0.074,0.154,0.146,0.31,0.21,0.469
	c0.034,0.086,0.063,0.172,0.094,0.258c0.051,0.143,0.1,0.285,0.143,0.431c0.031,0.109,0.058,0.219,0.084,0.329
	c0.03,0.124,0.06,0.247,0.083,0.372c0.026,0.136,0.044,0.271,0.063,0.407c0.014,0.104,0.028,0.208,0.038,0.313
	c0.014,0.156,0.02,0.313,0.023,0.469c0.002,0.066,0.01,0.132,0.01,0.199c0,0.04-0.003,0.081-0.003,0.121
	c-0.001,0.049-0.002,0.098-0.004,0.146c-0.07,7.293-2.998,13.911-7.708,18.8c0.071-0.075,0.148-0.146,0.219-0.222
	c5.018,5.322,12.125,8.655,20,8.655c15.073,0,27.349-12.192,27.493-27.233c0.002-0.048,0.003-0.097,0.004-0.146
	c0-0.04,0.003-0.081,0.003-0.121C454.753,96.245,454.745,96.18,454.743,96.113z"/>
<path style="fill:#AAB2BC;" d="M287.251,484.514c-11.027,0-20-8.973-20-20c0-11.029,8.973-20,20-20c11.028,0,20,8.971,20,20
	C307.251,475.541,298.279,484.514,287.251,484.514z"/>
<path style="fill:#ED5565;" d="M119.759,96.128c-0.002,0.063-0.01,0.122-0.01,0.185c0,0.037,0.003,0.074,0.003,0.112
	c0.001,0.055,0.002,0.108,0.004,0.163c0.149,15.036,12.422,27.225,27.493,27.225c7.875,0,14.982-3.333,20-8.655
	c5.018,5.322,12.125,8.655,20,8.655s14.982-3.333,20-8.655c5.018,5.322,12.125,8.655,20,8.655s14.982-3.333,20-8.655
	c5.018,5.322,12.125,8.655,20,8.655s14.982-3.333,20-8.655c5.018,5.322,12.125,8.655,20,8.655s14.982-3.333,20-8.655
	c5.018,5.322,12.125,8.655,20,8.655s14.982-3.333,20-8.655c5.018,5.322,12.125,8.655,20,8.655s14.982-3.333,20-8.655
	c5.018,5.322,12.125,8.655,20,8.655c15.073,0,27.349-12.192,27.493-27.233c0.002-0.048,0.003-0.097,0.004-0.146
	c0-0.04,0.003-0.081,0.003-0.121c0-0.067-0.008-0.133-0.01-0.199c-0.004-0.156-0.01-0.313-0.023-0.469
	c-0.01-0.101-0.023-0.199-0.036-0.299H119.818c-0.013,0.098-0.026,0.194-0.035,0.293C119.769,95.802,119.763,95.965,119.759,96.128z
	"/>
<path style="fill:#DA4453;" d="M454.743,96.113c-0.004-0.156-0.01-0.313-0.023-0.469c-0.01-0.101-0.023-0.199-0.036-0.299h-40.004
	c0.013,0.1,0.026,0.198,0.036,0.299c0.014,0.156,0.02,0.313,0.023,0.469c0.002,0.066,0.01,0.132,0.01,0.199
	c0,0.04-0.003,0.081-0.003,0.121c-0.001,0.049-0.002,0.098-0.004,0.146c-0.07,7.291-2.996,13.907-7.704,18.795
	c0.07-0.073,0.146-0.143,0.215-0.217c5.018,5.322,12.125,8.655,20,8.655c15.073,0,27.349-12.192,27.493-27.233
	c0.002-0.048,0.003-0.097,0.004-0.146c0-0.04,0.003-0.081,0.003-0.121C454.753,96.245,454.745,96.18,454.743,96.113z"/>
<path style="fill:#656D78;" d="M307.253,143.225l-29.99,0.001c-0.004,0-0.007-0.001-0.01-0.001c-4.142,0-7.5,3.358-7.5,7.5v240.008
	c0,4.142,3.358,7.5,7.5,7.5c0.003,0,0.006-0.001,0.01-0.001l29.99,0.001c4.143,0,7.5-3.358,7.5-7.5V150.725
	C314.753,146.583,311.396,143.225,307.253,143.225z"/>
<path style="fill:#8CC152;" d="M292.253,180.726c0-4.143-3.357-7.5-7.5-7.5H64.746c-4.143,0-7.5,3.357-7.5,7.5v180.008
	c0,4.142,3.357,7.5,7.5,7.5h220.003c4.143,0,7.5-3.358,7.5-7.5C292.249,356.591,292.253,184.867,292.253,180.726z"/>
<path style="fill:#A0D468;" d="M292.253,210.728c0-4.143-3.357-7.5-7.5-7.5H104.747c-4.143,0-7.5,3.357-7.5,7.5
	c0,1.378-1.121,2.5-2.5,2.5c-4.143,0-7.5,3.357-7.5,7.5v100.003c0,0.065,0.008,0.129,0.01,0.193
	c-0.002,0.078-0.012,0.154-0.012,0.232c0,4.143,3.358,7.5,7.501,7.5c0.903,0,1.496,0.457,1.769,0.73
	c0.272,0.273,0.73,0.865,0.73,1.77c0,4.142,3.357,7.5,7.5,7.5h180.004c4.143,0,7.5-3.358,7.5-7.5S292.253,214.87,292.253,210.728z"
	/>
<path style="fill:#8CC152;" d="M284.745,233.442c-20.678,0-37.5,16.822-37.5,37.5s16.822,37.5,37.5,37.5c4.143,0,7.5-3.358,7.5-7.5
	v-60.001C292.245,236.8,288.888,233.442,284.745,233.442z"/>
<g>
</g>
<g>
</g>
<g>
</g>
<g>
</g>
<g>
</g>
<g>
</g>
<g>
</g>
<g>
</g>
<g>
</g>
<g>
</g>
<g>
</g>
<g>
</g>
<g>
</g>
<g>
</g>
<g>
</g>
</svg>
