<?xml version="1.0" encoding="iso-8859-1"?>
<!-- Generator: Adobe Illustrator 19.0.0, SVG Export Plug-In . SVG Version: 6.00 Build 0)  -->
<svg version="1.1" id="Capa_1" xmlns="http://www.w3.org/2000/svg" xmlns:xlink="http://www.w3.org/1999/xlink" x="0px" y="0px"
	 viewBox="0 0 512 512" style="enable-background:new 0 0 512 512;" xml:space="preserve">
<path style="fill:#FFCE54;" d="M235.999,103.127l12.498,6.249l16.649-8.323c0.045-0.023,0.094-0.039,0.141-0.062
	c0.125-0.059,0.252-0.114,0.379-0.166c0.109-0.044,0.217-0.087,0.326-0.127c0.113-0.04,0.229-0.076,0.344-0.111
	c0.125-0.037,0.248-0.074,0.373-0.104c0.106-0.026,0.213-0.048,0.322-0.069c0.131-0.026,0.262-0.052,0.393-0.071
	c0.111-0.016,0.223-0.026,0.336-0.038c0.125-0.012,0.252-0.025,0.377-0.031s0.25-0.005,0.377-0.005c0.111,0,0.223-0.001,0.334,0.005
	c0.139,0.006,0.277,0.02,0.416,0.034c0.1,0.011,0.199,0.02,0.299,0.034c0.141,0.021,0.281,0.048,0.424,0.077
	c0.098,0.02,0.195,0.039,0.293,0.063c0.133,0.033,0.264,0.071,0.395,0.111c0.109,0.033,0.217,0.067,0.324,0.105
	c0.113,0.04,0.227,0.085,0.34,0.131c0.125,0.051,0.248,0.104,0.371,0.163c0.047,0.022,0.096,0.039,0.143,0.063l16.647,8.322
	l16.646-8.322c0.049-0.025,0.102-0.043,0.15-0.066c0.119-0.056,0.238-0.107,0.359-0.157c0.115-0.047,0.229-0.092,0.344-0.133
	c0.109-0.038,0.217-0.072,0.326-0.105c0.131-0.039,0.26-0.077,0.389-0.109c0.102-0.025,0.205-0.045,0.309-0.066
	c0.135-0.027,0.27-0.054,0.406-0.073c0.107-0.016,0.217-0.026,0.326-0.037c0.127-0.013,0.256-0.025,0.383-0.032
	c0.125-0.006,0.25-0.005,0.375-0.005c0.111,0,0.223-0.001,0.334,0.005c0.141,0.006,0.281,0.021,0.424,0.035
	c0.096,0.01,0.191,0.019,0.287,0.032c0.146,0.021,0.293,0.049,0.438,0.079c0.094,0.019,0.185,0.037,0.277,0.06
	c0.139,0.034,0.277,0.074,0.414,0.116c0.102,0.031,0.203,0.063,0.303,0.098c0.121,0.043,0.242,0.091,0.361,0.141
	c0.117,0.047,0.232,0.097,0.346,0.151c0.051,0.024,0.103,0.042,0.156,0.068l16.647,8.322l16.646-8.322
	c0.053-0.026,0.105-0.045,0.16-0.07c0.145-0.068,0.289-0.134,0.44-0.193c0.092-0.036,0.182-0.068,0.273-0.1
	c0.137-0.048,0.275-0.094,0.416-0.134c0.111-0.032,0.221-0.059,0.332-0.085c0.123-0.029,0.244-0.057,0.369-0.079
	c0.133-0.025,0.266-0.044,0.398-0.061c0.107-0.014,0.215-0.027,0.324-0.037c0.148-0.013,0.295-0.019,0.443-0.022
	c0.066-0.002,0.131-0.01,0.197-0.01c0.037,0,0.072,0.005,0.107,0.005c0.143,0.002,0.283,0.011,0.424,0.021
	c0.115,0.008,0.23,0.015,0.344,0.028c0.111,0.013,0.223,0.033,0.334,0.051c0.139,0.022,0.275,0.044,0.412,0.074
	c0.082,0.018,0.162,0.042,0.244,0.063c0.158,0.04,0.315,0.081,0.467,0.131c0.066,0.021,0.129,0.047,0.193,0.07
	c0.162,0.059,0.324,0.118,0.482,0.187c0.068,0.029,0.133,0.065,0.201,0.096c0.147,0.07,0.293,0.14,0.435,0.219
	c0.088,0.049,0.174,0.105,0.26,0.159c0.115,0.07,0.23,0.137,0.34,0.213c0.109,0.075,0.213,0.157,0.316,0.237
	c0.084,0.064,0.168,0.124,0.248,0.192c0.113,0.094,0.219,0.195,0.326,0.296c0.068,0.064,0.139,0.126,0.205,0.193
	c0.098,0.1,0.19,0.206,0.283,0.312c0.07,0.08,0.143,0.158,0.209,0.24c0.074,0.093,0.145,0.192,0.217,0.289
	c0.078,0.106,0.156,0.213,0.228,0.324c0.053,0.082,0.102,0.167,0.152,0.251c0.08,0.135,0.16,0.272,0.232,0.413
	c0.014,0.028,0.031,0.053,0.045,0.081c0.025,0.051,0.045,0.104,0.068,0.155c0.07,0.146,0.137,0.295,0.195,0.447
	c0.037,0.09,0.068,0.182,0.1,0.273c0.049,0.136,0.094,0.273,0.135,0.413c0.031,0.113,0.061,0.226,0.086,0.34
	c0.029,0.119,0.057,0.238,0.078,0.359c0.025,0.137,0.045,0.274,0.063,0.412c0.014,0.102,0.027,0.204,0.035,0.307
	c0.014,0.156,0.02,0.311,0.023,0.466c0.002,0.061,0.01,0.121,0.01,0.182v0.036h0.004c-0.008-1.14,0.244-2.299,0.789-3.39
	c1.851-3.704,6.357-5.206,10.06-3.354l4.148,2.074l0.002-35.369c0-0.031-0.004-0.06-0.006-0.09c0.002-0.057,0.01-0.111,0.01-0.168
	c0-37.22-30.281-67.5-67.5-67.5c-37.221,0-67.501,30.28-67.501,67.5c0,0.021,0.004,0.04,0.004,0.061
	c-0.002,0.066-0.01,0.13-0.01,0.197v35.365H235.999z"/>
<g>
	<path style="fill:#F6BB42;" d="M371.005,67.5c0-37.22-30.281-67.5-67.5-67.5c-5.158,0-10.174,0.601-15.002,1.701
		c30.02,6.842,52.498,33.736,52.498,65.799c0,0.057-0.008,0.111-0.008,0.168c0,0.03,0.004,0.06,0.004,0.09l-0.002,35.369
		l4.148-2.074c0.053-0.026,0.105-0.045,0.16-0.07c0.145-0.068,0.289-0.134,0.44-0.193c0.092-0.036,0.182-0.068,0.273-0.1
		c0.137-0.048,0.275-0.094,0.416-0.134c0.111-0.032,0.221-0.059,0.332-0.085c0.123-0.029,0.244-0.057,0.369-0.079
		c0.133-0.025,0.266-0.044,0.398-0.061c0.107-0.014,0.215-0.027,0.324-0.037c0.148-0.013,0.295-0.019,0.443-0.022
		c0.066-0.002,0.131-0.01,0.197-0.01c0.037,0,0.072,0.005,0.107,0.005c0.143,0.002,0.283,0.011,0.424,0.021
		c0.115,0.008,0.23,0.015,0.344,0.028c0.111,0.013,0.223,0.033,0.334,0.051c0.139,0.022,0.275,0.044,0.412,0.074
		c0.082,0.018,0.162,0.042,0.244,0.063c0.158,0.04,0.315,0.081,0.467,0.131c0.066,0.021,0.129,0.047,0.193,0.07
		c0.162,0.059,0.324,0.118,0.482,0.187c0.068,0.029,0.133,0.065,0.201,0.096c0.147,0.07,0.293,0.14,0.435,0.219
		c0.088,0.049,0.174,0.105,0.26,0.159c0.115,0.07,0.23,0.137,0.34,0.213c0.109,0.075,0.213,0.157,0.316,0.237
		c0.084,0.064,0.168,0.124,0.248,0.192c0.113,0.094,0.219,0.195,0.326,0.296c0.068,0.064,0.139,0.126,0.205,0.193
		c0.098,0.1,0.19,0.206,0.283,0.312c0.07,0.08,0.143,0.158,0.209,0.24c0.074,0.093,0.145,0.192,0.217,0.289
		c0.078,0.106,0.156,0.213,0.228,0.324c0.053,0.082,0.102,0.167,0.152,0.251c0.08,0.135,0.16,0.272,0.232,0.413
		c0.014,0.028,0.031,0.053,0.045,0.081c0.025,0.051,0.045,0.104,0.068,0.155c0.07,0.146,0.137,0.295,0.195,0.447
		c0.037,0.09,0.068,0.182,0.1,0.273c0.049,0.136,0.094,0.273,0.135,0.413c0.031,0.113,0.061,0.226,0.086,0.34
		c0.029,0.119,0.057,0.238,0.078,0.359c0.025,0.137,0.045,0.274,0.063,0.412c0.014,0.102,0.027,0.204,0.035,0.307
		c0.014,0.156,0.02,0.311,0.023,0.466c0.002,0.061,0.01,0.121,0.01,0.182v0.036h0.004c-0.008-1.14,0.244-2.299,0.789-3.39
		c1.851-3.704,6.357-5.206,10.06-3.354l4.148,2.074l0.002-35.369c0-0.031-0.004-0.06-0.006-0.09
		C370.997,67.611,371.005,67.557,371.005,67.5z"/>
	<path style="fill:#F6BB42;" d="M333.499,85.257h-59.998c-4.143,0-7.5-3.358-7.5-7.5s3.357-7.5,7.5-7.5h59.998
		c4.142,0,7.5,3.358,7.5,7.5S337.642,85.257,333.499,85.257z"/>
</g>
<path style="fill:#E2AE83;" d="M450.987,107.58c-0.002-0.155-0.01-0.311-0.023-0.466c-0.008-0.103-0.022-0.205-0.033-0.307
	c-0.018-0.138-0.037-0.274-0.065-0.412c-0.021-0.121-0.049-0.24-0.076-0.359c-0.027-0.114-0.055-0.227-0.088-0.34
	c-0.039-0.14-0.086-0.277-0.133-0.413c-0.033-0.091-0.065-0.183-0.1-0.273c-0.061-0.152-0.127-0.3-0.197-0.447
	c-0.023-0.051-0.041-0.104-0.066-0.155c-0.014-0.028-0.031-0.053-0.047-0.081c-0.072-0.141-0.15-0.277-0.232-0.413
	c-0.051-0.084-0.1-0.169-0.152-0.251c-0.072-0.111-0.15-0.218-0.228-0.325c-0.072-0.097-0.141-0.195-0.215-0.288
	c-0.068-0.084-0.141-0.163-0.213-0.244c-0.092-0.104-0.184-0.21-0.279-0.308c-0.068-0.068-0.139-0.131-0.209-0.196
	c-0.105-0.1-0.211-0.2-0.322-0.293c-0.082-0.068-0.168-0.131-0.254-0.196c-0.102-0.079-0.203-0.16-0.31-0.233
	c-0.113-0.078-0.23-0.147-0.348-0.219c-0.084-0.051-0.166-0.105-0.252-0.153c-0.145-0.081-0.295-0.152-0.445-0.223
	c-0.064-0.03-0.127-0.064-0.191-0.092c-0.16-0.07-0.324-0.131-0.49-0.19c-0.063-0.022-0.123-0.047-0.184-0.067
	c-0.156-0.051-0.314-0.092-0.475-0.133c-0.08-0.021-0.158-0.043-0.24-0.062c-0.135-0.03-0.275-0.052-0.414-0.075
	c-0.109-0.018-0.221-0.038-0.332-0.051c-0.113-0.013-0.229-0.021-0.344-0.028c-0.141-0.01-0.281-0.019-0.422-0.021
	c-0.037,0-0.072-0.005-0.109-0.005c-0.066,0-0.131,0.008-0.195,0.01c-0.148,0.004-0.297,0.01-0.445,0.022
	c-0.109,0.009-0.217,0.023-0.322,0.037c-0.135,0.017-0.268,0.037-0.4,0.061c-0.123,0.022-0.244,0.05-0.365,0.079
	c-0.113,0.027-0.225,0.054-0.336,0.086c-0.141,0.04-0.277,0.085-0.414,0.133c-0.092,0.033-0.184,0.065-0.275,0.102
	c-0.148,0.059-0.295,0.124-0.44,0.192c-0.053,0.025-0.107,0.044-0.16,0.07l-16.646,8.322l-16.647-8.322
	c-0.051-0.025-0.102-0.043-0.152-0.067c-0.115-0.055-0.232-0.105-0.352-0.154c-0.117-0.049-0.236-0.096-0.357-0.139
	c-0.102-0.036-0.203-0.067-0.307-0.099c-0.137-0.042-0.271-0.082-0.41-0.116c-0.092-0.022-0.186-0.04-0.279-0.06
	c-0.145-0.03-0.289-0.058-0.436-0.079c-0.096-0.014-0.193-0.022-0.289-0.033c-0.141-0.014-0.281-0.028-0.422-0.035
	c-0.111-0.005-0.223-0.004-0.334-0.005c-0.125,0-0.25-0.001-0.375,0.005c-0.129,0.006-0.256,0.019-0.385,0.032
	c-0.109,0.011-0.217,0.021-0.326,0.037c-0.135,0.02-0.272,0.046-0.406,0.073c-0.103,0.021-0.205,0.041-0.307,0.066
	c-0.131,0.032-0.262,0.07-0.391,0.11c-0.109,0.033-0.217,0.066-0.322,0.104c-0.117,0.041-0.234,0.087-0.35,0.135
	c-0.119,0.049-0.236,0.1-0.354,0.155c-0.051,0.024-0.103,0.042-0.154,0.067l-16.646,8.322l-16.647-8.322
	c-3.703-1.852-8.209-0.35-10.06,3.354c-0.545,1.09-0.797,2.25-0.789,3.39h-0.007V512h12.664v-0.004h74.836
	c4.143,0,7.5-3.357,7.5-7.5V107.762C450.997,107.7,450.989,107.641,450.987,107.58z"/>
<path style="fill:#D39C72;" d="M450.964,107.112c-0.008-0.104-0.022-0.205-0.033-0.307c-0.018-0.138-0.037-0.274-0.065-0.412
	c-0.021-0.121-0.049-0.24-0.076-0.359c-0.027-0.114-0.055-0.227-0.088-0.34c-0.039-0.14-0.086-0.277-0.133-0.413
	c-0.033-0.091-0.065-0.183-0.1-0.273c-0.061-0.152-0.127-0.3-0.197-0.447c-0.023-0.051-0.041-0.104-0.066-0.155
	c-0.014-0.028-0.031-0.053-0.047-0.081c-0.072-0.141-0.15-0.277-0.232-0.413c-0.051-0.085-0.1-0.169-0.152-0.251
	c-0.072-0.111-0.15-0.218-0.228-0.325c-0.072-0.097-0.141-0.195-0.215-0.288c-0.068-0.083-0.141-0.163-0.213-0.244
	c-0.092-0.104-0.184-0.209-0.279-0.308c-0.068-0.068-0.139-0.131-0.209-0.196c-0.105-0.1-0.211-0.2-0.322-0.293
	c-0.082-0.068-0.168-0.131-0.254-0.196c-0.102-0.079-0.203-0.16-0.31-0.233c-0.113-0.078-0.23-0.147-0.348-0.219
	c-0.084-0.051-0.166-0.105-0.252-0.153c-0.145-0.081-0.295-0.152-0.445-0.223c-0.064-0.03-0.127-0.064-0.191-0.092
	c-0.16-0.07-0.324-0.131-0.49-0.19c-0.063-0.022-0.123-0.047-0.184-0.067c-0.156-0.051-0.314-0.092-0.475-0.133
	c-0.08-0.021-0.158-0.043-0.24-0.062c-0.135-0.03-0.275-0.052-0.414-0.075c-0.109-0.018-0.221-0.038-0.332-0.051
	c-0.113-0.013-0.229-0.021-0.344-0.028c-0.141-0.01-0.281-0.019-0.422-0.021c-0.037-0.001-0.072-0.005-0.109-0.005
	c-0.066,0-0.131,0.008-0.195,0.01c-0.148,0.004-0.297,0.01-0.445,0.023c-0.109,0.009-0.217,0.023-0.322,0.037
	c-0.135,0.017-0.268,0.037-0.4,0.061c-0.123,0.022-0.244,0.05-0.365,0.079c-0.113,0.027-0.225,0.054-0.336,0.086
	c-0.141,0.04-0.277,0.085-0.414,0.133c-0.092,0.033-0.184,0.065-0.275,0.102c-0.148,0.059-0.295,0.124-0.44,0.192
	c-0.053,0.025-0.107,0.044-0.16,0.07l-16.646,8.322l-16.647-8.322c-0.051-0.025-0.102-0.043-0.152-0.067
	c-0.115-0.055-0.232-0.105-0.352-0.154c-0.117-0.049-0.236-0.096-0.357-0.139c-0.102-0.036-0.203-0.067-0.307-0.099
	c-0.137-0.042-0.271-0.082-0.41-0.116c-0.092-0.022-0.186-0.04-0.279-0.059c-0.145-0.03-0.289-0.058-0.436-0.079
	c-0.096-0.014-0.193-0.022-0.289-0.033c-0.141-0.014-0.281-0.028-0.422-0.035c-0.111-0.005-0.223-0.004-0.334-0.005
	c-0.125,0-0.25,0-0.375,0.005c-0.129,0.006-0.256,0.019-0.383,0.032v411.69h40.739c4.143,0,7.5-3.357,7.5-7.5V107.76
	c0-0.062-0.008-0.121-0.01-0.182C450.986,107.423,450.978,107.268,450.964,107.112z"/>
<path style="fill:#FFD2A6;" d="M355.987,107.58c-0.004-0.155-0.01-0.311-0.023-0.466c-0.008-0.103-0.022-0.205-0.035-0.307
	c-0.017-0.138-0.037-0.274-0.063-0.412c-0.021-0.121-0.049-0.24-0.078-0.359c-0.025-0.114-0.055-0.227-0.086-0.34
	c-0.041-0.14-0.086-0.277-0.135-0.413c-0.031-0.091-0.063-0.183-0.1-0.273c-0.059-0.152-0.125-0.3-0.195-0.447
	c-0.023-0.051-0.043-0.104-0.068-0.155c-0.014-0.028-0.031-0.053-0.045-0.081c-0.072-0.141-0.152-0.277-0.232-0.413
	c-0.051-0.084-0.1-0.169-0.152-0.251c-0.072-0.111-0.15-0.217-0.228-0.324c-0.072-0.097-0.143-0.196-0.217-0.289
	c-0.066-0.082-0.139-0.161-0.209-0.24c-0.094-0.106-0.185-0.212-0.283-0.312c-0.066-0.067-0.137-0.129-0.205-0.193
	c-0.108-0.101-0.213-0.203-0.326-0.296c-0.08-0.067-0.164-0.128-0.248-0.192c-0.104-0.081-0.207-0.163-0.316-0.237
	c-0.109-0.076-0.225-0.143-0.34-0.213c-0.086-0.053-0.172-0.109-0.26-0.159c-0.142-0.079-0.289-0.149-0.435-0.219
	c-0.068-0.032-0.133-0.067-0.201-0.096c-0.158-0.069-0.32-0.128-0.482-0.187c-0.065-0.023-0.127-0.049-0.193-0.07
	c-0.152-0.05-0.309-0.091-0.467-0.131c-0.082-0.021-0.162-0.045-0.244-0.063c-0.137-0.03-0.273-0.052-0.412-0.074
	c-0.111-0.019-0.223-0.038-0.334-0.051c-0.113-0.013-0.229-0.02-0.344-0.028c-0.141-0.01-0.281-0.019-0.424-0.021
	c-0.035,0-0.07-0.005-0.107-0.005c-0.066,0-0.131,0.008-0.197,0.01c-0.148,0.004-0.295,0.01-0.443,0.022
	c-0.109,0.009-0.217,0.023-0.324,0.037c-0.133,0.017-0.266,0.036-0.398,0.061c-0.125,0.022-0.246,0.05-0.369,0.079
	c-0.111,0.026-0.221,0.054-0.332,0.085c-0.141,0.04-0.279,0.086-0.416,0.134c-0.092,0.032-0.182,0.064-0.273,0.1
	c-0.15,0.059-0.295,0.125-0.44,0.193c-0.055,0.025-0.107,0.044-0.16,0.07l-16.646,8.322l-16.647-8.322
	c-0.053-0.026-0.105-0.044-0.156-0.068c-0.113-0.054-0.229-0.104-0.346-0.151c-0.119-0.05-0.24-0.098-0.361-0.141
	c-0.1-0.035-0.201-0.067-0.303-0.098c-0.137-0.042-0.275-0.083-0.414-0.116c-0.092-0.022-0.184-0.04-0.277-0.06
	c-0.145-0.03-0.291-0.058-0.438-0.079c-0.096-0.014-0.191-0.022-0.287-0.032c-0.143-0.015-0.283-0.029-0.424-0.035
	c-0.111-0.005-0.223-0.004-0.334-0.005c-0.125,0-0.25-0.001-0.375,0.005c-0.127,0.006-0.256,0.019-0.383,0.032
	c-0.109,0.011-0.219,0.021-0.326,0.037c-0.137,0.02-0.272,0.046-0.406,0.073c-0.103,0.021-0.207,0.041-0.309,0.066
	c-0.129,0.032-0.258,0.07-0.389,0.109c-0.109,0.033-0.217,0.067-0.326,0.105c-0.115,0.041-0.229,0.086-0.344,0.133
	c-0.121,0.05-0.24,0.102-0.359,0.157c-0.049,0.024-0.102,0.041-0.15,0.066l-16.646,8.322l-16.647-8.322
	c-0.047-0.023-0.096-0.04-0.143-0.063c-0.123-0.058-0.246-0.112-0.371-0.163c-0.113-0.046-0.227-0.091-0.34-0.131
	c-0.107-0.038-0.215-0.072-0.324-0.105c-0.131-0.04-0.262-0.078-0.395-0.111c-0.098-0.024-0.195-0.043-0.293-0.063
	c-0.143-0.029-0.283-0.056-0.424-0.077c-0.1-0.014-0.199-0.023-0.299-0.034c-0.139-0.014-0.277-0.028-0.416-0.034
	c-0.111-0.005-0.223-0.004-0.334-0.005c-0.127,0-0.252-0.001-0.377,0.005s-0.252,0.019-0.377,0.031
	c-0.113,0.011-0.225,0.021-0.336,0.038c-0.131,0.02-0.262,0.045-0.393,0.071c-0.109,0.021-0.217,0.043-0.322,0.069
	c-0.125,0.031-0.248,0.067-0.373,0.104c-0.115,0.035-0.23,0.071-0.344,0.111c-0.109,0.039-0.217,0.082-0.326,0.127
	c-0.127,0.052-0.254,0.107-0.379,0.166c-0.047,0.022-0.096,0.039-0.141,0.062l-16.649,8.323l-16.646-8.323
	c-0.05-0.025-0.101-0.043-0.15-0.066c-0.119-0.056-0.24-0.108-0.361-0.158c-0.113-0.047-0.227-0.092-0.342-0.132
	c-0.109-0.039-0.219-0.073-0.33-0.106c-0.128-0.039-0.256-0.077-0.385-0.108c-0.103-0.025-0.206-0.046-0.311-0.067
	c-0.135-0.027-0.27-0.054-0.406-0.073c-0.105-0.015-0.211-0.025-0.318-0.036c-0.132-0.013-0.264-0.026-0.394-0.033
	c-0.119-0.006-0.237-0.005-0.357-0.005c-0.118,0-0.237-0.001-0.356,0.005c-0.131,0.006-0.263,0.02-0.395,0.033
	c-0.106,0.011-0.213,0.021-0.318,0.036c-0.137,0.02-0.271,0.046-0.406,0.073c-0.104,0.021-0.207,0.042-0.311,0.067
	c-0.129,0.031-0.256,0.069-0.383,0.107c-0.111,0.034-0.223,0.068-0.332,0.108c-0.113,0.04-0.227,0.085-0.339,0.131
	c-0.124,0.05-0.245,0.104-0.366,0.16c-0.049,0.023-0.099,0.041-0.147,0.065l-16.646,8.322l-16.646-8.322
	c-0.051-0.025-0.104-0.043-0.154-0.068c-0.116-0.055-0.234-0.105-0.354-0.154c-0.115-0.048-0.232-0.094-0.35-0.136
	c-0.105-0.038-0.213-0.071-0.321-0.104c-0.13-0.04-0.261-0.078-0.393-0.11c-0.1-0.024-0.201-0.044-0.302-0.065
	c-0.139-0.028-0.275-0.055-0.414-0.075c-0.104-0.015-0.209-0.024-0.313-0.035c-0.134-0.014-0.267-0.027-0.399-0.033
	c-0.118-0.006-0.237-0.005-0.356-0.005c-0.118,0-0.237-0.001-0.355,0.005c-0.133,0.006-0.265,0.02-0.398,0.033
	c-0.105,0.011-0.21,0.021-0.313,0.035c-0.139,0.02-0.275,0.047-0.412,0.075c-0.102,0.021-0.203,0.041-0.304,0.065
	c-0.131,0.032-0.261,0.07-0.391,0.11c-0.108,0.033-0.218,0.067-0.324,0.104c-0.116,0.041-0.23,0.086-0.345,0.134
	c-0.122,0.05-0.242,0.102-0.36,0.158c-0.05,0.023-0.101,0.041-0.15,0.066l-16.646,8.322l-16.646-8.322
	c-0.045-0.022-0.091-0.038-0.137-0.06c-0.128-0.061-0.257-0.117-0.389-0.171c-0.105-0.043-0.211-0.085-0.318-0.123
	c-0.116-0.042-0.234-0.078-0.352-0.114c-0.122-0.037-0.243-0.072-0.366-0.103c-0.108-0.027-0.217-0.048-0.326-0.07
	c-0.131-0.026-0.262-0.052-0.393-0.071c-0.109-0.016-0.218-0.026-0.328-0.037c-0.13-0.013-0.259-0.026-0.389-0.032
	c-0.119-0.006-0.238-0.005-0.357-0.005c-0.119,0-0.238-0.001-0.357,0.005c-0.129,0.006-0.259,0.02-0.388,0.032
	c-0.11,0.011-0.219,0.021-0.328,0.037c-0.131,0.019-0.261,0.044-0.392,0.071c-0.109,0.022-0.219,0.043-0.327,0.07
	c-0.121,0.03-0.242,0.066-0.363,0.102c-0.119,0.036-0.238,0.073-0.355,0.115c-0.105,0.038-0.208,0.079-0.313,0.121
	c-0.134,0.054-0.266,0.112-0.396,0.174c-0.043,0.021-0.088,0.036-0.132,0.058l-16.647,8.323l-16.647-8.323
	c-0.05-0.025-0.103-0.043-0.153-0.067c-0.118-0.056-0.236-0.107-0.356-0.156c-0.115-0.047-0.231-0.093-0.348-0.134
	c-0.107-0.038-0.215-0.071-0.323-0.104c-0.13-0.04-0.26-0.078-0.391-0.11c-0.101-0.024-0.202-0.044-0.303-0.065
	c-0.138-0.028-0.274-0.055-0.412-0.075c-0.104-0.015-0.21-0.024-0.314-0.035c-0.133-0.014-0.266-0.027-0.398-0.033
	c-0.118-0.006-0.236-0.005-0.356-0.005c-0.119,0-0.237-0.001-0.355,0.005c-0.133,0.006-0.265,0.02-0.398,0.033
	c-0.105,0.011-0.21,0.021-0.314,0.035c-0.138,0.02-0.274,0.047-0.412,0.074c-0.102,0.021-0.203,0.041-0.304,0.065
	c-0.13,0.032-0.26,0.07-0.39,0.11c-0.109,0.033-0.217,0.067-0.325,0.105c-0.116,0.041-0.23,0.086-0.344,0.133
	c-0.122,0.05-0.242,0.102-0.36,0.158c-0.05,0.023-0.101,0.041-0.15,0.066l-16.646,8.322l-16.646-8.322
	c-0.064-0.032-0.131-0.056-0.196-0.086c-0.128-0.06-0.258-0.118-0.39-0.171c-0.101-0.04-0.202-0.076-0.303-0.111
	c-0.131-0.046-0.263-0.089-0.397-0.128c-0.111-0.032-0.223-0.06-0.335-0.086c-0.124-0.029-0.249-0.058-0.375-0.081
	c-0.127-0.023-0.254-0.041-0.381-0.059c-0.114-0.015-0.228-0.029-0.343-0.038c-0.141-0.012-0.281-0.018-0.421-0.021
	c-0.071-0.002-0.14-0.011-0.211-0.011c-0.039,0-0.077,0.005-0.116,0.006c-0.137,0.002-0.272,0.011-0.408,0.021
	c-0.117,0.008-0.233,0.015-0.348,0.029c-0.12,0.014-0.237,0.035-0.356,0.054c-0.126,0.021-0.252,0.041-0.377,0.068
	c-0.111,0.024-0.221,0.056-0.33,0.085c-0.123,0.033-0.247,0.064-0.368,0.104c-0.124,0.041-0.247,0.089-0.369,0.136
	c-0.098,0.038-0.196,0.072-0.292,0.113c-0.164,0.07-0.323,0.15-0.481,0.232c-0.048,0.025-0.098,0.047-0.146,0.073
	c-1.013,0.552-1.903,1.343-2.585,2.339c-0.018,0.025-0.036,0.049-0.053,0.075c-0.101,0.15-0.193,0.307-0.284,0.466
	c-0.038,0.066-0.077,0.132-0.113,0.2c-0.026,0.05-0.058,0.096-0.083,0.147c-0.044,0.088-0.077,0.179-0.118,0.269
	c-0.042,0.092-0.083,0.184-0.122,0.277c-0.055,0.135-0.104,0.271-0.15,0.408c-0.033,0.098-0.066,0.195-0.095,0.294
	c-0.042,0.143-0.078,0.286-0.111,0.43c-0.022,0.095-0.043,0.189-0.062,0.285c-0.029,0.155-0.052,0.31-0.071,0.465
	c-0.011,0.088-0.022,0.175-0.03,0.264c-0.015,0.167-0.022,0.333-0.025,0.5c-0.001,0.055-0.008,0.107-0.008,0.162v136.738v51.117
	v208.883c0,1.034,0.211,2.021,0.593,2.919c1.138,2.692,3.804,4.582,6.911,4.582l287.49-0.004V504.5v-0.002v-0.002V107.762
	C355.997,107.7,355.989,107.641,355.987,107.58z"/>
<path style="fill:#5D9CEC;" d="M88.496,109.376l16.646-8.322c0.049-0.025,0.101-0.043,0.15-0.066
	c0.119-0.056,0.239-0.108,0.36-0.158c0.114-0.047,0.229-0.092,0.344-0.133c0.107-0.038,0.216-0.072,0.325-0.105
	c0.13-0.039,0.26-0.078,0.39-0.11c0.101-0.024,0.202-0.044,0.304-0.065c0.137-0.027,0.274-0.054,0.412-0.074
	c0.104-0.015,0.209-0.024,0.314-0.035c0.133-0.014,0.265-0.027,0.398-0.033c0.118-0.006,0.237-0.005,0.355-0.005
	c0.119,0,0.237-0.001,0.356,0.005c0.133,0.006,0.266,0.02,0.398,0.033c0.105,0.011,0.21,0.02,0.314,0.035
	c0.138,0.02,0.274,0.047,0.412,0.075c0.102,0.021,0.203,0.041,0.303,0.065c0.131,0.032,0.261,0.07,0.391,0.11
	c0.108,0.033,0.216,0.066,0.323,0.104c0.117,0.041,0.232,0.087,0.348,0.134c0.12,0.049,0.238,0.101,0.356,0.156
	c0.05,0.024,0.103,0.042,0.153,0.067l16.647,8.323l16.647-8.323c0.043-0.021,0.088-0.037,0.132-0.058
	c0.131-0.062,0.263-0.12,0.396-0.174c0.104-0.043,0.208-0.084,0.313-0.121c0.117-0.041,0.236-0.079,0.355-0.115
	c0.121-0.036,0.242-0.072,0.363-0.102c0.108-0.027,0.218-0.048,0.327-0.07c0.131-0.026,0.261-0.052,0.392-0.071
	c0.109-0.016,0.218-0.026,0.328-0.037c0.129-0.013,0.259-0.026,0.388-0.032c0.119-0.006,0.238-0.005,0.357-0.005
	c0.119,0,0.238-0.001,0.357,0.005c0.129,0.006,0.259,0.02,0.389,0.032c0.109,0.011,0.219,0.021,0.328,0.037
	c0.131,0.019,0.262,0.045,0.393,0.071c0.109,0.022,0.218,0.043,0.326,0.07c0.123,0.03,0.244,0.066,0.366,0.103
	c0.118,0.036,0.236,0.072,0.352,0.114c0.107,0.038,0.212,0.08,0.318,0.123c0.131,0.053,0.261,0.109,0.389,0.171
	c0.045,0.021,0.092,0.037,0.137,0.06l16.646,8.322l16.646-8.322c0.05-0.025,0.101-0.043,0.15-0.066
	c0.118-0.056,0.238-0.108,0.36-0.158c0.114-0.047,0.229-0.092,0.345-0.134c0.106-0.038,0.216-0.071,0.324-0.104
	c0.13-0.039,0.26-0.078,0.391-0.11c0.101-0.024,0.202-0.044,0.304-0.065c0.137-0.028,0.273-0.055,0.412-0.075
	c0.104-0.015,0.209-0.024,0.313-0.035c0.134-0.014,0.266-0.027,0.398-0.033c0.118-0.006,0.237-0.005,0.355-0.005
	s0.237-0.001,0.356,0.005c0.133,0.006,0.266,0.02,0.399,0.033c0.104,0.011,0.209,0.02,0.313,0.035
	c0.139,0.02,0.275,0.047,0.414,0.075c0.101,0.021,0.201,0.041,0.302,0.065c0.132,0.032,0.263,0.071,0.393,0.11
	c0.108,0.033,0.216,0.066,0.321,0.104c0.117,0.042,0.234,0.088,0.35,0.136c0.119,0.049,0.237,0.1,0.354,0.154
	c0.051,0.024,0.104,0.042,0.154,0.068l16.646,8.322l7.508-3.754V57.76c0-4.142-3.357-7.5-7.5-7.5H88.494c-4.142,0-7.5,3.358-7.5,7.5
	v47.865L88.496,109.376z"/>
<path style="fill:#4A89DC;" d="M208.505,50.26h-30.002c4.142,0,7.5,3.358,7.5,7.5v42.934c0.105-0.037,0.212-0.07,0.319-0.103
	c0.13-0.039,0.26-0.078,0.391-0.11c0.101-0.024,0.202-0.044,0.304-0.065c0.137-0.028,0.273-0.055,0.412-0.075
	c0.104-0.015,0.209-0.024,0.313-0.035c0.134-0.014,0.266-0.027,0.398-0.033c0.118-0.006,0.237-0.005,0.355-0.005
	s0.237-0.001,0.356,0.005c0.133,0.006,0.266,0.02,0.399,0.033c0.104,0.011,0.209,0.02,0.313,0.035
	c0.139,0.02,0.275,0.047,0.414,0.075c0.101,0.021,0.201,0.041,0.302,0.065c0.132,0.032,0.263,0.071,0.393,0.11
	c0.108,0.033,0.216,0.066,0.321,0.104c0.117,0.042,0.234,0.088,0.35,0.136c0.119,0.049,0.237,0.1,0.354,0.154
	c0.051,0.024,0.104,0.042,0.154,0.068l16.646,8.322l7.508-3.754V57.76C216.005,53.618,212.647,50.26,208.505,50.26z"/>
<path style="fill:#E6E9ED;" d="M203.911,50.26l-8.243-24.728c-0.001-0.004-0.003-0.008-0.004-0.012l-0.044-0.134
	c-0.021-0.062-0.049-0.118-0.07-0.179c-0.057-0.158-0.115-0.315-0.183-0.467c-0.041-0.095-0.088-0.184-0.133-0.277
	c-0.061-0.124-0.122-0.249-0.189-0.369c-0.063-0.112-0.132-0.22-0.2-0.329c-0.058-0.092-0.115-0.186-0.178-0.275
	c-0.082-0.121-0.172-0.235-0.261-0.35c-0.058-0.074-0.114-0.148-0.175-0.219c-0.097-0.115-0.198-0.224-0.302-0.332
	c-0.063-0.067-0.126-0.134-0.192-0.199c-0.104-0.1-0.209-0.194-0.317-0.288c-0.077-0.067-0.153-0.134-0.233-0.198
	c-0.102-0.081-0.205-0.156-0.309-0.232c-0.096-0.068-0.191-0.137-0.29-0.201c-0.095-0.062-0.192-0.119-0.29-0.176
	c-0.114-0.067-0.229-0.133-0.346-0.194c-0.092-0.047-0.185-0.09-0.277-0.134c-0.127-0.059-0.254-0.117-0.383-0.169
	c-0.096-0.039-0.193-0.072-0.291-0.106c-0.129-0.045-0.257-0.09-0.389-0.129c-0.112-0.033-0.227-0.06-0.342-0.088
	c-0.117-0.028-0.233-0.058-0.354-0.081c-0.141-0.027-0.284-0.046-0.428-0.065c-0.096-0.013-0.191-0.028-0.288-0.037
	c-0.171-0.016-0.344-0.022-0.517-0.026c-0.061-0.002-0.119-0.009-0.18-0.009h-0.133c-0.008,0-0.016,0-0.023,0h-79.853
	c-0.069,0-0.136,0.008-0.205,0.01c-0.162,0.004-0.323,0.01-0.483,0.025c-0.109,0.01-0.215,0.027-0.322,0.041
	c-0.132,0.018-0.264,0.035-0.394,0.06c-0.13,0.025-0.257,0.057-0.385,0.088c-0.104,0.026-0.208,0.05-0.31,0.08
	c-0.141,0.041-0.278,0.089-0.416,0.138c-0.088,0.031-0.176,0.062-0.263,0.096c-0.138,0.056-0.273,0.117-0.407,0.18
	c-0.085,0.04-0.17,0.079-0.254,0.122c-0.124,0.064-0.246,0.134-0.366,0.205c-0.091,0.054-0.183,0.107-0.272,0.165
	c-0.104,0.068-0.205,0.14-0.305,0.212c-0.1,0.072-0.199,0.144-0.295,0.221c-0.084,0.067-0.164,0.138-0.245,0.208
	c-0.105,0.091-0.208,0.183-0.307,0.279c-0.069,0.066-0.134,0.136-0.2,0.205c-0.101,0.107-0.201,0.213-0.296,0.326
	c-0.062,0.073-0.12,0.149-0.179,0.225c-0.088,0.113-0.175,0.226-0.257,0.344c-0.063,0.091-0.121,0.185-0.18,0.279
	c-0.067,0.108-0.136,0.215-0.198,0.327c-0.068,0.12-0.128,0.245-0.189,0.369c-0.045,0.092-0.092,0.182-0.133,0.277
	c-0.067,0.153-0.125,0.31-0.183,0.467c-0.022,0.061-0.049,0.117-0.07,0.179l-0.044,0.134c-0.001,0.004-0.003,0.008-0.004,0.012
	L93.089,50.26H203.911z"/>
<path style="fill:#CCD1D9;" d="M195.668,25.532c-0.001-0.004-0.003-0.008-0.004-0.012l-0.044-0.134
	c-0.021-0.062-0.049-0.118-0.07-0.179c-0.057-0.158-0.115-0.315-0.183-0.467c-0.041-0.095-0.088-0.184-0.133-0.277
	c-0.061-0.124-0.122-0.249-0.189-0.369c-0.063-0.112-0.132-0.22-0.2-0.329c-0.058-0.092-0.115-0.186-0.178-0.275
	c-0.082-0.121-0.172-0.235-0.261-0.35c-0.058-0.074-0.114-0.148-0.175-0.219c-0.097-0.115-0.198-0.224-0.302-0.332
	c-0.063-0.067-0.126-0.134-0.192-0.199c-0.104-0.1-0.209-0.194-0.317-0.288c-0.077-0.067-0.153-0.134-0.233-0.198
	c-0.102-0.081-0.205-0.156-0.309-0.232c-0.096-0.068-0.191-0.137-0.29-0.201c-0.095-0.062-0.192-0.119-0.29-0.176
	c-0.114-0.067-0.229-0.133-0.346-0.194c-0.092-0.047-0.185-0.09-0.277-0.134c-0.127-0.059-0.254-0.117-0.383-0.169
	c-0.096-0.039-0.193-0.072-0.291-0.106c-0.129-0.045-0.257-0.09-0.389-0.129c-0.112-0.033-0.227-0.06-0.342-0.088
	c-0.117-0.028-0.233-0.058-0.354-0.081c-0.141-0.027-0.284-0.046-0.428-0.065c-0.096-0.013-0.191-0.028-0.288-0.037
	c-0.171-0.016-0.344-0.022-0.517-0.026c-0.061-0.002-0.119-0.009-0.18-0.009h-0.133c-0.008,0-0.016,0-0.023,0H158.5
	c0.061,0,0.12,0.008,0.18,0.009c0.173,0.004,0.345,0.01,0.517,0.026c0.097,0.009,0.192,0.024,0.288,0.037
	c0.143,0.019,0.287,0.038,0.428,0.065c0.12,0.023,0.236,0.052,0.353,0.081c0.114,0.028,0.229,0.055,0.341,0.088
	c0.132,0.038,0.26,0.083,0.388,0.129c0.098,0.035,0.195,0.068,0.291,0.106c0.13,0.052,0.256,0.11,0.383,0.169
	c0.093,0.043,0.187,0.087,0.278,0.134c0.118,0.061,0.231,0.127,0.345,0.194c0.098,0.058,0.195,0.115,0.29,0.176
	c0.099,0.064,0.194,0.133,0.29,0.201c0.104,0.075,0.208,0.151,0.309,0.232c0.08,0.063,0.156,0.131,0.233,0.198
	c0.108,0.094,0.214,0.188,0.317,0.288c0.066,0.065,0.129,0.132,0.193,0.199c0.104,0.108,0.205,0.217,0.302,0.332
	c0.06,0.071,0.117,0.146,0.175,0.219c0.089,0.114,0.178,0.229,0.261,0.35c0.062,0.089,0.12,0.183,0.178,0.275
	c0.068,0.109,0.137,0.217,0.2,0.329c0.068,0.121,0.129,0.245,0.189,0.369c0.045,0.092,0.092,0.182,0.133,0.277
	c0.067,0.152,0.125,0.31,0.183,0.467c0.022,0.061,0.049,0.117,0.07,0.179l0.044,0.134c0.001,0.004,0.003,0.008,0.004,0.012
	l8.243,24.728h30.003L195.668,25.532z"/>
<path style="fill:#C48D69;" d="M449.077,509.496c-0.027-0.029-0.053-0.059-0.08-0.088c-0.066-0.072-0.125-0.147-0.195-0.215l-40-40
	c-2.93-2.929-7.678-2.929-10.607,0l-40,40c-0.068,0.068-0.127,0.143-0.193,0.215c-0.1,0.107-0.203,0.214-0.297,0.328
	c-0.094,0.113-0.176,0.233-0.262,0.35c-0.059,0.08-0.121,0.156-0.176,0.239c-0.084,0.124-0.156,0.254-0.232,0.382
	c-0.049,0.083-0.102,0.163-0.146,0.248c-0.068,0.127-0.125,0.257-0.186,0.387c-0.043,0.093-0.09,0.184-0.129,0.277
	c-0.053,0.126-0.096,0.254-0.141,0.381h12.229v-0.004h74.835C445.716,511.996,447.704,511.027,449.077,509.496z"/>
<path style="fill:#E2AE83;" d="M308.497,451.996H108.501c-4.142,0-7.5-3.358-7.5-7.5s3.358-7.5,7.5-7.5h199.996
	c4.143,0,7.5,3.358,7.5,7.5S312.64,451.996,308.497,451.996z"/>
<path style="fill:#F2C397;" d="M355.964,107.113c-0.008-0.103-0.022-0.205-0.035-0.307c-0.017-0.138-0.037-0.274-0.063-0.412
	c-0.021-0.121-0.049-0.24-0.078-0.359c-0.025-0.114-0.055-0.227-0.086-0.34c-0.041-0.14-0.086-0.277-0.135-0.413
	c-0.031-0.091-0.063-0.183-0.1-0.273c-0.059-0.152-0.125-0.3-0.195-0.447c-0.023-0.051-0.043-0.104-0.068-0.155
	c-0.014-0.028-0.031-0.053-0.045-0.081c-0.072-0.141-0.152-0.277-0.232-0.413c-0.051-0.084-0.1-0.169-0.152-0.251
	c-0.072-0.111-0.15-0.217-0.228-0.324c-0.072-0.097-0.143-0.196-0.217-0.289c-0.066-0.082-0.139-0.161-0.209-0.24
	c-0.094-0.106-0.185-0.212-0.283-0.312c-0.066-0.067-0.137-0.129-0.205-0.193c-0.108-0.101-0.213-0.203-0.326-0.296
	c-0.08-0.067-0.164-0.128-0.248-0.192c-0.104-0.081-0.207-0.163-0.316-0.237c-0.109-0.076-0.225-0.143-0.34-0.213
	c-0.086-0.053-0.172-0.109-0.26-0.159c-0.142-0.079-0.289-0.149-0.435-0.219c-0.068-0.032-0.133-0.067-0.201-0.096
	c-0.158-0.069-0.32-0.128-0.482-0.187c-0.065-0.023-0.127-0.049-0.193-0.07c-0.152-0.05-0.309-0.091-0.467-0.131
	c-0.082-0.021-0.162-0.045-0.244-0.063c-0.137-0.03-0.273-0.052-0.412-0.074c-0.111-0.019-0.223-0.038-0.334-0.051
	c-0.113-0.013-0.229-0.02-0.344-0.028c-0.141-0.01-0.281-0.019-0.424-0.021c-0.035,0-0.07-0.005-0.107-0.005
	c-0.066,0-0.131,0.008-0.197,0.01c-0.148,0.004-0.295,0.01-0.443,0.022c-0.109,0.009-0.217,0.023-0.324,0.037
	c-0.133,0.017-0.266,0.036-0.398,0.061c-0.125,0.022-0.246,0.05-0.369,0.079c-0.111,0.026-0.221,0.054-0.332,0.085
	c-0.141,0.04-0.279,0.086-0.416,0.134c-0.092,0.032-0.182,0.064-0.273,0.1c-0.15,0.059-0.295,0.125-0.44,0.193
	c-0.055,0.025-0.107,0.044-0.16,0.07l-16.646,8.322v402.619l27.5,0.001V504.5v-0.002v-0.002V107.762c0-0.062-0.008-0.121-0.01-0.182
	C355.984,107.424,355.978,107.269,355.964,107.113z"/>
<g>
</g>
<g>
</g>
<g>
</g>
<g>
</g>
<g>
</g>
<g>
</g>
<g>
</g>
<g>
</g>
<g>
</g>
<g>
</g>
<g>
</g>
<g>
</g>
<g>
</g>
<g>
</g>
<g>
</g>
</svg>
