<?xml version="1.0" encoding="iso-8859-1"?>
<!-- Generator: Adobe Illustrator 19.0.0, SVG Export Plug-In . SVG Version: 6.00 Build 0)  -->
<svg version="1.1" id="Capa_1" xmlns="http://www.w3.org/2000/svg" xmlns:xlink="http://www.w3.org/1999/xlink" x="0px" y="0px"
	 viewBox="0 0 512 512" style="enable-background:new 0 0 512 512;" xml:space="preserve">
<path style="fill:#CCD1D9;" d="M396.313,196.388c-0.013,0-0.026-0.002-0.039-0.002H115.717c-0.017,0-0.032,0.002-0.049,0.002
	c-15.166,0.032-27.494,12.378-27.494,27.553v45.753v14.361v7.515h7.515h320.625h7.515v-7.515v-14.361v-45.753
	C423.827,208.76,411.487,196.409,396.313,196.388z"/>
<path style="fill:#AAB2BC;" d="M396.313,196.388c-0.013,0-0.026-0.002-0.039-0.002h-30.061c0.013,0,0.026,0.002,0.039,0.002
	c15.176,0.021,27.515,12.372,27.515,27.553v45.753v14.361v7.515h22.547h7.515v-7.515v-14.361v-45.753
	C423.827,208.76,411.487,196.409,396.313,196.388z"/>
<path style="fill:#656D78;" d="M200.894,251.493h-65.131c-4.151,0-7.515-3.365-7.515-7.515s3.364-7.515,7.515-7.515h65.131
	c4.151,0,7.515,3.365,7.515,7.515S205.045,251.493,200.894,251.493z"/>
<path style="fill:#5D9CEC;" d="M366.215,151.294H256.001c-4.151,0-7.515-3.365-7.515-7.515V83.661c0-4.15,3.364-7.515,7.515-7.515
	h110.214c4.151,0,7.515,3.365,7.515,7.515v60.119C373.73,147.93,370.366,151.294,366.215,151.294z"/>
<path style="fill:#4A89DC;" d="M366.215,76.146h-30.061c4.151,0,7.515,3.365,7.515,7.515v60.119c0,4.15-3.364,7.515-7.515,7.515
	h30.061c4.151,0,7.515-3.365,7.515-7.515V83.661C373.73,79.511,370.366,76.146,366.215,76.146z"/>
<rect x="288.561" y="151.294" style="fill:#656D78;" width="45.088" height="45.088"/>
<polygon style="fill:#E6E9ED;" points="471.065,386.754 423.827,291.569 88.174,291.569 40.936,386.754 "/>
<polygon style="fill:#DADDE1;" points="423.827,291.569 393.766,291.569 441.004,386.754 471.065,386.754 "/>
<path style="fill:#CCD1D9;" d="M143.279,15.029v75.146H98.191c8.296,0,15.029-6.733,15.029-15.029V50.097V15.029
	C113.22,6.733,119.943,0,128.249,0C136.546,0,143.279,6.733,143.279,15.029z"/>
<path style="fill:#E6E9ED;" d="M193.376,203.904v40.078h-50.097v-40.078V90.175V15.029C143.279,6.733,136.546,0,128.249,0h50.097
	c8.296,0,15.029,6.733,15.029,15.029V203.904z"/>
<path style="fill:#656D78;" d="M486.448,512H25.552c-4.151,0-7.515-3.365-7.515-7.515V394.269c0-4.15,3.364-7.515,7.515-7.515
	h460.897c4.151,0,7.515,3.365,7.515,7.515v110.216C493.963,508.635,490.599,512,486.448,512z"/>
<path style="fill:#515760;" d="M486.448,386.754h-30.061c4.15,0,7.515,3.365,7.515,7.515v110.216c0,4.15-3.365,7.515-7.515,7.515
	h30.061c4.151,0,7.515-3.365,7.515-7.515V394.269C493.963,390.119,490.599,386.754,486.448,386.754z"/>
<path style="fill:#FFCE54;" d="M256,471.921c-12.43,0-22.544-10.113-22.544-22.544c0-12.431,10.114-22.544,22.544-22.544
	c12.43,0,22.544,10.113,22.544,22.544C278.544,461.808,268.43,471.921,256,471.921z"/>
<path style="fill:#AAB2BC;" d="M376.235,251.493H245.984c-4.15,0-7.515-3.365-7.515-7.515s3.365-7.515,7.515-7.515h130.251
	c4.151,0,7.515,3.365,7.515,7.515S380.386,251.493,376.235,251.493z"/>
<g>
	<path style="fill:#CCD1D9;" d="M165.827,336.661h-20.039c-4.151,0-7.515-3.365-7.515-7.515c0-4.15,3.364-7.515,7.515-7.515h20.039
		c4.151,0,7.515,3.365,7.515,7.515C173.341,333.296,169.977,336.661,165.827,336.661z"/>
	<path style="fill:#CCD1D9;" d="M215.923,336.661h-20.039c-4.151,0-7.515-3.365-7.515-7.515c0-4.15,3.364-7.515,7.515-7.515h20.039
		c4.151,0,7.515,3.365,7.515,7.515C223.438,333.296,220.074,336.661,215.923,336.661z"/>
	<path style="fill:#CCD1D9;" d="M266.02,336.661h-20.039c-4.151,0-7.515-3.365-7.515-7.515c0-4.15,3.364-7.515,7.515-7.515h20.039
		c4.151,0,7.515,3.365,7.515,7.515C273.534,333.296,270.171,336.661,266.02,336.661z"/>
	<path style="fill:#CCD1D9;" d="M316.116,336.661h-20.039c-4.151,0-7.515-3.365-7.515-7.515c0-4.15,3.364-7.515,7.515-7.515h20.039
		c4.151,0,7.515,3.365,7.515,7.515C323.631,333.296,320.267,336.661,316.116,336.661z"/>
	<path style="fill:#CCD1D9;" d="M366.212,336.661h-20.039c-4.15,0-7.515-3.365-7.515-7.515c0-4.15,3.365-7.515,7.515-7.515h20.039
		c4.151,0,7.515,3.365,7.515,7.515C373.727,333.296,370.363,336.661,366.212,336.661z"/>
	<path style="fill:#CCD1D9;" d="M165.827,366.718h-20.039c-4.151,0-7.515-3.365-7.515-7.515c0-4.15,3.364-7.515,7.515-7.515h20.039
		c4.151,0,7.515,3.365,7.515,7.515C173.341,363.354,169.977,366.718,165.827,366.718z"/>
	<path style="fill:#CCD1D9;" d="M215.923,366.718h-20.039c-4.151,0-7.515-3.365-7.515-7.515c0-4.15,3.364-7.515,7.515-7.515h20.039
		c4.151,0,7.515,3.365,7.515,7.515C223.438,363.354,220.074,366.718,215.923,366.718z"/>
	<path style="fill:#CCD1D9;" d="M266.02,366.718h-20.039c-4.151,0-7.515-3.365-7.515-7.515c0-4.15,3.364-7.515,7.515-7.515h20.039
		c4.151,0,7.515,3.365,7.515,7.515C273.534,363.354,270.171,366.718,266.02,366.718z"/>
	<path style="fill:#CCD1D9;" d="M316.116,366.718h-20.039c-4.151,0-7.515-3.365-7.515-7.515c0-4.15,3.364-7.515,7.515-7.515h20.039
		c4.151,0,7.515,3.365,7.515,7.515C323.631,363.354,320.267,366.718,316.116,366.718z"/>
	<path style="fill:#CCD1D9;" d="M366.212,366.718h-20.039c-4.15,0-7.515-3.365-7.515-7.515c0-4.15,3.365-7.515,7.515-7.515h20.039
		c4.151,0,7.515,3.365,7.515,7.515C373.727,363.354,370.363,366.718,366.212,366.718z"/>
</g>
<g>
	<path style="fill:#FFFFFF;" d="M165.827,331.65h-20.039c-4.151,0-7.515-3.365-7.515-7.515c0-4.15,3.364-7.515,7.515-7.515h20.039
		c4.151,0,7.515,3.365,7.515,7.515C173.341,328.286,169.977,331.65,165.827,331.65z"/>
	<path style="fill:#FFFFFF;" d="M215.923,331.65h-20.039c-4.151,0-7.515-3.365-7.515-7.515c0-4.15,3.364-7.515,7.515-7.515h20.039
		c4.151,0,7.515,3.365,7.515,7.515C223.438,328.286,220.074,331.65,215.923,331.65z"/>
	<path style="fill:#FFFFFF;" d="M266.02,331.65h-20.039c-4.151,0-7.515-3.365-7.515-7.515c0-4.15,3.364-7.515,7.515-7.515h20.039
		c4.151,0,7.515,3.365,7.515,7.515C273.534,328.286,270.171,331.65,266.02,331.65z"/>
	<path style="fill:#FFFFFF;" d="M316.116,331.65h-20.039c-4.151,0-7.515-3.365-7.515-7.515c0-4.15,3.364-7.515,7.515-7.515h20.039
		c4.151,0,7.515,3.365,7.515,7.515C323.631,328.286,320.267,331.65,316.116,331.65z"/>
	<path style="fill:#FFFFFF;" d="M366.212,331.65h-20.039c-4.15,0-7.515-3.365-7.515-7.515c0-4.15,3.365-7.515,7.515-7.515h20.039
		c4.151,0,7.515,3.365,7.515,7.515C373.727,328.286,370.363,331.65,366.212,331.65z"/>
	<path style="fill:#FFFFFF;" d="M165.827,361.708h-20.039c-4.151,0-7.515-3.365-7.515-7.515c0-4.15,3.364-7.515,7.515-7.515h20.039
		c4.151,0,7.515,3.365,7.515,7.515C173.341,358.343,169.977,361.708,165.827,361.708z"/>
	<path style="fill:#FFFFFF;" d="M215.923,361.708h-20.039c-4.151,0-7.515-3.365-7.515-7.515c0-4.15,3.364-7.515,7.515-7.515h20.039
		c4.151,0,7.515,3.365,7.515,7.515C223.438,358.343,220.074,361.708,215.923,361.708z"/>
	<path style="fill:#FFFFFF;" d="M266.02,361.708h-20.039c-4.151,0-7.515-3.365-7.515-7.515c0-4.15,3.364-7.515,7.515-7.515h20.039
		c4.151,0,7.515,3.365,7.515,7.515C273.534,358.343,270.171,361.708,266.02,361.708z"/>
	<path style="fill:#FFFFFF;" d="M316.116,361.708h-20.039c-4.151,0-7.515-3.365-7.515-7.515c0-4.15,3.364-7.515,7.515-7.515h20.039
		c4.151,0,7.515,3.365,7.515,7.515C323.631,358.343,320.267,361.708,316.116,361.708z"/>
	<path style="fill:#FFFFFF;" d="M366.212,361.708h-20.039c-4.15,0-7.515-3.365-7.515-7.515c0-4.15,3.365-7.515,7.515-7.515h20.039
		c4.151,0,7.515,3.365,7.515,7.515C373.727,358.343,370.363,361.708,366.212,361.708z"/>
</g>
<path style="fill:#AAB2BC;" d="M90.676,50.097c-4.151,0-7.515,3.365-7.515,7.515v17.534c0,8.296,6.723,15.029,15.029,15.029
	c8.296,0,15.029-6.733,15.029-15.029V50.097H90.676z"/>
<g>
</g>
<g>
</g>
<g>
</g>
<g>
</g>
<g>
</g>
<g>
</g>
<g>
</g>
<g>
</g>
<g>
</g>
<g>
</g>
<g>
</g>
<g>
</g>
<g>
</g>
<g>
</g>
<g>
</g>
</svg>
