<?xml version="1.0" encoding="iso-8859-1"?>
<!-- Generator: Adobe Illustrator 19.0.0, SVG Export Plug-In . SVG Version: 6.00 Build 0)  -->
<svg version="1.1" id="Capa_1" xmlns="http://www.w3.org/2000/svg" xmlns:xlink="http://www.w3.org/1999/xlink" x="0px" y="0px"
	 viewBox="0 0 512.002 512.002" style="enable-background:new 0 0 512.002 512.002;" xml:space="preserve">
<path style="fill:#FFCE54;" d="M428.515,265.788L412.07,128.723c-1.729-14.416-14.377-27.063-28.793-28.792L246.213,83.485
	c-1.398-0.167-2.871-0.252-4.378-0.253c-12.754,0-27.483,5.821-35.819,14.156L8.031,295.374C2.852,300.553,0,307.458,0,314.819
	s2.852,14.267,8.031,19.445l169.706,169.705c5.178,5.179,12.085,8.031,19.445,8.031c7.361,0,14.267-2.852,19.445-8.031
	l197.986-197.986C423.989,296.608,430.096,278.952,428.515,265.788z M324.46,209.419c-5.941,0-11.527-2.314-15.728-6.515
	c-8.671-8.672-8.671-22.783,0-31.455c4.202-4.202,9.788-6.515,15.728-6.515c5.941,0,11.527,2.313,15.728,6.514
	c4.201,4.201,6.515,9.787,6.515,15.729c0,5.941-2.314,11.527-6.516,15.728C335.987,207.106,330.402,209.419,324.46,209.419z"/>
<path style="fill:#F6BB42;" d="M428.515,265.788L412.07,128.723c-1.67-13.92-13.524-26.159-27.315-28.545l15.473,151.466
	c1.581,13.164-4.526,30.82-13.902,40.196L195.412,482.755c-5.178,5.179-12.085,8.031-19.445,8.031
	c-7.361,0-14.267-2.852-19.445-8.031L8.031,334.265l0,0L177.737,503.97c5.178,5.179,12.085,8.031,19.445,8.031
	c7.361,0,14.267-2.852,19.445-8.031l197.986-197.986C423.989,296.608,430.096,278.952,428.515,265.788z"/>
<path style="fill:#E6E9ED;" d="M361.703,187.177c0-9.948-3.875-19.3-10.909-26.335c-7.035-7.034-16.386-10.908-26.334-10.908
	s-19.3,3.874-26.335,10.908c-14.52,14.521-14.52,38.149,0,52.669c7.035,7.035,16.387,10.909,26.335,10.909
	s19.301-3.874,26.334-10.908C357.829,206.478,361.703,197.125,361.703,187.177z M324.46,209.419c-5.941,0-11.527-2.314-15.728-6.515
	c-8.671-8.672-8.671-22.783,0-31.455c4.202-4.202,9.788-6.515,15.728-6.515c5.941,0,11.527,2.313,15.728,6.514
	c4.201,4.201,6.515,9.787,6.515,15.729c0,5.941-2.314,11.527-6.516,15.728C335.987,207.106,330.402,209.419,324.46,209.419z"/>
<g>
	<path style="fill:#ED5565;" d="M147.685,302.823c-10.017,0-19.434-3.901-26.518-10.984c-14.621-14.621-14.621-38.411,0.001-53.034
		c7.083-7.083,16.5-10.982,26.517-10.982c10.016,0,19.433,3.9,26.516,10.982c7.083,7.083,10.984,16.501,10.984,26.517
		c-0.001,10.017-3.901,19.435-10.985,26.517C167.119,298.921,157.702,302.823,147.685,302.823z M147.685,242.823
		c-6.01,0-11.66,2.339-15.91,6.589c-8.773,8.773-8.773,23.048-0.001,31.82c4.251,4.25,9.901,6.591,15.912,6.591
		c6.009,0,11.659-2.341,15.908-6.59c4.251-4.251,6.591-9.9,6.591-15.911c0.001-6.01-2.34-11.66-6.59-15.91
		C159.345,245.162,153.694,242.823,147.685,242.823z"/>
	<path style="fill:#ED5565;" d="M246.678,401.816c-10.016,0-19.433-3.901-26.516-10.983c-14.621-14.62-14.621-38.411-0.001-53.033
		c7.083-7.083,16.5-10.983,26.517-10.983s19.434,3.9,26.517,10.984c7.082,7.082,10.984,16.5,10.984,26.516
		c0,10.017-3.901,19.434-10.984,26.516C266.113,397.916,256.695,401.816,246.678,401.816z M246.679,341.816
		c-6.01,0-11.66,2.341-15.91,6.589c-8.772,8.774-8.772,23.048,0,31.821c4.249,4.249,9.899,6.59,15.909,6.59
		s11.661-2.341,15.911-6.59c4.25-4.25,6.59-9.9,6.59-15.909c0-6.011-2.341-11.661-6.59-15.911
		C258.339,344.157,252.689,341.816,246.679,341.816z"/>
	<path style="fill:#ED5565;" d="M126.471,393.029c-1.919,0-3.839-0.732-5.304-2.197c-2.929-2.929-2.929-7.678,0-10.606
		l141.421-141.422c2.929-2.929,7.678-2.929,10.606,0c2.929,2.929,2.929,7.678,0,10.607L131.773,390.832
		C130.31,392.297,128.39,393.029,126.471,393.029z"/>
	<path style="fill:#ED5565;" d="M369.193,98.241c5.587-6.508,11.555-12.95,17.851-19.246c21.607-21.607,55.09-49.447,73.811-57.922
		c15.415-6.98,27.723-8.044,32.92-2.846c5.197,5.198,4.133,17.504-2.846,32.92c-8.476,18.721-36.316,52.204-57.923,73.811
		c-22.11,22.11-45.668,39.977-66.334,50.31c-20.892,10.447-32.555,9.899-36.196,6.259c-2.929-2.929-7.678-2.929-10.606,0
		c-2.929,2.929-2.929,7.677,0,10.606c3.676,3.676,9.485,6.832,18.606,6.831c8.469-0.001,19.793-2.723,34.905-10.279
		c22.071-11.036,47.013-29.9,70.233-53.12c23.184-23.184,51.646-57.611,60.982-78.231c9.948-21.974,9.872-39.629-0.212-49.713
		c-10.084-10.085-27.74-10.16-49.713-0.213c-20.621,9.336-55.047,37.798-78.232,60.982c-9.014,9.015-17.402,18.325-24.993,27.722
		L369.193,98.241z"/>
</g>
<g>
</g>
<g>
</g>
<g>
</g>
<g>
</g>
<g>
</g>
<g>
</g>
<g>
</g>
<g>
</g>
<g>
</g>
<g>
</g>
<g>
</g>
<g>
</g>
<g>
</g>
<g>
</g>
<g>
</g>
</svg>
