<?xml version="1.0" encoding="iso-8859-1"?>
<!-- Generator: Adobe Illustrator 19.0.0, SVG Export Plug-In . SVG Version: 6.00 Build 0)  -->
<svg version="1.1" id="Capa_1" xmlns="http://www.w3.org/2000/svg" xmlns:xlink="http://www.w3.org/1999/xlink" x="0px" y="0px"
	 viewBox="0 0 512.001 512.001" style="enable-background:new 0 0 512.001 512.001;" xml:space="preserve">
<g>
	<path style="fill:#CCD1D9;" d="M248.555,240.995h-12.752H7.502c-4.144,0-7.502,3.359-7.502,7.502V428.54
		c0,4.143,3.358,7.502,7.502,7.502h241.053c4.144,0,7.502-3.359,7.502-7.502V252.061v-3.565v-7.502L248.555,240.995L248.555,240.995
		z"/>
	<path style="fill:#CCD1D9;" d="M504.498,45.949H263.562c-4.144,0-7.502,3.359-7.502,7.502v147.787h-0.003l0.003,39.758h248.438
		c4.144,0,7.502-3.359,7.502-7.502V53.451C512,49.307,508.641,45.949,504.498,45.949z"/>
</g>
<path style="fill:#AAB2BC;" d="M504.498,45.949h-30.01c4.144,0,7.502,3.359,7.502,7.502v180.043c0,4.143-3.358,7.502-7.502,7.502
	h30.01c4.144,0,7.502-3.359,7.502-7.502V53.451C512,49.307,508.641,45.949,504.498,45.949z"/>
<path style="fill:#656D78;" d="M504.498,240.995H288.565h-25.003h-7.502v7.502v24.175v155.869c0,4.143,3.358,7.502,7.502,7.502
	h240.936c4.144,0,7.502-3.359,7.502-7.502V248.496C512,244.353,508.641,240.995,504.498,240.995z"/>
<path style="fill:#AAB2BC;" d="M248.555,45.949H7.502C3.358,45.949,0,49.308,0,53.451v180.043c0,4.143,3.358,7.502,7.502,7.502
	h241.053c0.003,0,0.007-0.001,0.01-0.001h7.492v-7.501v-35.007V53.451C256.056,49.307,252.699,45.949,248.555,45.949z"/>
<path style="fill:#656D78;" d="M77.519,148.468c0-12.41-10.096-22.505-22.505-22.505s-22.505,10.095-22.505,22.505
	c0,9.779,6.272,18.118,15.003,21.215v13.793c0,4.143,3.358,7.502,7.502,7.502s7.502-3.359,7.502-7.502v-13.793
	C71.246,166.587,77.519,158.248,77.519,148.468z"/>
<path style="fill:#838A93;" d="M218.546,109.298c-4.144,0-7.502-3.359-7.502-7.502V83.46c0-4.143,3.358-7.502,7.502-7.502
	s7.502,3.359,7.502,7.502v18.337C226.048,105.941,222.69,109.298,218.546,109.298z"/>
<path style="fill:#E6E9ED;" d="M454.489,466.052c-1.273,0-2.549-0.324-3.696-0.974c-2.353-1.331-3.806-3.825-3.806-6.527V218.487
	c0-2.703,1.453-5.196,3.806-6.527c2.352-1.332,5.239-1.295,7.557,0.095l50.009,30.01c2.26,1.355,3.642,3.798,3.642,6.432v180.044
	c0,2.635-1.382,5.077-3.642,6.432l-50.009,30.01C457.162,465.695,455.826,466.052,454.489,466.052z"/>
<path style="fill:#656D78;" d="M75.02,343.516c0-12.41-10.096-22.505-22.505-22.505S30.01,331.106,30.01,343.516
	c0,9.779,6.272,18.118,15.003,21.215v13.793c0,4.143,3.359,7.502,7.502,7.502c4.144,0,7.502-3.359,7.502-7.502v-13.793
	C68.748,361.634,75.02,353.295,75.02,343.516z"/>
<g>
	<path style="fill:#AAB2BC;" d="M218.545,304.345c-4.144,0-7.502-3.359-7.502-7.502v-18.337c0-4.143,3.358-7.502,7.502-7.502
		s7.502,3.359,7.502,7.502v18.337C226.047,300.987,222.689,304.345,218.545,304.345z"/>
	<path style="fill:#AAB2BC;" d="M188.537,304.345c-4.144,0-7.502-3.359-7.502-7.502v-18.337c0-4.143,3.358-7.502,7.502-7.502
		s7.502,3.359,7.502,7.502v18.337C196.039,300.987,192.681,304.345,188.537,304.345z"/>
	<path style="fill:#AAB2BC;" d="M158.531,304.345c-4.144,0-7.502-3.359-7.502-7.502v-18.337c0-4.143,3.358-7.502,7.502-7.502
		s7.502,3.359,7.502,7.502v18.337C166.033,300.987,162.675,304.345,158.531,304.345z"/>
</g>
<path style="fill:#656D78;" d="M331.077,148.469c0-12.41-10.096-22.505-22.505-22.505s-22.505,10.095-22.505,22.505
	c0,9.779,6.272,18.118,15.003,21.215v13.793c0,4.143,3.358,7.502,7.502,7.502s7.502-3.359,7.502-7.502v-13.793
	C324.804,166.587,331.077,158.249,331.077,148.469z"/>
<g>
	<path style="fill:#AAB2BC;" d="M474.484,109.299c-4.144,0-7.502-3.359-7.502-7.502V83.461c0-4.143,3.358-7.502,7.502-7.502
		s7.502,3.359,7.502,7.502v18.337C481.986,105.941,478.628,109.299,474.484,109.299z"/>
	<path style="fill:#AAB2BC;" d="M444.479,109.299c-4.144,0-7.502-3.359-7.502-7.502V83.461c0-4.143,3.358-7.502,7.502-7.502
		c4.143,0,7.502,3.359,7.502,7.502v18.337C451.98,105.941,448.622,109.299,444.479,109.299z"/>
</g>
<path style="fill:#48CFAD;" d="M323.573,416.038h-40.009c-4.144,0-7.502-3.359-7.502-7.502V298.511c0-4.143,3.358-7.502,7.502-7.502
	h40.009c4.144,0,7.502,3.359,7.502,7.502v110.025C331.075,412.68,327.717,416.038,323.573,416.038z"/>
<path style="fill:#AC92EC;" d="M413.597,331.018h-82.523v77.518c0,4.143-3.358,7.502-7.502,7.502h90.025
	c4.144,0,7.502-3.359,7.502-7.502V338.52C421.099,334.377,417.741,331.018,413.597,331.018z"/>
<path style="fill:#CCD1D9;" d="M508.358,242.065l-26.368-15.823v224.555l26.368-15.823c2.26-1.355,3.642-3.798,3.642-6.432V248.497
	C512,245.863,510.618,243.42,508.358,242.065z"/>
<g>
</g>
<g>
</g>
<g>
</g>
<g>
</g>
<g>
</g>
<g>
</g>
<g>
</g>
<g>
</g>
<g>
</g>
<g>
</g>
<g>
</g>
<g>
</g>
<g>
</g>
<g>
</g>
<g>
</g>
</svg>
