<?xml version="1.0" encoding="iso-8859-1"?>
<!-- Generator: Adobe Illustrator 19.0.0, SVG Export Plug-In . SVG Version: 6.00 Build 0)  -->
<svg version="1.1" id="Capa_1" xmlns="http://www.w3.org/2000/svg" xmlns:xlink="http://www.w3.org/1999/xlink" x="0px" y="0px"
	 viewBox="0 0 512 512" style="enable-background:new 0 0 512 512;" xml:space="preserve">
<path style="fill:#DCA746;" d="M88.502,171.026c0-0.005-0.001-0.011-0.001-0.016c0-4.136,3.364-7.5,7.5-7.5s7.5,3.364,7.5,7.5
	c0,0.005-0.001,0.011-0.001,0.016h15.001c0-0.005,0-0.011,0-0.016c0-12.407-10.094-22.5-22.5-22.5s-22.5,10.093-22.5,22.5
	c0,0.005,0,0.011,0,0.016H88.502z"/>
<path style="fill:#F6BB42;" d="M96.001,163.511c-12.406,0-22.5-10.093-22.5-22.5s10.094-22.5,22.5-22.5s22.5,10.093,22.5,22.5
	C118.501,153.419,108.407,163.511,96.001,163.511z M96.001,133.511c-4.136,0-7.5,3.364-7.5,7.5s3.364,7.5,7.5,7.5s7.5-3.364,7.5-7.5
	C103.501,136.876,100.137,133.511,96.001,133.511z"/>
<path style="fill:#FFCE54;" d="M103.5,110.995c0,0.005,0.001,0.011,0.001,0.016c0,4.136-3.364,7.5-7.5,7.5s-7.5-3.364-7.5-7.5
	c0-0.005,0.001-0.011,0.001-0.016H73.501c0,0.005,0,0.011,0,0.016c0,12.407,10.094,22.5,22.5,22.5s22.5-10.093,22.5-22.5
	c0-0.005,0-0.011,0-0.016C118.501,110.995,103.5,110.995,103.5,110.995z"/>
<path style="fill:#DCA746;" d="M358.503,171.026c0-0.005-0.001-0.011-0.001-0.016c0-4.136,3.364-7.5,7.5-7.5s7.5,3.364,7.5,7.5
	c0,0.005-0.001,0.011-0.001,0.016h15.001c0-0.005,0-0.011,0-0.016c0-12.407-10.094-22.5-22.5-22.5s-22.5,10.093-22.5,22.5
	c0,0.005,0,0.011,0,0.016H358.503z"/>
<path style="fill:#A35D5D;" d="M426.31,193.195c-1.399-1.4-3.33-2.2-5.3-2.2c-6.88-0.02-12.49-5.62-12.51-12.5
	c0-1.98-0.8-3.91-2.19-5.31c-1.399-1.39-3.33-2.19-5.3-2.19H61c-1.97,0-3.9,0.8-5.3,2.19c-1.4,1.4-2.2,3.33-2.2,5.31
	c-0.01,6.88-5.62,12.48-12.5,12.5c-1.98,0-3.91,0.8-5.31,2.2c-1.39,1.39-2.19,3.32-2.19,5.3v123.748v4.812v111.44
	c0,1.98,0.8,3.91,2.19,5.3c1.4,1.4,3.33,2.2,5.31,2.2c6.88,0.01,12.48,5.62,12.5,12.51c0,1.97,0.8,3.9,2.19,5.3
	c1.4,1.4,3.33,2.2,5.31,2.2h340.01c1.97,0,3.9-0.8,5.3-2.2c1.391-1.39,2.19-3.33,2.19-5.31c0.02-6.88,5.63-12.49,12.51-12.5
	c1.97,0,3.91-0.8,5.3-2.2c1.391-1.39,2.2-3.32,2.2-5.3v-240C428.51,196.516,427.7,194.585,426.31,193.195z"/>
<path style="fill:#F6BB42;" d="M366.002,163.511c-12.406,0-22.5-10.093-22.5-22.5s10.094-22.5,22.5-22.5s22.5,10.093,22.5,22.5
	C388.502,153.419,378.408,163.511,366.002,163.511z M366.002,133.511c-4.136,0-7.5,3.364-7.5,7.5s3.364,7.5,7.5,7.5
	s7.5-3.364,7.5-7.5C373.502,136.876,370.138,133.511,366.002,133.511z"/>
<path style="fill:#E6E9ED;" d="M469.5,130.994c-23.435,0-42.5-19.065-42.5-42.5s19.065-42.5,42.5-42.5s42.5,19.065,42.5,42.5
	C512,111.928,492.935,130.994,469.5,130.994z"/>
<path style="fill:#CCD1D9;" d="M427,88.494c0-8.259,2.376-15.969,6.468-22.499H7.5c-4.142,0-7.5,3.358-7.5,7.5v30
	c0,4.142,3.358,7.5,7.5,7.5h425.97C429.376,104.464,427,96.753,427,88.494z"/>
<path style="fill:#FFCE54;" d="M373.501,110.995c0,0.005,0.001,0.011,0.001,0.016c0,4.136-3.364,7.5-7.5,7.5s-7.5-3.364-7.5-7.5
	c0-0.005,0.001-0.011,0.001-0.016h-15.001c0,0.005,0,0.011,0,0.016c0,12.407,10.094,22.5,22.5,22.5s22.5-10.093,22.5-22.5
	c0-0.005,0-0.011,0-0.016C388.502,110.995,373.501,110.995,373.501,110.995z"/>
<path style="fill:#774346;" d="M421.01,190.995c-6.88-0.02-12.49-5.62-12.51-12.5c0-1.98-0.8-3.91-2.19-5.31
	c-1.399-1.39-3.33-2.19-5.3-2.19h-2.5v295.01h2.5c1.97,0,3.9-0.8,5.3-2.2c1.391-1.39,2.19-3.33,2.19-5.31
	c0.02-6.88,5.63-12.49,12.51-12.5c1.97,0,3.91-0.8,5.3-2.2c1.391-1.39,2.2-3.32,2.2-5.3v-240c0-1.98-0.81-3.91-2.2-5.3
	C424.91,191.794,422.979,190.995,421.01,190.995z"/>
<path style="fill:#FFCE54;" d="M241.006,406H101.004c-4.143,0-7.5-3.358-7.5-7.5V238.496c0-4.142,3.357-7.5,7.5-7.5h140.002
	c4.143,0,7.5,3.358,7.5,7.5V398.5C248.506,402.643,245.148,406,241.006,406z"/>
<path style="fill:#F6BB42;" d="M281.004,230.996h-39.998c4.143,0,7.5,3.358,7.5,7.5V398.5c0,4.142-3.357,7.5-7.5,7.5h39.998
	c4.143,0,7.5-3.358,7.5-7.5V238.496C288.504,234.354,285.146,230.996,281.004,230.996z"/>
<path style="fill:#656D78;" d="M170.99,305.997c-20.677,0-37.498-16.822-37.498-37.5c0-4.142,3.357-7.5,7.5-7.5s7.5,3.358,7.5,7.5
	c0,12.407,10.093,22.5,22.498,22.5c12.406,0,22.5-10.093,22.5-22.5c0-4.142,3.357-7.5,7.5-7.5s7.5,3.358,7.5,7.5
	C208.49,289.174,191.668,305.997,170.99,305.997z"/>
<path style="fill:#ED5565;" d="M331.006,260.997h-42.502V398.5c0,4.142-3.357,7.5-7.5,7.5h50.002c4.143,0,7.5-3.358,7.5-7.5V268.497
	C338.506,264.354,335.148,260.997,331.006,260.997z"/>
<path style="fill:#DA4453;" d="M361.006,260.997h-30c4.143,0,7.5,3.358,7.5,7.5V398.5c0,4.142-3.357,7.5-7.5,7.5h30
	c4.143,0,7.5-3.358,7.5-7.5V268.497C368.506,264.354,365.148,260.997,361.006,260.997z"/>
<g>
</g>
<g>
</g>
<g>
</g>
<g>
</g>
<g>
</g>
<g>
</g>
<g>
</g>
<g>
</g>
<g>
</g>
<g>
</g>
<g>
</g>
<g>
</g>
<g>
</g>
<g>
</g>
<g>
</g>
</svg>
