<?xml version="1.0" encoding="iso-8859-1"?>
<!-- Generator: Adobe Illustrator 19.0.0, SVG Export Plug-In . SVG Version: 6.00 Build 0)  -->
<svg version="1.1" id="Capa_1" xmlns="http://www.w3.org/2000/svg" xmlns:xlink="http://www.w3.org/1999/xlink" x="0px" y="0px"
	 viewBox="0 0 512 512" style="enable-background:new 0 0 512 512;" xml:space="preserve">
<path style="fill:#FFCE54;" d="M464.5,83.5h-417C21.34,83.53,0.03,104.84,0,131v250c0.03,26.16,21.34,47.47,47.5,47.5h92.819h10.004
	H464.5c26.16-0.03,47.47-21.34,47.5-47.5V131C511.97,104.84,490.66,83.53,464.5,83.5z"/>
<path style="fill:#F6BB42;" d="M464.5,83.5h-30.003c26.16,0.03,47.47,21.34,47.5,47.5v250c-0.03,26.16-21.34,47.47-47.5,47.5H464.5
	c26.16-0.03,47.47-21.34,47.5-47.5V131C511.97,104.84,490.66,83.53,464.5,83.5z"/>
<rect y="133.5" style="fill:#7A8087;" width="512" height="105"/>
<g>
	<path style="fill:#ED5565;" d="M82.502,328.502c-12.406,0-22.5-10.093-22.5-22.5s10.094-22.5,22.5-22.5s22.5,10.093,22.5,22.5
		C105.002,318.409,94.908,328.502,82.502,328.502z M82.502,298.502c-4.136,0-7.5,3.364-7.5,7.5s3.364,7.5,7.5,7.5s7.5-3.364,7.5-7.5
		C90.002,301.867,86.638,298.502,82.502,298.502z"/>
	<path style="fill:#ED5565;" d="M142.502,388.502c-12.406,0-22.5-10.093-22.5-22.5s10.094-22.5,22.5-22.5s22.5,10.093,22.5,22.5
		C165.002,378.409,154.908,388.502,142.502,388.502z M142.502,358.502c-4.136,0-7.5,3.364-7.5,7.5s3.364,7.5,7.5,7.5
		s7.5-3.364,7.5-7.5C150.002,361.867,146.638,358.502,142.502,358.502z"/>
	<path style="fill:#ED5565;" d="M67.501,388.502c-1.92,0-3.839-0.732-5.304-2.197c-2.929-2.929-2.929-7.678,0-10.606l90.001-90
		c2.931-2.93,7.679-2.929,10.607,0c2.929,2.929,2.929,7.678,0,10.607l-90.001,89.999C71.34,387.77,69.42,388.502,67.501,388.502z"/>
	<path style="fill:#ED5565;" d="M444.498,318.501H224.502c-4.143,0-7.5-3.358-7.5-7.5s3.357-7.5,7.5-7.5h219.996
		c4.143,0,7.5,3.358,7.5,7.5S448.641,318.501,444.498,318.501z"/>
	<path style="fill:#ED5565;" d="M334.5,358.502H224.502c-4.143,0-7.5-3.358-7.5-7.5s3.357-7.5,7.5-7.5H334.5
		c4.143,0,7.5,3.358,7.5,7.5S338.643,358.502,334.5,358.502z"/>
</g>
<g>
	<path style="fill:#656D78;" d="M512,193.501H384.5c-4.143,0-7.5,3.358-7.5,7.5s3.357,7.5,7.5,7.5H512V193.501z"/>
	<path style="fill:#656D78;" d="M137.5,163.498H0v15h137.5c4.143,0,7.5-3.358,7.5-7.5S141.643,163.498,137.5,163.498z"/>
</g>
<rect x="482" y="133.5" style="fill:#515760;" width="30" height="105"/>
<g>
</g>
<g>
</g>
<g>
</g>
<g>
</g>
<g>
</g>
<g>
</g>
<g>
</g>
<g>
</g>
<g>
</g>
<g>
</g>
<g>
</g>
<g>
</g>
<g>
</g>
<g>
</g>
<g>
</g>
</svg>
