<?xml version="1.0" encoding="iso-8859-1"?>
<!-- Generator: Adobe Illustrator 19.0.0, SVG Export Plug-In . SVG Version: 6.00 Build 0)  -->
<svg version="1.1" id="Capa_1" xmlns="http://www.w3.org/2000/svg" xmlns:xlink="http://www.w3.org/1999/xlink" x="0px" y="0px"
	 viewBox="0 0 512 512" style="enable-background:new 0 0 512 512;" xml:space="preserve">
<path style="fill:#515760;" d="M394.059,172.97L283.499,62.412c-0.187-0.187-0.36-0.38-0.523-0.581
	c-3.903-4.179-6.065-9.583-6.065-15.33c0-6.009,2.34-11.659,6.59-15.908c8.588-8.589,22.438-8.746,31.246-0.516
	c0.197,0.161,0.388,0.332,0.571,0.516L457.695,172.97H394.059z"/>
<path style="fill:#DA4453;" d="M40.001,250.471c0,0.002-0.001,0.005-0.001,0.007v169.99c0,0.005,0.001,0.009,0.001,0.014
	c0.005,37.216,30.283,67.492,67.5,67.492l0,0h0.001H404.5c37.22,0,67.5-30.28,67.5-67.5v-169.96c0-0.013,0.002-0.025,0.002-0.039
	c0-12.407,10.094-22.5,22.5-22.5l-22.835-5.001H44.333l-26.832,5.001C29.906,227.975,39.998,238.067,40.001,250.471z"/>
<path style="fill:#CE3A50;" d="M463.502,227.975c-12.406,0-22.5,10.093-22.5,22.5c0,0.013-0.002,0.025-0.002,0.039v169.96
	c0,37.22-30.281,67.5-67.5,67.5h31c37.22,0,67.5-30.28,67.5-67.5v-169.96c0-0.013,0.002-0.025,0.002-0.039
	c0-12.407,10.094-22.5,22.5-22.5L463.502,227.975L463.502,227.975z"/>
<g>
	<path style="fill:#BC334D;" d="M278.494,285.319c-0.085-12.333-10.141-22.342-22.493-22.342c-12.405,0-22.498,10.093-22.498,22.498
		v129.999c0,12.407,10.093,22.5,22.5,22.5c12.406,0,22.499-10.093,22.499-22.5v-130
		C278.502,285.422,278.495,285.371,278.494,285.319z"/>
	<path style="fill:#BC334D;" d="M188.493,285.319c-0.085-12.333-10.141-22.342-22.493-22.342c-12.405,0-22.498,10.093-22.498,22.498
		v129.999c0,12.407,10.093,22.5,22.5,22.5c12.406,0,22.499-10.093,22.499-22.5v-130
		C188.501,285.422,188.494,285.371,188.493,285.319z"/>
	<path style="fill:#BC334D;" d="M368.492,285.319c-0.086-12.333-10.141-22.342-22.494-22.342c-12.405,0-22.498,10.093-22.498,22.498
		v129.999c0,12.407,10.094,22.5,22.5,22.5s22.5-10.093,22.5-22.5v-130C368.5,285.422,368.492,285.371,368.492,285.319z"/>
</g>
<path style="fill:#ED5565;" d="M504.5,227.975H7.5c-4.143,0-7.5-3.358-7.5-7.5V180.47c0-4.142,3.357-7.5,7.5-7.5h497
	c4.143,0,7.5,3.358,7.5,7.5v40.005C512,224.617,508.643,227.975,504.5,227.975z"/>
<path style="fill:#DA4453;" d="M504.5,172.97h-30.003c4.142,0,7.5,3.358,7.5,7.5v40.005c0,4.142-3.358,7.5-7.5,7.5H504.5
	c4.143,0,7.5-3.358,7.5-7.5V180.47C512,176.328,508.643,172.97,504.5,172.97z"/>
<path style="fill:#656D78;" d="M117.896,172.97l110.56-110.558c0.187-0.187,0.36-0.38,0.523-0.581
	c3.903-4.179,6.064-9.583,6.064-15.33c0-6.009-2.34-11.659-6.59-15.908c-8.588-8.589-22.436-8.746-31.246-0.516
	c-0.197,0.161-0.388,0.332-0.571,0.516L54.26,172.97H117.896z"/>
<g>
</g>
<g>
</g>
<g>
</g>
<g>
</g>
<g>
</g>
<g>
</g>
<g>
</g>
<g>
</g>
<g>
</g>
<g>
</g>
<g>
</g>
<g>
</g>
<g>
</g>
<g>
</g>
<g>
</g>
</svg>
