<?xml version="1.0" encoding="iso-8859-1"?>
<!-- Generator: Adobe Illustrator 19.0.0, SVG Export Plug-In . SVG Version: 6.00 Build 0)  -->
<svg version="1.1" id="Capa_1" xmlns="http://www.w3.org/2000/svg" xmlns:xlink="http://www.w3.org/1999/xlink" x="0px" y="0px"
	 viewBox="0 0 512 512" style="enable-background:new 0 0 512 512;" xml:space="preserve">
<path style="fill:#967ADC;" d="M80.156,129.245H7.515c-4.15,0-7.515,3.365-7.515,7.515v359.719c0,4.15,3.365,7.515,7.515,7.515
	h72.641V129.245z"/>
<path style="fill:#AC92EC;" d="M375.747,496.363V136.76c0-4.15-3.365-7.515-7.515-7.515H113.066h-25.38h-7.53v374.749h7.53h25.38
	h255.172c4.15,0,7.515-3.365,7.515-7.515C375.753,496.44,375.747,496.402,375.747,496.363z"/>
<path style="fill:#967ADC;" d="M375.747,496.363V136.76c0-4.15-3.365-7.515-7.515-7.515H338.17c4.15,0,7.515,3.365,7.515,7.515
	v359.603c0,0.039,0.006,0.077,0.006,0.116c0,4.15-3.365,7.515-7.515,7.515h30.062c4.15,0,7.515-3.365,7.515-7.515
	C375.753,496.44,375.747,496.402,375.747,496.363z"/>
<path style="fill:#515760;" d="M80.157,129.245h7.529h7.501V75.642c0-0.005-0.001-0.009-0.001-0.014
	c0.006-29.001,23.602-52.594,52.604-52.594s52.599,23.593,52.605,52.594c0,0.004-0.001,0.009-0.001,0.014v53.604h15.03V75.659
	c0-0.007,0.001-0.013,0.001-0.02c0-37.294-30.341-67.635-67.635-67.635S80.156,38.346,80.156,75.639c0,0.006,0.001,0.013,0.001,0.02
	V129.245z"/>
<path style="fill:#656D78;" d="M295.59,75.587c-0.029-37.27-30.357-67.581-67.633-67.581c-37.294,0-67.635,30.341-67.635,67.635
	c0,0.023,0.003,0.045,0.003,0.068v110.153c0,4.148,3.367,7.515,7.515,7.515c4.138,0,7.515-3.367,7.515-7.515V75.643
	c0-0.016-0.002-0.03-0.002-0.046c0.024-28.986,23.612-52.562,52.604-52.562c29.006,0,52.605,23.599,52.605,52.605
	c0,0.01,0.001,0.019,0.001,0.029v110.192c0,4.148,3.367,7.515,7.515,7.515c4.138,0,7.515-3.367,7.515-7.515V75.643
	C295.593,75.623,295.59,75.605,295.59,75.587z"/>
<path style="fill:#FFCE54;" d="M504.485,353.698H243.973c-4.15,0-7.515-3.365-7.515-7.515v-60.119c0-4.15,3.365-7.515,7.515-7.515
	h260.512c4.15,0,7.515,3.365,7.515,7.515v60.119C512,350.334,508.635,353.698,504.485,353.698z"/>
<g>
	<path style="fill:#F6BB42;" d="M504.485,278.55h-30.062c4.15,0,7.515,3.365,7.515,7.515v60.119c0,4.15-3.365,7.515-7.515,7.515
		h30.062c4.15,0,7.515-3.365,7.515-7.515v-60.119C512,281.915,508.635,278.55,504.485,278.55z"/>
	<path style="fill:#F6BB42;" d="M256.497,353.698v142.781c0,4.15,3.365,7.515,7.515,7.515h220.433c4.15,0,7.515-3.365,7.515-7.515
		V353.698H256.497z"/>
</g>
<path style="fill:#DCA746;" d="M461.898,353.698v142.781c0,4.15-3.365,7.515-7.515,7.515h30.062c4.15,0,7.515-3.365,7.515-7.515
	V353.698H461.898z"/>
<rect x="326.635" y="353.698" style="fill:#DA4453;" width="95.188" height="150.297"/>
<path style="fill:#ED5565;" d="M421.823,286.085c0-0.006,0.001-0.012,0.001-0.019c0-26.287-21.31-47.597-47.597-47.597
	c-26.287,0-47.597,21.31-47.597,47.597c0,0.065,0.004,0.128,0.005,0.193v67.439h95.192v-67.614H421.823z"/>
<path style="fill:#CE3A50;" d="M421.224,278.529h0.6v0.021h39.944c6.327-7.433,10.156-17.054,10.156-27.556
	c0-23.481-19.103-42.584-42.584-42.584c-27.387,0-43.136,17.417-49.678,30.38C400.866,241.212,417.88,257.614,421.224,278.529z"/>
<path style="fill:#DA4453;" d="M326.634,278.55v-0.021h0.598c3.343-20.915,20.359-37.318,41.563-39.739
	c-6.541-12.963-22.291-30.38-49.679-30.38c-23.481,0-42.584,19.103-42.584,42.584c0,10.503,3.83,20.123,10.156,27.556
	L326.634,278.55L326.634,278.55z"/>
<path style="fill:#7E64CC;" d="M40.078,129.245H7.515c-4.15,0-7.515,3.365-7.515,7.515v359.719c0,4.15,3.365,7.515,7.515,7.515
	h32.563V129.245z"/>
<path style="fill:#6755B7;" d="M7.515,503.994h72.641v-0.026l-34.765-34.767c-0.67-0.67-1.438-1.179-2.254-1.544
	c-0.077-0.034-0.152-0.075-0.23-0.107c-0.587-0.237-1.199-0.391-1.819-0.474c-0.335-0.045-0.671-0.076-1.009-0.076
	c-0.066,0-0.131,0.007-0.196,0.009c-0.415,0.011-0.83,0.049-1.238,0.128c-0.052,0.01-0.104,0.027-0.155,0.038
	c-0.656,0.141-1.298,0.366-1.904,0.684c-0.067,0.036-0.13,0.079-0.197,0.117c-0.58,0.328-1.128,0.731-1.622,1.224L2.188,501.78
	C3.549,503.148,5.433,503.994,7.515,503.994z"/>
<g>
</g>
<g>
</g>
<g>
</g>
<g>
</g>
<g>
</g>
<g>
</g>
<g>
</g>
<g>
</g>
<g>
</g>
<g>
</g>
<g>
</g>
<g>
</g>
<g>
</g>
<g>
</g>
<g>
</g>
</svg>
