<?xml version="1.0" encoding="iso-8859-1"?>
<!-- Generator: Adobe Illustrator 19.0.0, SVG Export Plug-In . SVG Version: 6.00 Build 0)  -->
<svg version="1.1" id="Capa_1" xmlns="http://www.w3.org/2000/svg" xmlns:xlink="http://www.w3.org/1999/xlink" x="0px" y="0px"
	 viewBox="0 0 512.001 512.001" style="enable-background:new 0 0 512.001 512.001;" xml:space="preserve">
<path style="fill:#CE3A50;" d="M504.504,403.427h-89.956c-1.988,0-3.895-0.79-5.301-2.196l-4.694-4.695l-4.696,4.695
	c-1.405,1.406-3.312,2.196-5.3,2.196H7.496c-4.14,0-7.496-3.356-7.496-7.496V196.027c0-4.14,3.356-7.496,7.496-7.496h387.062
	c1.988,0,3.895,0.79,5.301,2.196l4.694,4.695l4.694-4.695c1.406-1.406,3.312-2.196,5.301-2.196h89.955
	c4.14,0,7.496,3.356,7.496,7.496v199.904C512,400.071,508.644,403.427,504.504,403.427z"/>
<path style="fill:#DCA746;" d="M504.504,188.531h-89.955c-1.988,0-3.894,0.79-5.301,2.196l-4.694,4.695l-0.001-0.001v201.116
	l4.694,4.695c1.405,1.406,3.313,2.196,5.301,2.196h89.956c4.14,0,7.496-3.356,7.496-7.496V196.027
	C512,191.888,508.644,188.531,504.504,188.531z"/>
<path style="fill:#CE953C;" d="M504.504,188.532h-29.987c4.141,0,7.496,3.356,7.496,7.496v199.904c0,4.14-3.355,7.496-7.496,7.496
	h29.988c4.14,0,7.496-3.356,7.496-7.496V196.029C512,191.889,508.644,188.532,504.504,188.532z"/>
<path style="fill:#DA4453;" d="M504.504,363.448h-89.956c-1.988,0-3.895-0.79-5.301-2.196l-4.694-4.695l-4.696,4.695
	c-1.405,1.406-3.312,2.196-5.3,2.196H7.496c-4.14,0-7.496-3.356-7.496-7.496V156.048c0-4.14,3.356-7.496,7.496-7.496h387.062
	c1.988,0,3.895,0.79,5.301,2.196l4.694,4.695l4.694-4.695c1.406-1.406,3.312-2.196,5.301-2.196h89.955
	c4.14,0,7.496,3.356,7.496,7.496v199.904C512,360.092,508.644,363.448,504.504,363.448z"/>
<path style="fill:#F6BB42;" d="M504.504,148.552h-89.955c-1.988,0-3.894,0.79-5.301,2.196l-4.694,4.695l-0.001-0.001v201.116
	l4.694,4.695c1.405,1.406,3.313,2.196,5.301,2.196h89.956c4.14,0,7.496-3.356,7.496-7.496V156.048
	C512,151.908,508.644,148.552,504.504,148.552z"/>
<path style="fill:#DCA746;" d="M504.504,148.552h-29.987c4.141,0,7.496,3.356,7.496,7.496v199.904c0,4.14-3.355,7.496-7.496,7.496
	h29.988c4.14,0,7.496-3.356,7.496-7.496V156.048C512,151.908,508.644,148.552,504.504,148.552z"/>
<path style="fill:#ED5565;" d="M504.504,323.469h-89.956c-1.988,0-3.895-0.79-5.301-2.196l-4.694-4.695l-4.696,4.695
	c-1.405,1.406-3.312,2.196-5.3,2.196H7.496c-4.14,0-7.496-3.356-7.496-7.496V116.069c0-4.14,3.356-7.496,7.496-7.496h387.062
	c1.988,0,3.895,0.79,5.301,2.196l4.694,4.695l4.694-4.695c1.406-1.406,3.312-2.196,5.301-2.196h89.955
	c4.14,0,7.496,3.356,7.496,7.496v199.904C512,320.112,508.644,323.469,504.504,323.469z"/>
<path style="fill:#FFCE54;" d="M504.504,108.573h-89.955c-1.988,0-3.894,0.79-5.301,2.196l-4.694,4.695l-0.001-0.001v201.116
	l4.694,4.695c1.405,1.406,3.313,2.196,5.301,2.196h89.956c4.14,0,7.496-3.356,7.496-7.496V116.069
	C512,111.929,508.644,108.573,504.504,108.573z"/>
<path style="fill:#F6BB42;" d="M504.504,108.573h-29.987c4.141,0,7.496,3.356,7.496,7.496v199.904c0,4.14-3.355,7.496-7.496,7.496
	h29.988c4.14,0,7.496-3.356,7.496-7.496V116.069C512,111.929,508.644,108.573,504.504,108.573z"/>
<g>
	<path style="fill:#CE3A50;" d="M404.553,283.486c-4.14,0-7.496-3.356-7.496-7.496V256c0-4.14,3.356-7.496,7.496-7.496
		s7.496,3.356,7.496,7.496v19.99C412.049,280.13,408.693,283.486,404.553,283.486z"/>
	<path style="fill:#CE3A50;" d="M404.553,233.512c-4.14,0-7.496-3.356-7.496-7.496v-19.99c0-4.14,3.356-7.496,7.496-7.496
		s7.496,3.356,7.496,7.496v19.99C412.049,230.156,408.693,233.512,404.553,233.512z"/>
	<path style="fill:#CE3A50;" d="M404.553,183.538c-4.14,0-7.496-3.356-7.496-7.496v-19.99c0-4.14,3.356-7.496,7.496-7.496
		s7.496,3.356,7.496,7.496v19.99C412.049,180.181,408.693,183.538,404.553,183.538z"/>
</g>
<path style="fill:#656D78;" d="M464.524,283.487c-4.141,0-7.496-3.356-7.496-7.496v-119.94c0-4.14,3.355-7.496,7.496-7.496
	c4.141,0,7.496,3.356,7.496,7.496v119.94C472.021,280.131,468.665,283.487,464.524,283.487z"/>
<g>
	<path style="fill:#FFCE54;" d="M67.469,208.526c-15.157,0-27.486-12.33-27.486-27.486c0-15.156,12.33-27.486,27.486-27.486
		c15.156,0,27.486,12.331,27.486,27.486C94.955,196.195,82.624,208.526,67.469,208.526z M67.469,168.546
		c-6.89,0-12.494,5.604-12.494,12.494c0,6.89,5.604,12.494,12.494,12.494s12.494-5.604,12.494-12.494
		C79.963,174.15,74.358,168.546,67.469,168.546z"/>
	<path style="fill:#FFCE54;" d="M137.431,278.489c-15.157,0-27.486-12.33-27.486-27.486c0-15.157,12.33-27.486,27.486-27.486
		s27.486,12.33,27.486,27.486C164.918,266.159,152.588,278.489,137.431,278.489z M137.431,238.509
		c-6.89,0-12.494,5.604-12.494,12.494c0,6.89,5.604,12.494,12.494,12.494c6.89,0,12.494-5.604,12.494-12.494
		C149.925,244.113,144.321,238.509,137.431,238.509z"/>
	<path style="fill:#FFCE54;" d="M47.478,278.488c-1.918,0-3.837-0.732-5.3-2.196c-2.928-2.928-2.928-7.674,0-10.602l109.945-109.944
		c2.927-2.928,7.674-2.928,10.6,0c2.929,2.928,2.929,7.674,0,10.601L52.778,276.292C51.315,277.755,49.396,278.488,47.478,278.488z"
		/>
</g>
<g>
	<path style="fill:#CE3A50;" d="M340.833,193.534H217.396c-4.141,0-7.496-3.356-7.496-7.496s3.355-7.496,7.496-7.496h123.437
		c4.14,0,7.496,3.356,7.496,7.496S344.973,193.534,340.833,193.534z"/>
	<path style="fill:#CE3A50;" d="M340.833,223.519H217.396c-4.141,0-7.496-3.356-7.496-7.496c0-4.14,3.355-7.496,7.496-7.496h123.437
		c4.14,0,7.496,3.356,7.496,7.496C348.33,220.163,344.973,223.519,340.833,223.519z"/>
	<path style="fill:#CE3A50;" d="M280.857,253.504h-63.461c-4.141,0-7.496-3.356-7.496-7.496c0-4.14,3.355-7.496,7.496-7.496h63.461
		c4.14,0,7.496,3.356,7.496,7.496C288.353,250.148,284.997,253.504,280.857,253.504z"/>
</g>
<g>
</g>
<g>
</g>
<g>
</g>
<g>
</g>
<g>
</g>
<g>
</g>
<g>
</g>
<g>
</g>
<g>
</g>
<g>
</g>
<g>
</g>
<g>
</g>
<g>
</g>
<g>
</g>
<g>
</g>
</svg>
