<?xml version="1.0" encoding="iso-8859-1"?>
<!-- Generator: Adobe Illustrator 19.0.0, SVG Export Plug-In . SVG Version: 6.00 Build 0)  -->
<svg version="1.1" id="Capa_1" xmlns="http://www.w3.org/2000/svg" xmlns:xlink="http://www.w3.org/1999/xlink" x="0px" y="0px"
	 viewBox="0 0 512.001 512.001" style="enable-background:new 0 0 512.001 512.001;" xml:space="preserve">
<path style="fill:#E6E9ED;" d="M334.503,355c-47.412,0-91.986-18.463-125.512-51.988c-33.525-33.526-51.99-78.101-51.99-125.512
	s18.465-91.986,51.99-125.512C242.516,18.463,287.088,0.001,334.5,0c47.412,0,91.986,18.464,125.514,51.99
	c33.523,33.525,51.988,78.099,51.986,125.511c0,47.411-18.463,91.985-51.99,125.51C426.487,336.537,381.913,355,334.503,355z"/>
<path style="fill:#656D78;" d="M205.456,348.973l-42.426-42.426c-2.93-2.928-7.678-2.928-10.607,0.001L10.983,447.986
	c-7.082,7.082-10.984,16.499-10.982,26.516c0,10.016,3.9,19.433,10.984,26.514c7.082,7.083,16.498,10.985,26.516,10.985
	c10.016,0,19.434-3.901,26.518-10.984l141.438-141.438C208.383,356.65,208.383,351.901,205.456,348.973z"/>
<path style="fill:#CCD1D9;" d="M191.04,282.071l-26.242,26.244l38.889,38.889l26.242-26.243
	c-7.359-5.39-14.363-11.375-20.938-17.948C202.417,296.439,196.43,289.433,191.04,282.071z"/>
<path style="fill:#515760;" d="M205.456,348.973l-21.215-21.215c2.928,2.928,2.928,7.678,0,10.606L42.803,479.802
	c-7.086,7.083-16.502,10.984-26.519,10.984c-4.766,0-9.393-0.894-13.701-2.583c1.861,4.744,4.689,9.102,8.402,12.813
	c7.082,7.083,16.498,10.985,26.516,10.985c10.016,0,19.434-3.901,26.518-10.984l141.438-141.438
	C208.383,356.65,208.383,351.901,205.456,348.973z"/>
<path style="fill:#5D9CEC;" d="M334.503,325H334.5C253.168,325,187,258.831,187,177.5c0-81.332,66.168-147.501,147.5-147.501
	C415.831,30,481.999,96.169,482.003,177.5C481.999,258.832,415.831,325,334.503,325z"/>
<path style="fill:#4A89DC;" d="M334.5,30c-5.064,0-10.068,0.257-15.002,0.758C393.809,38.298,451.997,101.232,452,177.5
	c-0.004,76.269-58.191,139.202-132.5,146.742c4.934,0.501,9.938,0.758,15,0.758h0.002c81.328,0,147.496-66.168,147.5-147.5
	C481.999,96.169,415.831,30,334.5,30z"/>
<path style="fill:#FFCE54;" d="M416.979,253.858c0.145-0.028,0.285-0.068,0.426-0.105c0.102-0.026,0.203-0.047,0.301-0.077
	c0.125-0.038,0.246-0.087,0.369-0.131c0.109-0.04,0.223-0.076,0.33-0.121c0.102-0.042,0.195-0.093,0.295-0.139
	c0.123-0.059,0.248-0.113,0.367-0.177c0.082-0.044,0.158-0.097,0.238-0.144c0.129-0.076,0.26-0.15,0.383-0.232
	c0.076-0.051,0.147-0.109,0.219-0.162c0.121-0.088,0.244-0.173,0.357-0.268c0.084-0.068,0.16-0.143,0.24-0.215
	c0.098-0.088,0.199-0.172,0.293-0.265c0.096-0.095,0.184-0.199,0.273-0.3c0.068-0.076,0.143-0.149,0.207-0.228
	c0.104-0.125,0.197-0.257,0.293-0.389c0.045-0.062,0.096-0.121,0.139-0.184c0.096-0.142,0.184-0.291,0.27-0.439
	c0.035-0.059,0.074-0.116,0.107-0.175c0.076-0.14,0.143-0.287,0.211-0.432c0.035-0.075,0.074-0.148,0.107-0.224
	c0.055-0.126,0.098-0.258,0.145-0.387c0.037-0.102,0.078-0.2,0.111-0.303c0.033-0.106,0.057-0.216,0.086-0.324
	c0.035-0.132,0.074-0.263,0.102-0.397c0.02-0.089,0.029-0.182,0.045-0.272c0.025-0.156,0.055-0.312,0.07-0.47
	c0.01-0.089,0.012-0.179,0.018-0.269c0.012-0.163,0.023-0.324,0.025-0.488c-0.002-0.014,0-0.025,0-0.038
	c0-0.111-0.012-0.222-0.016-0.333c-0.006-0.115-0.004-0.23-0.014-0.346l-0.008-0.087v-0.001l-9.992-109.915
	c-0.002-0.013-0.004-0.023-0.006-0.035c-0.016-0.175-0.045-0.346-0.074-0.518c-0.012-0.077-0.02-0.155-0.035-0.231
	c-0.033-0.173-0.078-0.34-0.125-0.51c-0.02-0.072-0.035-0.146-0.057-0.218c-0.047-0.154-0.105-0.304-0.162-0.454
	c-0.029-0.081-0.055-0.165-0.088-0.244c-0.057-0.132-0.121-0.259-0.184-0.388c-0.045-0.091-0.086-0.186-0.133-0.276
	c-0.063-0.115-0.135-0.225-0.201-0.336c-0.059-0.095-0.113-0.193-0.174-0.285c-0.074-0.111-0.158-0.216-0.238-0.323
	c-0.064-0.084-0.123-0.173-0.191-0.255c-0.098-0.119-0.205-0.23-0.309-0.343c-0.057-0.063-0.111-0.129-0.17-0.188
	c-0.131-0.13-0.268-0.252-0.406-0.373c-0.043-0.036-0.08-0.075-0.123-0.11c-0.158-0.132-0.322-0.254-0.492-0.372
	c-0.027-0.02-0.053-0.041-0.08-0.06c-0.17-0.116-0.346-0.222-0.527-0.325c-0.029-0.016-0.057-0.037-0.088-0.053
	c-0.168-0.092-0.342-0.173-0.518-0.253c-0.045-0.021-0.088-0.046-0.135-0.065c-0.15-0.064-0.305-0.118-0.461-0.173
	c-0.076-0.026-0.152-0.059-0.228-0.083c-0.129-0.041-0.26-0.071-0.391-0.104c-0.109-0.029-0.219-0.062-0.33-0.085
	c-0.109-0.023-0.223-0.036-0.332-0.054c-0.137-0.022-0.273-0.048-0.412-0.063c-0.105-0.011-0.215-0.013-0.32-0.02
	c-0.145-0.009-0.289-0.021-0.435-0.022c-0.016-0.001-0.029-0.002-0.043-0.002H265.503c-0.014,0-0.027,0.001-0.039,0.002
	c-0.154,0-0.305,0.013-0.455,0.022c-0.102,0.007-0.205,0.008-0.305,0.019c-0.131,0.014-0.26,0.038-0.391,0.059
	c-0.117,0.02-0.24,0.034-0.357,0.059c-0.082,0.018-0.16,0.043-0.24,0.063c-0.164,0.039-0.326,0.078-0.486,0.129
	c-0.016,0.005-0.031,0.011-0.047,0.016c-1.617,0.526-2.994,1.584-3.92,2.971c-0.012,0.017-0.02,0.035-0.031,0.052
	c-0.121,0.184-0.234,0.372-0.34,0.566c-0.025,0.045-0.043,0.094-0.066,0.14c-0.088,0.17-0.174,0.342-0.246,0.52
	c-0.025,0.057-0.043,0.117-0.066,0.175c-0.064,0.171-0.131,0.343-0.184,0.52c-0.02,0.063-0.033,0.128-0.049,0.192
	c-0.049,0.176-0.098,0.352-0.133,0.534c-0.016,0.071-0.022,0.145-0.033,0.217c-0.029,0.176-0.059,0.353-0.076,0.533
	c0,0.01-0.004,0.021-0.004,0.032l-9.99,109.906c-0.002,0.009-0.002,0.017-0.004,0.026l-0.006,0.071
	c-0.01,0.096-0.008,0.191-0.012,0.286c-0.006,0.132-0.02,0.261-0.02,0.394c0,0.015,0.002,0.029,0.002,0.043
	c0,0.145,0.012,0.288,0.021,0.431c0.008,0.108,0.008,0.218,0.02,0.325c0.016,0.141,0.041,0.279,0.064,0.418
	c0.018,0.108,0.029,0.217,0.053,0.323c0.025,0.119,0.059,0.232,0.09,0.35c0.031,0.124,0.061,0.249,0.098,0.371
	c0.029,0.089,0.064,0.174,0.098,0.263c0.051,0.143,0.1,0.287,0.158,0.425c0.029,0.065,0.063,0.128,0.094,0.193
	c0.072,0.155,0.143,0.311,0.225,0.461c0.029,0.052,0.063,0.1,0.092,0.151c0.092,0.158,0.184,0.314,0.285,0.463
	c0.039,0.056,0.082,0.107,0.121,0.162c0.1,0.139,0.201,0.278,0.311,0.41c0.059,0.073,0.125,0.139,0.188,0.208
	c0.098,0.108,0.191,0.218,0.293,0.32c0.088,0.087,0.182,0.165,0.273,0.248c0.086,0.078,0.17,0.16,0.26,0.233
	c0.107,0.089,0.225,0.17,0.338,0.253c0.08,0.059,0.156,0.121,0.238,0.176c0.117,0.08,0.242,0.149,0.365,0.222
	c0.086,0.051,0.168,0.105,0.256,0.153c0.113,0.061,0.232,0.113,0.35,0.168c0.104,0.05,0.207,0.104,0.313,0.148
	c0.102,0.041,0.207,0.075,0.309,0.113c0.129,0.047,0.258,0.098,0.391,0.139c0.09,0.027,0.184,0.047,0.275,0.071
	c0.15,0.04,0.299,0.081,0.453,0.113c0.094,0.018,0.191,0.028,0.285,0.042c0.154,0.024,0.307,0.051,0.465,0.066
	c0.014,0.002,0.025,0.005,0.039,0.006c0.207,0.019,0.412,0.025,0.615,0.027c0.023,0.001,0.043,0.004,0.064,0.003h0.008l0,0l0,0
	l159.973-0.001c0.006,0,0.01,0.001,0.016,0.001c0.229,0,0.457-0.011,0.688-0.031c0.016-0.001,0.029-0.005,0.043-0.006
	c0.148-0.014,0.291-0.039,0.436-0.063C416.77,253.891,416.875,253.879,416.979,253.858z"/>
<path style="fill:#656D78;" d="M373.003,146.502V116.5c0-20.679-16.822-37.501-37.5-37.501s-37.5,16.823-37.5,37.501v30.002
	c0,4.142,3.357,7.501,7.5,7.5c4.142,0,7.5-3.357,7.5-7.5v-30.003c0-12.406,10.094-22.5,22.5-22.5s22.5,10.093,22.5,22.501v30.002
	c0,4.142,3.357,7.501,7.5,7.5C369.645,154.002,373.003,150.645,373.003,146.502z"/>
<path style="fill:#F6BB42;" d="M422.991,246.172c-0.006-0.115-0.004-0.23-0.014-0.346l-0.008-0.087v-0.001l-9.992-109.915
	c-0.002-0.013-0.004-0.023-0.006-0.035c-0.016-0.175-0.045-0.346-0.074-0.518c-0.012-0.077-0.02-0.155-0.035-0.231
	c-0.033-0.173-0.078-0.34-0.125-0.51c-0.02-0.072-0.035-0.146-0.057-0.218c-0.047-0.154-0.105-0.304-0.162-0.454
	c-0.029-0.081-0.055-0.165-0.088-0.244c-0.057-0.132-0.121-0.259-0.184-0.388c-0.045-0.091-0.086-0.186-0.133-0.276
	c-0.063-0.115-0.135-0.225-0.201-0.336c-0.059-0.095-0.113-0.193-0.174-0.285c-0.074-0.111-0.158-0.216-0.238-0.323
	c-0.064-0.084-0.123-0.173-0.191-0.255c-0.098-0.119-0.205-0.23-0.309-0.343c-0.057-0.063-0.111-0.129-0.17-0.188
	c-0.131-0.13-0.268-0.252-0.406-0.373c-0.043-0.036-0.08-0.075-0.123-0.11c-0.158-0.132-0.322-0.254-0.492-0.372
	c-0.027-0.02-0.053-0.041-0.08-0.06c-0.17-0.116-0.346-0.222-0.527-0.325c-0.029-0.016-0.057-0.037-0.088-0.053
	c-0.168-0.092-0.342-0.173-0.518-0.253c-0.045-0.021-0.088-0.046-0.135-0.065c-0.15-0.064-0.305-0.118-0.461-0.173
	c-0.076-0.026-0.152-0.059-0.228-0.083c-0.129-0.041-0.26-0.071-0.391-0.104c-0.109-0.029-0.219-0.062-0.33-0.085
	c-0.109-0.023-0.223-0.036-0.332-0.054c-0.137-0.022-0.273-0.048-0.412-0.063c-0.105-0.011-0.215-0.013-0.32-0.02
	c-0.145-0.009-0.289-0.021-0.435-0.022c-0.016-0.001-0.029-0.002-0.043-0.002h-30.004c0.016,0,0.029,0.002,0.045,0.002
	c0.145,0.001,0.289,0.013,0.434,0.022c0.107,0.006,0.217,0.008,0.322,0.02c0.139,0.015,0.273,0.04,0.41,0.063
	c0.111,0.018,0.223,0.031,0.332,0.054c0.113,0.023,0.221,0.056,0.332,0.085c0.129,0.033,0.262,0.063,0.389,0.104
	c0.078,0.024,0.152,0.057,0.23,0.083c0.154,0.055,0.311,0.108,0.459,0.173c0.047,0.02,0.092,0.044,0.137,0.065
	c0.176,0.079,0.35,0.161,0.517,0.253c0.029,0.017,0.059,0.037,0.088,0.053c0.18,0.103,0.357,0.208,0.527,0.325
	c0.027,0.019,0.053,0.04,0.08,0.06c0.168,0.118,0.334,0.24,0.492,0.372c0.043,0.035,0.08,0.074,0.121,0.11
	c0.139,0.121,0.277,0.243,0.406,0.373c0.061,0.059,0.113,0.125,0.172,0.188c0.104,0.113,0.211,0.224,0.309,0.343
	c0.066,0.082,0.127,0.17,0.19,0.255c0.08,0.107,0.164,0.211,0.238,0.323c0.063,0.092,0.115,0.19,0.174,0.285
	c0.068,0.112,0.141,0.221,0.201,0.336c0.049,0.09,0.09,0.185,0.133,0.276c0.063,0.129,0.129,0.255,0.184,0.388
	c0.033,0.079,0.059,0.163,0.09,0.244c0.057,0.15,0.115,0.3,0.162,0.454c0.022,0.072,0.037,0.146,0.057,0.218
	c0.045,0.169,0.09,0.337,0.125,0.51c0.016,0.076,0.022,0.154,0.035,0.231c0.029,0.172,0.057,0.342,0.074,0.518
	c0,0.012,0.004,0.023,0.004,0.035l9.992,109.915v0.001l0.008,0.087c0.012,0.116,0.01,0.231,0.016,0.346
	c0.004,0.111,0.016,0.221,0.016,0.333c0,0.013-0.002,0.024-0.002,0.038c0,0.164-0.014,0.325-0.023,0.488
	c-0.008,0.089-0.008,0.18-0.018,0.269c-0.017,0.159-0.045,0.314-0.07,0.47c-0.018,0.09-0.027,0.183-0.045,0.272
	c-0.029,0.135-0.066,0.266-0.102,0.397c-0.029,0.107-0.053,0.218-0.086,0.324c-0.033,0.103-0.076,0.202-0.111,0.303
	c-0.049,0.129-0.092,0.261-0.146,0.387c-0.031,0.076-0.072,0.148-0.107,0.224c-0.066,0.145-0.133,0.292-0.211,0.432
	c-0.033,0.06-0.07,0.116-0.105,0.175c-0.088,0.148-0.174,0.297-0.27,0.439c-0.045,0.063-0.094,0.122-0.139,0.184
	c-0.096,0.131-0.19,0.264-0.293,0.389c-0.066,0.079-0.139,0.152-0.207,0.228c-0.092,0.1-0.18,0.205-0.275,0.3
	c-0.092,0.093-0.193,0.177-0.291,0.265c-0.08,0.072-0.156,0.147-0.24,0.215c-0.115,0.095-0.236,0.18-0.357,0.268
	c-0.074,0.053-0.143,0.111-0.219,0.162c-0.125,0.082-0.254,0.156-0.383,0.232c-0.08,0.047-0.158,0.1-0.238,0.144
	c-0.119,0.064-0.244,0.118-0.367,0.177c-0.1,0.046-0.195,0.097-0.297,0.139c-0.107,0.045-0.219,0.081-0.33,0.121
	c-0.121,0.045-0.242,0.094-0.367,0.131c-0.1,0.03-0.201,0.051-0.301,0.077c-0.142,0.037-0.283,0.077-0.428,0.105
	c-0.102,0.021-0.209,0.032-0.313,0.048c-0.145,0.023-0.289,0.048-0.435,0.063c-0.016,0.001-0.027,0.005-0.043,0.006
	c-0.225,0.02-0.447,0.03-0.67,0.03h29.969c0.006,0,0.01,0.001,0.016,0.001c0.229,0,0.457-0.011,0.688-0.031
	c0.016-0.001,0.029-0.005,0.043-0.006c0.148-0.014,0.291-0.039,0.436-0.063c0.105-0.016,0.211-0.027,0.314-0.048
	c0.145-0.028,0.285-0.068,0.426-0.105c0.102-0.026,0.203-0.047,0.301-0.077c0.125-0.038,0.246-0.087,0.369-0.131
	c0.109-0.04,0.223-0.076,0.33-0.121c0.102-0.042,0.195-0.093,0.295-0.139c0.123-0.059,0.248-0.113,0.367-0.177
	c0.082-0.044,0.158-0.097,0.238-0.144c0.129-0.076,0.26-0.15,0.383-0.232c0.076-0.051,0.147-0.109,0.219-0.162
	c0.121-0.088,0.244-0.173,0.357-0.268c0.084-0.068,0.16-0.143,0.24-0.215c0.098-0.088,0.199-0.172,0.293-0.265
	c0.096-0.095,0.184-0.199,0.273-0.3c0.068-0.076,0.143-0.149,0.207-0.228c0.104-0.125,0.197-0.257,0.293-0.389
	c0.045-0.062,0.096-0.121,0.139-0.184c0.096-0.142,0.184-0.291,0.27-0.439c0.035-0.059,0.074-0.116,0.107-0.175
	c0.076-0.14,0.143-0.287,0.211-0.432c0.035-0.075,0.074-0.148,0.107-0.224c0.055-0.126,0.098-0.258,0.145-0.387
	c0.037-0.102,0.078-0.2,0.111-0.303c0.033-0.106,0.057-0.216,0.086-0.324c0.035-0.132,0.074-0.263,0.102-0.397
	c0.02-0.089,0.029-0.182,0.045-0.272c0.025-0.156,0.055-0.312,0.07-0.47c0.01-0.089,0.012-0.179,0.018-0.269
	c0.012-0.163,0.023-0.324,0.025-0.488c-0.002-0.014,0-0.025,0-0.038C423.006,246.394,422.995,246.283,422.991,246.172z"/>
<g>
</g>
<g>
</g>
<g>
</g>
<g>
</g>
<g>
</g>
<g>
</g>
<g>
</g>
<g>
</g>
<g>
</g>
<g>
</g>
<g>
</g>
<g>
</g>
<g>
</g>
<g>
</g>
<g>
</g>
</svg>
