<?xml version="1.0" encoding="iso-8859-1"?>
<!-- Generator: Adobe Illustrator 19.0.0, SVG Export Plug-In . SVG Version: 6.00 Build 0)  -->
<svg version="1.1" id="Capa_1" xmlns="http://www.w3.org/2000/svg" xmlns:xlink="http://www.w3.org/1999/xlink" x="0px" y="0px"
	 viewBox="0 0 512 512" style="enable-background:new 0 0 512 512;" xml:space="preserve">
<path style="fill:#BF2E4A;" d="M461,512h-90.004c-4.143,0-7.5-3.358-7.5-7.5V127.504c0-4.142,3.357-7.5,7.5-7.5H461
	c4.143,0,7.5,3.358,7.5,7.5V504.5C468.5,508.642,465.143,512,461,512z"/>
<path style="fill:#CE3A50;" d="M423.498,120.004h-50.002c-4.143,0-7.5,3.358-7.5,7.5V504.5c0,4.142,3.357,7.5,7.5,7.5h50.002
	V120.004z"/>
<path style="fill:#A82645;" d="M461,512c2.078,0,3.959-0.846,5.316-2.211l-37.515-37.517c-0.669-0.669-1.435-1.177-2.251-1.541
	c-0.076-0.034-0.152-0.075-0.23-0.107c-0.586-0.237-1.196-0.39-1.814-0.473c-0.334-0.045-0.67-0.076-1.008-0.076
	c-0.064,0-0.131,0.008-0.195,0.009c-0.414,0.011-0.828,0.049-1.236,0.128c-0.053,0.01-0.104,0.027-0.156,0.038
	c-0.654,0.141-1.295,0.365-1.899,0.683c-0.067,0.035-0.13,0.079-0.196,0.116c-0.579,0.327-1.127,0.729-1.619,1.222L378.469,512H461z
	"/>
<path style="fill:#ED5565;" d="M51,120.004c-4.143,0-7.5,3.358-7.5,7.5V504.5c0,4.142,3.357,7.5,7.5,7.5h327.496V120.004H51z"/>
<path style="fill:#CCD1D9;" d="M238.506,120.004V67.501c0-28.949,23.553-52.501,52.502-52.501c28.939,0,52.486,23.538,52.5,52.475
	c0,0.009-0.002,0.017-0.002,0.026v52.503h15V67.54c0-0.013,0.002-0.025,0.002-0.039c0-37.22-30.28-67.501-67.5-67.501
	c-37.221,0-67.502,30.281-67.502,67.501v52.503H238.506z"/>
<path style="fill:#E6E9ED;" d="M278.5,67.501C278.5,30.281,248.22,0,211,0c-37.221,0-67.502,30.281-67.502,67.501v110.003
	c0,4.142,3.358,7.5,7.5,7.5c4.143,0,7.5-3.358,7.5-7.5V67.501C158.498,38.552,182.051,15,211,15c28.939,0,52.486,23.538,52.5,52.475
	c0,0.009-0.002,0.017-0.002,0.026v110.003c0,4.142,3.358,7.5,7.5,7.5c4.143,0,7.5-3.358,7.5-7.5V67.54
	C278.498,67.526,278.5,67.515,278.5,67.501z"/>
<rect x="348.5" y="120" style="fill:#DA4453;" width="29.999" height="392"/>
<g>
</g>
<g>
</g>
<g>
</g>
<g>
</g>
<g>
</g>
<g>
</g>
<g>
</g>
<g>
</g>
<g>
</g>
<g>
</g>
<g>
</g>
<g>
</g>
<g>
</g>
<g>
</g>
<g>
</g>
</svg>
